<svg xmlns:xlink="http://www.w3.org/1999/xlink"  xmlns="http://www.w3.org/2000/svg" id="Capa_1" height="512" viewBox="0 0 512 512" width="512"><g><path d="m0 0v512h512v-59.843h-15.035v44.802h-84.271v-84.411h84.271v24.568h15.035c0-140.972 0-295.979 0-437.116 0 0-379.551 0-512 0zm313.279 15.041h84.271v84.411h-84.271zm-99.415 0h84.379v84.411h-84.379zm-99.414 0h84.379v84.411h-84.379c0-.147 0-84.203 0-84.411zm-99.415 0h84.379v84.111h-84.379zm0 99.452h84.379v84.111h-84.379zm0 198.603h84.379v84.411h-84.379zm84.38 183.863h-84.38v-84.411h84.379v84.411zm99.414 0h-84.379v-84.411h84.379zm99.415 0h-84.379v-84.411h84.379zm0-99.452c-49.431 0-134.373 0-183.794 0 0-35.796 0-105.853 0-140.883h-15.035v41.431h-84.38v-84.411h84.379v27.939h15.035c0-28.186 0-97.961 0-127.091h283.1v283.015c-10.652 0-90.987 0-99.305 0zm15.035 99.452v-84.411h84.271v84.411zm183.686-99.452c-.014 0-84.347 0-84.379 0v-84.411h84.379zm0-99.452h-84.379v-84.411h84.379zm0-99.451h-84.379v-84.111h84.379zm-84.271-99.452v-84.111h84.271v84.111z"></path><path d="m56.665 31.49c-35.237.926-35.23 52.544.001 53.465 35.237-.927 35.229-52.544-.001-53.465zm0 38.424c-15.411-.405-15.408-22.98 0-23.383 15.411.405 15.408 22.98 0 23.383z"></path><path d="m454.775 31.49c-35.237.926-35.229 52.544.001 53.465 35.236-.927 35.229-52.544-.001-53.465zm0 38.424c-15.41-.405-15.407-22.98 0-23.383 15.411.405 15.408 22.98 0 23.383z"></path><path d="m428.053 455.757c.926 35.251 52.524 35.243 53.445-.001-.926-35.249-52.524-35.243-53.445.001zm38.409 0c-.405 15.417-22.971 15.414-23.374 0 .405-15.417 22.972-15.414 23.374 0z"></path><path d="m56.665 482.489c35.237-.926 35.23-52.544-.001-53.465-35.236.927-35.229 52.544.001 53.465zm0-38.424c15.411.405 15.408 22.98 0 23.383-15.411-.405-15.408-22.98 0-23.383z"></path><path d="m383.616 207.096-34.822-34.835-10.631 10.636 24.19 24.199-31.894 31.907-53.159-53.178 31.895-31.907 17.772 17.778 10.631-10.635-28.403-28.414-53.158 53.178 74.422 74.449z"></path><path d="m132.363 309.545 74.421 74.449 53.158-53.178-74.421-74.449zm74.421 53.178-53.158-53.178 31.895-31.907 53.158 53.178z"></path><path d="m128.494 128.775h15.035v15.041h-15.035z"></path><path d="m158.564 128.775h15.035v15.041h-15.035z"></path><path d="m229.199 31.49h15.035v15.041h-15.035z"></path><path d="m428.198 228.622h15.035v15.041h-15.035z"></path><path d="m29.943 327.819h15.035v15.041h-15.035z"></path></g></svg>