<svg xmlns:xlink="http://www.w3.org/1999/xlink"  xmlns="http://www.w3.org/2000/svg" id="Line" height="512" viewBox="0 0 64 64" width="512"><g fill="rgb(0,0,0)"><path d="m51.30469 4h-38.605a3.817 3.817 0 0 0 -3.8125 3.8125s.02692 48.33714-.00008 48.375a3.81715 3.81715 0 0 0 3.8126 3.8125h38.605a3.81672 3.81672 0 0 0 3.8125-3.8125v-48.375a3.81672 3.81672 0 0 0 -3.81252-3.8125zm1.8125 3.8125v7.1875h-20.11963v-9h18.30713a1.81475 1.81475 0 0 1 1.8125 1.8125zm-40.41748-1.8125h18.29785v9h-20.11035v-7.1875a1.81443 1.81443 0 0 1 1.8125-1.8125zm38.605 52h-38.605a1.81443 1.81443 0 0 1 -1.8125-1.8125v-39.1875h42.23v39.1875a1.81475 1.81475 0 0 1 -1.81252 1.8125z"></path><path d="m32.00244 19.78271a17.73753 17.73753 0 0 0 -17.71777 17.71729c.97314 23.50413 34.46537 23.4978 35.43509-.00013a17.73745 17.73745 0 0 0 -17.71732-17.71716zm0 33.43458a15.73524 15.73524 0 0 1 -15.71777-15.71729c.86328-20.85087 30.57483-20.84531 31.43509.00012a15.73516 15.73516 0 0 1 -15.71732 15.71717z"></path><path d="m32.00244 24.84326a12.671 12.671 0 0 0 -12.65674 12.65674c.69516 16.7909 24.62088 16.786 25.3135-.0001a12.671 12.671 0 0 0 -12.65676-12.65664zm0 23.31348a10.669 10.669 0 0 1 -10.65674-10.65674c.58561-14.13762 20.73033-14.13348 21.3135.00008a10.66872 10.66872 0 0 1 -10.65676 10.65666z"></path><path d="m15.57861 13.47607h10.73194a2.4621 2.4621 0 0 0 2.45947-2.459v-1.0742a2.46251 2.46251 0 0 0 -2.45947-2.45947h-10.73194a2.46251 2.46251 0 0 0 -2.45947 2.45947v1.07422a2.4621 2.4621 0 0 0 2.45947 2.45898zm-.45947-3.5332a.45991.45991 0 0 1 .45947-.45947h10.73194c.6969.01323.40008 1.05118.4595 1.5337a.45985.45985 0 0 1 -.4595.459h-10.73194c-.69696-.01329-.40006-1.05071-.45947-1.53323z"></path><path d="m38.60938 13.93848a3.41842 3.41842 0 0 0 -.00011-6.83643 3.41842 3.41842 0 0 0 .00011 6.83643zm0-4.83643a1.41835 1.41835 0 0 1 -.00007 2.83642 1.41835 1.41835 0 0 1 .00007-2.83642z"></path><path d="m47.50977 13.898a3.41843 3.41843 0 0 0 -.00011-6.83643 3.41843 3.41843 0 0 0 .00011 6.83643zm0-4.83643a1.41837 1.41837 0 0 1 -.00007 2.83643 1.41837 1.41837 0 0 1 .00007-2.83648z"></path></g></svg>