<svg xmlns:xlink="http://www.w3.org/1999/xlink"  xmlns="http://www.w3.org/2000/svg" id="Ebene_2" viewBox="0 0 56 48"><defs><style>.cls-1{stroke-linecap:round;}.cls-1,.cls-2{fill:none;stroke:#424242;stroke-linejoin:round;stroke-width:2px;}</style></defs><g id="Icons"><g id="SPA_Utilities"><path class="cls-2" d="m10,43H1v-19.54c0-4.53,2.68-8.64,6.83-10.46h8.34c4.15,1.82,6.83,5.93,6.83,10.46v12.54"></path><polyline class="cls-1" points="16 12.95 16 9 8 9 8 13"></polyline><line class="cls-1" x1="12" y1="9" x2="12" y2="3"></line><polyline class="cls-1" points="8 3 15 3 19 1 23 1"></polyline><path class="cls-2" d="m34,43h9v-18c0-2.21-1.79-4-4-4h-8c-2.21,0-4,1.79-4,4v11"></path><line class="cls-2" x1="31" y1="25" x2="31" y2="29"></line><polyline class="cls-2" points="46 39 51 39 51 43 46 43"></polyline><path class="cls-2" d="m35.63,14.08l-.63-11.08h20l-1.87,32.77c-.08,1.38-.89,2.61-2.13,3.23"></path><polyline class="cls-1" points="39 21 39 17 31 17 31 21"></polyline><line class="cls-1" x1="54.77" y1="7" x2="35.23" y2="7"></line><rect class="cls-1" x="13" y="39" width="18" height="8"></rect><rect class="cls-2" x="6" y="23" width="12" height="6"></rect></g></g></svg>