<svg xmlns:xlink="http://www.w3.org/1999/xlink"  xmlns="http://www.w3.org/2000/svg" id="Layer_3" data-name="Layer 3" viewBox="0 0 64 64" width="512" height="512"><path d="M49.952,43.808,39,41.374V39.282a14.046,14.046,0,0,0,6.41-8.106h.09a4.488,4.488,0,0,0,.5-8.949V20.992a2.99,2.99,0,0,0,.169-5.578l1.812-9.221A1,1,0,0,0,47,5H45.211A22.738,22.738,0,0,1,32.555,1.168a1,1,0,0,0-1.11,0A22.738,22.738,0,0,1,18.789,5H17a1,1,0,0,0-.981,1.193l1.812,9.221A2.99,2.99,0,0,0,18,20.992v1.235a4.488,4.488,0,0,0,.5,8.949h.09A14.046,14.046,0,0,0,25,39.282v2.092L14.048,43.808A8.944,8.944,0,0,0,7,52.593V62a1,1,0,0,0,1,1H56a1,1,0,0,0,1-1V52.593A8.944,8.944,0,0,0,49.952,43.808ZM54.493,50H54a6.006,6.006,0,0,1-5.812-4.535l1.331.295A6.944,6.944,0,0,1,54.493,50ZM40.432,43.741l-3.814,6.747L33.45,47.964l4.725-4.725ZM31.781,55h.438l1.5,6H30.281Zm.684-2h-.93l-1.451-2.177,1.872-1.492,1.93,1.537ZM48,26.676a2.5,2.5,0,0,1-2.154,2.465A13.99,13.99,0,0,0,46,27.176V24.227A2.5,2.5,0,0,1,48,26.676Zm-3-7.5H19a1,1,0,0,1,0-2H45a1,1,0,0,1,0,2Zm-2.481,2a15.831,15.831,0,0,1-21.038,0ZM18.789,7A24.719,24.719,0,0,0,32,3.191,24.719,24.719,0,0,0,45.211,7h.573l-1.607,8.176H19.823L18.216,7ZM16,26.676a2.5,2.5,0,0,1,2-2.449v2.949a13.99,13.99,0,0,0,.154,1.965A2.5,2.5,0,0,1,16,26.676Zm4,.5V22.529a17.817,17.817,0,0,0,24,0v4.647a12,12,0,0,1-24,0Zm12,14a13.894,13.894,0,0,0,5-.939v1.349l-5.088,5.088L27,41.762V40.237A13.894,13.894,0,0,0,32,41.176Zm-6.319,2.095L30.413,48,27.3,50.482l-3.744-6.739Zm-11.2,2.489,1.331-.295A6.006,6.006,0,0,1,10,50H9.507A6.944,6.944,0,0,1,14.481,45.76ZM9,52.593c0-.2.034-.4.05-.593H10a8.008,8.008,0,0,0,7.932-7.006l3.589-.8,4.605,8.29a1,1,0,0,0,.68.5A.974.974,0,0,0,27,53a1,1,0,0,0,.623-.218l.891-.709,1.408,2.113L28.219,61H18V54H16v7H9ZM55,61H48V54H46v7H35.781l-1.7-6.814,1.378-2.067.833.663a1,1,0,0,0,.623.218.945.945,0,0,0,.191-.019,1,1,0,0,0,.68-.489l4.691-8.3,3.594.8A8.008,8.008,0,0,0,54,52h.95c.016.2.05.391.05.593Z"></path><path d="M30.236,13.236l1.317.659a1,1,0,0,0,.894,0l1.317-.659A5.822,5.822,0,0,0,37,8a1,1,0,0,0-1-1,3.8,3.8,0,0,1-2.707-1.121l-.586-.586a1,1,0,0,0-1.414,0l-.586.586A3.8,3.8,0,0,1,28,7a1,1,0,0,0-1,1A5.822,5.822,0,0,0,30.236,13.236ZM32,7.411A5.778,5.778,0,0,0,34.9,8.9a3.83,3.83,0,0,1-2.026,2.551l-.87.435-.87-.435A3.83,3.83,0,0,1,29.1,8.9,5.778,5.778,0,0,0,32,7.411Z"></path></svg>