<svg xmlns:xlink="http://www.w3.org/1999/xlink"  xmlns="http://www.w3.org/2000/svg" id="Ebene_2" viewBox="0 0 34 48"><defs><style>.cls-1{stroke-linecap:round;}.cls-1,.cls-2{fill:none;stroke:#424242;stroke-linejoin:round;stroke-width:2px;}</style></defs><g id="Icons"><g id="Slippers"><polyline class="cls-1" points="16.96 39 16.89 39.18 14 47 9 47 11.96 39"></polyline><polyline class="cls-1" points="13.43 35 14.39 32.41 16.89 25.65"></polyline><path class="cls-1" d="m18.43,35l.96-2.59L28.78,7l-4.06-5.09h-.01c-.03-.05-.06-.08-.09-.12"></path><path class="cls-1" d="m23.78,7l-6.89,18.65L10,7l-1.17-3.17c-.03-.07-.05-.14-.07-.21-.15-.59-.04-1.22.31-1.72l.08-.11c.4-.5,1.01-.79,1.65-.79h12.18c.64,0,1.25.29,1.64.79.03.04.06.07.09.11h.01c.34.51.45,1.13.3,1.72-.02.07-.04.14-.07.21l-1.17,3.17"></path><line class="cls-1" x1="14.39" y1="32.41" x2="5" y2="7"></line><line class="cls-1" x1="5" y1="7" x2="9.15" y2="1.79"></line><line class="cls-1" x1="20" y1="7" x2="14" y2="7"></line><path class="cls-2" d="m5,7c-2.21,0-4,1.79-4,4v32c0,2.21,1.79,4,4,4h23.43c2.51,0,4.57-2.06,4.57-4.57V11c0-2.21-1.79-4-4-4h-.22"></path><line class="cls-2" x1="32.42" y1="35" x2="1" y2="35"></line><line class="cls-2" x1="32.42" y1="39" x2="1" y2="39"></line></g></g></svg>