<svg xmlns:xlink="http://www.w3.org/1999/xlink"  xmlns="http://www.w3.org/2000/svg" id="Capa_1" height="512" viewBox="0 0 511.563 511.563" width="512"><g><path d="m490.569 208.13h-184.185c-4.142 0-7.5 3.357-7.5 7.5s3.358 7.5 7.5 7.5h184.186c3.305 0 5.993 2.688 5.993 5.993v7.008c0 3.305-2.688 5.993-5.993 5.993h-40.878c-4.142 0-7.5 3.357-7.5 7.5s3.358 7.5 7.5 7.5h34.02v31.394c0 90.648-73.748 164.396-164.396 164.396h-126.069c-90.648 0-164.396-73.747-164.396-164.396v-31.394h93.861c4.142 0 7.5-3.357 7.5-7.5s-3.358-7.5-7.5-7.5h-101.719c-3.305 0-5.993-2.688-5.993-5.993v-7.008c0-3.305 2.688-5.993 5.993-5.993h101.998c4.142 0 7.5-3.357 7.5-7.5s-3.358-7.5-7.5-7.5h-35.158v-21.812c0-6.473-3.317-12.183-8.337-15.53v-71.642c0-2.872 1.145-5.557 3.225-7.559 2.077-2 4.799-3.053 7.684-2.931 5.562.21 10.086 5.113 10.086 10.931v38.817c0 6.622 5.387 12.009 12.009 12.009h20.982c6.622 0 12.009-5.387 12.009-12.009v-39.258c0-15.003-5.913-29.067-16.648-39.602-10.732-10.529-24.888-16.144-39.92-15.886-30.011.57-54.427 25.823-54.427 56.293v8.421c0 4.143 3.358 7.5 7.5 7.5s7.5-3.357 7.5-7.5v-8.421c0-22.354 17.815-40.88 39.712-41.295.264-.006.527-.008.791-.008 10.657 0 20.694 4.103 28.338 11.604 7.837 7.69 12.154 17.952 12.154 28.895v36.268h-15v-35.827c0-14.015-10.771-25.4-24.52-25.92-6.991-.26-13.615 2.263-18.655 7.114-5.043 4.856-7.821 11.378-7.821 18.364v68.514h-15v-27.326c0-4.143-3.358-7.5-7.5-7.5s-7.5 3.357-7.5 7.5v29.752c-5.658 3.208-9.491 9.276-9.491 16.232v21.812h-4.011c-11.576 0-20.993 9.418-20.993 20.993v7.008c0 9.065 5.787 16.784 13.852 19.716v32.671c0 21.886 3.946 42.865 11.153 62.273v102.122h-5.712c-4.142 0-7.5 3.357-7.5 7.5s3.358 7.5 7.5 7.5h173.955 126.068 149.951c4.142 0 7.5-3.357 7.5-7.5s-3.358-7.5-7.5-7.5h-78.181c63.294-27.739 107.625-90.983 107.625-164.396v-33.037c7.544-3.186 12.852-10.659 12.852-19.349v-7.008c0-11.576-9.418-20.993-20.994-20.993zm-450.565-21.812c0-2.018 1.642-3.658 3.659-3.658h25.51c2.018 0 3.659 1.641 3.659 3.658v21.812h-32.828zm0 195.383c9.008 14.759 20.086 28.122 32.829 39.681v31.531h-32.829zm47.829 71.212v-19.333c10.426 7.597 21.696 14.097 33.644 19.333z"></path><path d="m417.729 257.124c4.142 0 7.5-3.357 7.5-7.5s-3.358-7.5-7.5-7.5h-111.067c-4.142 0-7.5 3.357-7.5 7.5s3.358 7.5 7.5 7.5z"></path><path d="m145.212 416.431c0 5.919 4.815 10.734 10.734 10.734h117.481c5.919 0 10.734-4.815 10.734-10.734v-98.332c0-4.143-3.358-7.5-7.5-7.5s-7.5 3.357-7.5 7.5v29.37h-108.95v-126.978c0-3.337 2.714-6.051 6.051-6.051h96.848c3.336 0 6.051 2.714 6.051 6.051v65.646c0 4.143 3.358 7.5 7.5 7.5s7.5-3.357 7.5-7.5v-65.646c0-11.607-9.443-21.051-21.051-21.051h-96.848c-11.607 0-21.051 9.443-21.051 21.051v195.94zm15-4.265v-21.053h108.95v21.053zm108.95-49.696v13.644h-108.95v-13.644z"></path></g></svg>