<svg xmlns:xlink="http://www.w3.org/1999/xlink"  xmlns="http://www.w3.org/2000/svg" id="Ebene_2" viewBox="0 0 56 49"><defs><style>.cls-1{stroke-linecap:round;}.cls-1,.cls-2{fill:none;stroke:#424242;stroke-linejoin:round;stroke-width:2px;}</style></defs><g id="Icons"><g id="Hairdryer"><polygon class="cls-2" points="11 18 22 15 22 5 11 2 11 18"></polygon><line class="cls-2" x1="51" y1="17.73" x2="51" y2="2.27"></line><path class="cls-2" d="m22,5c5.42,0,16-4,22-4,8,0,11,4,11,4v10s-1.71,2.29-6,3.4c-1.76.46-3,2.05-3,3.87v3.05c0,3.11-.43,6.19-1.29,9.18-.42,1.48-1.77,2.5-3.31,2.5h-.98c-1.06,0-2.07-.49-2.72-1.33-.66-.83-.89-1.92-.63-2.96.62-2.46.93-5,.93-7.54v-3.76c0-1.85-1.27-3.46-3.07-3.89-4.77-1.14-9.74-2.52-12.93-2.52"></path><line class="cls-2" x1="41" y1="37" x2="41" y2="49"></line><polyline class="cls-2" points="38 23 36 23 36 25 38 25"></polyline><polyline class="cls-2" points="37.45 31 36 31 36 29 37.77 29"></polyline><path class="cls-1" d="m1,5.49c2.57-1.71,3.57,1.76,6,0"></path><path class="cls-1" d="m1,10.49c2.57-1.71,3.57,1.76,6,0"></path><path class="cls-1" d="m1,15.49c2.57-1.71,3.57,1.76,6,0"></path></g></g></svg>