<svg xmlns:xlink="http://www.w3.org/1999/xlink"  xmlns="http://www.w3.org/2000/svg" id="Ebene_2" viewBox="0 0 35.53 33.16"><defs><style>.cls-1{fill:none;stroke:#424242;stroke-linecap:round;stroke-linejoin:round;stroke-width:2.37px;}</style></defs><g id="Icons"><path class="cls-1" d="m26.51,1.18c-3.19,0-6.38,2.65-6.38,11.4,0,12.08.64,19.39,7.56,19.39,5.37,0,6.65-7.11,6.65-20.53,0-5.63-3.01-10.26-7.83-10.26Z"></path><path class="cls-1" d="m20.45,8.29c1.97-1.59,4.35-2.36,6.74-2.37,2.41,0,4.83.76,6.82,2.37"></path><path class="cls-1" d="m20.17,16.58c2.1-1.52,4.58-2.37,7.05-2.37s4.95.85,7.05,2.37"></path><path class="cls-1" d="m9.02,1.18c3.19,0,6.38,2.65,6.38,11.4,0,12.08-.64,19.39-7.56,19.39-5.37,0-6.65-7.11-6.65-20.53C1.18,5.82,4.19,1.18,9.02,1.18Z"></path><path class="cls-1" d="m15.08,8.29c-1.97-1.59-4.35-2.36-6.74-2.37-2.41,0-4.83.76-6.82,2.37"></path><path class="cls-1" d="m15.36,16.58c-2.1-1.52-4.58-2.37-7.05-2.37s-4.95.85-7.05,2.37"></path></g></svg>