<svg xmlns="http://www.w3.org/2000/svg" xmlns:xlink="http://www.w3.org/1999/xlink" id="Capa_1" x="0px" y="0px" viewBox="0 0 512 512" style="enable-background:new 0 0 512 512;" xml:space="preserve"><g>	<g>		<path d="M415.807,127.742V31.548C415.807,14.152,401.654,0,384.258,0H127.742c-17.396,0-31.548,14.152-31.548,31.548v96.193    c0,11.677,6.382,21.885,15.836,27.34c-4.863,5.552-7.82,12.813-7.82,20.757V360.21C104.208,443.907,172.302,512,256,512    s151.791-68.093,151.791-151.79V175.839c0-7.943-2.957-15.205-7.82-20.757C409.424,149.627,415.807,139.419,415.807,127.742z     M256,497c-75.427,0-136.791-61.364-136.791-136.79V175.839c0-9.125,7.424-16.548,16.549-16.548h16.548v17.064h-0.516    c-8.556,0-15.516,6.96-15.516,15.516V360.21c0,27.157,9.343,53.753,26.309,74.891c1.482,1.846,3.658,2.806,5.854,2.806    c1.647,0,3.305-0.541,4.69-1.651c3.23-2.593,3.747-7.313,1.154-10.544c-15.052-18.752-23.007-41.402-23.007-65.501v-168.34    c0-0.285,0.231-0.516,0.516-0.516h208.419c0.285,0,0.516,0.231,0.516,0.516v8.013c0,4.142,3.358,7.5,7.5,7.5    c4.142,0,7.5-3.358,7.5-7.5v-8.013c0-8.556-6.96-15.516-15.516-15.516h-0.516v-17.064h16.548c9.125,0,16.549,7.423,16.549,16.548    V360.21h0.001C392.791,435.636,331.427,497,256,497z M167.307,176.355v-17.064h17.064v17.064H167.307z M199.371,176.355v-17.064    h113.258v17.064H199.371z M327.629,176.355v-17.064h17.064v17.064H327.629z M400.807,127.742c0,9.125-7.423,16.549-16.548,16.549    H127.742c-9.125,0-16.548-7.424-16.548-16.549V31.548c0-9.125,7.423-16.548,16.548-16.548h256.517    c9.125,0,16.548,7.423,16.548,16.548V127.742z"></path>	</g></g><g>	<g>		<path d="M368.226,224.455c-4.142,0-7.5,3.358-7.5,7.5V360.21c0,57.746-46.979,104.726-104.726,104.726    c-21.549,0-42.244-6.492-59.847-18.773c-3.397-2.369-8.071-1.538-10.442,1.859c-2.37,3.397-1.538,8.072,1.859,10.442    c20.133,14.046,43.796,21.471,68.43,21.471c66.017,0,119.726-53.708,119.726-119.726V231.955    C375.726,227.813,372.368,224.455,368.226,224.455z"></path>	</g></g><g>	<g>		<path d="M288.064,56.113h-64.129c-12.976,0-23.532,10.557-23.532,23.532c0,12.975,10.557,23.532,23.532,23.532h64.129    c12.976,0,23.532-10.557,23.532-23.532C311.596,66.67,301.04,56.113,288.064,56.113z M240.483,88.177h-16.548    c-4.704,0-8.532-3.827-8.532-8.532c0-4.705,3.828-8.532,8.532-8.532h16.548V88.177z M288.064,88.177h-32.581V71.113h32.581    c4.705,0,8.532,3.828,8.532,8.532C296.596,84.349,292.769,88.177,288.064,88.177z"></path>	</g></g><g></g><g></g><g></g><g></g><g></g><g></g><g></g><g></g><g></g><g></g><g></g><g></g><g></g><g></g><g></g></svg>