<svg xmlns:xlink="http://www.w3.org/1999/xlink"  xmlns="http://www.w3.org/2000/svg" id="Ebene_2" viewBox="0 0 46 53"><defs><style>.cls-1{fill:#424242;}.cls-2{fill:none;stroke:#424242;stroke-linejoin:round;stroke-width:2px;}</style></defs><g id="Icons"><g id="Shower"><rect class="cls-2" x="26" y="11" width="8" height="5"></rect><path class="cls-2" d="m34,16h2c4.42,0,8,3.58,8,8h-28c0-4.42,3.58-8,8-8h2"></path><path class="cls-2" d="m28,11v-2c0-2.21-1.79-4-4-4H0"></path><path class="cls-2" d="m0,1h24c4.41,0,8,3.59,8,8v2"></path><circle class="cls-1" cx="30" cy="28" r="1"></circle><circle class="cls-1" cx="35" cy="28" r="1"></circle><circle class="cls-1" cx="25" cy="28" r="1"></circle><circle class="cls-1" cx="35.5" cy="32" r="1"></circle><circle class="cls-1" cx="24.5" cy="32" r="1"></circle><circle class="cls-1" cx="36" cy="36" r="1"></circle><circle class="cls-1" cx="24" cy="36" r="1"></circle><circle class="cls-1" cx="36.5" cy="40" r="1"></circle><circle class="cls-1" cx="23.5" cy="40" r="1"></circle><circle class="cls-1" cx="37" cy="44" r="1"></circle><circle class="cls-1" cx="23" cy="44" r="1"></circle><circle class="cls-1" cx="37.5" cy="48" r="1"></circle><circle class="cls-1" cx="22.5" cy="48" r="1"></circle><circle class="cls-1" cx="38" cy="52" r="1"></circle><circle class="cls-1" cx="22" cy="52" r="1"></circle><circle class="cls-1" cx="40" cy="28" r="1"></circle><path class="cls-1" d="m41.83,32c0-.55-.45-1-1-1s-1,.45-1,1,.45,1,1,1,1-.45,1-1Z"></path><path class="cls-1" d="m42.67,36c0-.55-.45-1-1-1s-1,.45-1,1,.45,1,1,1,1-.45,1-1Z"></path><circle class="cls-1" cx="42.5" cy="40" r="1"></circle><path class="cls-1" d="m44.33,44c0-.55-.45-1-1-1s-1,.45-1,1,.45,1,1,1,1-.45,1-1Z"></path><path class="cls-1" d="m45.17,48c0-.55-.45-1-1-1s-1,.45-1,1,.45,1,1,1,1-.45,1-1Z"></path><circle class="cls-1" cx="45" cy="52" r="1"></circle><circle class="cls-1" cx="20" cy="28" r="1"></circle><path class="cls-1" d="m18.17,32c0-.55.45-1,1-1s1,.45,1,1-.45,1-1,1-1-.45-1-1Z"></path><path class="cls-1" d="m17.33,36c0-.55.45-1,1-1s1,.45,1,1-.45,1-1,1-1-.45-1-1Z"></path><circle class="cls-1" cx="17.5" cy="40" r="1"></circle><path class="cls-1" d="m15.67,44c0-.55.45-1,1-1s1,.45,1,1-.45,1-1,1-1-.45-1-1Z"></path><path class="cls-1" d="m14.83,48c0-.55.45-1,1-1s1,.45,1,1-.45,1-1,1-1-.45-1-1Z"></path><circle class="cls-1" cx="15" cy="52" r="1"></circle><circle class="cls-1" cx="30" cy="32" r="1"></circle><circle class="cls-1" cx="30" cy="36" r="1"></circle><circle class="cls-1" cx="30" cy="40" r="1"></circle><circle class="cls-1" cx="30" cy="44" r="1"></circle><circle class="cls-1" cx="30" cy="48" r="1"></circle><circle class="cls-1" cx="30" cy="52" r="1"></circle></g></g></svg>