<svg xmlns:xlink="http://www.w3.org/1999/xlink"  xmlns="http://www.w3.org/2000/svg" id="Ebene_2" viewBox="0 0 40 56"><defs><style>.cls-1{stroke-linecap:round;}.cls-1,.cls-2{fill:none;stroke:#424242;stroke-linejoin:round;stroke-width:2px;}</style></defs><g id="Icons"><g id="Coffee"><path class="cls-1" d="m25,48c2.56-2.56,4-6.04,4-9.66v-4.34H11v4.34c0,3.62,1.44,7.1,4,9.66"></path><line class="cls-1" x1="39" y1="48" x2="1" y2="48"></line><path class="cls-1" d="m34,7h1c2.21,0,4,1.79,4,4v44H1V11c0-2.21,1.79-4,4-4h1"></path><path class="cls-1" d="m30,1v6c0,1.1-.9,2-2,2H10V1h20Z"></path><path class="cls-1" d="m30,1c2.21,0,4,1.79,4,4v12H6V5c0-2.21,1.79-4,4-4"></path><line class="cls-2" x1="34" y1="44" x2="34" y2="48"></line><line class="cls-2" x1="34" y1="18" x2="34" y2="32"></line><line class="cls-1" x1="6" y1="18" x2="6" y2="48"></line><polyline class="cls-1" points="25 17 25 22 15 22 15 17"></polyline><polyline class="cls-1" points="23 22 23 27 17 27 17 22"></polyline><path class="cls-1" d="m29,37s.75-2,3-2c1.58,0,2,1.17,2,2,0,4.71-6.89,8.27-6.89,8.27"></path></g></g></svg>