<svg xmlns:xlink="http://www.w3.org/1999/xlink"  xmlns="http://www.w3.org/2000/svg" height="512" viewBox="0 0 128 128" width="512"><g><path d="m104.743 4.557h-34.7a1.749 1.749 0 0 0 -1.75 1.75v3.424a9.364 9.364 0 0 0 -6.013 3.969 36.786 36.786 0 0 0 -35.829 36.728v27.49l-1.421 6.548h-1.773a1.75 1.75 0 0 0 -1.75 1.75v35.477a1.75 1.75 0 0 0 1.75 1.75h16.843a1.749 1.749 0 0 0 1.75-1.75v-35.477a1.749 1.749 0 0 0 -1.75-1.75h-1.769l-1.421-6.548v-27.531a26.278 26.278 0 0 1 25.4-26.229 9.245 9.245 0 0 0 .857 1.065v7.251a19.256 19.256 0 0 0 -17.485 19.148v65.071a6.757 6.757 0 0 0 6.75 6.75h35.213a6.757 6.757 0 0 0 6.75-6.75v-65.071a19.256 19.256 0 0 0 -17.487-19.148v-7.251a9.319 9.319 0 0 0 2.3-4.536 52.179 52.179 0 0 1 21.253 5.362 1.75 1.75 0 0 0 1.7-3.06 52.37 52.37 0 0 0 -14.918-4.957l17.972-5.032a1.752 1.752 0 0 0 1.278-1.686v-5a1.75 1.75 0 0 0 -1.75-1.757zm-34.7 8.5a5.847 5.847 0 1 1 -5.848 5.847 5.854 5.854 0 0 1 5.844-5.844zm-3.37 19.326v-4.768a9.2 9.2 0 0 0 6.739 0v4.771zm-28.32 87.56h-13.346v-31.977h13.346zm-9.741-35.477 1-4.61h4.137l1 4.61zm4.8-34.079v25.969h-3.461v-25.928a33.287 33.287 0 0 1 30.893-33.157 9.044 9.044 0 0 0 .029 3.462 29.784 29.784 0 0 0 -27.463 29.654zm57.488 1.235v65.071a3.254 3.254 0 0 1 -3.25 3.25h-35.218a3.254 3.254 0 0 1 -3.25-3.25v-65.071a15.754 15.754 0 0 1 15.737-15.736h10.239a15.754 15.754 0 0 1 15.742 15.736zm12.1-41.639-23.895 6.694a9.364 9.364 0 0 0 -7.316-6.946v-1.674h31.2z"></path><path d="m53.136 62.035v31.758a1.749 1.749 0 0 0 1.75 1.75h30.305a1.75 1.75 0 0 0 1.75-1.75v-31.758a1.75 1.75 0 0 0 -1.75-1.75h-30.3a1.749 1.749 0 0 0 -1.755 1.75zm3.5 1.75h26.805v28.258h-26.8z"></path></g></svg>