<svg xmlns:xlink="http://www.w3.org/1999/xlink"  xmlns="http://www.w3.org/2000/svg" id="Ebene_2" viewBox="0 0 54 48"><defs><style>.cls-1{fill:none;stroke:#424242;stroke-linejoin:round;stroke-width:2px;}</style></defs><g id="Icons"><g id="Drinks"><rect class="cls-1" x="12" y="1" width="6" height="4"></rect><path class="cls-1" d="m17,5v7.61c0,2.22.56,4.41,1.62,6.36l2.75,5.05c1.06,1.95,1.62,4.14,1.62,6.36v12.61"></path><path class="cls-1" d="m13,5v7.61c0,2.22-.56,4.41-1.62,6.36l-2.75,5.05c-1.06,1.95-1.62,4.14-1.62,6.36v12.61"></path><line class="cls-1" x1="13" y1="12" x2="17" y2="12"></line><path class="cls-1" d="m29.01,26.69c0,.1,0,.2,0,.31,0,2.21,1.79,4,4,4s4-1.79,4-4c0-.11,0-.21,0-.31h0s-.99-12.69-.99-12.69h-6l-.99,12.69"></path><line class="cls-1" x1="33" y1="31" x2="33" y2="43"></line><line class="cls-1" x1="36.62" y1="22" x2="29.38" y2="22"></line><path class="cls-1" d="m43.01,26.69c0,.1,0,.2,0,.31,0,2.21,1.79,4,4,4s4-1.79,4-4c0-.11,0-.21,0-.31h0s-.99-12.69-.99-12.69h-6l-.99,12.69"></path><line class="cls-1" x1="47" y1="31" x2="47" y2="43"></line><line class="cls-1" x1="50.62" y1="22" x2="43.38" y2="22"></line><line class="cls-1" x1="54" y1="43" y2="43"></line><polyline class="cls-1" points="51 43 49 47 5 47 3 43"></polyline><rect class="cls-1" x="11" y="31" width="8" height="8"></rect></g></g></svg>