<svg xmlns:xlink="http://www.w3.org/1999/xlink"  xmlns="http://www.w3.org/2000/svg" id="Layer_1" height="512" viewBox="0 0 64 64" width="512"><g><g><path d="m30.6 29.6h-5.8c-.6 0-1-.4-1-1v-25.8c0-.6.4-1 1-1h5.8c.6 0 1 .4 1 1v25.8c0 .6-.4 1-1 1zm-4.8-2h3.8v-23.8h-3.8z"></path></g><g><path d="m54 47.7c-1.8 0-7.8-.6-12.8-1.5-.5-.1-.9-.6-.8-1.2.1-.5.6-.9 1.2-.8 5 .9 10.9 1.5 12.4 1.5 3.3 0 8-1.9 8-3s-4.7-3-8-3c-1.6 0-7.1.5-11.6 1.3-.5.1-1.1-.3-1.2-.8s.3-1.1.8-1.2c4.7-.8 10.2-1.3 12-1.3 2.9 0 10 1.8 10 5s-7.1 5-10 5z"></path></g><g><path d="m10.4 62.3c-.3 0-.5 0-.8-.1-.8-.1-1.5-.5-1.9-1-1.9-2.6 2.7-8.3 5-10 .6-.4 1.9-1.2 3.4-2.2.5-.3 1.1-.1 1.4.3.3.5.1 1.1-.3 1.4-1.5.9-2.7 1.7-3.3 2.1-2.6 2-5.2 6.3-4.5 7.2.1.1.3.2.5.2 1.8.3 5.8-1.2 7.6-2.6.9-.7 3.4-2.9 6-5.5.4-.4 1-.4 1.4 0s.4 1 0 1.4c-2.6 2.6-5.2 4.9-6.2 5.7-1.7 1.4-5.6 3.1-8.3 3.1z"></path></g><g><path d="m34 40.4c-.6 0-1-.4-1-1v-7.9c0-1.1-.9-2-2-2h-6.6c-.9 0-1.7.6-2 1.4-.2.5-.7.8-1.3.6-.5-.2-.8-.7-.6-1.3.6-1.7 2.1-2.8 3.8-2.8h6.7c2.2 0 4 1.8 4 4v7.9c0 .7-.4 1.1-1 1.1z"></path></g><g><path d="m34 40.5c-.6 0-1-.4-1-1v-7.9c0-1.1-.9-2-2-2h-6.6c-.8 0-1.6.6-1.8 1.3-.1.5-.7.9-1.2.7-.5-.1-.9-.7-.7-1.2.4-1.7 2-2.9 3.8-2.9h6.5c2.2 0 4 1.8 4 4v7.9c0 .7-.4 1.1-1 1.1z"></path></g><g><path d="m19.1 47.2c-.4 0-.7-.2-.9-.5l-1.2-2.3c-.3-.5-.1-1.1.4-1.3.5-.3 1.1-.1 1.3.4l1.2 2.3c.3.5.1 1.1-.4 1.3-.1.1-.2.1-.4.1z"></path></g><g><path d="m36.3 47.3c-.2 0-.3 0-.5-.1-.5-.3-.7-.9-.4-1.4l1.9-3.6c.2-.4.2-.8 0-1.2s-.6-.6-1-.6h-6.4c-.6 0-1-.4-1-1s.4-1 1-1h6.4c1.1 0 2.1.6 2.7 1.5.6 1 .6 2.1.1 3.1l-1.9 3.6c-.2.5-.5.7-.9.7z"></path></g><g><path d="m27.7 50c-4.6 0-9.6-1.2-9.6-3.8s5-3.8 9.6-3.8 9.6 1.2 9.6 3.8-5 3.8-9.6 3.8zm0-5.6c-4.9 0-7.5 1.3-7.6 1.8.1.5 2.7 1.8 7.6 1.8s7.5-1.3 7.6-1.8c-.1-.5-2.7-1.8-7.6-1.8z"></path></g><g><path d="m43.8 3.8h-32.3c-.6 0-1-.4-1-1s.4-1 1-1h32.3c.6 0 1 .4 1 1s-.4 1-1 1z"></path></g><g><path d="m25 42.5c-4.1 0-16-5.2-18.4-6.5-2.1-1.2-5.6-4.4-6.4-7-.3-.9-.2-1.6.1-2.2.6-1 1.8-1.5 3.6-1.5 2.3 0 5.7.9 7.6 2 1.8 1 14.6 9.7 15.6 13.1.2.6 0 1-.1 1.3-.4.5-1 .8-2 .8zm-21.1-15.2c-1.2 0-1.7.3-1.8.4s-.1.4 0 .7c.5 1.9 3.5 4.8 5.5 5.8 2.4 1.4 14 6.3 17.4 6.3-1.5-2.4-11.4-9.8-14.5-11.5-1.4-.9-4.4-1.7-6.6-1.7z"></path></g></g></svg>