<svg xmlns:xlink="http://www.w3.org/1999/xlink"  xmlns="http://www.w3.org/2000/svg" id="Ebene_2" viewBox="0 0 58 42"><defs><style>.cls-1{fill:#424242;}.cls-2{fill:none;stroke:#424242;stroke-linecap:round;stroke-linejoin:round;stroke-width:2px;}</style></defs><g id="Icons"><g id="Safe"><circle class="cls-1" cx="36" cy="13" r="1"></circle><circle class="cls-1" cx="40" cy="13" r="1"></circle><circle class="cls-1" cx="44" cy="13" r="1"></circle><circle class="cls-1" cx="36" cy="17" r="1"></circle><circle class="cls-1" cx="40" cy="17" r="1"></circle><circle class="cls-1" cx="44" cy="17" r="1"></circle><circle class="cls-1" cx="36" cy="21" r="1"></circle><circle class="cls-1" cx="40" cy="21" r="1"></circle><circle class="cls-1" cx="44" cy="21" r="1"></circle><circle class="cls-1" cx="36" cy="25" r="1"></circle><circle class="cls-1" cx="40" cy="25" r="1"></circle><circle class="cls-1" cx="44" cy="25" r="1"></circle><rect class="cls-2" x="32" y="9" width="16" height="20"></rect><rect class="cls-2" x="5" y="5" width="48" height="28"></rect><rect class="cls-2" x="1" y="1" width="56" height="36" rx="2" ry="2"></rect><polyline class="cls-2" points="53 37 53 41 45 41 45 37"></polyline><polyline class="cls-2" points="5 37 5 41 13 41 13 37"></polyline><circle class="cls-2" cx="16.92" cy="19" r="6"></circle><line class="cls-2" x1="14.92" y1="19" x2="18.92" y2="19"></line></g></g></svg>