<svg xmlns:xlink="http://www.w3.org/1999/xlink"  xmlns="http://www.w3.org/2000/svg" id="Layer_1" data-name="Layer 1" viewBox="0 0 64 64" width="512" height="512"><path d="M63,4H62V1a1,1,0,0,0-1-1H53a1,1,0,0,0-1,1V4H51a1,1,0,0,0-1,1v9.429A2.814,2.814,0,0,0,53,17h1V49a9.01,9.01,0,0,1-9,9H25a9,9,0,0,1-8.941-8H23a3,3,0,0,0,3-3V37h5a3,3,0,0,0,3-3V33h9a3,3,0,0,0,0-6H34V21h9a3,3,0,0,0,0-6H34V14a3,3,0,0,0-3-3H26a3,3,0,0,0-3-3H5a5.006,5.006,0,0,0-5,5V45a5.006,5.006,0,0,0,5,5h5.051A15.006,15.006,0,0,0,25,64H45A15.017,15.017,0,0,0,60,49V17h1a2.814,2.814,0,0,0,3-2.571V5A1,1,0,0,0,63,4ZM54,2h6V4H54ZM43,29a1,1,0,0,1,0,2H34V29Zm0-12a1,1,0,0,1,0,2H34V17ZM31,13a1,1,0,0,1,1,1V34a1,1,0,0,1-1,1H26V13ZM2,45V13a3,3,0,0,1,3-3H23a1,1,0,0,1,1,1V47a1,1,0,0,1-1,1H5A3,3,0,0,1,2,45Zm56,4A13.015,13.015,0,0,1,45,62H25A13.018,13.018,0,0,1,12.038,50h2.007A11.006,11.006,0,0,0,25,60H45A11.013,11.013,0,0,0,56,49V17h2Zm4-34.571c0,.227-.4.571-1,.571H53c-.6,0-1-.344-1-.571V6H62Z"></path></svg>