<svg xmlns:xlink="http://www.w3.org/1999/xlink"  xmlns="http://www.w3.org/2000/svg" id="outline" height="512" viewBox="0 0 500 500" width="512"><path d="m487.947 29.226v-7.992a10.011 10.011 0 0 0 -10-10h-455.894a10.011 10.011 0 0 0 -10 10v7.992c-.038 0 .021 437.351 0 437.364.01.03 0 10.5 0 10.538a10.01 10.01 0 0 0 10 10c113.624-.105 342.3.079 455.9 0a10.011 10.011 0 0 0 10-10c.009-.019-.007-447.881-.006-447.902zm-283.369 120.445a1.354 1.354 0 0 0 .458 0 17.994 17.994 0 0 1 17.75 17.967l.006 177.574h-35.963v-177.574a17.993 17.993 0 0 1 17.749-17.967zm-182.528-44.862v-52.49h222.95v52.49zm111.25 44.862a1.375 1.375 0 0 0 .457 0 17.992 17.992 0 0 1 17.75 17.967l.007 177.574h-35.966v-177.574a17.994 17.994 0 0 1 17.752-17.967zm-71.281 0a1.354 1.354 0 0 0 .458 0 17.994 17.994 0 0 1 17.75 17.967l.006 177.574h-35.966v-177.574a17.994 17.994 0 0 1 17.75-17.967zm234.29 137.229a14.357 14.357 0 0 1 14.341-14.34h111.65a14.341 14.341 0 1 1 0 28.681h-111.65a14.357 14.357 0 0 1 -14.341-14.341zm0-38.68a14.357 14.357 0 0 1 14.341-14.341h111.65a14.341 14.341 0 1 1 0 28.681h-111.65a14.357 14.357 0 0 1 -14.341-14.34zm0-38.681a14.357 14.357 0 0 1 14.341-14.339h111.65a14.341 14.341 0 1 1 0 28.681h-111.65a14.357 14.357 0 0 1 -14.341-14.342zm181.638 101.7v77.943h-222.947v-77.941zm-222.947 87.945h222.947v77.943h-222.947zm222.95-346.865v248.922h-36c7.873-10.305 5.417-26.156-4.9-33.681 12.709-9.453 12.7-29.232 0-38.681 18.291-13.984 8.593-43.541-14.755-43.681h-111.645c-23.31.126-33.072 29.688-14.755 43.681-12.709 9.454-12.7 29.232 0 38.681-10.316 7.527-12.767 23.378-4.9 33.681h-35.995v-248.922zm-455.897-31.085h455.894v21.085h-455.894zm0 424.808v-331.233h35.2v25.307a28.019 28.019 0 0 0 -22.979 27.522v177.574a10.011 10.011 0 0 0 10 10h35.951a10.011 10.011 0 0 0 10-10v-177.574a28.019 28.019 0 0 0 -22.979-27.522v-25.307h61.28v25.307a28.019 28.019 0 0 0 -22.978 27.522v177.574a10.011 10.011 0 0 0 10 10h35.957a10.01 10.01 0 0 0 10-10v-177.574a28.019 28.019 0 0 0 -22.979-27.522v-25.307h61.281v25.307a28.019 28.019 0 0 0 -22.978 27.522v177.574a10.01 10.01 0 0 0 10 10h35.957a10.011 10.011 0 0 0 10-10v-177.574a28.019 28.019 0 0 0 -22.979-27.522v-25.307h35.193v331.233h-9.771v-28.68a10.011 10.011 0 0 0 -10-10h-76.553a10.011 10.011 0 0 0 -10 10v28.68h-10.3v-28.68a10.011 10.011 0 0 0 -10-10h-76.551a10.011 10.011 0 0 0 -10 10v28.68zm203.179 0h-76.556v-28.68h76.553zm-106.852 0h-76.555v-28.68h76.552zm-96.324 10h222.944v21.085h-222.947z"></path><path d="m366.474 368.762a18.837 18.837 0 0 0 18.815-18.815c-1.034-24.962-36.6-24.954-37.631 0a18.837 18.837 0 0 0 18.816 18.815zm0-27.631a8.826 8.826 0 0 1 8.815 8.816c-.463 11.686-17.17 11.682-17.631 0a8.826 8.826 0 0 1 8.816-8.816z"></path><path d="m366.474 424.206a18.837 18.837 0 0 0 -18.816 18.815c1.034 24.961 36.6 24.954 37.631 0a18.836 18.836 0 0 0 -18.815-18.815zm0 27.63a8.825 8.825 0 0 1 -8.816-8.815c.463-11.686 17.17-11.683 17.631 0a8.825 8.825 0 0 1 -8.815 8.815z"></path></svg>