<svg xmlns:xlink="http://www.w3.org/1999/xlink"  xmlns="http://www.w3.org/2000/svg" width="512" height="512" viewBox="0 0 128 128"><path d="M107.228,70.89h-1.565v-.148A13.154,13.154,0,0,0,95.425,57.937V32.818a6.271,6.271,0,0,0-6.263-6.263H38.838a6.271,6.271,0,0,0-6.263,6.263V57.937A13.154,13.154,0,0,0,22.337,70.742v.148H20.772a1.751,1.751,0,0,0-1.75,1.75V86.182a1.751,1.751,0,0,0,1.75,1.75h2.991v10.3a1.749,1.749,0,0,0,1.75,1.75h7.235a1.75,1.75,0,0,0,1.75-1.75v-10.3H92.473v10.3a1.75,1.75,0,0,0,1.75,1.75h8.264a1.749,1.749,0,0,0,1.75-1.75v-10.3h2.991a1.751,1.751,0,0,0,1.75-1.75V72.64A1.751,1.751,0,0,0,107.228,70.89ZM36.075,32.818a2.767,2.767,0,0,1,2.763-2.763H89.162a2.767,2.767,0,0,1,2.763,2.763V57.6H79.782V42.074a1.749,1.749,0,0,0-1.75-1.75H49.968a1.749,1.749,0,0,0-1.75,1.75V57.6H36.075ZM76.282,57.6H51.718V43.824H76.282ZM25.837,70.742A9.649,9.649,0,0,1,35.476,61.1H92.524a9.649,9.649,0,0,1,9.639,9.638v.148H25.837ZM31,96.481H27.263V87.932H31Zm69.739,0H95.973V87.932h4.764Zm4.741-12.049H22.522V74.39h82.956Z"></path></svg>