<svg xmlns="http://www.w3.org/2000/svg" fill="none" viewBox="0 0 24 24" stroke="currentColor" stroke-width="1.5">
  <path stroke-linecap="round" stroke-linejoin="round" d="M4.5 12h15a1.5 1.5 0 011.5 1.5v1.5a1.5 1.5 0 01-1.5 1.5h-15A1.5 1.5 0 013 15v-1.5A1.5 1.5 0 014.5 12z"/>
  <path stroke-linecap="round" stroke-linejoin="round" d="M7.5 16.5l-1.5 4.5M16.5 16.5l1.5 4.5M12 16.5V21"/>
  <path stroke-linecap="round" stroke-linejoin="round" d="M8.25 9c0-1.5.75-2.25 0-3s.75-2.25 0-3M12 9c0-1.5.75-2.25 0-3s.75-2.25 0-3M15.75 9c0-1.5.75-2.25 0-3s.75-2.25 0-3"/>
</svg>
