<svg xmlns="http://www.w3.org/2000/svg" fill="none" viewBox="0 0 24 24" stroke="currentColor" stroke-width="1.5">
  <path stroke-linecap="round" stroke-linejoin="round" d="M20.25 14.15v4.25c0 1.094-.787 2.036-1.872 2.18-2.087.277-4.216.42-6.378.42s-4.291-.143-6.378-.42c-1.085-.144-1.872-1.086-1.872-2.18v-4.25m16.5 0a2.18 2.18 0 00.75-1.661V8.706c0-1.081-.768-2.015-1.837-2.175a48.114 48.114 0 00-3.413-.387m4.5 8.006c-.194.165-.42.295-.673.38A23.978 23.978 0 0112 17.25c-2.97 0-5.828-.525-8.451-1.482A2.227 2.227 0 013.75 14.15m16.5 0V8.706c0-1.081-.768-2.015-1.837-2.175a48.111 48.111 0 00-3.413-.387m0 0A48.455 48.455 0 0012 6c-1.042 0-2.074.05-3.091.142m0 0c-1.07.16-1.909 1.094-1.909 2.176V8.25c0 1.013.748 1.876 1.75 1.971.199.018.399.034.6.047M15 6.142V4.875c0-.621-.504-1.125-1.125-1.125h-3.75c-.621 0-1.125.504-1.125 1.125V6.142"/>
</svg>
