<svg xmlns="http://www.w3.org/2000/svg" fill="none" viewBox="0 0 24 24" stroke="currentColor" stroke-width="1.5">
  <path stroke-linecap="round" stroke-linejoin="round" d="M3.75 10.5h16.5"/>
  <path stroke-linecap="round" stroke-linejoin="round" d="M5.25 10.5v7.5M18.75 10.5v7.5"/>
  <path stroke-linecap="round" stroke-linejoin="round" d="M9 10.5V18M15 10.5V18"/>
  <path stroke-linecap="round" stroke-linejoin="round" d="M3.75 7.5a1.5 1.5 0 100-3 1.5 1.5 0 000 3zM8.25 7.5a1.5 1.5 0 100-3 1.5 1.5 0 000 3zM15.75 7.5a1.5 1.5 0 100-3 1.5 1.5 0 000 3zM20.25 7.5a1.5 1.5 0 100-3 1.5 1.5 0 000 3z"/>
</svg>
