<svg xmlns="http://www.w3.org/2000/svg" fill="none" viewBox="0 0 24 24" stroke="currentColor" stroke-width="1.5">
  <path stroke-linecap="round" stroke-linejoin="round" d="M12 21a9.004 9.004 0 008.716-6.747M12 21a9.004 9.004 0 01-8.716-6.747M12 21c2.485 0 4.5-4.03 4.5-9S14.485 3 12 3m0 18c-2.485 0-4.5-4.03-4.5-9S9.515 3 12 3m0 0a8.997 8.997 0 017.843 4.582M12 3a8.997 8.997 0 00-7.843 4.582"/>
  <path stroke-linecap="round" stroke-linejoin="round" d="M6.75 12c2.625-1.5 5.25-1.5 7.875 0s5.25 1.5 7.875 0"/>
  <path stroke-linecap="round" stroke-linejoin="round" d="M18.75 7.5c-1.5 0-3 1.125-3 3 1.875 0 3.75-.75 4.5-2.25-.375-.375-.938-.75-1.5-.75z"/>
</svg>
