<svg xmlns="http://www.w3.org/2000/svg" fill="none" viewBox="0 0 24 24" stroke="currentColor" stroke-width="1.5">
  <path stroke-linecap="round" stroke-linejoin="round" d="M4.5 8.25h15a1.5 1.5 0 011.5 1.5v.75a1.5 1.5 0 01-1.5 1.5H16.5l-.75 6a2.25 2.25 0 01-2.236 1.98H10.486a2.25 2.25 0 01-2.236-1.98l-.75-6H4.5a1.5 1.5 0 01-1.5-1.5v-.75a1.5 1.5 0 011.5-1.5z"/>
  <path stroke-linecap="round" stroke-linejoin="round" d="M14.25 3c-1.5 0-3 1.125-3 3 1.875 0 3.75-.75 4.5-2.25C15.375 3.25 14.813 3 14.25 3z"/>
</svg>
