<svg xmlns="http://www.w3.org/2000/svg" fill="none" viewBox="0 0 24 24" stroke="currentColor" stroke-width="1.5">
  <path stroke-linecap="round" stroke-linejoin="round" d="M2.25 18c1.5 0 2.25-.75 3-1.5s1.5-1.5 3-1.5 2.25.75 3 1.5 1.5 1.5 3 1.5 2.25-.75 3-1.5 1.5-1.5 3-1.5"/>
  <path stroke-linecap="round" stroke-linejoin="round" d="M2.25 21c1.5 0 2.25-.75 3-1.5s1.5-1.5 3-1.5 2.25.75 3 1.5 1.5 1.5 3 1.5 2.25-.75 3-1.5 1.5-1.5 3-1.5"/>
  <path stroke-linecap="round" stroke-linejoin="round" d="M6.75 12V9c0-1.5.75-2.25 0-3.375S7.5 3.375 6.75 2.25M12 12V9c0-1.5.75-2.25 0-3.375S12.75 3.375 12 2.25M17.25 12V9c0-1.5.75-2.25 0-3.375s.75-2.25 0-3.375"/>
</svg>
