<svg xmlns="http://www.w3.org/2000/svg" fill="none" viewBox="0 0 24 24" stroke="currentColor" stroke-width="1.5">
  <path stroke-linecap="round" stroke-linejoin="round" d="M18 3.75h-1.5a2.25 2.25 0 00-2.25 2.25v.75"/>
  <circle cx="14.25" cy="9" r="2.25" stroke-linecap="round" stroke-linejoin="round"/>
  <path stroke-linecap="round" stroke-linejoin="round" d="M7.5 13.5c0-1.125.75-1.875 0-2.625S8.25 9 7.5 8.25M10.5 13.5c0-1.125.75-1.875 0-2.625s.75-1.875 0-2.625M13.5 13.5c0-1.125.75-1.875 0-2.625s.75-1.875 0-2.625"/>
  <path stroke-linecap="round" stroke-linejoin="round" d="M4.5 15h15v1.5a4.5 4.5 0 01-4.5 4.5h-6a4.5 4.5 0 01-4.5-4.5V15z"/>
</svg>
