<svg xmlns="http://www.w3.org/2000/svg" fill="none" viewBox="0 0 24 24" stroke="currentColor" stroke-width="1.5">
  <path stroke-linecap="round" stroke-linejoin="round" d="M3 3h18v9H3V3z"/>
  <path stroke-linecap="round" stroke-linejoin="round" d="M2.25 18c1.5 0 2.25-.75 3-1.5s1.5-1.5 3-1.5 2.25.75 3 1.5 1.5 1.5 3 1.5 2.25-.75 3-1.5 1.5-1.5 3-1.5"/>
  <path stroke-linecap="round" stroke-linejoin="round" d="M2.25 21c1.5 0 2.25-.75 3-1.5s1.5-1.5 3-1.5 2.25.75 3 1.5 1.5 1.5 3 1.5 2.25-.75 3-1.5 1.5-1.5 3-1.5"/>
</svg>
