<svg xmlns="http://www.w3.org/2000/svg" fill="none" viewBox="0 0 24 24" stroke="currentColor" stroke-width="1.5">
  <path stroke-linecap="round" stroke-linejoin="round" d="M14.25 6.087c0-.355.186-.676.401-.959.221-.29.349-.634.349-1.003 0-1.036-1.007-1.875-2.25-1.875s-2.25.84-2.25 1.875c0 .369.128.713.349 1.003.215.283.401.604.401.959v0a.64.64 0 01-.657.643 48.491 48.491 0 01-4.163-.3c-1.07-.16-1.837-1.094-1.837-2.175v-.698"/>
  <path stroke-linecap="round" stroke-linejoin="round" d="M6 9.75h4.5v4.5H6V9.75z"/>
  <path stroke-linecap="round" stroke-linejoin="round" d="M13.5 9.75H18v4.5h-4.5V9.75z"/>
  <path stroke-linecap="round" stroke-linejoin="round" d="M9.75 17.25h4.5v4.5h-4.5v-4.5z"/>
</svg>
