<svg xmlns="http://www.w3.org/2000/svg" fill="none" viewBox="0 0 24 24" stroke="currentColor" stroke-width="1.5">
  <path stroke-linecap="round" stroke-linejoin="round" d="M2.25 18c1.5 0 2.25-.75 3-1.5s1.5-1.5 3-1.5 2.25.75 3 1.5 1.5 1.5 3 1.5 2.25-.75 3-1.5 1.5-1.5 3-1.5"/>
  <path stroke-linecap="round" stroke-linejoin="round" d="M2.25 21c1.5 0 2.25-.75 3-1.5s1.5-1.5 3-1.5 2.25.75 3 1.5 1.5 1.5 3 1.5 2.25-.75 3-1.5 1.5-1.5 3-1.5"/>
  <circle cx="14.25" cy="5.25" r="2.25" stroke-linecap="round" stroke-linejoin="round"/>
  <path stroke-linecap="round" stroke-linejoin="round" d="M8.25 13.5l3-3 2.25 2.25 3-4.5"/>
</svg>
