<svg xmlns="http://www.w3.org/2000/svg" fill="none" viewBox="0 0 24 24" stroke="currentColor" stroke-width="1.5">
  <path stroke-linecap="round" stroke-linejoin="round" d="M8.25 18.75a1.5 1.5 0 11-3 0 1.5 1.5 0 013 0zm10.5 0a1.5 1.5 0 11-3 0 1.5 1.5 0 013 0z"/>
  <path stroke-linecap="round" stroke-linejoin="round" d="M3.75 15.75h16.5v-3L18 8.25H6L3.75 12.75v3zm0 0v1.5a.75.75 0 00.75.75h1.5m14.25-2.25v1.5a.75.75 0 01-.75.75h-1.5"/>
  <path stroke-linecap="round" stroke-linejoin="round" d="M15.75 3.75a2.25 2.25 0 00-2.25 2.25v2.25"/>
  <path stroke-linecap="round" stroke-linejoin="round" d="M14.625 4.875l1.125-1.125 1.125 1.125"/>
</svg>
