<svg width="147" height="32" viewBox="0 0 147 32" fill="none" xmlns="http://www.w3.org/2000/svg">
<path d="M26.5437 4.42C26.5698 4.73096 26.5263 5.04484 26.4161 5.33837C26.1349 6.08817 25.4216 6.89317 24.9113 7.50638C24.1227 8.4509 23.3108 9.37798 22.5106 10.3138C20.9101 12.1854 19.3067 14.057 17.7062 15.9315C17.4656 16.2134 17.2191 16.4924 16.9843 16.7743C16.0507 17.899 14.2965 16.8731 13.5513 16.2192C12.0813 14.9288 10.736 13.5425 9.88644 12.0023C9.63708 11.5489 9.43121 11.081 9.14706 10.6393C8.82232 10.1307 8.39609 9.65697 7.97277 9.18326C7.52336 8.58168 6.93477 7.94522 6.38098 7.43663C5.78659 6.89027 5.44448 6.30032 5.02986 5.5912C4.93998 5.43718 4.84718 5.28023 4.79209 5.11167C4.63552 4.64087 4.7921 4.08287 5.16613 3.75738C5.54016 3.43188 6.11423 3.36214 6.55784 3.58301C6.784 3.69635 6.96958 3.87653 7.15224 4.0509C7.98728 4.85883 8.60488 5.72489 9.34424 6.61128C11.139 8.75606 12.7801 11.0345 14.7691 13.095C15.9231 14.2894 16.3812 13.1996 17.0945 12.2929C18.0136 11.1246 18.9356 9.95632 19.8663 8.79384C20.7941 7.63427 21.7916 6.50376 22.6701 5.3064C23.3862 4.32701 24.1575 3.5336 25.4564 3.46966C25.7 3.45804 25.961 3.47838 26.161 3.61497C26.4104 3.78644 26.5176 4.10324 26.5466 4.40549C26.5466 4.4113 26.5466 4.41709 26.5466 4.42291L26.5437 4.42Z" fill="white"/>
<path d="M30.4552 10.523C30.4175 10.6596 30.3682 10.7904 30.3132 10.9211C29.7739 12.1853 28.6808 12.8044 27.7645 13.7431C26.6685 14.8678 25.645 16.0593 24.5867 17.2189C22.3832 19.6398 20.9508 22.4762 17.9267 24.4437C17.6107 24.6529 17.2685 24.8535 16.8597 24.9552C16.1493 25.1296 15.3433 24.9697 14.7286 24.6646C13.7747 24.1938 12.7918 23.3655 12.1336 22.6883C11.1101 21.6392 9.83725 20.718 8.80504 19.663C7.67716 18.5063 6.36951 17.3497 5.51418 16.0796C4.885 15.1438 4.16015 14.2807 3.3918 13.4553C2.70173 12.7143 1.79421 12.2667 1.15344 11.485C0.811301 11.0665 0.564821 10.5405 0.582218 9.9999C0.599614 9.50875 0.840295 9.03213 1.22592 8.72989C1.42888 8.57005 1.68693 8.45378 1.94498 8.49156C2.18853 8.52643 2.38857 8.69208 2.57704 8.85193C4.00646 10.0551 5.20396 11.3949 6.44492 12.7928C8.79058 15.4432 11.3479 17.9716 13.9255 20.5116C14.4213 21.0027 14.8707 21.7206 15.6507 22.0141C16.0856 22.1798 16.6626 22.1914 17.0424 21.9676C17.4947 21.6973 17.8629 21.1132 18.1616 20.7499C18.5907 20.2297 19.014 19.7095 19.4547 19.1951C20.7073 17.7333 22.0555 16.3122 23.2385 14.8184C23.9895 13.8709 24.868 12.9264 25.7987 12.0371C26.9092 10.9764 27.666 8.99432 29.4926 9.02338C29.6956 9.02629 29.9014 9.06407 30.0725 9.1716C30.3451 9.34016 30.49 9.66858 30.5074 9.98826C30.5161 10.1684 30.49 10.3486 30.4436 10.523H30.4552Z" fill="white"/>
<path d="M30.487 17.2218C30.545 17.2538 30.5972 17.2887 30.6465 17.3323C31.0814 17.6955 31.1452 18.364 30.9509 18.8958C30.6813 19.6369 30.0028 20.3838 29.4201 20.9011C27.6137 22.5024 26.1495 24.2461 24.5867 25.9637C23.2964 27.3819 22.0961 28.9454 20.5043 30.0498C19.0922 31.0292 17.5613 32.0144 15.7694 31.9998C13.9631 31.9853 12.5047 31.0175 11.1622 29.9161C9.60231 28.6374 7.99892 27.4022 6.5289 26.0131C5.89682 25.4173 5.43001 24.5629 4.86172 23.8828C4.17745 23.0662 3.46999 22.267 2.72483 21.5056C1.89849 20.6657 0.701007 19.8083 0.176207 18.7272C-0.0151566 18.3291 -0.0702404 17.8496 0.109525 17.4427C0.335682 16.9312 0.944569 16.6231 1.48966 16.7452C2.39719 16.9457 3.32502 18.0646 3.92521 18.7272C4.77184 19.6601 5.61267 20.5988 6.44771 21.5404C7.72347 22.9819 9.01953 24.4902 10.4432 25.7864C11.6841 26.9169 12.986 28.1288 14.6474 28.5967C18.5036 29.6836 21.1479 26.2049 23.2413 23.5631C23.9923 22.6157 24.8708 21.6741 25.8015 20.7819C26.7728 19.8519 27.3469 18.6139 28.3907 17.7362C28.7097 17.4689 29.0605 17.2276 29.4635 17.123C29.8028 17.0358 30.1797 17.0562 30.4812 17.2247L30.487 17.2218Z" fill="white"/>
<path d="M21.2582 0.778534C21.2901 0.854095 21.3104 0.93258 21.322 1.01395C21.351 1.24645 21.3017 1.48476 21.2234 1.70563C20.9219 2.54843 20.1274 3.25753 19.6113 3.98117C18.7589 5.17271 17.9064 6.36136 17.0569 7.5529C16.793 7.92199 16.2885 8.14869 15.7434 8.14869C15.2737 8.14869 14.8417 7.89873 14.4503 7.54418C13.6877 6.84378 13.0933 5.72491 12.6874 5.23376C11.9249 4.3154 11.2058 3.37961 10.4461 2.4816C10.2055 2.1997 10.0837 1.83061 10.0373 1.46152C9.98223 1.01106 10.0605 0.505354 10.3997 0.200203C10.9245 -0.273507 11.7016 0.194391 12.1452 0.563478C13.3949 1.59809 14.256 2.94946 15.3172 4.15554C15.3723 4.21657 15.4274 4.28052 15.4999 4.32121C15.6768 4.42293 15.9116 4.36188 16.0682 4.2311C16.3465 4.00151 16.4625 3.67021 16.6945 3.40575C16.9641 3.09769 17.2193 2.78092 17.4802 2.46705C17.9934 1.84222 18.524 1.21739 19.1706 0.723333C19.3967 0.551868 19.6403 0.394923 19.9128 0.313549C20.2318 0.220551 20.6841 0.267063 20.9741 0.435622C21.1074 0.51409 21.206 0.639039 21.264 0.781443L21.2582 0.778534Z" fill="white"/>
<path d="M68.082 9.96255C68.1214 10.1347 68.1321 10.314 68.125 10.4861C68.0069 12.5264 66.6976 14.6025 65.839 16.4169C64.8481 18.5145 63.8607 20.6086 62.8698 22.7062C62.3582 23.7891 61.8466 24.8756 61.3351 25.9585C60.8557 26.9732 60.4586 28.135 59.854 29.0781C58.931 30.5195 57.1173 31.3765 55.4252 31.1255C53.8154 30.8889 52.6742 29.788 51.9802 28.3789C51.118 26.6254 50.263 24.8469 49.4259 23.0684C48.4528 21.0066 47.4798 18.9484 46.5067 16.8866C45.616 15.0005 43.9632 12.7379 44.3639 10.5757C44.5177 9.74382 45.0507 8.86533 45.8914 8.76851C46.3601 8.71473 46.8287 8.92627 47.1793 9.2454C49.2005 11.0885 50.0448 14.5738 51.1037 17.03C51.8907 18.8516 52.6742 20.6695 53.4612 22.4911L55.1319 26.6506C55.4717 27.4932 56.6594 27.4932 56.9957 26.6506L58.652 22.5162C59.4355 20.7018 60.2153 18.891 60.9988 17.0766C62.1221 14.4698 62.9986 10.6618 65.6351 9.18445C66.1538 8.894 66.7906 8.68961 67.3308 8.93344C67.735 9.11631 67.989 9.51791 68.0856 9.95896L68.082 9.96255Z" fill="white"/>
<path d="M74.3461 9.53943C75.0902 10.945 74.7432 13.4981 74.7432 14.8248V21.4979C74.7432 22.9537 75.566 31.5881 72.4501 31.1327C71.7847 31.0359 71.3518 30.3869 71.1014 29.763C70.2786 27.7083 70.5934 25.1983 70.5934 23.029V17.0444C70.5934 15.1081 70.343 12.9746 70.5791 11.0705C70.6757 10.296 70.9941 9.52151 71.5987 9.03386C72.2033 8.5462 73.1298 8.42068 73.7666 8.86532C74.0098 9.03384 74.1959 9.26692 74.3425 9.54302L74.3461 9.53943Z" fill="white"/>
<path d="M100.808 11.1064C98.7797 8.97648 95.578 7.8936 91.2958 7.8936C90.2941 7.8936 89.2388 7.94737 88.1692 8.05494C87.0924 8.16252 85.9977 8.31671 84.9173 8.51393C83.9621 8.68604 82.871 8.77926 81.9695 9.13066C81.4437 9.33505 80.9571 9.69364 80.7103 10.1992C80.4634 10.7084 80.5064 11.3753 80.907 11.7733C81.8801 12.7451 84.1339 11.9168 85.2428 11.7088C86.1515 11.5367 87.0494 11.4076 87.908 11.3216C88.7702 11.2355 89.5751 11.1889 90.2977 11.1889C91.6535 11.1889 92.8913 11.3323 93.9789 11.6192C95.0879 11.9096 96.0573 12.3327 96.8622 12.8706C97.6958 13.43 98.3612 14.1112 98.837 14.8929C99.3163 15.6854 99.6061 16.5603 99.692 17.4962C99.7528 18.1882 99.1124 18.7333 98.4363 18.5576C96.7048 18.1093 95.0056 17.7723 93.3814 17.5571C91.7609 17.342 90.1975 17.2308 88.738 17.2308C86.7883 17.2308 85.0711 17.4173 83.6223 17.7759C82.2128 18.1273 81.0287 18.6257 80.1057 19.2568C79.2185 19.8628 78.5495 20.5871 78.1167 21.4082C77.6838 22.2294 77.4656 23.158 77.4656 24.1728C77.4656 25.1876 77.6767 26.1199 78.0988 26.9661C78.5173 27.8159 79.1613 28.5689 80.002 29.2072C80.8677 29.8634 81.9767 30.3905 83.3039 30.7742C84.6562 31.165 86.2588 31.3586 88.0726 31.3586C89.1565 31.3586 90.1975 31.2869 91.167 31.1507C92.1365 31.0144 93.0595 30.8208 93.9002 30.5841C94.7373 30.3474 95.5207 30.0678 96.2326 29.7558C96.9517 29.4403 97.6207 29.0996 98.2252 28.7446C99.1732 28.1888 99.5095 29.1032 99.8136 29.7379C100.218 30.5805 100.88 31.2941 101.906 31.2331C104.446 31.0861 103.888 27.5864 103.888 25.8832V21.2074C103.888 16.6428 102.854 13.2435 100.815 11.0957L100.808 11.1064ZM99.4594 23.5489C99.2519 24.5242 98.3039 25.2665 97.4668 25.7613C96.712 26.2095 95.857 26.6075 94.9304 26.9446C94.011 27.2816 93.0058 27.5542 91.9397 27.7585C90.8701 27.9629 89.7504 28.0669 88.6092 28.0669C87.468 28.0669 86.5665 27.9701 85.7795 27.7765C84.9638 27.5793 84.2698 27.3068 83.7225 26.9661C83.125 26.5932 82.6707 26.1414 82.3773 25.6215C82.084 25.1015 81.9337 24.5457 81.9337 23.9684C81.9337 23.4198 82.0733 22.8891 82.3523 22.3907C82.6421 21.8744 83.1107 21.4369 83.7511 21.0891C84.3199 20.7843 85.0175 20.5476 85.8868 20.3719C86.7132 20.207 87.7435 20.1245 88.9562 20.1245C89.5286 20.1245 90.2011 20.146 90.9631 20.1891C91.7215 20.2321 92.5443 20.3074 93.4029 20.415C94.2579 20.519 95.1701 20.666 96.1181 20.8524C97.2736 21.0783 98.955 21.1716 99.3914 22.5019C99.5167 22.8784 99.5274 23.2262 99.4594 23.5489Z" fill="white"/>
<path d="M119.271 9.5036C119.382 9.75819 119.425 10.0379 119.371 10.3176C119.271 10.8196 118.87 11.2248 118.412 11.4507C117.325 11.9885 115.872 11.6192 114.692 11.6192C114.137 11.6192 113.687 12.071 113.687 12.6268V18.8193C113.687 22.0967 114.034 25.6358 113.34 28.8486C113.197 29.512 112.853 30.1574 112.284 30.5267C111.715 30.8961 110.9 30.9104 110.399 30.455C110.013 30.1 109.877 29.555 109.787 29.0351C109.204 25.6501 109.54 21.9891 109.54 18.5612V12.6304C109.54 12.0746 109.09 11.6228 108.535 11.6228C107.169 11.6228 105.663 11.8487 104.443 11.0993C104.092 10.8841 103.795 10.5435 103.727 10.1347C103.616 9.48927 104.114 8.86176 104.718 8.60358C105.806 8.14102 107.369 8.33465 108.535 8.33465C109.09 8.33465 109.54 7.88285 109.54 7.32706C109.54 5.64535 109.04 3.37557 109.787 1.82295C110.131 1.10939 110.889 0.532089 111.673 0.657589C112.309 0.761575 112.803 1.30303 113.05 1.90185C113.297 2.50067 113.34 3.16044 113.408 3.80228C113.54 5.03577 113.69 6.07564 113.69 7.32706C113.69 7.88285 114.141 8.33465 114.695 8.33465C115.826 8.33465 117.218 8.06213 118.276 8.52468C118.709 8.71473 119.089 9.0769 119.278 9.5036H119.271Z" fill="white"/>
<path d="M146.441 9.64701C147.282 10.9092 146.924 13.1933 146.924 14.4985V21.0783C146.924 23.366 146.935 25.6537 146.924 27.9378C146.917 29.3148 146.538 31.2331 144.807 31.355C143.876 31.4196 143.154 30.8028 142.775 30.0068C142.481 29.3936 142.295 28.3538 141.258 28.9741C139.838 29.8239 138.392 30.4371 136.968 30.8028C135.527 31.1686 134.146 31.355 132.865 31.355C130.74 31.355 128.901 31.1005 127.41 30.5949C125.964 30.1072 124.777 29.3936 123.872 28.4757C122.967 27.5613 122.298 26.4103 121.875 25.0657C121.435 23.6601 121.214 22.025 121.214 20.2034C121.214 16.9655 120.584 13.014 121.936 9.99843C122.18 9.46057 122.53 8.90477 123.092 8.72907C123.585 8.57488 124.14 8.75775 124.519 9.10915C125.932 10.4144 125.335 13.4264 125.335 15.1511V19.3285C125.335 20.5512 125.471 21.6879 125.746 22.7063C126.04 23.7999 126.544 24.7501 127.256 25.5354C127.968 26.3242 128.916 26.941 130.071 27.3605C131.184 27.7729 132.565 27.9773 134.175 27.9773C134.947 27.9773 135.741 27.8948 136.536 27.7263C137.319 27.5649 138.081 27.3318 138.8 27.0378C139.523 26.7402 140.206 26.3852 140.832 25.9764C143.358 24.3414 142.782 21.2791 142.782 18.6974C142.782 17.2488 142.782 15.8001 142.782 14.3515C142.782 12.9029 142.37 11.2462 143.193 9.91235C143.694 9.10198 144.756 8.5713 145.626 8.95856C145.98 9.11633 146.245 9.35658 146.445 9.65419L146.441 9.64701Z" fill="white"/>
</svg>
