<svg xmlns:xlink="http://www.w3.org/1999/xlink"  fill="none" xmlns="http://www.w3.org/2000/svg" viewBox="0 0 160 160"><path d="M46.48 133.84c-.86-.1-2.48-.45-3.32-.73-.8-.26-2.4-1.01-3.19-1.48-.57-.34-1.34-.92-1.98-1.5l-.83-.72a8.64 8.64 0 0 1-1.5-2.01l-.86-1.68a10.94 10.94 0 0 0-2.48-3.39 13.9 13.9 0 0 0-4-2.26c-1.3-.5-2.77-1.13-3.41-1.46-.38-.2-.8-.36-1-.39-.57-.06-1.36-.64-2.31-1.66-1.26-1.35-1.22-1.29-2.41-3.6a4.9 4.9 0 0 1-.36-.83 3.38 3.38 0 0 0-.26-.65c-.2-.4-.2-.41-.24-2.7-.02-2.15-.01-2.33.12-2.48.1-.11.16-.35.2-.85.03-.38.14-1.12.26-1.63.47-2.05.56-3.56.33-5.02a7.74 7.74 0 0 0-1.54-3.64 36.3 36.3 0 0 1-2.26-2.79l-.36-.64c-1.15-1.91-1.16-4.96-.03-7.2a7.2 7.2 0 0 1 2.1-2.47c1.36-1.1 2.62-2.26 3.37-3.08.34-.38.4-.52.69-1.47a9.3 9.3 0 0 0 .3-1.32c0-.21.1-.36.44-.7.68-.69.79-.73 1.71-.58.74.12 1.6.3 3.54.73l1.88.4c.57.11 1.37.3 1.76.4l1.72.39 1.72.4 1.72.4a148.77 148.77 0 0 1 4.68 1.08l2.24.52 1.76.4 1.92.44c1.17.3 3.69.88 4.88 1.16.51.12 1.11.2 1.44.2.31 0 .82.05 1.15.12.76.16 1.92.52 1.98.61.02.04.12.07.23.07.1 0 .29.09.41.2.12.1.53.32.9.48.74.32.84.36 1.58.8a22.1 22.1 0 0 1 3.08 2.28c.45.45.78.93.7 1.05-.1.17-.1.16.35.76a9.9 9.9 0 0 1 1.7 2.94c.15.34.4.95.53 1.36.13.4.3.85.39 1.01.08.15.29.71.46 1.24.18.53.4 1.12.48 1.32.1.2.24.6.32.88.27.86.87 2.54 1.28 3.6.21.55.55 1.47.74 2.04l.62 1.8c.16.42.47 1.34.7 2.04.23.7.6 1.75.83 2.3.23.56.44 1.14.47 1.28.03.15.37 1.14.76 2.22.4 1.08.87 2.4 1.06 2.96a66.75 66.75 0 0 0 1.2 3.3c.06.14.15.44.2.66.03.22.18.66.33.96.13.31.32.76.4 1 .08.24.26.8.42 1.23.27.78.27.79.15 1.14-.13.34-.13.35.08.58.28.29.28.56-.03.94-.36.46-.82.75-2.03 1.3-.6.28-1.36.66-1.7.86-.6.35-1.43 1-1.57 1.2l-.5.65c-.25.3-.64.83-.87 1.18a8 8 0 0 1-.7.94 6.72 6.72 0 0 1-2 1.3c-.61.19-2.12.3-3.26.26-1-.04-1.13-.07-4.03-.74-.65-.15-1.35-.28-1.56-.28-.55 0-2.12.35-2.85.64-.94.38-1.85.64-2.45.72-.29.03-.85.2-1.24.36a11.08 11.08 0 0 1-5.15.84v.01Zm1.3-2.4a8.37 8.37 0 0 0 2.91-.73c.46-.2 1.02-.36 1.46-.43.66-.11 1.12-.24 2.34-.67.25-.09.72-.19 1.04-.22.32-.03.73-.1.9-.16a6.58 6.58 0 0 1 3.24.05c.69.14 1.42.3 1.62.37.47.15 2.21.35 3.08.35.7 0 1.84-.25 2.23-.49.24-.14.44-.4 1.13-1.47a11 11 0 0 1 5.41-4.43l.62-.28-.05-.28a147.6 147.6 0 0 1-1.95-5.73c-.58-1.8-1.27-3.59-1.28-3.34 0 .05-.05.1-.12.1-.07 0-.25-.43-.5-1.18-1.46-4.3-1.88-5.5-2.02-5.77-.08-.16-.19-.48-.24-.71a3.78 3.78 0 0 0-.22-.73 7.46 7.46 0 0 1-.23-.61l-.16-.51c-.04-.13-.04-.18.03-.14.05.03.1.02.13-.02.06-.1-.32-1.36-.64-2.13-.33-.8-.54-1.39-.88-2.44l-.76-2.24c-.88-2.57-1.73-5.15-1.83-5.57-.1-.44-.15-.5-.31-.33-.07.07-.1.05-.15-.07a8.97 8.97 0 0 0-1.75-2.79l-.85-.93a8.88 8.88 0 0 0-1.76-1.44 5.52 5.52 0 0 1-.6-.41c-.26-.2-.55-.39-.64-.42-.16-.04-.19-.02-.19.19 0 .13-.11.4-.27.62l-.27.4-2.15-.01c-2.42-.01-2.8-.06-3.35-.48-.35-.27-.36-.3-.36-.71 0-.38.03-.48.25-.72.32-.36.63-.5 1.32-.56.92-.1.93-.13.15-.33l-1.24-.3c-.29-.06-1.51-.36-2.72-.67-1.2-.31-2.62-.65-3.12-.77-1.55-.37-1.84-.47-1.84-.58 0-.06.06-.11.14-.12.08 0 0-.05-.18-.09l-3.2-.8-4.04-1c-.64-.16-1.45-.36-1.8-.46l-1.64-.43c-1.93-.48-2.37-.6-3.36-.88a66.52 66.52 0 0 0-5.06-1.3c-.22 0-.23.03-.53 1.34-.2.84-.4 1.28-.86 1.9-.5.66-2.46 2.6-3.3 3.26a8 8 0 0 0-.9.8c-.67.8-.87 1.08-.92 1.3l-.24.85c-.15.44-.21.84-.24 1.53-.08 1.5.17 2.6.81 3.66.55.9 1.56 2.08 1.56 1.83 0-.3.23-.11.82.68.76 1.01 1.26 1.87 1.26 2.13v.2l-.2-.24-.21-.24.16.33c.5 1 .73 2.46.73 4.56 0 1.04-.03 1.33-.2 1.98-.23.91-.24.96-.07.9.11-.04.12.02.09.45-.02.28-.1.76-.19 1.06-.12.47-.14.92-.14 2.84l-.01 2.28.25.56c.14.32.3.72.35.9.32 1.22 2.17 3.62 3.45 4.47.65.44 2.81 1.48 3.43 1.67 1.22.36 1.81.7 1.38.78-.07.02.36.25.95.53a16.37 16.37 0 0 1 1.96 1.06c.2 0 1.89 1.59 2.27 2.16.1.15.37.48.59.72.21.24.52.7.67 1 .14.33.32.63.38.68.07.05.12.16.12.23s.08.22.16.33c.13.16.16.17.16.06 0-.36.38-.01.56.52.05.16.12.3.16.32.03.01.2.3.36.64.17.34.34.62.38.62.03 0 .06.07.06.16 0 .08.04.16.1.16.03 0 .18.1.33.24.14.13.28.24.33.24.11 0 .68.57.68.7 0 .05-.06.1-.13.1-.2 0 .36.51.99.9a12 12 0 0 0 2.3 1.09c.13.08.48.2.79.24.3.05.64.13.76.19.17.07.72.15 1.45.2.07.01.55-.02 1.06-.06v-.01Zm-8.42-3.4s-.1-.14-.24-.29c-.13-.15-.24-.3-.24-.32 0-.03-.07-.08-.14-.1-.12-.05-.1-.03.02.13.41.49.6.67.6.59Z" fill="#000"></path><path d="M48.04 128a.9.9 0 0 0-.37-.16c-.07 0-.2-.07-.27-.16-.1-.12-.18-.14-.29-.07-.14.07-.15.04-.15-.64 0-.38.05-.9.12-1.16.06-.25.12-.53.12-.62 0-.09.09-.37.2-.63.11-.27.2-.6.2-.74s.05-.35.12-.46c.06-.11.11-.36.12-.53 0-.19.07-.56.16-.84l.56-2.1c.22-.88.45-1.71.52-1.86.06-.15.2-.64.28-1.1.15-.74.32-1.36.68-2.49.07-.22.23-.8.35-1.28.28-1.06.4-1.53.82-2.85.16-.56.38-1.35.47-1.77.1-.4.3-1.12.45-1.6.15-.47.27-.9.27-.98 0-.06.09-.31.2-.55.11-.24.2-.59.2-.76 0-.18.04-.35.08-.37.05-.03.08-.14.08-.25 0-.13.04-.19.16-.19s.18-.1.28-.42c1.13-3.94 1.32-4.43 1.87-4.9.28-.26.4-.25.5.04.09.25.12.25.53.1.04-.02.13.05.19.15.17.31.02 1.38-.45 3.23-.24.97-.44 1.81-.44 1.87 0 .05.06.1.12.1.16 0 .15.06-.12 1.11a1557.83 1557.83 0 0 1-2.18 8.48c-.32 1.3-.68 2.64-.85 3.13-.09.25-.2.68-.25.96-.05.28-.15.75-.23 1.03l-1 3.52c-.11.33-.26.86-.33 1.16-.23 1.01-.71 2.48-.82 2.55-.3.18-.41.39-.5.91-.07.47-.13.6-.38.86-.26.27-.56.44-.72.44-.04 0-.16-.07-.3-.16ZM67.65 123.92c-.1-.09-.25-.16-.32-.16s-.19-.09-.26-.2c-.17-.27-.95-2.62-1.22-3.68-.2-.77-.24-.88-.39-.85-.14.01-.17-.07-.33-.84a263.83 263.83 0 0 0-1.41-6.91c-.07-.38-.2-.97-.29-1.33-.08-.35-.18-.91-.23-1.24a29.2 29.2 0 0 0-.31-1.71c-.14-.61-.27-1.47-.3-1.9l-.05-.78h.19c.12 0 .27-.1.41-.28.12-.15.26-.28.3-.28.04 0 .17.1.31.2.14.12.28.2.33.16.05-.03.21.02.37.11.15.1.34.17.42.17.18 0 .41.51.41.87 0 .13.07.46.15.74.09.28.27 1.01.41 1.63l.44 1.92c.25 1.02.81 3.47 1 4.4l.49 2.15c.31 1.36.32 1.44.18 1.55-.13.1-.13.15-.04.63.06.3.15.64.22.76.05.12.11.4.11.6 0 .21.11 1.14.25 2.06.26 1.86.26 1.94-.19 2.21-.33.2-.39.2-.65 0ZM64.4 123.06c-2.35-.88-3.09-1.07-4.52-1.22-.63-.06-.83-.06-1.1.04-.23.08-.82.14-1.8.18-1.25.03-1.49.03-1.6-.08a1.1 1.1 0 0 0-.36-.17c-.2-.05-.22-.09-.22-.4 0-.3.04-.4.3-.67.4-.43 1.03-.64 2.13-.76 1.2-.11 3.65-.02 4.46.16.58.12.78.27.53.36-.05.02 0 .07.14.09.5.12 1.54.48 1.96.7.5.25 1.3.86 1.63 1.24.24.29.2.47-.13.7-.26.18-.57.15-1.42-.17ZM43.71 119.03a2.97 2.97 0 0 1-.71-.57 29.57 29.57 0 0 0-2.37-2.46 20.33 20.33 0 0 0-5.03-3.5l-.76-.4-.03-.43c-.01-.38.01-.46.23-.72.25-.3.26-.3.78-.3.84 0 1.74.29 3.3 1.07 2 1 4.21 2.68 5.09 3.84 1.08 1.46 1.48 2.83 1.03 3.54-.11.16-.19.18-.63.17-.39 0-.58-.05-.9-.24ZM61.52 117.65l-1.08-.32a9.73 9.73 0 0 0-2.87-.5c-.86-.03-1.12-.07-1.41-.21-.46-.23-.48-.26-.48-.7 0-1.1 1.33-1.47 4.04-1.13 1.16.15 2.02.54 2.82 1.27.36.32.44.44.48.71.05.44-.1.88-.32.95-.28.07-.79.04-1.18-.07ZM46.08 113.1c-.63-.27-.64-.28-1.24-.96a19.92 19.92 0 0 0-2.45-2.28 7.1 7.1 0 0 0-1.82-.98c-.08 0-.3-.1-.52-.24-.36-.23-.37-.25-.37-.65 0-.36.03-.44.28-.69l.29-.28.7.04a8.87 8.87 0 0 1 5.5 2.83c.92.92 1.23 1.5 1.23 2.24 0 1.08-.54 1.4-1.6.96ZM60.44 112.27c-.13-.02-.56-.12-.96-.23-.4-.1-1.01-.23-1.38-.28-.74-.1-.9-.14-.9-.25 0-.04-.1-.07-.22-.07-.32 0-.42-.13-.42-.61 0-.4.03-.45.4-.84l.4-.41 1.1.05c1.53.05 2.65.41 3.33 1.08.28.27.3.32.3.78-.01.45-.03.52-.22.67-.2.16-.72.2-1.43.1ZM26.56 111.91c-.1-.04-.31-.16-.46-.28-.22-.16-.26-.24-.26-.54 0-.29.05-.4.33-.72.3-.35 2.72-2.43 3.52-3a318.73 318.73 0 0 0 7.5-5.93c.25-.18.65-.5 1.09-.86.09-.08.66-.52 1.28-.98 1.06-.8 2.11-1.62 2.64-2.09.36-.32 1.43-1.1 1.5-1.1.03 0 .39-.27.8-.58a36.34 36.34 0 0 1 4.24-2.94c.66-.34.85-.4 1.22-.4.33 0 .48.03.6.15.09.1.26.16.44.16h.28v.43c0 .4-.04.46-.44.97-.24.3-.66.75-.93 1-.27.24-.63.58-.79.76-.16.16-.46.42-.68.56-.32.2-1.4 1.06-1.56 1.24-.12.12-.88.72-1.2.92-.33.22-1.1.82-1.2.93l-.44.32c-.22.15-.7.52-1.08.82a137.08 137.08 0 0 1-5.08 3.9c-.44.35-1.34 1.04-2 1.53l-5.16 3.84c-.9.68-2.32 1.64-2.65 1.8-.4.2-1.15.24-1.51.1ZM48.42 107.33c-.5-.24-1.28-.75-1.82-1.2-.48-.42-1.3-.94-2.16-1.4-.9-.49-1-.6-1-1.05 0-.31.05-.42.27-.69l.27-.3h.59c.45 0 .76.07 1.27.26 1.17.44 1.67.67 1.66.76-.01.04.04.08.1.1.07 0 .27.09.44.2.18.11.43.26.58.33.3.16.88.84 1.21 1.43.2.36.25.53.25.93 0 .44-.03.5-.2.65-.31.24-.92.23-1.46-.02ZM60.52 106.89c-.57-.16-2.53-.9-3.05-1.17-.24-.12-.27-.17-.27-.5 0-.67.58-.97 1.67-.86.96.09 2.5.69 3 1.14.18.18.21.28.21.66 0 .65-.1.75-.77.78-.3 0-.65-.02-.79-.05ZM24.93 104.12c-.12-.06-.3-.12-.38-.12-.31 0-.4-.33-.37-1.24.01-.71.05-.86.17-.93.12-.07.13-.24.13-1.73 0-1.52-.01-1.74-.21-2.6-.2-.84-.24-.94-.39-.94-.13 0-.2-.07-.25-.25-.19-.54-.86-2.04-1.15-2.55-.11-.2-.16-.42-.16-.74 0-.39.03-.5.2-.66.23-.23.8-.27 1.05-.08.08.07.25.12.37.12.44 0 1.21.97 1.97 2.48.6 1.2.75 1.6.54 1.6-.16 0-.17-.04.07 1 .1.49.22 1.3.25 1.83.04.74.08.93.17.93.1 0 .1.15.08.87a4.62 4.62 0 0 1-.64 2.3c-.25.54-.36.68-.56.74-.33.12-.62.12-.9-.03ZM50.74 102.23c-.4-.19-.52-.22-.66-.15-.15.08-.24.03-.8-.51-.33-.34-.86-.8-1.17-1.03-.51-.4-.55-.45-.57-.76-.04-.4.22-.95.5-1.08.32-.14 1.42.1 2.22.49.9.43 1.36.85 1.5 1.34.09.3.09.37 0 .43-.1.05-.1.12-.02.34.15.4.12.73-.07.97-.2.27-.32.26-.93-.04ZM31.52 100.2a.43.43 0 0 0-.29-.12c-.37 0-.46-.2-.54-1.31-.04-.44-.02-.57.08-.64.1-.08.1-.2-.07-1-.16-.79-.2-.89-.34-.89s-.2-.12-.4-.73a11.26 11.26 0 0 0-1.13-2.58c-.44-.74-.46-.98-.07-1.41.28-.3.32-.32.77-.32.35 0 .63.07 1.05.24.51.2.63.3 1 .78.51.64 1.04 1.72 1.42 2.88.3.93.32 1.06.15 1.06-.12 0-.15.15-.07.55.04.2.07.23.2.17.11-.06.14-.03.19.23.18 1.11-.07 2.35-.59 2.89-.29.3-.33.32-.78.32-.34 0-.52-.04-.59-.12ZM54.8 98.57c0-.09.05-.17.1-.17.06 0 .15-.07.2-.16a.38.38 0 0 1 .3-.16c.34 0 .26.1-.37.51-.22.15-.23.15-.23-.02ZM36.41 97.27c-.4-.19-.44-.26-.66-1.5-.43-2.43-.58-2.97-.96-3.62-.34-.56-.32-.93.05-1.35.24-.26.35-.32.59-.32.27 0 1.36.4 1.75.65.19.11.5.62.5.8 0 .07.14.4.3.73.4.8.62 1.87.55 2.81-.04.73-.35 1.67-.59 1.85-.21.17-1.11.14-1.53-.05ZM61.46 96.03c-.44-.21-.82-.65-.82-.93 0-.11-.04-.14-.17-.1-.16.06-.16.04-.13-.73.02-.78.03-.8.3-1.11.4-.45.6-.6.94-.65.24-.04.28-.03.24.07-.06.17.35.47.64.47.14 0 .26.06.33.16.15.24.65 1.8.65 2.02 0 .25-.36.75-.64.9-.35.18-.87.15-1.34-.1ZM41.6 94.56c-.06-.11-.17-.16-.35-.16-.19 0-.3-.05-.33-.13-.03-.08-.09-.67-.12-1.31-.04-.64-.13-1.36-.2-1.6-.17-.6-.15-.89.06-1.2.16-.25.23-.28.62-.3.25-.02.54.02.72.1.15.06.38.13.5.16.19.04.27.15.48.59.25.52.26.56.28 1.83.03 1.21.02 1.32-.14 1.6-.24.41-.53.58-1.04.58-.32 0-.41-.03-.48-.16ZM54.15 92.14c-.49-.24-.51-.28-.53-.57-.02-.17.01-.4.06-.53.19-.45 1.18-1.23 2.22-1.75.74-.37 1.19-.43 1.42-.17.08.09.25.16.37.16.13 0 .33.1.51.25.26.23.28.29.28.67 0 .47-.24.87-.68 1.12-1.8 1.07-1.84 1.08-2.5 1.08-.56 0-.7-.03-1.15-.25ZM22.78 89.6c-.12-.03-.3-.12-.4-.2a.65.65 0 0 0-.3-.12c-.25 0-.32-.52-.13-.86.13-.24.52-.5.75-.5.1 0 .37-.05.62-.11.24-.07.88-.16 1.43-.21.53-.05 1.42-.13 1.97-.2 1.93-.22 3.4-.37 4.44-.44.58-.04 1.66-.14 2.4-.23.75-.09 1.99-.2 2.75-.25.76-.05 1.56-.12 1.77-.16.2-.04.68-.07 1.05-.07s.94-.04 1.28-.08c.33-.05 1.3-.12 2.16-.17 1.93-.1 2.54-.16 2.6-.25.02-.04.21-.07.42-.07.28 0 .43.04.53.16.1.1.25.16.45.16.37 0 .47.15.47.75 0 .32-.05.5-.17.7-.32.45-.55.56-1.32.64a262.36 262.36 0 0 1-11.95.99c-1.29.07-3.05.2-4.16.28-1.54.12-5.3.32-5.9.31-.3 0-.63-.03-.75-.07ZM22.78 85.84a.4.4 0 0 0-.3-.16.73.73 0 0 1-.32-.08c-.1-.07-.1-.1.02-.2.08-.05.14-.15.14-.2a15.33 15.33 0 0 1 1.4-2.89c.41-.6.8-1.4.96-1.95.33-1.12.38-1.29.53-1.5.2-.29.52-.3.64-.02.11.22.16.24.39.1.29-.18.36.02.38 1.05.03.91.02.97-.24 1.65l-.34.86c-.04.1-.02.13.07.13.18 0 .16.12-.06.56-.69 1.35-1.27 2.1-2 2.56-.5.3-1.1.35-1.27.08v.01ZM31.14 85.68c-.03-.13-.1-.16-.35-.16h-.31v-.4c0-.21.07-.58.15-.81.16-.44.52-1.62.6-2 .03-.13.1-.23.17-.23.17 0 .28-.26.28-.72 0-.49.15-.89.4-1.07.25-.17.45-.16.64.03.09.09.26.16.4.16.32 0 .48.27.53.88.04.4.08.48.2.48.13 0 .15.07.15.6 0 .37-.05.72-.13.9a4.5 4.5 0 0 0-.2.69c-.11.61-.78 1.47-1.33 1.7-.14.07-.46.11-.7.11-.38 0-.46-.02-.5-.16ZM38.02 84.96c-.03-.11-.1-.16-.27-.16-.14 0-.25-.05-.29-.12-.08-.21.13-1.57.36-2.25.24-.76.21-.75 1.3-.72 1.03.03 1.2.19 1.2 1.1 0 .84-.45 1.81-1 2.15-.18.11-.4.16-.76.16-.42 0-.5-.02-.53-.16ZM111.07 122.58a10.28 10.28 0 0 1-2.02-1.97 4.7 4.7 0 0 0-.49-.57c-.1-.09-.27-.29-.36-.44-.1-.15-.42-.55-.72-.88-.3-.33-.72-.86-.95-1.17l-.4-.59h-2.2c-6.16 0-13.23-.32-14.45-.65a8.07 8.07 0 0 0-1.08-.15c-.7-.05-.83-.09-1.58-.45a8.03 8.03 0 0 1-1.32-.84l-.75-.59a10.2 10.2 0 0 1-.92-.86c-.54-.53-.71-.75-.71-.92 0-.28-.23-.78-.57-1.28a11.63 11.63 0 0 1-1.24-2.84c-.13-.21-.15-.48-.16-1.52v-1.27l-.34-.28a6.77 6.77 0 0 1-1.73-3.25 7.28 7.28 0 0 1 1.02-5.36 12.7 12.7 0 0 1 1.77-2.25c.12-.18.11-.24-.16-.9l-.28-.7.03-1.16.04-1.17.42-.98a6.4 6.4 0 0 1 1.27-2.2c.86-1.04 2.35-2.2 3-2.34.2-.04.22-.07.22-.47 0-.46.08-1.1.28-2.12.08-.46.24-.94.52-1.52.4-.82.46-.9 1.55-1.98.61-.62 1.23-1.17 1.36-1.24.18-.09.25-.19.31-.43.5-2.26 1.08-3.3 2.83-5.1a8.11 8.11 0 0 1 4.68-2.3c.47-.06.88-.12.92-.15.08-.05.59-.87.59-.94 0-.01.15-.25.33-.5.7-.96 2.87-2.89 3.25-2.89.06 0 .33-.13.58-.28 1-.61 1.99-.83 4.01-.91l1.57-.07.53-.48a6.45 6.45 0 0 1 3.82-1.83c.6-.09.9-.1 1.32-.03.83.13 1.22.23 1.6.4.18.09.38.16.43.16.15 0 .7.33 1.19.68.76.57.75.57 1.14.45a9.23 9.23 0 0 1 6.4-.06 11 11 0 0 1 2.19 1.03c.22.14.59.41.82.6l.43.36.65-.04c.73-.05 2.23.05 2.78.19 1.34.33 2.61.91 3.56 1.63a8.6 8.6 0 0 1 1.76 1.75c.03.1.13.33.24.53.1.2.2.47.23.61.07.32.25.48.6.55.49.09 2.02.61 2.4.8.2.1.44.27.52.35a7.82 7.82 0 0 1 2.27 2.18c.54.81.7 1.1.97 1.78.37.91.44 1.4.33 2.2-.05.38-.13.72-.16.77-.1.11-1.4 3.17-1.73 4.05-.06.16-.46 1.03-.88 1.92-.43.9-.89 1.92-1.03 2.27l-.59 1.32-.5 1.12c-.09.24-.27.62-.4.85-.12.23-.43.88-.68 1.44a117 117 0 0 1-1.05 2.35l-1.88 4.09-.24.52.28.4c.15.21.35.54.44.72.1.18.22.38.28.44.06.06.39.54.74 1.07l.98 1.5c.39.6.58 1.12.58 1.58 0 .34-.1.47-.5.78l-1.31 1.05a32 32 0 0 1-1.99 1.48c-.53.36-1.13.78-1.32.94-.2.16-.42.3-.48.33-.18.06-1.25.85-1.22.9.1.2-.05.36-.62.7-.34.2-.66.38-.7.38-.16 0-.49.46-.7 1a9 9 0 0 1-.76 1.34l-.63.97c-.11.21-.53.56-.98.8-.15.09-.43.29-.63.45-.7.56-1.56.96-2.79 1.28-1.28.35-1.8.4-3.79.45l-1.95.05-.77.7c-.41.4-.78.72-.82.72-.04 0-.36.28-.72.62a28.8 28.8 0 0 1-1.77 1.58c-2.32 1.94-2.14 1.83-2.99 1.86-.55.02-.76 0-1.02-.13Zm1.8-3.01 1.18-.98c.27-.22.77-.65 1.1-.96l.6-.55h-3.06c-1.67 0-3.19 0-3.36.03l-.3.01.48.52c.27.29.55.63.63.75.07.11.36.47.65.77l.78.87c.32.36.33.36 1.3-.46Zm5.81-4.85c.61-.04 1.38-.11 1.68-.16.31-.05.96-.11 1.45-.16a5.57 5.57 0 0 0 1.2-.2c.16-.06.5-.14.74-.17a3.7 3.7 0 0 0 1.83-.85 8.82 8.82 0 0 0 1.51-2.03c.12-.26.33-.63.47-.83.46-.65 1.15-2.02 1.72-3.44a84.1 84.1 0 0 1 2.04-4.61c.22-.5.4-.64.46-.36.01.07.13-.13.25-.47.13-.33.59-1.4 1.02-2.36.44-.97.79-1.8.79-1.86 0-.05.16-.42.35-.81.2-.4.4-.86.45-1.03.06-.16.26-.6.44-.98.2-.38.4-.86.47-1.07.07-.22.21-.49.29-.62a1 1 0 0 0 .16-.28c0-.06.43-1 1.46-3.19a98.92 98.92 0 0 0 1.5-3.28c.2-.44.56-1.22.81-1.72.26-.5.47-.95.47-1 0-.1.61-1.43 1.52-3.28 1.2-2.46.9-4.04-1.12-6.04a4.76 4.76 0 0 0-2.23-1.4c-.04.02-.12.18-.17.34a81.92 81.92 0 0 0-1.55 4.31c-.11.33-.16.6-.12.63.13.08.08.41-.13.97-.44 1.15-.62 1.63-1.05 2.83l-.5 1.44-.36.96c-.47 1.2-.63 1.62-1.16 3.04l-1.02 2.64c-.29.73-.6 1.57-.71 1.87-.18.53-.29.69-.48.69-.1 0-.35.54-.7 1.6-.15.46-.46 1.3-.68 1.85-.94 2.35-1.33 2.92-1.94 2.84a.91.91 0 0 1-.44-.16c-.07-.07-.17-.1-.23-.08-.14.05-.36-.18-.36-.38 0-.09.04-.27.1-.41a3 3 0 0 0 .17-.56c.03-.17.18-.64.33-1.04.16-.41.33-.95.4-1.2.1-.44.1-.45-.05-.38-.12.06-.16.05-.16-.03 0-.05.45-1.36 1-2.88a75.35 75.35 0 0 0 1.3-3.81l.51-1.6c.12-.42.27-.83.3-.92.05-.09.22-.54.38-1l.69-1.96c.22-.62.45-1.34.52-1.6.06-.27.19-.66.28-.88.09-.22.3-.84.49-1.38.28-.88.34-.98.51-.98.2 0 .34-.27.55-1.07.07-.28.21-.69.31-.93.11-.24.28-.71.4-1.04l.44-1.12a7.4 7.4 0 0 0 .56-1.88c0-.37-.61-1.31-1.3-2-.55-.54-.78-.71-1.45-1.03a6.69 6.69 0 0 0-2.82-.69c-.72 0-.78.06-.9 1.12l-.4 2.76c-.25 1.6-.8 5.71-.8 5.98 0 .04.05.06.12.06.1 0 .12.05.08.25l-.17 1.26c-.3 2.48-.63 4.81-1.11 8.01a154.03 154.03 0 0 1-.77 5.08c-.09.53-.23 1.48-.31 2.12-.2 1.41-.21 1.5-.4 1.67-.08.07-.22.43-.32.81-.34 1.34-.62 1.65-1.23 1.37-.19-.09-.4-.18-.48-.2-.09-.03-.17-.12-.2-.22-.02-.1-.08-.14-.16-.11-.4.14-.36-.54.2-5.32.1-.95.22-1.88.27-2.08l.15-1.24.2-1.84.24-2.04c.26-2.23.53-4.34.9-6.9.02-.17.08-.3.14-.3.13 0 .16-.13.28-.96l.2-1.4c.07-.44.18-1.34.25-2 .21-2.06.28-2.63.36-2.92l.16-1.16.16-1.63c.05-.5.05-.79 0-.89-.13-.23-.91-.79-1.48-1.05a7.07 7.07 0 0 0-2.14-.53c-.5-.04-.57-.03-.53.08.04.1-.08.12-.84.16-.5.03-1.01.1-1.16.14l-.27.1.05.61.08 1.69c.03.6.1 1.93.17 2.96l.2 3.44.11 1.9c.04.26.01.36-.08.39-.09.04-.12.2-.12.67 0 .7.05.88.21.88.07 0 .11.1.11.3l.08 1.5c.05.67.14 2.55.2 4.2.07 1.65.18 3.87.25 4.92.16 2.83.3 6.44.27 7.43-.03.81-.05.88-.23 1.03-.17.13-.28.15-.68.13-.26-.03-.5-.08-.51-.13-.02-.06-.11-.1-.22-.1-.47 0-.6-.7-.95-5.36-.07-.81-.19-2.08-.28-2.84a65.8 65.8 0 0 1-.2-2.12c-.06-1-.33-4.05-.5-5.52l-.2-2.12c-.2-2.53-.31-4.18-.38-5.24-.05-.64-.1-1.3-.13-1.48-.05-.4-.23-2.64-.44-5.08-.16-2.08-.2-2.22-.69-2.63-.28-.23-.29-.25-.15-.35.13-.1.1-.13-.36-.34-.47-.2-.6-.23-1.36-.22-.68 0-.94.04-1.41.2a6.2 6.2 0 0 0-1.82 1c-.2.18-.22.25-.19.62.02.23.14.66.27.96.18.43.25.52.37.5.16-.04.15-.05.3.7.06.23.2.73.33 1.13.28.91.52 1.74.8 2.86.16.61.33 1.21.45 1.58.06.2.1.47.1.61s.08.41.16.61.2.56.24.82l.2.76c.14.31.4 1.36.57 2.17a67.48 67.48 0 0 1 1.17 4.3c.03.16.11.42.19.58.06.17.12.4.12.54s.09.45.19.71c.1.25.23.7.28 1 .04.31.12.6.17.65.04.04.08.2.08.33 0 .15.03.28.07.3.04.04.1.25.13.48.03.22.1.6.16.81l.19.76.61 2.4c1.32 5.12 1.55 6.6 1.08 6.97-.23.2-.61.2-1 0a1.52 1.52 0 0 0-.43-.17c-.05 0-.18-.08-.28-.2l-.19-.2-.04.36c-.07.53-.15.6-.8.6-.29 0-.55-.03-.58-.07-.03-.04-.2-.15-.4-.24-.26-.13-.45-.33-.81-.85-.27-.37-.62-.87-.8-1.1-.18-.23-.5-.7-.72-1.05-.21-.36-.59-.95-.83-1.32-.24-.38-.6-1-.8-1.37-.2-.38-.75-1.26-1.21-1.96a27.1 27.1 0 0 1-1.63-2.67 13.4 13.4 0 0 1-.47-.82c-.02-.08-.3-.53-.6-1.01-.32-.49-.64-1.02-.72-1.19a132.53 132.53 0 0 1-2.83-4.98 7.75 7.75 0 0 0-.55-.88 5.7 5.7 0 0 1-.39-.63l-.45-.77a3.61 3.61 0 0 1-.28-.49c0-.03-.12-.23-.27-.43-.14-.2-.36-.54-.47-.74-.17-.32-.2-.39-.09-.47.07-.05.11-.13.11-.18 0-.1-.78-1.29-1.24-1.9-.2-.23-.52-.78-.74-1.2l-.4-.75h-.42a7.1 7.1 0 0 0-2.96 1.15c-.37.24-1.31 1.2-1.69 1.69-.11.15-.36.64-.55 1.08-.3.7-.35.88-.35 1.4 0 .46.03.65.16.84.08.13.73.81 1.45 1.51 1.15 1.13 1.31 1.26 1.43 1.17.11-.1.2-.04.78.56a71.86 71.86 0 0 1 3 3.3 16 16 0 0 1 1.29 1.3c.1.13.63.71 1.17 1.28.55.57 1.07 1.11 1.14 1.2l.54.52c.22.2.77.77 1.23 1.28l1.26 1.36c.23.24.5.57.63.72.12.15.5.57.84.92.34.35.86.94 1.16 1.32a54.79 54.79 0 0 0 1.9 2.23 166.98 166.98 0 0 0 1.86 2.1l.72.83c.22.25.44.55.5.66.13.23.09.76-.06.94-.13.14-.92.16-1.37.04a8.75 8.75 0 0 1-2.12-1.68 46.79 46.79 0 0 0-2.25-2.1 1.41 1.41 0 0 1-.39-.4.8.8 0 0 0-.3-.27c-.27-.13-9.64-9.5-10.7-10.69a6.74 6.74 0 0 0-.85-.84c-.15-.1-.27-.24-.27-.3s-.47-.58-1.05-1.15c-.86-.83-1.05-1.06-.96-1.14.05-.05.1-.12.1-.16 0-.02-.27-.32-.58-.64-.32-.34-.9-.97-1.3-1.43-1-1.12-1-1.12-1.1-1.12-.2 0-1.25 1.35-1.58 2.05-.24.5-.41 1.37-.52 2.73-.07.76-.1.72.87 1.39.52.36.56.37.7.26.13-.12.16-.1.44.06.17.1.53.35.8.57.27.2.53.38.58.38.05 0 .3.2.56.43.26.24.63.54.82.67.19.12.63.45.97.72.34.28.75.57.92.65.16.1.4.28.53.41.14.15.41.34.61.44.2.1.41.25.48.32.05.07.29.26.53.42.23.15.5.38.6.51.08.13.2.23.26.23s.33.19.6.4c.28.23.56.4.61.4.06 0 .17.09.24.2.07.11.17.2.21.2.04 0 .44.27.89.6l1.37 1c.31.23.76.57 1 .77l.56.46.67.56c.3.25.64.5.75.56.11.04.31.19.44.31s.28.22.32.22c.1 0 .42.25.93.7.2.18.48.38.61.45.14.06.56.39.96.72.4.34.75.61.79.61.08 0 1.16.86 2.8 2.2l1.17.96v.39c0 .38-.1.68-.27.79-.13.09-.92.08-1.23 0-.32-.1-1.35-.71-2.56-1.53l-1.54-1.01c-.35-.23-.79-.54-.97-.69-.38-.3-.8-.6-2.55-1.79a28.5 28.5 0 0 1-1.53-1.08c-.2-.17-.54-.4-.75-.52-.22-.12-.91-.59-1.53-1.03-1-.7-3.31-2.33-4.85-3.39-.27-.2-.59-.43-.7-.53-.36-.32-1.08-.82-1.54-1.09-.25-.14-.5-.32-.56-.39a.96.96 0 0 0-.3-.23 3.67 3.67 0 0 1-.52-.39 2.2 2.2 0 0 0-.47-.32c-.1-.02-.31-.18-.49-.35a12.4 12.4 0 0 0-1.24-.92c-1.42-.96-1.46-1-1.32-1.15.1-.11.06-.17-.36-.5a1.89 1.89 0 0 0-.64-.39c-.37 0-1.02.45-1.84 1.27-.9.9-1.11 1.24-1.57 2.44-.26.66-.28.78-.25 1.41.02.6.06.76.3 1.24.3.57.42.69 1.07.96.3.13.3.13.2-.05-.08-.17-.07-.17.18-.12.47.09 1.47.48 3.91 1.53.69.29 1.66.7 2.16.89.51.2 1.23.5 1.6.67l2.52 1.07c1.02.42 2.35.99 2.97 1.26l4.27 1.83c1.34.56 2.25.96 4.05 1.76.7.32 1.63.72 2.07.9.43.18 1.51.7 2.4 1.13l1.6.81.03.3c.02.21-.03.37-.15.55l-.18.25-.73-.03c-.52-.04-.92-.11-1.44-.3a90.6 90.6 0 0 1-3.96-1.49c-.43-.18-.85-.34-2.16-.8-.72-.25-1.54-.57-1.92-.73a6.72 6.72 0 0 0-.64-.23c-.2-.06-.74-.26-1.2-.46-.47-.2-1.35-.55-1.96-.77a215.73 215.73 0 0 1-6.11-2.34c-.6-.23-1.51-.58-2.01-.79-.5-.2-1.11-.44-1.35-.5a98.78 98.78 0 0 1-2.42-.98c-.25-.1-.4-.22-.45-.36-.06-.16-.25-.27-1-.57l-1.53-.64-.63-.27-.3.36c-.41.48-1.25 2.14-1.42 2.8a6.9 6.9 0 0 0-.14 1.56c0 1.21.15 1.83.69 2.7l.5.88c.25.45.45.6.97.7.3.05.45.04.6-.04.18-.1.37-.08 1.4.08.66.1 1.41.24 1.68.31.26.07.73.14 1.04.17.31.03.76.1 1 .17.24.06.98.2 1.64.31 1.73.27 4.6.8 5.4 1 .37.08 1.24.25 1.92.36.68.12 1.85.35 2.6.5.75.15 1.66.32 2.04.38.37.06 1.1.2 1.6.31 1.04.24 2.88.57 3.48.65.88.12 2.9.7 3.3.96.24.17.25.75 0 1.13-.15.27-.17.27-.69.27a29.1 29.1 0 0 1-4.7-.55c-.47-.09-1.5-.25-2.27-.37a268.27 268.27 0 0 1-5.16-.8c-1.66-.24-4.64-.74-6.72-1.12l-2.32-.4c-.92-.15-2.17-.36-2.76-.48-.6-.11-1.53-.27-2.07-.35l-.99-.14.05.36c.11.83.75 2.53 1 2.69a9.63 9.63 0 0 0 1.84 2.3c.92.84 1.91 1.5 2.77 1.81l.71.27 6.84.06c9.13.1 19.32.25 19.36.29.05.05.86.03 2.05-.05l-.01-.01Zm14.82-8.5c.93-.72.99-.75 1.97-1.44.35-.25.77-.56.91-.68l.27-.22-.4-.81c-.78-1.58-1.29-2.36-1.29-1.95 0 .08-.68 1.59-1.39 3.07-.25.52-.53 1.17-.64 1.45-.1.27-.27.64-.35.82-.16.31-.16.43 0 .43.04 0 .46-.3.92-.66Zm-16.54-9.68c-.1-.3-.25-.7-.35-.92-.1-.21-.23-.56-.28-.78a62.22 62.22 0 0 0-1.06-3.6l-.24-.8A84.19 84.19 0 0 0 114 87a17.9 17.9 0 0 1-.73-2.49c0-.08-.08-.31-.17-.51-.08-.2-.21-.63-.28-.95a4.17 4.17 0 0 0-.25-.88 2.52 2.52 0 0 1-.21-.68 5.4 5.4 0 0 0-.2-.84c-.09-.25-.25-.81-.38-1.25-.1-.44-.3-1.12-.43-1.52a92.7 92.7 0 0 1-1-3.56c-.36-1.31-.51-1.82-.67-2.28-.2-.6-.4-1.31-.45-1.67-.02-.2-.1-.5-.16-.66-.12-.27-.12-.3.01-.44.14-.16.15-.11-.25-1.55-.1-.36-.2-.83-.23-1.04-.1-.67-.08-.66-1-.5a8.4 8.4 0 0 0-4.31 2.01 8.74 8.74 0 0 0-1.46 2.06c-.3.65-.24.85.53 2.12.27.44.6 1.03.75 1.32.31.62.29.59.43.48.13-.12.21-.01.65.87.17.33.36.69.44.8.08.11.4.63.7 1.16l1.44 2.43a71.68 71.68 0 0 1 1.22 2c.17.27.4.64.5.83l.36.62c.1.15.43.75.76 1.32.32.58.74 1.26.92 1.52.17.27.68 1.15 1.14 1.96.45.82 1.04 1.83 1.31 2.26.66 1.04.94 1.52 1.51 2.62.55 1.03 1.64 2.99 2.03 3.62l.3.53c.14.23.25.4.27.39.02-.02-.04-.28-.13-.56h-.01ZM72.15 77.83c-.7-.08-2.91-.72-3.45-1-.88-.44-1.52-1-1.72-1.5-.15-.4-.12-1.19.06-1.61.33-.76.14-1.92-.35-2.24a2.8 2.8 0 0 0-.92-.21 6.4 6.4 0 0 1-1.41-.28l-.27.53a5.55 5.55 0 0 1-2.21 2.17c-.73.35-1.31.43-1.97.27-.51-.12-.56-.12-1.18.04-.4.1-.76.15-.92.12a4.16 4.16 0 0 1-1.96-1.13c-.26-.28-.27-.32-.24-.86.03-.5.07-.62.3-.95.24-.33.27-.44.33-1.16.19-2.48 2.07-6.54 4.21-9.14.52-.63 2.04-2.15 2.73-2.75.36-.31.68-.64.7-.74a.75.75 0 0 0-.08-.43c-.12-.24-.13-.36-.05-1.04a15.82 15.82 0 0 1 2.77-7.4c.23-.36.53-.8.68-.98.16-.18.4-.51.56-.72a23.29 23.29 0 0 1 5.45-4.8c.3-.24 2.32-1.22 3.5-1.7 1.03-.4 2.78-.88 3.29-.88a13.5 13.5 0 0 1 3.12-.24H85l.56-.57a10.68 10.68 0 0 1 3.8-2.54c1.44-.59 4.24-.96 5.62-.73.55.09.64.06.84-.27.68-1.13 2.13-2.08 4.02-2.61a3.5 3.5 0 0 1 1.64-.21c.4.03.93.1 1.2.18.96.24.8.3 1.8-.72 1.3-1.34 1.91-1.64 3.36-1.65.68 0 1.2-.1 1.2-.24 0-.15 1-1.07 1.5-1.4a6.2 6.2 0 0 1 3.47-.98c.65-.02 1.19 0 1.32.04.27.09.39.04.73-.28.76-.7 1.86-.93 3.3-.7.25.04.32 0 .6-.26.95-.9 1.6-1.13 2.57-.9.28.08.74.08 1.93 0l1.58-.1.26-.31c.15-.17.42-.36.59-.43.64-.26 1.78-.1 2.64.38.24.13.3.21.35.49.16.94 0 1.4-.88 2.36-.33.37-.6.7-.6.73 0 .03-.18.2-.4.35-.39.3-.56.56-.56.84 0 .25-.62 1.38-1.06 1.93-.48.6-1.69 1.75-2.24 2.13-.3.2-.38.3-.38.49 0 .47-.53 1.78-1 2.45-.44.65-1.26 1.6-1.96 2.29a8.84 8.84 0 0 1-3.41 2.15c-.16.06-.28.17-.3.28-.17.68-1.07 2.28-1.7 3-.69.82-2.02 2.11-2.47 2.42-.73.5-1.6.93-2.06 1.03-.61.13-.74.24-.93.81-.47 1.4-2.06 3.5-3.65 4.82a8.06 8.06 0 0 1-2.26 1.37c-.46.18-.65.3-.88.59-.34.41-1.33 1.45-2.39 2.51-1.73 1.73-2.22 2.13-2.61 2.13-.26 0-.97-.34-1.24-.59-.49-.44-.13-.9 3.21-4.08.74-.71 1.41-1.4 1.49-1.56.22-.44.63-.79.98-.84.48-.07 1.65-.7 2.22-1.17 1.44-1.22 3.2-3.29 3.2-3.75 0-.08-.12-.2-.25-.3-.2-.11-.33-.31-.51-.75-.27-.64-.37-.8-1.07-1.72-.55-.7-3.07-3.23-3.81-3.81-.3-.24-.88-.67-1.28-.95-.4-.28-.83-.6-.96-.73a2.7 2.7 0 0 0-.57-.37 10 10 0 0 1-.8-.48A21.37 21.37 0 0 0 96 37.55c-1.05-.37-3.43-.13-5.4.55-1.19.4-3.2 1.55-3.15 1.8.02.06.4.28.87.5 1.09.49 2.04 1.03 2.83 1.63l1.32.99a22.54 22.54 0 0 1 5.27 6.33c.28.55.5 1.05.5 1.12 0 .07.05.21.13.3.12.18.67 2.23.67 2.5 0 .3-.2.77-.4.98-.27.26-.51.28-1.07.09-.55-.2-.83-.55-.89-1.12a2.66 2.66 0 0 0-.18-.7c-.06-.12-.2-.46-.29-.75a12.25 12.25 0 0 0-1.82-3.7 22.87 22.87 0 0 0-3.3-3.62 17.6 17.6 0 0 0-4.13-2.82L85.72 41l-1.56.01c-1.36 0-1.75.04-3.05.27-.83.13-1.72.32-1.96.4-1.59.5-2.1.74-4.35 1.95-1.07.57-2.19 1.35-2.8 1.94-.15.16-.53.5-.83.78-.47.41-1.72 1.85-2.34 2.67-.48.65-1.47 2.48-1.9 3.55-.26.64-.52 1.82-.58 2.7-.06.76-.06.76.61.45.62-.3 2.5-.9 3.07-1 .64-.1 2.4-.1 3.22 0 .6.08 1.5.34 2.4.7 2 .82 2.48.98 4.14 1.34.51.12 1.71.34 2.66.49 1.59.25 1.87.27 3.43.27 2.99 0 5.46-.26 6.88-.72.6-.2 1.97-.85 2.44-1.17.34-.23.52-.23.78-.03.11.09.29.16.4.16.09 0 .23.06.3.13.38.38-.44 1.4-1.6 2-.95.51-1.29.66-1.6.72-.17.03-.52.13-.76.2-1.62.57-4.09.8-6.84.65a29.23 29.23 0 0 1-5.52-.77c-.49-.07-1.36-.3-2.28-.6-3.59-1.18-4.23-1.33-5.72-1.26a8.42 8.42 0 0 0-2.78.47c-1.6.54-2.53 1.04-4.28 2.32a15.82 15.82 0 0 0-3.71 3.99l-.78 1.13c-.58.87-1.35 2.68-2.05 4.87a5.75 5.75 0 0 1-.69 1.61c-.15.2-.04.25.61.31.33.04.68.12.78.19.1.08.34.13.6.13.38 0 .45-.04.89-.4.9-.74 1.25-1.23 1.5-2 .3-1 .52-1.51 1.07-2.47a11.34 11.34 0 0 1 2.12-2.77 11.4 11.4 0 0 1 3.12-2.46A18.73 18.73 0 0 1 74 59.91c1.14-.33 3.37-.46 5.48-.32 2.44.16 3.62.43 7.16 1.65 1.13.4 1.4.46 1.88.45 1.06 0 2.48-.42 3.48-1 .83-.5.87-.5 1.54-.21.32.14.67.33.77.44.17.16.18.2.09.47-.14.42-.42.72-1.07 1.12a8.34 8.34 0 0 1-3.92 1.22c-.97.07-1.68-.12-3.09-.79-.6-.29-1.19-.56-1.32-.6-1.07-.4-4.7-.9-6.52-.9-3 0-5.91.71-8.23 1.99-.85.47-1.9 1.18-2.46 1.66-.57.49-1.77 1.84-2.11 2.37-.3.47-.88 1.54-.88 1.6 0 .03.26.06.58.06 1.04 0 2.2.37 3.1.99.93.64 1.26 1.22 1.33 2.42.05.77.04.8-.24 1.49-.37.89-.37 1.04-.02 1.2.4.2 1.52.45 2.21.5.49.04.74.01 1.37-.15a4.42 4.42 0 0 0 2.12-1.12c.32-.27.72-.57.85-.67a.99.99 0 0 1 1.02-.07c.11.07.38.12.6.12.48 0 .94-.21 1.68-.79 1-.77.96-.76 1.44-.65.4.1.44.09.71-.07.4-.25.83-.77 1.29-1.54.21-.36.56-.84.76-1.04.4-.42.3-.4 1.3-.15.83.22 1.61-.05 2.45-.85.74-.7.89-.75 1.84-.75.6 0 .93-.04 1.34-.17.5-.16.62-.25 1.32-.95.41-.41.97-1.04 1.24-1.37.25-.35.64-.85.85-1.12.73-.95 1-1.48 1.17-2.36.2-.94.4-1.5.71-1.8.25-.27.36-.28.63-.07.12.09.31.16.43.16s.28.07.36.16c.13.15.13.22.05.74l-.13 1.21c-.03.35-.1.8-.18 1-.32.98-2.24 3.67-3.48 4.9-1.24 1.21-2.02 1.59-3.36 1.59-.6 0-.66.02-1.01.27-.2.16-.47.39-.6.52-.25.26-.86.58-1.49.78-.27.09-.59.1-1.28.06l-.92-.04-.31.54c-.4.71-.98 1.4-1.27 1.49-.12.05-.22.11-.22.14 0 .17-.75.56-1.19.61-.52.06-.89.2-1.1.4-.31.3-.77.6-1.22.82-.38.17-.6.21-1.37.24l-.92.04-.27.26a6.74 6.74 0 0 1-2.89 1.57c-.96.26-1.27.3-1.93.21v.01Zm37.97-31.91c.17-.09.35-.15.38-.16.13 0 1.36-.85 1.78-1.21.8-.7 2.14-2.28 2.48-2.95l.14-.28-1-.96c-.99-.94-1.33-1.2-3.93-2.85a41.9 41.9 0 0 0-4.3-2.18c-1.84-.87-2.31-1.03-3.2-1.07a5.73 5.73 0 0 0-2.38.38c-.6.22-1.57.85-2.09 1.35l-.44.42.2.11a17.25 17.25 0 0 1 3.96 2.28 13.78 13.78 0 0 1 2.1 1.5c.5.4.94.74.98.74.03 0 .1.08.12.16.03.09.16.23.27.3.53.34 2.4 2.22 2.84 2.86a10.9 10.9 0 0 0 1.33 1.64c.19.12.41.09.76-.08Zm6.69-6.69c.38-.08.64-.2.83-.36.14-.12.3-.23.33-.23.19 0 2.23-1.65 2.23-1.8 0-.04-.19-.17-.42-.28-.46-.23-.74-.45-.74-.6a10.96 10.96 0 0 0-2.31-1.83 20.9 20.9 0 0 0-2.41-1.27c-.73-.3-1.44-.52-2.28-.72-.88-.2-3.18-.28-3.91-.15-.59.1-1.49.55-2.1 1.03l-.45.36.19.15c.1.08.55.3 1 .48.43.18 1.63.73 2.63 1.23 1.78.87 2.13 1.08 4.93 2.99.2.13.59.44.86.68.56.52.68.54 1.62.32Zm4.5-3.79c.27-.32.69-1.2.69-1.45a.54.54 0 0 0-.17-.36c-.1-.08-.25-.32-.36-.55-.25-.49-1.74-2-2.36-2.38a9.36 9.36 0 0 0-3.48-1.38 2.98 2.98 0 0 0-1.52 0c-1.08.18-2.27.59-2.27.77 0 .1.08.16.3.19.48.07 1.53.37 2.18.63 1 .38 2.98 1.37 3.4 1.7a13.07 13.07 0 0 1 3.31 3.06c.04.01.17-.1.28-.23Zm1.98-3.95c.14-.31-.2-.95-.86-1.6-.65-.64-1.65-1.33-1.92-1.33-.11 0-.32-.05-.47-.11-.37-.15-1.24-.2-1.24-.07 0 .04.3.22.67.41a9.66 9.66 0 0 1 3.18 2.47c.2.23.4.42.45.42.06 0 .14-.09.19-.2Zm1.9-1.9c.12-.13.11-.47-.04-.93-.22-.63-.52-.88-1.55-1.21-.66-.22-1.36-.23-1.36 0 0 .03.31.28.7.54.39.27.97.76 1.3 1.09.59.6.76.69.94.5Zm1.77-2.76.36-.37-.35.25c-.2.14-.4.25-.47.25-.11 0-.14.1-.05.18.09.1.15.07.5-.31Z" fill="#000"></path><path d="M49.96 125.28c-.03-.03.03-.27.12-.51.08-.25.25-.84.36-1.31a24 24 0 0 1 .4-1.46c.16-.52.41-1.4 1-3.52.09-.29.2-.75.24-1.04.05-.29.17-.77.28-1.08.2-.6.48-1.6.81-3a106.2 106.2 0 0 0 1.1-4.28l.85-3.28c.16-.62.4-1.55.52-2.08.24-1.06.58-2.4.67-2.63.03-.1.1.05.2.48.31 1.38.8 3.2 1.13 4.31.7 2.3.93 2.95 1.22 3.64l.16.36H57.5l-.35.39c-.47.52-.45.93.03.93.1 0 .24.05.3.11.06.07.34.14.61.17.72.08 1.56.27 1.65.38.04.06.27.57.52 1.14.6 1.4.63 1.48.71 1.48.04 0 .07-.06.07-.15 0-.23.45-.88.7-1 .11-.06.52-.17.89-.24.37-.08.75-.2.84-.26.09-.06.31-.11.5-.11h.34l.16.75c.4 1.81.74 3.75.93 5.22.1.88.25 1.95.32 2.37.06.43.12.9.12 1.04v.25l-.22-.2c-.86-.78-1.95-1.26-3.77-1.68-1-.22-1.24-.25-2.77-.27l-1.68-.03-.4-.78a63.19 63.19 0 0 1-2.4-5.6c-.11-.27-.2-.43-.23-.35-.02.06-.06.9-.1 1.86-.02.96-.06 1.87-.08 2a19.35 19.35 0 0 1-1 3.96c0 .12-.3.78-.66 1.46l-.39.8c-.33.7-.81 1.27-1.29 1.53-.39.2-.84.31-.9.23Zm12.5-7.8c.24-.08.37-.47.23-.74-.15-.28-.38-.49-1.04-.92-.83-.56-1.26-.68-3.3-.91-.49-.06-1.4.09-1.8.29-.46.23-.62.48-.56.88 0 .06.18.2.4.3.3.14.58.18 1.49.21 1.16.05 1.83.17 3.16.6a13.38 13.38 0 0 0 1.2.32l.21-.04Z" fill="#fdbb30"></path><path d="M63.64 124.76c-.35-.11-2.39-.7-3.28-.94-.5-.12-.6-.2-1.02-.62-.48-.5-1.06-1.34-.99-1.42.1-.1 2.31.14 3.18.34.5.11 1.36.4 1.94.6 1.55.6 1.42.51 1.3.78a7.1 7.1 0 0 1-.74 1.35c-.04 0-.21-.03-.4-.09ZM47.25 124.33c-.18-.16-.46-.39-.61-.49a6.15 6.15 0 0 1-1.6-1.56 11.38 11.38 0 0 1-1.06-1.64l-.44-.8-.77-1.39a11.2 11.2 0 0 1-.7-1.39c-.17-.29-.16-.29.22.12l.83.9c.45.5 1.17.96 1.5.96a.6.6 0 0 0 .35-.17c.26-.26.17-.99-.2-1.76-.7-1.45-1.99-2.72-4.16-4.15-.34-.23-.48-.49-.95-1.88l-.42-1.24-.41-1.24-.3-.95-.15.47a25.22 25.22 0 0 1-.98 3.13l-.65-.17c-.9-.28-1.12-.27-1.45.09-.45.47-.37.62.55 1.1.94.47.97.55.4 1.15-.57.61-1.22.67-1.78.16a4.6 4.6 0 0 0-.57-.45c-.4-.23-.78-.71-1.15-1.41l-.52-.96c-.25-.43-.68-1.3-.75-1.54-.03-.1.19-.31.96-.9l1.23-.92a219.14 219.14 0 0 0 5.03-3.8c1.18-.87 2.93-2.22 4-3.1l.61-.49.1.38c.05.2.12.52.14.72.02.18.1.61.2.95.24.97.25 1.05.08 1.33-.21.35-.2.42.15.67.27.2.33.31.53.94l.25.8a45.47 45.47 0 0 0 1.32 3.7c.13.3.23.6.23.63 0 .03-.19-.12-.42-.34a9.11 9.11 0 0 0-4.91-2.48c-.5-.05-.5-.05-.79.23-.15.16-.28.36-.28.44 0 .21.3.43.92.65.68.26 1.35.64 2.05 1.2.8.62 1.94 1.72 2.4 2.28.25.32.46.5.8.64.71.32.83.34 1.08.09.11-.11.21-.2.22-.19l.2.39.17.36-.04-2.52c-.03-1.38-.07-2.96-.1-3.49l-.06-.97.34.24c.44.3 1.13.62 1.35.62.1 0 .26-.07.38-.17.3-.22.28-.54-.06-1.14-.4-.69-.89-1.2-1.49-1.55l-.52-.3-.02-2.12c-.02-1.17 0-2.84.02-3.73l.06-1.6.41-.27c.23-.14.57-.43.77-.63l.87-.83c.67-.6 1.37-1.48 1.37-1.72 0-.15-.04-.18-.27-.18a.9.9 0 0 1-.48-.16.72.72 0 0 0-.35-.16c-.17 0-.97.37-1.45.67-.18.11-.36.2-.38.2-.07 0-.04-.14.23-1.75a9.16 9.16 0 0 1 .7-2.66c0-.04.1-.17.22-.3.17-.17.4-.27 1.1-.43.49-.12.95-.25 1.04-.3.09-.03.36-.08.6-.1l.8-.1c.36-.04.4-.03.67.25.23.22.39.3.7.35.21.04.41.08.43.1.09.09.36.94.4 1.24.04.3.02.33-.44.7-.49.38-.77.78-.69.97.05.13.6.43 1.05.56l.32.1.1.95c.04.52.09 1.17.09 1.44 0 .28.1 1.12.2 1.88l.24 1.87c.04.47.04.47-.07.22-.14-.31-.25-.32-.53-.08-.36.32-.62.74-.8 1.3l-.47 1.56c-.44 1.36-.8 2.72-.8 2.94 0 .09-.04.2-.08.22-.04.03-.08.2-.08.36 0 .18-.1.55-.2.81-.28.73-.72 2.22-.92 3.11-.1.42-.3 1.16-.44 1.64-.3.96-.76 2.63-.92 3.32a26.81 26.81 0 0 0-.89 3.2 30.3 30.3 0 0 1-.47 1.72c-.13.4-.34 1.2-.49 1.76-.13.58-.33 1.32-.44 1.67-.1.34-.2.77-.2.95 0 .19-.05.43-.12.54-.06.11-.12.31-.12.44 0 .33-.08.6-.16.6-.04 0-.23-.14-.42-.3h.01Zm4.42-22.06c.27-.34.18-.89-.3-1.87-.21-.41-1.67-1.21-2.55-1.4-.48-.1-.51-.09-.69.07-.1.09-.23.29-.29.43-.12.3-.06.41.4.7.15.1.67.55 1.16 1 .6.57 1.01.9 1.36 1.05.6.28.7.28.9.02ZM72.73 121.34c0-.1.04-.28.07-.42l.05-.24.1.22c.13.32.11.44-.07.54-.14.07-.16.06-.16-.1ZM112.36 114.51a2.19 2.19 0 0 1-.4-.26 5.37 5.37 0 0 0-.5-.36c-.35-.22-.42-.31-1.11-1.49a7.46 7.46 0 0 1-.71-1.35l-.06-.19.89.06.87.05.17-.28c.33-.53.22-.64-1.07-1.06-.48-.16-.9-.33-.94-.38-.06-.1-.03-.31.15-.85l.3-1.02c.19-.61.19-.64.05-.56-.08.05-.16.12-.16.16a9.33 9.33 0 0 0-1.52 1.23l-.62.55-.27.22-.9-.17-2-.4a361.26 361.26 0 0 0-5.62-1.1c-.3-.08-.35-2.47-.07-3.1.08-.18.17-.43.21-.57.05-.21.61-1.64.66-1.7.02 0 .57.2 1.22.47.65.27 1.35.55 1.55.61.2.06.72.27 1.16.44l1 .39c.59.18 2.49.88 2.8 1.02.67.3 3.95 1.52 4.45 1.65.27.07.64.13.81.13.28 0 .36-.05.51-.25.18-.25.18-.26.03-.38a58.01 58.01 0 0 0-4.04-1.96 231.32 231.32 0 0 0-6.68-2.9c-1-.42-1.87-.8-1.91-.84-.04-.03 0-.18.1-.35.21-.36.12-.36-.17 0l-.23.28-.25-.13c-.26-.14-1.8-.8-2.46-1.07l-1.52-.64c-.64-.28-1.47-.62-1.85-.77a6.78 6.78 0 0 1-.88-.39c-.1-.06-.53-.24-.95-.4-.41-.16-.96-.37-1.2-.48l-.61-.25c-.18-.07-.16-.13.94-2.31 1.49-2.96 1.6-3.16 1.68-3.2.04-.04.17.05.3.18.12.13.4.33.61.46.35.2 1.24.83 1.68 1.19.32.26 3.03 2.17 5.32 3.73l.72.52c.24.19.63.44.84.56.23.12.49.3.6.39.22.2.57.45 1.8 1.29a52.8 52.8 0 0 1 2.44 1.7 76.1 76.1 0 0 0 3.3 2.24c1.08.68 1.66.97 2.02 1.03.3.04.38.02.55-.16.33-.32.28-.54-.18-.9a165.89 165.89 0 0 0-3.57-2.84c-.1 0-.6-.4-.6-.47 0-.03.15-.14.35-.25.42-.24.8-.5.84-.57.08-.18.34 0 1.12.74.47.45 1.05.97 1.3 1.16.71.56 1.45.68 1.65.28.12-.24.06-.35-.6-1.12-.7-.82-1.47-1.68-1.63-1.85-.13-.13-.11-.15.16-.27.16-.07.56-.2.89-.28.33-.09.8-.23 1.04-.32l.43-.15.33.46c.55.77.66.88 1.11 1.12.64.35.92.32 1.08-.1.1-.26.02-.5-.43-1.27-.16-.27-.28-.5-.27-.5.02-.02.15-.05.28-.07.45-.08.58 0 .71.44.16.56.42.99.67 1.1.7.34.73.36.73.56a10.64 10.64 0 0 1-1 3.34c-.06.15-.45.88-.89 1.63a21.14 21.14 0 0 0-1.64 3.07l-.48 1.14c-.09.19-.15.37-.15.4 0 .04-.06.17-.12.28l-.12.24.38-.05c1.28-.15 1.33-.14 1.55.06.12.11.34.23.5.26.47.08.56.3.51 1.12-.03.49-.1.77-.22.97-.09.16-.15.33-.12.38.01.06-.03.2-.1.33a3.3 3.3 0 0 0-.25.55c-.23.72-.41.88-1.73 1.52-1.58.77-2.06.89-2.55.64h-.01ZM88.68 113.93c-.95-.24-2.7-1.86-3.7-3.45a7.7 7.7 0 0 1-1.2-3.8c.03-.04 1.99.27 3.62.56a267.56 267.56 0 0 0 4.6.8 16.5 16.5 0 0 0 1.44.24c0 .04-.85 1.09-1.74 2.16l-.28.37-.24.32a19.1 19.1 0 0 0-.89 1.15l-.66.9c-.33.45-.63.82-.66.81l-.3-.06Z" fill="#fdbb30"></path><path d="m102.2 111.72-.52-.4c-.11-.1-.31-.24-.45-.31a3.3 3.3 0 0 1-1.09-1.25l-.22-.4.39.04a127.27 127.27 0 0 0 4.08.66l1.54.22-.27.22c-.14.13-.42.34-.62.48-.2.13-.38.28-.4.31-.03.02-.27.17-.55.31a2.6 2.6 0 0 1-1.04.3c-.48.03-.56.01-.85-.18ZM30.68 106.58l-.2-.86c-.09-.3-.18-.66-.2-.8A63.92 63.92 0 0 1 29 96.56c-.16-1.78-.23-3.19-.16-3.7l.05-.46.26.42c.25.42.54 1.01.73 1.46a20.36 20.36 0 0 1 1.08 4.57c0 .68.16.99.52.99.1 0 .22.05.28.12.1.14.42.16.64.03.1-.04.26-.22.39-.39l.23-.32.34 1.4c.19.77.37 1.4.4 1.4.04 0 .08-.94.08-2.1 0-2.3.1-5.02.28-7.87.06-1.02.12-2.17.12-2.57v-.72l.38-.05a338.58 338.58 0 0 0 7.18-.58c.06.04.23 2.1.18 2.12-.03.01-.15-.04-.24-.1-.24-.17-.57-.16-.72.02-.27.3-.3.45-.18.9.07.24.16.95.2 1.6.04.63.1 1.22.12 1.3.04.09.14.13.32.13.2 0 .3.05.36.17.08.14.14.16.36.13l.25-.04.18 1.09c.28 1.87.28 1.81-.06 2.12-.37.35-1.8 1.48-3.02 2.41l-1.84 1.43c-.99.8-.95.76-1.6 1.27l-1.96 1.56a49.56 49.56 0 0 1-3.36 2.59c-.04 0-.1-.14-.12-.3Zm7.01-9.49c.08-.06.24-.35.36-.66.37-.97.25-2.54-.27-3.45-.1-.2-.26-.55-.35-.8a2.4 2.4 0 0 0-.25-.56c-.15-.18-.6-.44-1.2-.69l-.55-.23-.23.21c-.44.43-.44.52-.13 1.06.32.54.52 1.26.8 2.97.25 1.45.37 1.87.53 1.94l.36.18c.28.16.75.17.93.03ZM93.76 106.35a30.56 30.56 0 0 0-2.6-.48 18 18 0 0 1-1.48-.26c-.33-.08-.87-.18-1.2-.21-.33-.03-.8-.11-1.04-.18a7.75 7.75 0 0 0-.91-.18 2.24 2.24 0 0 1-.5-.11 125.81 125.81 0 0 1 3-6.08c0-.07.1-.28.2-.48l.22-.36.73.26c.4.14 1.24.46 1.86.71a290 290 0 0 0 3.48 1.35l1.73.68a48.98 48.98 0 0 0 1.7.64 121.8 121.8 0 0 0-2.67 3.17c-1.55 1.87-1.34 1.75-2.53 1.53ZM84.53 104.72a3.37 3.37 0 0 1-1-.3 7.66 7.66 0 0 1-1.4-2.34 6.18 6.18 0 0 1 .04-3.67c.3-.94 1.35-2.73 1.58-2.73.04 0 .84.32 1.78.71l1.84.75c.16.06.17 0-.3 1.3-.24.7-.55 1.75-.63 2.13-.02.07-.07.26-.1.44a27 27 0 0 0-.5 2.03 9.95 9.95 0 0 0-.27 1.77c.05.1-.13.08-1.04-.1ZM108.25 98.92c-.2-.15-.4-.28-.44-.28-.06 0-.26-.16-.45-.36-.2-.2-.4-.36-.44-.36-.05 0-.18-.09-.28-.2-.1-.11-.23-.2-.27-.2-.05 0-.25-.13-.44-.28a12.95 12.95 0 0 1-1.69-1.32l-.48-.38c-.24-.18-.55-.43-.68-.55a6.84 6.84 0 0 0-.68-.5l-1.04-.74c-.33-.25-.75-.54-.94-.66-.19-.12-.34-.25-.34-.3 0-.03-.12-.12-.26-.18a2.18 2.18 0 0 1-.52-.35l-.26-.22.4-.44 1.12-1.16.7-.72 3.35 3.3a101.27 101.27 0 0 0 4 3.85c.02.07.26.3.52.52.26.2.47.41.45.46-.04.12-.9 1.34-.94 1.34-.03 0-.2-.12-.4-.27ZM110.22 95.83l-.9-1.11c-.26-.33-.78-.92-1.16-1.32-.38-.4-.77-.82-.86-.95a65.98 65.98 0 0 0-3.3-3.52 3.91 3.91 0 0 1-.8-.87c-.11-.16-.25-.01 2.44-2.61l1.19-1.15.14.19c.08.1.22.34.31.53.09.2.36.64.6 1.01.23.36.56.9.73 1.22.16.3.42.73.56.96l.48.84c.11.23.6.99 1.06 1.69a33.74 33.74 0 0 1 1.73 2.87l.21.32-.43.5-.89 1.11c-.25.34-.51.65-.57.7-.07.06-.2-.05-.53-.42ZM87.24 94.71c-2.55-.96-2.4-.86-2.75-1.7-.46-1.1-.33-1.93.59-3.64.31-.59.53-.88 1.09-1.41.72-.7 1.41-1.16 1.75-1.16.11 0 .29.1.4.2.1.13.29.28.4.35l.66.48c.26.2.85.61 1.32.92.47.31.86.61.88.66.01.04-.26.51-.6 1.04a30.63 30.63 0 0 0-2.15 3.73c-.22.49-.44.9-.48.9-.04.02-.53-.15-1.11-.37Z" fill="#fdbb30"></path><path d="M31.9 93.31c-.11-.29-.6-.96-.89-1.25a3.68 3.68 0 0 0-1.46-.62c-.1 0-.29.1-.42.2l-.25.21.05-1.34c.03-.75.05-1.36.07-1.37.03-.05 2.7-.2 2.74-.16.03.03.08.66.12 1.4.03.74.1 1.73.14 2.22.03.48.06.89.04.91-.01.02-.08-.07-.13-.2ZM113.81 91.98c-.18-.36-.45-.82-1-1.7-.27-.4-.8-1.34-1.2-2.06a29 29 0 0 0-1.44-2.45c-.17-.25-.49-.8-.73-1.2l-.71-1.24-.28-.47.24-.21a61.73 61.73 0 0 1 3.12-2.48c.35-.29.4-.27.58.23.1.27.21.67.25.91.04.24.13.56.2.7.07.13.17.5.24.82.06.32.19.73.27.93.09.2.17.43.17.53 0 .17.03.26.7 2.4.23.7.51 1.63.62 2.07.12.44.3 1.04.41 1.34l.2.52-.65.8c-.37.43-.7.79-.75.8-.06.01-.16-.1-.23-.24ZM98.66 91.84a.61.61 0 0 1-.26-.24c-.05-.1-.28-.29-.5-.43a3.96 3.96 0 0 1-.58-.45c-.09-.1-.32-.26-.52-.36-.2-.1-.47-.3-.6-.44a2.45 2.45 0 0 0-.56-.41 5.54 5.54 0 0 1-1.23-.96c-.01-.07.6-1.12.88-1.52a1 1 0 0 0 .15-.28c0-.03.05-.12.11-.18.07-.07.17-.22.23-.33l.45-.73c.4-.64.43-.64 1.12.12l1.89 1.96c1.44 1.46 1.52 1.57 1.29 1.85-.06.07-.13.18-.16.24a71.49 71.49 0 0 0-.84 1.39c-.28.47-.55.85-.6.84a.97.97 0 0 1-.27-.07ZM117.17 88.41a2.4 2.4 0 0 1-.1-.52c-.02-.24-.08-.48-.12-.5-.04-.03-.07-.16-.07-.3 0-.14-.04-.3-.08-.34a1.86 1.86 0 0 1-.17-.6 5.87 5.87 0 0 0-.27-1.02c-.11-.27-.2-.6-.2-.73 0-.14-.06-.38-.12-.55a3.53 3.53 0 0 1-.2-.57c-.26-1.1-.84-3.26-1-3.74-.11-.3-.2-.69-.2-.84 0-.28.02-.3.58-.56.83-.4 1.34-.6 2.19-.86l.73-.21.05.28c.03.16.05.6.05.97 0 .38.05 1.11.12 1.64l.2 1.88.25 2.53c.08.88.15 1.71.15 1.84 0 .17-.2.46-.88 1.25-.48.56-.89.99-.9.96ZM92.84 87.35c-.09-.1-.27-.21-.4-.27a5 5 0 0 1-.71-.47c-.27-.21-.93-.67-1.47-1.02a5.2 5.2 0 0 1-1.02-.79c-.06-.19.1-1.8.24-2.5.18-.88.65-1.7 1.45-2.53l.43-.45.3.32.85.95a137.55 137.55 0 0 0 3.3 3.45c.02.02-.5.68-1.15 1.46l-1.43 1.73-.24.31-.16-.19ZM29.15 86.4c.13-2.4.64-5.2 1.15-6.24.1-.22.23-.3.56-.43.53-.18.8-.08.99.34.11.26.11.32 0 .47-.06.1-.14.46-.17.8-.07.7-.34 1.83-.72 2.96-.31.96-.31.98.07.98.24 0 .32.03.36.16.02.09.1.16.16.16.1 0 .13.09.13.38 0 .21.03.56.05.78l.05.4-1.22.11c-.67.06-1.28.12-1.34.15-.1.04-.12-.1-.07-1.03ZM34.42 86.67c.04-.13.1-.77.14-1.43.17-2.27.68-5.3.95-5.59.03-.03.55.07 1.14.23l2.91.73 1.85.47.1 2.04.13 2.6.05.57-.86.1c-.48.05-1.25.11-1.7.13-.46.02-.9.05-.97.07-.07.02-.7.08-1.4.13l-1.84.12-.54.06.04-.23ZM39 84.75c.36-.17.67-.59.9-1.2.3-.86.2-1.36-.31-1.51a1.98 1.98 0 0 1-.51-.23c-.21-.14-.24-.14-.48-.03-.21.1-.3.23-.44.6a7.8 7.8 0 0 0-.42 1.82c-.02.3-.01.32.23.34.17.02.28.08.3.19.07.2.36.2.73.02ZM101.71 86.53l-.73-.83a5.28 5.28 0 0 0-.68-.66c-.16-.1-.34-.3-.4-.4-.08-.12-.5-.61-.97-1.1-.47-.5-.85-.94-.85-.96 0-.03.27-.46.6-.96.34-.51.6-.94.58-.95-.02-.02-.37.3-.8.72l-.76.75-2.04-2.05c-2.35-2.37-2.35-2.37-2.13-3.38.08-.37.17-.5.72-1.04.35-.36.65-.64.66-.64l.5-.44a4.23 4.23 0 0 1 2.34-1.3c.07-.04.34-.1.6-.13.39-.05.48-.04.66.1.12.1.3.17.4.17.1 0 .24.08.3.18.08.1.13.13.13.09 0-.05.1-.15.2-.21.19-.13.2-.12.54.33.44.58 1.43 2.1 1.43 2.2 0 .04.19.36.42.72.47.72.92 1.46 1.14 1.9.08.14.24.4.36.55.12.15.36.55.54.88.18.33.48.89.69 1.23l.37.64-.19.24a135.76 135.76 0 0 0-3.26 4.7c-.03 0-.2-.17-.36-.35ZM121.01 82.82c-.1-2.1-.3-5.66-.32-5.96l-.04-.3h.38c.3 0 .42.05.63.24.17.15.38.25.6.27.23.03.4.12.57.28.23.24.24.26.23 1.04 0 .8-.17 1.74-.4 2.23a1.3 1.3 0 0 0-.1.41c0 .08-.12.36-.25.62-.13.25-.31.65-.4.88a5.7 5.7 0 0 1-.83 1.39l-.07-1.1ZM106.56 79.7c-.15-.25-.3-.49-.31-.54-.02-.04-.1-.19-.2-.32-.2-.27-.21-.3-.64-1.06l-.77-1.3c-.25-.42-.77-1.35-1.14-2.08-.37-.73-.83-1.59-1.04-1.91l-.37-.59.22-.17c.11-.1.3-.24.41-.32.45-.3.91-.63 1.02-.74.06-.07.14-.11.17-.11s.13-.07.22-.15c.08-.07.48-.35.87-.61a16.98 16.98 0 0 0 1.05-.73l1-.62.9-.56c.61-.36.78-.46.8-.44l.15.51.3 1.08c.1.33.22.83.27 1.12.1.46.22.91.47 1.64.12.34.33 1.12.67 2.34l.29 1.07-.35.41c-.18.24-.64.76-.99 1.18-.36.41-1.03 1.23-1.47 1.8-1.14 1.43-1.13 1.42-1.13 1.5 0 .16-.15.02-.4-.4Z" fill="#fdbb30"></path></svg>