<svg xmlns:xlink="http://www.w3.org/1999/xlink"  fill="none" xmlns="http://www.w3.org/2000/svg" viewBox="0 0 160 160"><path d="M69.36 141.8a14.36 14.36 0 0 1-3.78-1.9c-.23-.17-1.03-.87-1.74-1.57-2.18-2.1-3.16-3.48-3.36-4.72-.1-.68-.15-.6 1.35-2.33l.73-.8c1.22-1.3 2.75-2.88 3.96-4.1 2.76-2.78 6.57-7 7.32-8.1.16-.21.4-.57.58-.8.17-.2.3-.42.3-.45a18.48 18.48 0 0 0 1.46-2.8c.61-1.39.8-3.2.5-4.75-.07-.39-.32-1.3-.56-2.03-1.34-4.1-1.6-5.81-1.6-10.24 0-3.95.17-5.48 1.05-9.03a55.32 55.32 0 0 1 1.7-5.04c.5-1.17 1.45-3.12 1.7-3.46.08-.12.21-.5.3-.84.19-.84.63-1.55.95-1.56.19 0 .28-.1.62-.62.38-.57 1.56-2.17 2.42-3.25.39-.5.6-.73 1.58-1.8a51.1 51.1 0 0 1 3.35-3.13l1.04-.84c.74-.6 1.86-1.4 2.53-1.79.33-.2.83-.51 1.1-.7a46.2 46.2 0 0 1 4.54-2.34 38.4 38.4 0 0 1 7.48-2.24c1.42-.28 2.99-.41 5.16-.46 3.1-.06 5.37.2 8.2.95 1.88.5 3.13.96 5 1.86 1.6.78 4.13 2.23 4.22 2.43 0 .03.38.35.82.7a32.94 32.94 0 0 1 6 6.53c.71 1.1 2.42 4.57 2.86 5.81a29.8 29.8 0 0 1 1.56 6.37l.29 1.76v2.44c-.01 1.73-.04 2.75-.14 3.52a45.08 45.08 0 0 1-1.86 8.71c-.06.25-.25.75-.42 1.13l-.57 1.36c-.36.92-2.01 4.18-2.64 5.16-.49.77-.61.97-1.6 2.33a8.1 8.1 0 0 0-.48.7c0 .09-1.73 2.15-2.42 2.91a56.68 56.68 0 0 1-4.23 4.05c-.1.1-.39.32-.63.52a19.99 19.99 0 0 1-2.66 1.83 36.72 36.72 0 0 1-7.78 3.77c-.27.08-.77.23-1.12.35-3.23 1-5.72 1.36-9.32 1.36-2.09 0-3.7-.13-5.24-.43a40.18 40.18 0 0 1-4.6-1.2c-1.64-.57-1.7-.57-2.6-.44-1.86.28-2.99.68-5.12 1.82-.94.5-1.36.79-1.94 1.3a109.07 109.07 0 0 0-8.26 9.44l-1.04 1.21c-2.13 2.48-3.44 3.8-3.76 3.78-.1 0-.65-.16-1.2-.36v.01Zm1.1-3.01c.29-.3 1-1.1 1.5-1.67.1-.1.78-.9 1.52-1.76l1.76-2.02c.57-.66 1.12-1.28 1.76-2.05a139.66 139.66 0 0 1 4.77-5.28c1.55-1.64 1.56-1.64 2.07-2.24l.81-.91.54-.65c.16-.2 1.52-1.67 2.41-2.6.99-1.01 6.32-6.9 6.32-6.97 0-.16-5.17-5.16-5.56-5.38-.12-.07-.64.39-2.29 2.02a561.7 561.7 0 0 0-7.3 7.48c-2.2 2.29-2.1 2.17-2.65 2.85-.82.99-2.21 2.56-2.84 3.19l-1.08 1.13a294.65 294.65 0 0 1-6.95 7.17l-2.23 2.25.15.38c.2.56 1.79 2.1 3.35 3.27l.87.67c.25.18.48.34.53.34a7.76 7.76 0 0 0 1.6 1.01c.47.17.6.13.95-.23Zm34.58-14.85c.38-.03.68-.1.7-.15.03-.1-1.4-1.56-2.93-2.99a90.96 90.96 0 0 1-2.29-2.16l-1.72-1.6c-2.8-2.62-2.92-2.7-3.26-2.59-.12.04-.33.23-.48.43-.3.39-1.33 1.56-1.74 1.96a156.91 156.91 0 0 1-4.66 5.16c-.52.56-.5.57.5.32 1.61-.4 3.28-.25 6.16.6 1.44.43 3.9.91 5.12 1 .93.07 3.72.08 4.59.01Zm4.95-1.03c.26-.06.67-.19.94-.27l.95-.28.48-.14-.84-.8a88.23 88.23 0 0 0-2.15-2c-.73-.64-1.43-1.3-1.56-1.43l-3.46-3.2c-2.93-2.7-3.22-3-3.3-3.32-.09-.3-.27-.5-1.15-1.34a113.33 113.33 0 0 0-7.97-7.53c-.33-.3-.69-.63-.8-.75-.11-.12-.74-.71-1.38-1.32-1.09-1.02-1.2-1.1-1.38-1.03-.15.07-.21.06-.38-.13a66.59 66.59 0 0 0-2.98-2.81 197.3 197.3 0 0 1-1.88-1.75l-.93-.89a622.15 622.15 0 0 0-3.89-3.68l-.2-.16-.1.38c-.13.59-.4 2.2-.4 2.43 0 .25-.2.37-.27.16-.02-.07-.03.04-.02.26.03.3.08.44.25.6.2.2.21.2.13.03-.08-.16-.07-.18.07-.18.17 0 .58.35 2.17 1.87.5.49 1.19 1.11 1.52 1.4a67.07 67.07 0 0 1 2.34 2.13c.69.63.83.84.56.84-.1 0-.04.1.22.34a258.76 258.76 0 0 0 3.8 3.58c.93.85 2.08 1.93 2.56 2.4a523.64 523.64 0 0 0 5.8 5.52l.76.72 1.6 1.52c3.9 3.76 4.2 4.04 4.1 3.73-.18-.46.67.26 3.06 2.56 1.59 1.53 2.94 2.68 3.17 2.68.07 0 .32-.06.57-.13H110Zm6.68-2.56a15.97 15.97 0 0 0 1.5-.83c.03 0 .43-.23.88-.52.75-.47 1.12-.63 1.12-.46 0 .03-.05.11-.1.17-.37.39 2.16-1.32 3.2-2.16.67-.55 1.36-1.21 1.2-1.16-.36.11-.06-.3 1.1-1.45a35.8 35.8 0 0 0 5.59-7.08c.27-.5.41-.7.53-.7.11 0 .15.04.1.15-.03.1-.02.1.04.05.16-.15 2.1-4.01 2.22-4.44a33.8 33.8 0 0 0 1.83-6.43c.49-2.79.47-2.63.48-5.73 0-4.12-.18-5.58-1.15-8.92a35.22 35.22 0 0 0-2.96-6.65c0-.07-1.22-1.78-1.57-2.2a23.13 23.13 0 0 0-6.67-5.85l-.95-.53c-1.08-.6-2.61-1.26-2.64-1.15-.01.05-.08.1-.16.1-.27 0-2.48-.76-2.5-.86 0-.05.06-.1.14-.1.22 0 .07-.09-.38-.2-.55-.14-2.49-.48-3.6-.61a36.7 36.7 0 0 0-3.39-.1c-2.89 0-3.54.07-6.28.6-.24.05-1 .26-1.67.49-.9.29-1.21.42-1.2.5.02.1-.18.2-.65.4l-1.4.55a67 67 0 0 0-5.77 3.01c-.19 0-2.59 1.87-3.8 2.96-.48.42-1.1.96-1.4 1.2-.46.39-.7.65-1.64 1.72a107.9 107.9 0 0 1-1.49 1.65 85.47 85.47 0 0 0-2.93 4.33 22.4 22.4 0 0 0-1.41 2.5c-.67 1.4-1.6 3.58-1.9 4.45l-.12.36.47.44a418.35 418.35 0 0 1 7.02 6.32c.89.82 1.85 1.68 2.16 1.92.93.75 1.16.99 1.16 1.26 0 .2.19.42 1.38 1.55a50.07 50.07 0 0 0 2.7 2.47c.43.36 1.5 1.3 2.2 1.96.8.74 2.42 2.26 2.87 2.7.39.37.57.5.59.41a.16.16 0 0 1 .14-.11c.08 0 .7.5 1.38 1.13l1.57 1.42c.55.48 2.64 2.38 3 2.72l2.89 2.68 1 .88 1.07.97c2.37 2.2 5.13 4.67 5.22 4.67.04 0 .48-.2.96-.44h.02Zm-36.3-8.58c1.1-1.1 2.42-2.45 3.72-3.82l1.54-1.63.86-.9-.55-.53-2.05-2.01c-.84-.81-2.17-2.11-2.96-2.9-2.85-2.78-3.76-3.57-3.94-3.39-.1.1-.05 1.74.09 2.93.29 2.43.6 4.18 1.13 6.04.56 2 .9 3.47 1.04 4.42.12.88.12 1.03-.1 2.52-.02.21-.01.38.02.38.04 0 .58-.5 1.2-1.1Z" fill="#000"></path><path d="M60.04 115a2.55 2.55 0 0 1-2.04-1.68 11.8 11.8 0 0 1-.32-1.43c-.1-.53-.32-1.64-.5-2.45-.18-.82-.41-2.06-.54-2.77-.19-1.12-.41-2.28-1.24-6.5-.1-.58-.3-1.32-.39-1.64-.1-.31-.26-.95-.36-1.42-.16-.81-.98-3.35-1.41-4.4a11.89 11.89 0 0 0-2.68-4 4.56 4.56 0 0 0-2.28-1.4c-.68-.2-3.82-1.22-4.43-1.44a16.64 16.64 0 0 1-1.42-.6c-.02 0-.42-.21-.88-.48a39.72 39.72 0 0 1-4.96-3.09 7.98 7.98 0 0 0-.68-.53c-1.6-1.1-3.8-3.2-5.68-5.43a38.39 38.39 0 0 1-6.87-12.27c-.16-.4-.41-1.2-.56-1.8l-.45-1.88a30.06 30.06 0 0 1-.68-3.88c-.16-1.32-.19-1.8-.19-4.52 0-2.03.03-3.32.1-3.88.2-1.55.5-3.31.78-4.44.9-3.67 1.33-4.79 3.54-9.08a31.59 31.59 0 0 1 3.6-5.06 30.49 30.49 0 0 1 4.92-4.41c.8-.68 3.05-1.95 5.12-2.88 1.24-.57 1.28-.58 3.14-1.14a28.34 28.34 0 0 1 11.24-.94c1.98.2 3.7.57 5.12 1.09.46.17 1.05.36 1.32.42.26.06.97.32 1.56.58a58.76 58.76 0 0 1 4.64 2.37c.15.08.35.22.44.29a42.4 42.4 0 0 1 4.08 3.2c.58.49 3.22 3.18 3.54 3.59l1.16 1.44c.48.57.86 1.06.86 1.08 0 .03.21.37.48.76.26.39.48.73.48.75 0 .02.21.4.48.82.26.42.48.79.48.82a25.62 25.62 0 0 1 1.04 1.95 26.79 26.79 0 0 1 2.16 5.31c.42 1.4.48 1.6.97 3.6.18.75.43 1.56.55 1.81.16.34.2.49.14.6-.1.16-.04 1.22.14 2.75.2 1.67.14 6.6-.1 8.12l-.3 1.88a39.84 39.84 0 0 1-2.59 8.33c-.31.69-.57 1.29-.57 1.34 0 .05-.08.18-.18.31-.2.23-.9 1.4-1.32 2.2a14.76 14.76 0 0 1-1.62 2.26c-1.65 2.13-3.37 3.77-6.44 6.16a5.47 5.47 0 0 0-1.82 2.12 9.02 9.02 0 0 0-.58 1.3l-.24.86c-.38 1.37-.6 3.43-.45 4.4.31 2.1 1.38 6.87 2.18 9.68 1.62 5.78 2.33 8.78 2.2 9.36-.1.43-.24.65-.46.77-.13.07-.54.35-.93.65a11.57 11.57 0 0 1-4.98 2.22c-1.37.31-4.3.46-5.32.25Zm3.55-2.72c1.54-.31 2.11-.46 2.36-.63.1-.06.53-.25.97-.41.44-.17 1.1-.47 1.46-.67l.68-.37-.06-.4c-.02-.22-.17-.82-.32-1.32-.15-.5-.36-1.28-.46-1.72l-1.83-7.32c-.7-2.84-1.1-4.58-1.55-6.92-.3-1.6-.35-1.82-1.04-4.64-.24-.96-.49-2.06-.55-2.44a84.1 84.1 0 0 0-1-4.53c-.04-.25-.2-1-.36-1.67a36.39 36.39 0 0 1-.66-3.45c-.05-.25-.47-.36-1.06-.27-.24.04-.6.1-.81.12-.52.08-4.99.98-5.58 1.13-.65.17-.69.22-.54.72.1.35.3 1.41.52 2.76a1707.7 1707.7 0 0 1 1.8 9.8c.1.58.36 1.79.58 2.68.89 3.61 1.15 4.82 1.73 7.72 1.1 5.53 1.49 7.59 1.56 8.2.1.64.4 2.34.62 3.39l.12.63 1.01-.05c.68-.03 1.46-.14 2.4-.34h.01Zm-11.18-27a87.1 87.1 0 0 0-.93-4.76c-.16-.66-.37-1.61-.47-2.1-.1-.5-.21-.93-.23-.95-.09-.09-1.96.2-4.06.63-3.78.76-6.81 1.34-7.54 1.43-.38.06-.76.13-.84.2-.13.09-.1.12.21.42.2.18.38.33.41.33.04 0 .36.2.71.45a9.97 9.97 0 0 0 1.25.74c1.03.64 2.95 1.56 4.36 2.09 5.33 1.98 5.84 2.21 6.8 3.14.56.53.6.56.62.37.02-.1-.12-1-.3-2Zm13.63-.4c.16-.48 1.17-2.03 1.7-2.6.44-.46 1.1-1.04 2.41-2.12 2-1.62 4.42-4.29 5.84-6.4.58-.87.89-1.38.89-1.53 0-.2-1.9.11-6.6 1.13l-3.4.72c-1.74.37-3.45.78-3.51.84-.03.03 0 .22.05.43l.42 1.85.68 2.96.48 2.16c.43 2.19.68 3.1.83 3.01.04-.03.14-.23.2-.45Zm-28.75-7.07 1.59-.33c.38-.07 1.34-.29 2.16-.48 1.7-.4 4.94-1.1 5.88-1.28l2.64-.56 4.48-.92c1.37-.27 3.39-.69 4.48-.93 1.11-.23 2.26-.46 2.56-.5.57-.1 2.85-.55 7.32-1.45l4.76-.96c3.62-.73 4.88-1.05 5.18-1.35.2-.2 1.03-2.88 1.03-3.36 0-.13-.4-.08-1.56.2l-1.84.43-2.32.5c-.7.13-2.23.45-3.4.7-1.17.26-2.28.49-2.48.51l-2.44.48c-4.77 1-6.11 1.27-6.76 1.38-.9.15-1.96.37-3.32.7-1.11.28-3.83.84-8.08 1.69-1.68.33-2.36.5-2.72.67-.6.3-1.96.6-3.24.73-1.27.13-3.02.4-4.76.76-2.38.49-3.16.7-3.16.85 0 .12 1.42 1.65 2.03 2.18.44.37.69.53.84.53.12 0 .64-.08 1.14-.19h-.01Zm-3.34-5.28 3.05-.69c.66-.13 2-.42 3-.64.99-.22 2.63-.56 3.64-.76 1.01-.2 2.18-.46 2.6-.56a62.38 62.38 0 0 1 5.6-1.16c.18 0 .32.04.32.08 0 .05-.04.08-.1.08-.05 0-.07.02-.05.04.04.04 1.66-.3 6.5-1.36 1.11-.24 2.26-.47 2.57-.52.3-.05 1.4-.27 2.44-.5 1.03-.22 2.03-.43 2.23-.46l.93-.2c.88-.2 3.12-.66 3.9-.8l2.52-.5 3.06-.66c4.21-.86 4.05-.82 4.2-1.14.26-.6.68-4.72.68-6.8 0-.95-.02-1.1-.12-1.03-.11.1-.14-.08-.25-1.9a26.91 26.91 0 0 0-.72-4.89c-.56-2.2-.85-3.23-1.11-3.9-.32-.83-.53-1.44-.53-1.55 0-.04-.27-.65-.6-1.35-.33-.7-.6-1.33-.6-1.4 0-.07.06-.12.12-.12.09 0 0-.24-.34-.86-.59-1.1-1.19-2.15-1.68-2.89l-.46-.71a34.77 34.77 0 0 0-7.7-8.02c-.86-.62-1.16-.78-1.2-.65-.07.17-.26.1-.84-.27-.3-.2-.57-.36-.59-.36l-.78-.42c-.87-.5-2.77-1.43-3.2-1.57-.3-.1-.41-.32-.16-.32.65 0-2.2-.92-3.94-1.27a21.69 21.69 0 0 0-5.88-.52c-3.17 0-3.72.05-5.59.56l-1.69.45c-1.8.43-4.91 2-7.1 3.54a28.6 28.6 0 0 0-6.75 6.85c-.37.5-1.27 2-1.7 2.86-.2.42-.25.57-.17.57.18 0 .15.24-.09.64a31.5 31.5 0 0 0-2.05 5.85 53 53 0 0 0-.8 4.11c-.07.48-.1 1.7-.1 3.58 0 2.54-.01 2.86-.12 2.86-.15 0-.14.33.05 2.12a26 26 0 0 0 .82 4.06c.25 1 .31 1.16.4 1.05.05-.08.11-.12.13-.1l.28.82c.14.44.43 1.24.65 1.8l.72 1.93c.18.5.4 1.01.47 1.12.08.11.44.77.8 1.46.36.7.78 1.43.94 1.64.15.2.55.82.9 1.36.82 1.31 1.26 1.86 1.46 1.86.1 0 1-.2 2.02-.43l.01-.01ZM97.59 56.95a9.99 9.99 0 0 1-4.77-2.3 8.58 8.58 0 0 1-2.02-3c-.8-1.88-.88-4.43-.2-6.06.13-.28.27-.7.33-.95.12-.47.3-.76.95-1.64a10.2 10.2 0 0 1 6.45-3.76 7.41 7.41 0 0 1 5.06.87c.63.32 1.86 1.35 2.53 2.1.37.42 1.05 1.82 1.24 2.55.08.31.17.6.2.65.17.21.25 1.24.21 2.59a8.32 8.32 0 0 1-.25 2.2 10.17 10.17 0 0 1-3.76 5.4c-.02 0-.2.12-.4.25a8.6 8.6 0 0 1-3.8 1.11c-.92.1-1.13.1-1.79 0h.02Zm2.5-2.25c.28-.05.7-.16.91-.26.8-.35 2-1.34 2.79-2.29.37-.47.47-.66.76-1.57.54-1.65.59-3.3.13-4.59l-.26-.75a7.26 7.26 0 0 0-1.7-2.44A5.33 5.33 0 0 0 99 41.5c-1.07 0-1.47.1-2.5.57-1.98.92-3.52 3.17-3.86 5.7a6.7 6.7 0 0 0 2.88 6.03c.97.65 1.4.85 2.28 1.04.24.06 1.69-.02 2.28-.13Z" fill="#000"></path><path d="M34.16 76.28c-.48-.5-.88-.95-.88-1 0-.08.14-.14.88-.34.59-.15 3.15-.7 3.17-.68a33 33 0 0 1-1.61 2.33c-.61.71-.55.73-1.56-.31ZM30.83 72.24c-.4-.57-.96-1.42-1.27-1.89L29 69.5l.01-.62c0-.34.1-1.08.22-1.64.2-.99.72-3.21.81-3.44.03-.07 0-.12-.03-.12-.05 0-.14.14-.2.3-.15.35-1.1 2.14-1.56 2.93l-.32.54-.28-.46a6.77 6.77 0 0 1-.49-1.07l-.73-1.97c-.76-2-.87-2.36-1.35-4.35a22.7 22.7 0 0 1-.74-3.71c-.16-1.4-.24-6.28-.13-7.81.12-1.64.73-4.88 1.02-5.45a.82.82 0 0 0 .1-.33c-.04-.26.42-1.73 1.15-3.65.44-1.16 2.21-4.44 2.82-5.22a61.34 61.34 0 0 1 1.91-2.5c.43-.54 2.22-2.3 2.94-2.9a31.83 31.83 0 0 1 4.25-2.97 23.13 23.13 0 0 1 3.39-1.6c.12.13-1.28 3.07-2.26 4.72-.53.9-.65 1.21-.85 2.2-.08.32-.24.79-.37 1.05-.13.27-.24.55-.24.66 0 .15.02.14.21-.1l.3-.35.37-.44c.15-.2.51-.6.8-.91l.89-.96A126 126 0 0 1 46.98 23l.64-.56.56-.45 1.12-.08a32.2 32.2 0 0 1 8.16.83c.04 0 .04.08.03.18-.18.84-.25 1.04-.5 1.37-.25.31-.28.4-.24.64.04.23 0 .35-.15.6-.11.18-.27.51-.36.73a4.39 4.39 0 0 1-.83 1.44c-.15.15-.78 1.03-1.4 1.96l-1.19 1.76c-.03.05-.15.25-.25.46-.1.21-.23.38-.26.38-.04 0-.07.04-.07.09 0 .04-.28.56-.63 1.13-.65 1.1-.96 1.65-1.56 2.79a177.6 177.6 0 0 0-4.42 8.47c-.68 1.42-.66 1.37-.42 1.08 1.55-1.87 3.08-3.7 3.43-4.09l.8-.91.44-.51 1.56-1.73c.5-.59.51-.6 1.16-1.29l1.63-1.75c2.6-2.8 5.63-5.64 5.8-5.47.03.03.05.01.05-.04 0-.06.03-.08.08-.05.05.02.08 0 .08-.05s.02-.08.05-.05c.02.03.12.02.22-.02.1-.03.56-.15 1.02-.24.45-.1.93-.23 1.05-.3.13-.06.48-.12.8-.14.31-.03.74-.1.95-.17.5-.17.8-.1 1.21.3.37.36.6.47.94.47.6 0 .75.3.73 1.48-.01 1.62-.52 3.27-1.7 5.56l-1.08 2.16-.88 1.79c-.28.56-.51 1.06-.51 1.1 0 .05-.07.18-.16.3-.08.12-.17.29-.2.4-.03.09-.28.66-.57 1.26a34.6 34.6 0 0 0-1.13 2.61c-.1.04-.34.6-.34.77a.4.4 0 0 1-.08.22 81.97 81.97 0 0 0-2.39 5.92c-.47 1.26-1.72 4.8-1.83 5.2-.03.12 0 .1.18-.08.28-.3.84-.99.96-1.17.04-.07.32-.46.63-.85.31-.38.91-1.15 1.33-1.7.43-.56 1.03-1.3 1.32-1.64l.95-1.11a38.4 38.4 0 0 1 1.72-1.93c3.33-3.76 7.02-7.16 8-7.37l.33-.1a.81.81 0 0 1 .2-.05l.2-.07c.06-.02.39-.1.72-.16.32-.07.74-.17.92-.24.17-.07.52-.12.76-.13.25 0 .63-.06.84-.12.22-.07.48-.12.57-.12.24 0 .62.23.79.48.08.12.18.21.23.22l.33.05.41.07c.47.07.67.52.67 1.5 0 .83-.36 2.38-.68 3.05-.12.21-.2.46-.2.55 0 .34-1.18 2.57-2.35 4.44-1.52 2.43-1.72 2.75-2.1 3.44l-.57 1.04a34.8 34.8 0 0 0-1.9 4.09l-.1.36.4-.04c.24-.03.62-.09.86-.14 1.23-.24 3.24-.22 3.87.04.17.08.43.26.57.41.2.23.36.3.73.37.74.13.98.48.98 1.38v.52l-.3.08a318.52 318.52 0 0 0-13.95 2.89 8.9 8.9 0 0 1-.79-1.69c0-.34-.15-.28-.55.22-.45.56-.7.85-1.09 1.25l-.48.56c-.24.29-.28.3-1.36.53l-2.08.45-1.88.4-2.28.48-3.14.64a107.24 107.24 0 0 0-3.14.68c-.06 0-.22-.5-.37-1.2-.21-1.01-.08-2.84.33-4.45.11-.43.2-.85.2-.93 0-.08.03-.2.07-.28a134.44 134.44 0 0 1 1.54-4.93c.2-.54.36-1.1.4-1.25.03-.15.13-.45.21-.68.2-.49.5-1.43.47-1.45 0-.01-.3.38-.65.88l-.7.97-.53.76-.54.76a5.77 5.77 0 0 0-.73 1.1 41.41 41.41 0 0 0-3.33 4.97c-.1.14-.31.48-.46.76a53.45 53.45 0 0 1-2.2 3.81l-1.53 2.68c-.1.19-.26.23-1.4.47-.71.15-1.9.41-2.66.59-1.52.37-2.54.58-3.08.65l-.37.06-.71-1.05v-.02Z" fill="#fdbb30"></path></svg>