<svg xmlns:xlink="http://www.w3.org/1999/xlink"  fill="none" xmlns="http://www.w3.org/2000/svg" viewBox="0 0 160 160"><path d="M117.4 136.63c-2.24-.02-20.38-.05-40.32-.06-19.93-.02-37.16-.05-38.28-.08-2-.06-2.05-.06-2.52-.28-.73-.34-1-.57-1-.88 0-.4.23-1.07.39-1.13a42.4 42.4 0 0 1 2.84-.13c1.76-.04 2.75-.1 2.8-.15.05-.05.1-.22.1-.38l.06-1.26c.05-.92.23-6.49.33-10.4.03-1 .09-2.21.14-2.68.08-.87.16-2.8.3-7.48.04-1.5.11-3.3.16-4 .07-1.14.13-2.29.28-5.96l.04-1-1.59.02c-.86.01-2.02.07-2.57.12-.55.04-1.2.1-1.43.1-.53 0-.57.05-.84 1.08-.1.42-.44 1.47-.72 2.32-.28.85-.63 1.93-.77 2.4l-.4 1.28c-.08.24-.43 1.3-.76 2.36-.34 1.06-.7 2.14-.8 2.4a106 106 0 0 0-.96 2.91l-1 3.05c-.13.34-.27.83-.32 1.1-.05.28-.17.68-.27.92s-.27.66-.36.94l-.52 1.6c-.68 2-1.13 3.44-2.01 6.36a30.28 30.28 0 0 1-1.43 4.17c-.2.26-.75.25-1.3 0-.86-.42-1.08-.86-.92-1.91.15-1 .47-2.74.67-3.5.08-.38.2-.97.24-1.32.04-.35.18-1.17.32-1.84.13-.65.3-1.63.39-2.14.08-.52.2-1.16.27-1.41.07-.26.24-1.11.4-1.9.15-.79.3-1.53.35-1.64.04-.11.13-.57.2-1.04.07-.45.18-1.04.25-1.3.07-.25.12-.55.12-.67s.1-.6.2-1.06c.12-.46.24-1.01.28-1.24.34-1.87.5-2.69.64-3.15.09-.3.16-.67.16-.81 0-.16.07-.55.17-.88.09-.32.28-1.2.43-1.95.15-.75.42-2.02.6-2.8a102.02 102.02 0 0 0 .52-2.49c.04-.14-.01-.17-.5-.28a26.9 26.9 0 0 1-4.13-1.86c-.4-.22-1.13-.84-1.93-1.6a12.3 12.3 0 0 1-3.34-5.34c-.28-.97-.47-2.43-.51-4a7.88 7.88 0 0 1 .16-2.56c.32-1.54.42-1.79.84-2.17.3-.3.44-.28.7.05.13.16.3.28.37.28.28 0 .31.28.3 2.39-.02 1.85 0 2.2.19 3.51.18 1.3.24 1.56.57 2.36.54 1.3.82 1.89 1.13 2.35.43.67 1.6 1.92 2.04 2.2.22.16.6.4.82.54a10.84 10.84 0 0 0 2.2 1.05c.72.36 1.99.63 3.81.8 1.26.12 4.3.1 6.04-.03.82-.06 2.5-.16 3.76-.2l3.6-.17c2.18-.12 11.47-.44 15.03-.52 2.76-.07 2.43.04 2.7-.88.07-.26.26-.75.43-1.08.7-1.38 1.1-2.99 1.2-4.84a16.86 16.86 0 0 0-.03-2.64c-.05-1.5-.26-2.41-1.22-5.48a8.46 8.46 0 0 0-1.4-2.84c-.6-.88-2.58-2.92-2.98-3.08-.12-.04-.8-.08-1.51-.08-1.94 0-3.64-.13-5.1-.39l-1.76-.3c-.24-.02-.85-.15-1.36-.28a19.07 19.07 0 0 1-2.56-.73l-1.5-.5c-.24-.07-.65-.23-.92-.35l-.9-.36c-.7-.22-3.94-1.9-5.04-2.6-1.19-.75-1.5-.98-3.37-2.52-1.8-1.5-2.38-1.85-3.93-2.36a8.6 8.6 0 0 0-3.5-.47 5.16 5.16 0 0 0-2.2.33 8.76 8.76 0 0 0-2.86 1.57 28.69 28.69 0 0 0-3.67 6.16c-.16.38-.35.8-.44.93a1.1 1.1 0 0 0-.15.42c0 .08-.05.18-.1.2-.08.03-.08.04 0 .04.07.01.2-.06.3-.14.12-.09.46-.2.77-.26 1.25-.22 2.87.35 4.1 1.45 1.82 1.62 2.92 2.75 2.93 3 0 .05.2.34.44.64 1 1.28 1.45 2.05 1.64 2.76.05.2.2.52.32.72.25.4.39.76.67 1.76.1.38.28.83.36 1 .1.17.17.39.17.48 0 .25 1.28 2.75 1.8 3.54.62.9 2.78 3.09 3.4 3.44.8.45 1.65.73 2.82.94 2.3.4 3 .51 3.66.55.85.05 5.87-.08 7.47-.2 2.7-.18 9.01-.87 9.5-1.03.4-.13.87.05 1.37.51.42.39.46.46.46.76 0 .46-.19.86-.46 1-.12.06-.56.14-.98.16-.42.03-1.23.13-1.8.2-.57.1-1.46.2-1.96.25a104.81 104.81 0 0 1-10.44.76c-1.59.06-3.83-.07-5.2-.31-3.02-.54-3.33-.62-4.56-1.21a9.4 9.4 0 0 1-3.16-2.41c-1.75-1.8-2.27-2.6-3.74-5.83-.55-1.2-.7-1.67-.9-2.54a11.36 11.36 0 0 0-1.85-3.7c-.31-.4-.78-1.03-1.05-1.41-.5-.76-2.15-2.4-2.81-2.85a3.03 3.03 0 0 0-1.5-.5c-.65-.08-1.46-.43-1.67-.7-.3-.37-.35-.28-.8 1.54l-.13.56.44.48a6.3 6.3 0 0 1 1.57 2.85c.15.58.15.65-.03.87l-.15.19-.54-.18c-1.44-.46-2.21-1.17-3.2-2.94l-.44-.8v-1c0-.54.04-1.24.07-1.56.08-.71.57-1.94 1.61-4.1.44-.89.8-1.65.8-1.68a4 4 0 0 1 .38-.61c.22-.31.46-.68.54-.84a13.8 13.8 0 0 1 2.1-2.72c.16-.21.4-.47.54-.58.4-.33 1.9-1.25 2.12-1.31l.92-.35a8.13 8.13 0 0 1 2.8-.61c.77-.04 2.47.07 3.12.21.17.04.33.06.36.04.01-.03.06-.76.1-1.62.02-.86.08-2.2.12-2.97l.08-1.38.23-.24c.35-.35.22-.34 11.27-.63 1.76-.04 4.46-.1 6-.1 2.4 0 2.86.02 3.26.14.25.07.46.16.46.2 0 .05.19.21.42.36.71.45.68.08.6 7.8l.07 3.56.07 3.04 6.17.03c6 .01 6.17.01 6.21-.14.03-.14.2-.15 4.71-.17 3.64-.03 4.72-.06 4.81-.14.07-.05.31-.43.55-.82.24-.4.48-.82.55-.91l.5-.82c.5-.83.6-.95.95-1.09.2-.08.38-.26.62-.61.19-.28.32-.55.3-.6 0-.05-.55-.09-1.62-.1-11.65-.12-16.73-.2-17.45-.26-.96-.1-1.5-.3-1.9-.72-.23-.24-.24-.28-.26-1.11 0-.47-.04-1.43-.1-2.13-.08-1.2-.27-20.72-.27-28.28 0-3.83 0-3.83.62-3.98.43-.1 2.92-.15 7.93-.13h4.6l2.08.01c.15 0 5.6-.01 12.08-.05 6.49-.05 15.34-.05 19.66-.02l7.85.07.59.47c.32.26.64.58.72.71.26.47.32 1.24.27 3.96l-.09 5.64c-.02 1.67-.06 3.95-.09 5.05l-.04 2.01.4.13c.22.08.54.23.7.34.15.1.51.3.78.43s.7.37.97.55c.27.18.57.36.68.4.11.06.38.23.6.4.22.17.51.38.64.46.57.35.8.53 2.14 1.8.65.62 1.22 1.24 1.45 1.59l.39.57.32-.3c1-.86 1.47-1.22 1.95-1.5.3-.19.6-.42.69-.53.1-.13.2-.55.3-1.12.08-.5.2-1.05.27-1.2.24-.59.61-3.08.61-4.18 0-.76-.09-.84-.6-.47-.2.14-.37.25-.4.25-.04 0-.13.05-.2.13a8.11 8.11 0 0 0-1.63.98c-.87.63-2 1.71-3.43 3.3-.35.39-.7.73-.79.75-.1.04-.26-.01-.46-.15a1.4 1.4 0 0 0-.38-.21c-.14 0-.35-.29-.44-.6-.06-.23-.05-.36.14-.82.12-.3.36-.74.53-.98.4-.54 2-2.2 2.43-2.5a14.97 14.97 0 0 1 5.08-2.55c.65-.16.9-.13 1.1.13.07.07.27.24.46.37.43.29.48.39.63 1.16a22.84 22.84 0 0 1-.25 6.17c.02.01.38-.14.8-.34.77-.35.8-.36 1.26-.29.7.12 1.55.7 1.85 1.29.22.41.23.48.19 1.2-.06 1-.27 2.19-.47 2.64-.2.46-.38 1.03-.38 1.24 0 .25-.75 1.73-1.24 2.48-.24.37-.44.72-.44.78 0 .07-.19.32-.41.58-.22.25-.46.54-.53.65-.06.1-.15.19-.2.19-.03 0-.26.16-.5.35-.24.2-.55.37-.72.4-.16.03-.27.09-.24.14.06.09.55.08 1.12-.03l.47-.09.24.28c.13.15.35.32.47.37.45.2.67 1.19.42 1.8-.07.16-.12.39-.12.5a.9.9 0 0 1-.08.34c-.05.07-.21.6-.36 1.18-.62 2.4-.93 3.56-1.16 4.28-.28.87-.3 1-.1 1.08.07.04 1.77.08 3.76.1l3.63.03.12.19c.06.1.23.23.36.28.13.05.28.2.33.3.07.16.1 1.76.1 5.94 0 5.22 0 5.76-.14 6.3a6.73 6.73 0 0 1-2.48 3.65c-.6.45-1 .65-1.96.92-.28.08-.53.16-.55.19-.03.03-.2.06-.36.06-.52 0-.54.08-.33 2.32.2 2.04.34 4.89.34 6.64 0 2.03.1 5.25.28 8.92.12 2.55.2 4.56.36 8.92.04 1.38.13 3.44.2 4.56.06 1.11.15 3.24.2 4.72l.16 5.37c.04 1.49.1 2.75.12 2.81.08.2-.2.7-.42.74-.12.03-.23.01-.27-.05-.04-.07-.1-.06-.3.03-.42.22-.95.24-1.8.05a3.25 3.25 0 0 1-.94-.28 1.03 1.03 0 0 0-.36-.18c-.43-.11-.57-.58-.75-2.34-.1-.85-.24-1.95-.32-2.44-.18-.95-.3-2.12-.33-2.88 0-.26-.05-.56-.1-.67-.04-.12-.12-.75-.18-1.41a10.9 10.9 0 0 0-.19-1.42c-.04-.11-.1-.54-.13-.95-.03-.4-.08-.87-.12-1.02a50.8 50.8 0 0 1-.37-3.2 27.52 27.52 0 0 1-.3-2.12c-.07-.66-.2-1.63-.29-2.15-.08-.51-.15-1.12-.15-1.34 0-.23-.05-.62-.11-.87-.12-.47-.32-1.86-.41-2.87-.03-.32-.1-.73-.16-.9-.1-.3-.2-.97-.53-3.8a6.34 6.34 0 0 0-.16-.97c-.04-.11-.13-.67-.2-1.25-.06-.58-.18-1.4-.27-1.82-.08-.41-.18-1.08-.2-1.48-.03-.4-.14-1.24-.24-1.88a114.6 114.6 0 0 1-.71-5.33c-.07-.61-.15-1.18-.18-1.25-.02-.07-.17-.16-.33-.2-.32-.06-53.58-.08-53.64-.02-.02.03-.08.9-.13 1.96-.09 1.98-.15 2.38-.4 3-.09.2-.2.57-.24.83-.05.26-.32.99-.62 1.64-.83 1.84-.88 1.9-1.62 1.98-.47.04-.55.07-.66.27-.16.28-.58.4-1.6.46l-.87.05v.44c0 .53.2 2.11.35 2.97.07.33.16 1.05.21 1.6.05.56.13 1.16.17 1.35.04.19.11.82.15 1.4.08 1.04.17 1.81.48 4.3.24 1.83.32 2.63.32 3.07 0 .23.07.83.16 1.36.09.53.27 2.04.4 3.36.14 1.32.3 2.74.36 3.15.06.41.17 1.44.24 2.28l.24 2.81c.07.7.15 1.9.2 2.64.05.75.14 1.66.2 2.01.07.36.12.81.12 1.01 0 .28.03.38.15.41.08.03 12.6.08 27.84.12l27.72.08.24.23c.14.13.39.33.55.44a1 1 0 0 1 .38.53c.1.37.1.79 0 .85-.04.03-.08.14-.08.23 0 .2-.2.3-.56.28-.1-.01-2.03-.05-4.28-.08Zm-54.36-2.75c.07-.07.07-.22.04-.45-.05-.3-.74-2.72-1.03-3.59a107.4 107.4 0 0 0-.68-2.4c-.18-.58-.35-1.27-.38-1.51-.03-.24-.19-.9-.36-1.45-.17-.55-.43-1.45-.56-2l-.57-2.12a39.59 39.59 0 0 1-.86-3.6c0-.08-.17-.78-.4-1.55a93.59 93.59 0 0 1-1.83-7.21c-.09-.29-.29-1.04-.44-1.68a49.21 49.21 0 0 0-.69-2.6c-.04-.13-.22-.94-.4-1.8-.17-.85-.33-1.57-.36-1.6-.17-.16-3.76-.03-3.87.15-.07.11-.31 1.44-.4 2.3-.05.35-.13.86-.2 1.15-.07.29-.16 1.02-.2 1.64a17.9 17.9 0 0 1-.45 3c-.02.03-.1.66-.2 1.37l-.32 2.15c-.08.47-.17 1.14-.2 1.52a7.8 7.8 0 0 1-.12.98c-.1.39-.21 1.22-.35 2.67-.06.61-.15 1.2-.2 1.3a1.8 1.8 0 0 0-.09.61c0 .25-.07.9-.16 1.47-.08.56-.2 1.6-.28 2.3-.06.72-.16 1.45-.23 1.65-.06.19-.13.69-.17 1.1a42.9 42.9 0 0 1-.44 4c-.08.47-.2 1.42-.28 2.12l-.16 1.7-.04.41.46.03c.26.02 4.03.04 8.4.05 6.87.01 7.94 0 8.03-.11Zm67.2-1.3a284.3 284.3 0 0 1-.48-10.15l-.15-3.87c-.05-.81-.12-2.69-.17-4.16-.04-1.47-.13-3.78-.2-5.12-.06-1.34-.16-3.35-.2-4.47-.05-1.12-.15-3.35-.24-4.95-.09-1.62-.16-3.3-.16-3.74 0-.44-.04-.94-.08-1.12-.04-.17-.1-1.45-.13-2.85l-.05-2.55h-.4c-3.06-.08-3.74-.07-3.74.03 0 .06.08.38.16.7.08.34.18.88.2 1.2.04.33.12.85.19 1.15.06.32.13.76.13 1 .01.24.08.88.15 1.4.4 2.87.46 3.38.44 3.64-.03.16 0 .4.06.52.05.14.16.8.24 1.48.07.68.18 1.52.25 1.84.07.33.15.8.16 1.04.05.73.34 3.39.55 5.04.1.86.25 2.18.32 2.93.06.76.15 1.55.2 1.75.04.2.16 1.19.28 2.19.1 1 .24 1.98.3 2.18.14.42.26 1.2.38 2.5.04.52.19 1.6.32 2.4.12.8.27 1.83.3 2.3.05.46.16 1.25.25 1.75s.22 1.4.29 2c.07.58.18 1.32.24 1.64.07.3.16.89.2 1.28.08.78.2 1.24.32 1.24.04 0 .08-.1.08-.21Zm-86.12-1.94.36-2.6.29-1.92c.07-.4.17-1.18.23-1.73l.15-1.24a60.03 60.03 0 0 0 .58-4.15c.06-.61.18-1.32.26-1.56.1-.24.18-.73.21-1.08.07-.91.42-4.03.6-5.44.09-.66.23-1.94.32-2.84.09-.9.2-1.84.24-2.08.04-.24.11-.9.16-1.48.05-.57.16-1.47.25-2l.2-1.47.05-.5-1.27.02c-1.04.02-1.32.05-1.49.17-.25.16-.2-.43-.54 6.66l-.17 4.12c-.07 2.17-.2 4.83-.38 8.92-.05.88-.1 2.55-.13 3.72-.03 1.17-.12 3.48-.2 5.15-.15 2.78-.15 3.6.02 2.96.03-.13.15-.86.26-1.63Zm17.04-15.68c-.07-1-.21-2.6-.32-3.56-.11-.97-.27-2.73-.36-3.92-.24-3.03-.3-3.6-.43-4.2-.07-.29-.2-1.06-.29-1.7-.18-1.28-.25-1.56-.44-1.63-.12-.05-2.2.1-2.62.17-.2.05-.23.08-.19.22l.14.6c.04.24.19.7.32 1.04.14.34.33.94.43 1.33.37 1.44.52 2.01.67 2.4.09.23.2.68.26 1 .04.33.22 1.02.39 1.53.16.5.35 1.15.42 1.44l.46 1.67.49 1.84c.1.38.23.89.32 1.13.08.24.16.62.2.84.02.22.12.5.2.64.08.15.12.31.1.39-.02.06.02.18.09.26.1.1.13.22.1.46-.03.18-.01.39.04.48.09.15.1.12.12-.23.02-.22-.03-1.21-.1-2.2ZM31 110.18c.56-1.76.6-1.9.68-1.78.03.05.08-.1.11-.34.04-.23.24-1 .45-1.7l.47-1.6c.04-.18.15-.5.24-.72.16-.4.84-2.47.92-2.82.02-.1.01-.2-.03-.22-.1-.06-1.53-.2-1.58-.16-.06.05-.3 1.61-.46 2.84-.06.55-.15 1.13-.2 1.28-.1.35-.28 1.43-.4 2.4-.05.42-.13.81-.17.89-.03.07-.13.57-.22 1.12-.26 1.52-.34 2.01-.39 2.18-.02.1 0 .13.05.1.05-.04.29-.7.53-1.48Zm68.2-23.16 11.64-.07 1.88.03c2.11.02 14.5-.08 16.2-.14 1.79-.05 1.86-.06 2.38-.29.62-.27.73-.28.68-.08-.04.14 0 .13.45-.08.27-.12.57-.32.67-.44.36-.43.72-1.04.85-1.44.19-.56.28-2.98.29-7.12v-3.31h-15.5c-13.3 0-15.55.02-15.82.12-.27.1-3.02.11-19.58.12-11.62 0-19.26-.03-19.26-.07 0-.04.05-.1.1-.11.16-.07-1.74-.07-4.3 0-1.9.04-2.17.07-1.48.1.73.05.91.09 1.44.34.33.15.8.42 1.04.6l.8.6c.2.14.77.65 1.26 1.13.56.55.9.83.9.75 0-.37.38.01 1.06 1.06.16.24.44.65.64.9.4.53.9 1.5.98 1.9.03.15.24.86.48 1.56.23.7.55 1.77.68 2.36l.33 1.38c.04.16.13.3.21.33.17.05 16.5-.01 30.98-.13ZM57 74.1h-.4c-.13.02-.04.04.17.04.23 0 .32-.02.23-.04Zm-5.84-4.04.13-3.98c.04-1.12.07-3.17.08-4.55V59l-1.73.05c-1.59.05-2.79.15-2.88.24a142.99 142.99 0 0 1 .18 7c.04 3.82.08 5.48.14 5.53.14.12.52.14 2.34.15l1.68.02.06-1.94Zm67.33 1.68c.47.04 5.76 0 6.23-.04.54-.04.59-.06.66-.25l.23-.53c.08-.17.18-.46.2-.64.12-.65.63-2.52 1.08-3.96.58-1.78.63-2 .48-2.09-.07-.04-1.2-.07-2.53-.07-2.1 0-2.43.02-2.43.12 0 .1-.41.12-3.24.12-1.78 0-3.24.02-3.24.03 0 .19.28 1.24.4 1.58.27.65.88 3.03.88 3.41 0 .1-.04.18-.12.18-.06 0-.12 0-.12.02.01.47.45 2.06.6 2.16.04.04.24.04.44.01l.48-.05Zm-3.2-.06c0-.05-.05-.22-.13-.39-.07-.16-.19-.5-.27-.73-.11-.35-.17-.43-.29-.42-.16.02-.27-.34-.68-2.14-.08-.38-.2-.89-.28-1.15l-.13-.45-.19.17c-.1.08-.3.2-.48.24-.18.04-4.37.07-10.16.07-7.96 0-9.87.01-9.87.1 0 .05.22.37.48.7.27.33.58.77.69 1 .12.21.41.69.65 1.04a130.33 130.33 0 0 0 1.1 1.69c.1.14.34.15 7.27.12 6.72-.02 7.52 0 7.08.17-.06.03 1.1.05 2.56.05 1.77 0 2.65-.02 2.65-.07Zm-23.5-.15c.15-.05.14-.07 0-.25a25.4 25.4 0 0 1-.66-1.04 38.41 38.41 0 0 0-2.06-3.14l-.2-.22h-3.07c-2.74 0-3.37-.04-2.96-.19.04-.01.07-.05.04-.08-.08-.1-.7.04-.74.16-.03.09-.02.1.07.08.3-.12-.01.97-.46 1.6-.16.21-.44.66-.62.99-.2.33-.5.82-.69 1.1-.19.28-.35.54-.35.57 0 .04-.05.11-.12.17-.2.17-.13.23.3.26.8.06 11.38.05 11.53-.01Zm-47.3-.51-.09-2.54c-.1-2.6-.1-2.57-.02-6.28l.05-2.87-2.15.05c-1.18.02-2.22.07-2.3.1-.16.06-.16.17-.1 3.67.02 1.98.07 4.17.1 4.85l.05 1.25 1.57.77a34.9 34.9 0 0 0 2.83 1.33c.03 0 .06-.15.06-.33Zm-6.97-8.72c-.02-1.52-.05-2.8-.08-2.82-.03-.04-.85-.04-1.82 0l-1.76.06-.04.2c-.08.4-.25 3.17-.25 4.09v.91l.44.24c1.1.6 1.36.74 1.83 1.07.28.2.74.57 1.04.83l.53.46.07-1.13c.03-.62.05-2.38.04-3.9v-.01Zm39.26 1.63c-.1-.04-.12-.08-.07-.12.08-.04 14.09.04 27.93.16 5.56.05 6.12.04 6.07-.07-.03-.07-.07-1.05-.1-2.17a9.8 9.8 0 0 0-.17-2.2c-.08-.12-.44-.14-4.48-.18-3.4-.04-27.86-.18-35.23-.2-.68 0-3.2-.03-5.57-.07l-4.35-.07v.67c0 .55-.01.64-.11.56-.1-.08-.12.08-.16 1.01L60.42 63c-.1.98-.19.9 1.12.94 2.52.05 15.37.04 15.23-.01Zm50.31-2.01c.04-.05-.06-.08-.24-.08-.17 0-.3-.05-.32-.11-.03-.07-.15-.15-.28-.17-.26-.06-.34-.15-.46-.5-.14-.4.01-.69.89-1.6a9.38 9.38 0 0 0 1.34-1.74c.07-.1.27-.4.42-.68l.56-1.05c.16-.29.34-.74.4-1 .06-.27.16-.57.21-.67.14-.26.56-1.6.56-1.78 0-.18-.14-.18-.57.02-.19.08-.42.16-.52.16a.52.52 0 0 0-.3.16A23.01 23.01 0 0 0 126 54.7a24.39 24.39 0 0 0-4.14 4.8c-.16.23-.2.35-.16.63.03.28 0 .4-.2.66-.21.29-.26.32-.62.32-.25 0-.43-.04-.49-.12-.18-.23-.3-.14-.33.24l-.03.36h.52c.78 0 1.6.12 1.67.22.07.11.62.14 2.95.16 1.17 0 1.87-.02 1.9-.07Zm-10.12-.35c0-.04-1.25-.96-1.6-1.19a6.83 6.83 0 0 1-.8-.8 7.29 7.29 0 0 0-.64-.7c-.02 0-.04.37-.04.82 0 .45-.03 1.06-.06 1.36l-.07.54h1.61c.88 0 1.6-.02 1.6-.04Zm2.86-3.61c.1-.18.3-.6.45-.94.26-.56.3-.62.52-.62.16 0 .25-.06.32-.19.1-.16.07-.26-.24-.82-.46-.88-.76-1.23-1.95-2.31a35.22 35.22 0 0 0-2.24-1.7c-1.55-.93-3.48-1.85-4-1.89-.21-.01-.24.01-.26.23-.03.25.28 1.89.5 2.68.07.24.12.53.12.65 0 .1.09.3.2.43.1.12.38.61.6 1.09.37.73.46.87.62.87.12 0 .24.09.35.28.1.15.2.28.24.28.04 0 .16.18.28.4.34.7 2.18 2.43 3.17 2.99.2.12.52.34.72.49l.34.28.04-.95c.03-.76.07-.99.22-1.25Zm-24.3-1.48c7.99-.04 14.64-.1 14.79-.13.24-.05.25-.07.25-.38 0-.18.03-.52.06-.76.04-.37.06-.41.2-.36.16.04.17.02.12-.78a5.77 5.77 0 0 0-.13-1.05c-.13-.35-.54-2.24-.68-3.14a13 13 0 0 0-.2-1.08c-.12-.4-.1-1 .03-1.3.16-.4.57-.72.85-.66l.23.06v-1.46c0-1.3-.01-1.45-.12-1.36-.1.1-.12-.17-.07-2.69.03-1.53.07-2.8.09-2.83.01-.01.06.02.1.07.1.18.16-.65.2-3.48l.04-2.57-.3-.05c-.67-.11-13.34 0-13.01.11.35.13-.15.2-1.6.22l-17.43.05c-13.24.02-15.9 0-15.86-.08.03-.08-.24-.11-1.43-.11-1.66 0-1.57-.04-1.57.69 0 .37.03.43.15.41.13-.02.13.18.1 3.5a75.29 75.29 0 0 1-.07 3.59c-.02.04-.07 0-.11-.08-.03-.08-.05.51-.03 1.33.03.81.07 3.14.1 5.17.03 3.12.06 3.69.15 3.65.09-.03.11.04.11.31 0 .56.16 4.05.21 4.69l.05.58 10.13-.01c5.57 0 16.67-.04 24.65-.07Z" fill="#000"></path><path d="M102.55 64.2c-.01 0-6.38-.07-14.14-.12l-14.12-.09-.14-.17a7.62 7.62 0 0 1-.83-1.78 4.76 4.76 0 0 1-.16-1.04c0-.48.04-.64.26-1.1.14-.29.37-.62.5-.73l.23-.2 13.79.05c7.57.02 15.77.06 18.2.1 4.06.03 4.44.05 4.53.18.07.1.12.72.16 2.08a64 64 0 0 0 .1 2.4l.05.46h-4.2c-2.31 0-4.22-.01-4.23-.03ZM60.7 56.66c-.15-.1-.23-.22-.26-.46-.06-.54-.2-4.27-.2-5.63v-1.26l.99-.49 1.25-.62a326.86 326.86 0 0 1 5.28-2.62c2.5-1.2 3.4-1.63 4.56-2.16.68-.31 1.53-.72 1.88-.9.86-.47 2.42-1.28 3.16-1.64.33-.17.67-.37.76-.44l.16-.13-.16.04-1.76.25-2.08.28c-.27.04-.8.12-1.2.16-.8.08-1.05.12-1.48.2-.5.1-.75.12-1.56.2a34.7 34.7 0 0 0-2.36.32l-1.01.12c-3.36.44-4.76.6-5.33.6-.57 0-.69-.03-.95-.21l-.31-.22v-3.3l1.83-.58c2.35-.76 2.33-.76 3.13-.97l5.81-1.64c.98-.28 1.9-.53 2.05-.55.14-.03.45-.12.68-.21.23-.09.49-.16.58-.16.09 0 .81-.19 1.61-.4a534.82 534.82 0 0 1 5.07-1.4l.72-.2h5.86c3.22 0 5.92.03 6 .07.07.03.3.12.5.18.57.17.71.47.71 1.44a5.2 5.2 0 0 1-.48 2.32.93.93 0 0 0-.16.46c0 .13-.12.45-.28.72-.15.25-.28.54-.28.63 0 .48-1.28 1.56-3.01 2.54-.59.32-.73.44-.58.44.19 0 .91-.18 1.2-.3a25.69 25.69 0 0 0 1.73-.42c3.3-.84 5.76-1.36 6.41-1.38.1 0 .17-.03.17-.08 0-.04.04-.05.08-.03.04.03.16.01.24-.04.1-.04.39-.1.66-.12.28-.02 1.37-.16 2.42-.32 2.44-.35 4.14-.47 5.8-.41 1.18.04 1.34.06 1.72.25.22.11.51.3.63.43l.22.23-.05 3.82-.05 3.81-.23-.05c-.5-.1-.9.44-.95 1.31l-.04.6-.44.23a17.68 17.68 0 0 1-2.2 1.07c-.22.1-.85.38-1.4.6-.56.23-1.45.65-2 .93l-1.36.7c-.2.1-.9.5-1.56.9-.66.38-1.4.8-1.63.91-.82.44-1.04.75-.27.4l.37-.16.14-.04.42-.12c.18-.04.63-.17 1-.28l1.24-.36 2.64-.7a175.74 175.74 0 0 1 3.64-.94c.57-.16 1.92-.4 1.97-.34.03.02.16.45.28.95.27.97.31 1.72.22 3.27l-.04.76-.27.05c-.38.08-6.52.14-20.76.19l-12.15.04.4-.28c.24-.15.46-.28.5-.28a33.1 33.1 0 0 1 3.9-2.47c.44-.27 1.44-.83 2.23-1.24 1.24-.67 1.4-.77 1.08-.72-.2.03-.56.12-.8.2-.25.08-.61.16-.8.19-.37.05-.56.1-3.6.91-2.07.55-4.13 1.06-4.88 1.2-.28.06-.56.14-.6.18a145.64 145.64 0 0 0-5.72 1.36c-.86.21-1.66.39-1.77.39-.1 0-.23.04-.29.1-.06.05-.1.06-.1.03 0-.04-.04-.04-.09.01-.05.05-.33.13-.63.18-.28.05-.6.12-.7.16-.1.04-1.23.08-2.52.08-2.05 0-2.36-.03-2.55-.14Z" fill="#FDBB30"></path></svg>