<svg xmlns:xlink="http://www.w3.org/1999/xlink"  fill="none" xmlns="http://www.w3.org/2000/svg" viewBox="0 0 160 160"><path d="M58.35 142.3c-.03-.03-.38-.1-.77-.12a3.95 3.95 0 0 1-1.82-.63l-1.5-.9a35.7 35.7 0 0 0-1.6-.95c-.63-.34-.74-.63-.74-2.02 0-.7-.02-2.6-.05-4.24l-.03-2.96-2.93-1.66a191.76 191.76 0 0 1-5.85-3.5c-.32-.2-.84-.47-1.14-.6-.3-.14-.66-.35-.8-.46a6.07 6.07 0 0 0-.83-.56l-1.2-.67-2.42-1.38c-1-.56-2.19-1.25-2.64-1.55-.46-.3-1.15-.7-1.55-.91-.4-.21-.93-.53-1.2-.72a31.4 31.4 0 0 0-2.16-1.27 18.91 18.91 0 0 1-2-1.22 6.51 6.51 0 0 0-1.04-.62 32.74 32.74 0 0 1-2.72-1.45c-.22-.15-.93-.58-1.58-.97l-1.6-.97a41.41 41.41 0 0 1-2.98-1.71l-1.6-.98-.05 1.17c-.01.62-.06 1.3-.11 1.49-.16.73-4.16 2.2-5.23 1.93a8.18 8.18 0 0 1-1.47-.83 8.3 8.3 0 0 0-1.19-.72c-.3 0-2.27-1.5-2.37-1.8-.12-.42-.16-1.2-.28-10.12-.05-3.78-.15-9.25-.2-12.16-.12-8.18-.08-21.68.08-22.4.18-.69.53-1.04 1.08-1.04.2 0 .56-.08.78-.16.24-.1.98-.27 1.65-.4 1.25-.24 2.86-.7 3.15-.9.1-.04.7-.25 1.36-.44 1.76-.52 2.74-.93 6.8-2.9a54.1 54.1 0 0 0 5.98-3.36c2.18-1.3 2.53-1.5 3.14-1.92.91-.6 2.51-1.44 4-2.06l2.14-.93c.47-.23 1.19-.5 1.6-.6.4-.12 1.36-.44 2.13-.71.77-.28 2.35-.68 3.52-.9 1.17-.22 2.42-.48 2.77-.56a38.7 38.7 0 0 1 2.8-.38c1.98-.21 2.83-.3 6.02-.52 1.55-.1 5.23.2 7.18.58a46.24 46.24 0 0 1 6.64 2c.22.06.69.24 1.04.4 2.2.98 2.93 1.28 3.17 1.28.14 0 .29.06.33.14.05.07.61.3 1.25.5s1.57.53 2.05.74a38.16 38.16 0 0 0 6 2.04c2.13.55 5.31 1.1 5.52.98.06-.03 1.4-.08 2.98-.11 2.76-.05 2.88-.03 3.47.32.65.41.73.6.81 2.11l.24 3.2c.1 1.18.21 3.17.26 4.4.05 1.23.11 2.64.16 3.12s.11 1.49.16 2.24c.14 2.67.27 3.76.46 4 .34.4.9 1.44.9 1.66 0 .1.1.3.2.39.1.11.34.6.52 1.1.18.5.43.95.56 1.01.5.26 1.06.46 1.68.66.35.1.72.24.8.32.1.06.85.35 1.68.64.83.27 1.7.59 1.92.7.22.11 1.5.58 2.86 1.04 1.35.45 2.61.91 2.8 1.02.18.13.74.36 1.22.5.48.16.96.34 1.04.42.1.06.74.27 1.44.46.7.2 1.44.45 1.63.58.2.12.43.22.53.22.18 0 2.2.72 4.88 1.76.88.34 1.78.66 2 .72.22.06.69.24 1.04.4.35.14.93.37 1.28.46a19 19 0 0 1 1.52.56c.48.21 1.28.5 1.76.66.48.14 1.4.51 2 .8.62.27 1.73.7 2.48.96.75.24 1.65.56 2 .72.35.14 1.18.46 1.84.7.66.24 1.52.58 1.92.76.4.16 1.76.7 3.04 1.18l2.64 1.04 2.32.98c2.42.99 3.8 1.7 3.9 2 .05.13.28.22.48.22.32 0 .48.14.74.72.3.67.32 1.03.34 7.55v10.53c.03 3.27-.05 6.7-.2 7.1a.87.87 0 0 1-.59.61c-.24.05-.57.2-.75.3-.46.28-3.04.77-4.16.77-.85.02-1.07-.06-1.95-.59-.55-.35-1.3-.92-1.7-1.3l-.7-.68-.13-1.5c-.08-.84-.14-1.93-.14-2.45l-.02-.93-.8.1-1.68.25c-.48.1-1.38.24-2 .32l-2.08.3c-.53.1-1.46.25-2.08.34-.6.1-1.38.23-1.68.3-.6.15-1.47.3-4.88.82-2.82.43-4.02.64-4.96.82-.43.08-1.52.25-2.4.38-.88.14-2.08.35-2.67.48-.6.15-1.14.23-1.2.2a32.1 32.1 0 0 0-3.57.52c-1 .18-2.62.42-3.6.56l-2.56.4c-.43.08-1.34.22-2 .32a74.59 74.59 0 0 1-4.8.82c-3.68.5-4.05.57-7.6 1.17-1.84.3-3.94.62-4.64.72-.7.1-1.86.28-2.56.41-.7.15-2.03.35-2.96.5a142.37 142.37 0 0 0-6.32 1c-.53.1-1.68.28-2.56.4-1.78.26-4.6.77-6.53 1.19l-1.25.27-.04 3.5c-.05 3.04-.1 3.52-.32 3.65-.15.08-.26.24-.26.36 0 .1-.16.28-.35.38-.61.29-4.23 1.17-4.34 1.06Zm-1.47-8.06v-5.78l-.78-.4c-.44-.22-.96-.54-1.19-.7-.2-.17-.46-.32-.56-.32-.08 0-.94-.45-1.9-1-1.71-.98-2.4-1.35-5.33-2.9-.78-.44-1.55-.87-1.68-.98a10.6 10.6 0 0 0-1.2-.73c-.53-.3-1.28-.73-1.68-.98-.4-.24-.9-.53-1.12-.63a9.78 9.78 0 0 1-2.13-1.21c-.25-.2-.56-.37-.69-.37-.1 0-.73-.33-1.37-.75-.64-.4-1.75-1.04-2.45-1.4a107.42 107.42 0 0 1-5.12-2.86 78.6 78.6 0 0 1-1.44-.81c-.35-.23-1.36-.77-2.24-1.22a39.13 39.13 0 0 1-2.43-1.38 4.4 4.4 0 0 0-.96-.54c-.07 0-.5-.24-.95-.54-.44-.3-1.05-.67-1.36-.8-.3-.15-.9-.48-1.34-.74-.43-.27-1.34-.75-2-1.09-.66-.35-1.52-.81-1.92-1.05l-1.66-.95c-.52-.27-1.27-.7-1.68-.94-.4-.24-1.1-.6-1.54-.83a18.9 18.9 0 0 1-1.76-1.06 5 5 0 0 0-1.15-.64c-.11 0-.16.26-.13.77.03.42.08 2.58.1 4.8l.04 4.06.64.32c.37.18.85.47 1.1.64.33.23.44.26.46.1.01-.2.08-2.72.12-4.88.04-1.59.63-1.84 2.3-.98a61.5 61.5 0 0 1 4.84 2.7c.35.23.75.47.88.52.13.06.6.34 1.04.6a71.91 71.91 0 0 1 5.2 2.96c.64.4 2.22 1.3 3.92 2.23.64.35 1.26.72 1.38.8.12.1.44.27.7.4.27.13.69.37.94.56.26.18.74.47 1.08.64 1.02.55 2.75 1.55 3.5 2.02.4.25 1.15.68 1.68.96.9.48 3.82 2.17 5.04 2.94.94.6 6.85 3.94 8.96 5.09l1.8 1c.52.31 1 .55 1.08.55.22 0 .48.56.48 1.03 0 .22-.06.41-.14.41-.08 0-.15.64-.16 1.43l-.1 3.8-.08 2.39.91.53 1.41.83c.26.16.51.25.56.22.05-.03.1-2.66.08-5.84Zm3.17 5.52c.32-.13.78-.24 1.02-.24h.45l-.02-3.12c-.03-4.56.13-5.09 1.5-5.26l1.48-.26c.4-.06 1.3-.22 2-.32 1.15-.18 2.48-.41 4.56-.81.4-.09 1.7-.3 2.88-.47 1.18-.18 2.27-.37 2.4-.4.13-.05 1.04-.2 2-.34 1.74-.23 2.48-.36 4.32-.68l2.96-.48 3.92-.66c1.06-.2 2.53-.45 3.28-.58l2.24-.36c1-.18 3.89-.64 4.48-.74l1.92-.32c.83-.14 2.05-.32 2.69-.4a7.4 7.4 0 0 0 1.3-.24 37.2 37.2 0 0 1 2.43-.4 79.2 79.2 0 0 0 5.74-.96c.74-.17 3.54-.64 5.44-.88.83-.11 2.6-.4 3.92-.62l3.44-.6c.58-.08 1.15-.19 1.28-.22.13-.05.56-.11.96-.16.4-.03 1.38-.17 2.16-.3.8-.13 2.38-.39 3.52-.56 1.15-.18 2.26-.37 2.48-.44a230.74 230.74 0 0 0 4.7-.7c1.76-.27 2.3-.3 2.66-.16 1.17.48 1.46 1.44 1.58 5.28l.1 2.8.48-.03c3.06-.22 3.46-.3 2.94-.63-.1-.06-.14-1.88-.1-6.1l.07-6-.33.1c-.34.1-2.93.66-4.18.9-.35.06-.96.2-1.36.29-.4.1-1.55.29-2.56.43-1 .13-2.38.34-3.04.46a48 48 0 0 1-2.24.34c-.58.06-1.62.24-2.32.4-.7.15-1.86.37-2.56.47-.7.1-1.46.22-1.68.27-1.26.25-6.37 1.12-8 1.36-.58.08-1.15.19-1.28.24-.13.06-1.1.24-2.16.4a218.98 218.98 0 0 0-6.16 1.02l-2.24.4a30.74 30.74 0 0 1-2.8.42c-.18.04-1.25.2-2.4.38-1.14.2-2.62.43-3.28.56l-2.72.48c-.83.13-2.02.35-2.64.48-.6.13-2.13.37-3.36.55-2.08.3-3.94.6-5.68.96-.4.1-1.33.23-2.08.33s-1.9.29-2.56.4c-.66.13-1.98.34-2.96.48-.96.15-2.48.39-3.36.56-.88.18-2.93.55-4.56.82-1.63.27-3.31.57-3.76.65l-2.4.37c-.88.13-2.18.34-2.88.48-.7.13-1.46.24-1.68.24-.75.02-.78.13-.86 2.64-.08 2.29-.16 8.1-.12 8.53.02.25.34.24 1.03-.05Zm.99-13.2c.35-.08 1.36-.25 2.24-.4a92.4 92.4 0 0 0 2.88-.51c1.63-.3 3.73-.66 4.96-.83l2.48-.42 2.88-.48c.75-.13 1.65-.3 2-.38.35-.1 1.25-.24 2-.36.75-.1 1.76-.24 2.24-.32.48-.1 1.28-.2 1.76-.28.48-.07 1.25-.21 1.68-.3.45-.1 1.34-.26 2-.38.66-.1 1.6-.27 2.08-.4.48-.1 1.46-.28 2.16-.38 1.54-.2 1.76-.24 6.24-1.06.7-.1 1.86-.33 2.56-.48.7-.14 1.65-.25 2.08-.25.45 0 1.1-.11 1.49-.22.81-.28 3.1-.68 4.93-.87.72-.08 1.5-.22 1.76-.33.4-.15 1.7-.39 3.82-.7 1.84-.28 3.74-.6 4.26-.74.32-.08.76-.15 1-.15.23 0 .72-.06 1.1-.16.78-.17 3-.56 5.24-.9l2.56-.4 1.84-.3c.45-.06 1.2-.2 1.68-.3.5-.1 1.07-.18 1.28-.16.22.01 1.3-.16 2.4-.39 1.1-.22 2.4-.48 2.88-.56l2.08-.4c1.97-.4 3.2-.57 4.72-.67 1.42-.08 2.96-.37 2.96-.54l.05-4.15.03-4.05-.88.1c-.48.05-1.2.16-1.6.26-.4.08-1.65.25-2.8.38-3.94.47-7.8.96-9.28 1.2-1.4.22-3.26.47-4.32.58-.43.03-1.2.14-1.68.22-.48.08-1.42.2-2.08.24-.66.05-1.55.16-2 .24-1.18.22-5.82.85-6.48.88-.3.02-1.06.11-1.68.2-1.4.23-5.49.8-7.28.98l-4.56.6a453 453 0 0 1-5.04.62c-1 .11-2.91.35-4.24.55-1.31.17-2.98.4-3.68.47-.7.1-2.46.3-3.92.5-1.46.18-3.9.47-5.44.64l-4.16.5-3.44.38-2.72.32c-2 .29-6.35.72-8.03.82-1.8.1-1.97.08-2.07-.18a.65.65 0 0 1 .05-.54c.2-.3 1.41-.72 2.53-.88a402.48 402.48 0 0 0 5.28-.82c.8-.13 2.02-.3 2.72-.4.7-.1 1.65-.24 2.08-.32.45-.08 1.95-.3 3.36-.48 1.4-.2 2.88-.4 3.28-.48.4-.08 1.7-.27 2.88-.42 3.31-.38 5.71-.72 7.68-1.02.48-.08 1.42-.2 2.08-.3 2.67-.36 4.9-.66 5.28-.74.22-.05.8-.11 1.28-.16 1.02-.1 2.34-.27 9.12-1.22 1.28-.19 3.12-.43 4.08-.54.98-.11 2.2-.27 2.72-.37.53-.1 1.86-.25 2.96-.35 1.1-.1 2.26-.24 2.56-.3.53-.13 1.3-.24 4.56-.66l3.6-.48c1.28-.2 3.07-.4 4-.48a40.3 40.3 0 0 0 3.12-.4c.8-.14 1.98-.32 2.64-.4 3.18-.35 4.48-.51 5.3-.64.48-.1 1.1-.16 1.37-.16.29 0 .53-.1.6-.24.04-.13.28-.24.52-.26.35-.01.32-.04-.19-.14a14 14 0 0 1-1.36-.4c-.4-.14-1.04-.37-1.44-.48-1.26-.37-4.3-1.44-7.04-2.48-.75-.29-1.68-.62-2.08-.75l-1.6-.56c-.48-.18-1.58-.55-2.43-.83-.85-.3-1.65-.6-1.76-.7a5.8 5.8 0 0 0-1.25-.49 49.03 49.03 0 0 1-3.76-1.34 87 87 0 0 0-4.64-1.8c-.88-.31-2.43-.92-3.44-1.34-2.11-.86-2.43-.9-5.84-.45-1.14.15-2.98.39-4.08.52-1.1.14-2.4.32-2.88.4-.48.08-1.2.17-1.6.2-1 .12-3.52.42-4 .5-.22.03-1.09.14-1.92.22a544.45 544.45 0 0 1-11.76 1.54c-1.23.14-2.96.35-3.84.48-1.54.22-3.63.5-9.36 1.22-1.46.17-2.94.4-3.31.48-.37.08-.9.14-1.19.14a9 9 0 0 0-1.4.16l-3.54.5c-1.46.17-3.1.4-3.68.5-.58.07-1.3.17-1.6.18l-1.84.24a870.17 870.17 0 0 1-12.64 1.68c-5.84.79-8.32 1.1-9.52 1.24-1.62.17-2.24.28-2.24.43 0 .06 1.06.64 2.37 1.28a73.5 73.5 0 0 1 2.59 1.33c.13.08.56.28.96.48.4.17.9.41 1.12.53l3.84 1.92c1.89.94 3.55 1.77 3.68 1.85.34.2 7.22 3.71 9.46 4.82 2.1 1.04 2.88 1.77 2.46 2.32-.16.22-.42.3-1 .3-.8-.02-.92-.06-15.08-7.12a1668.23 1668.23 0 0 1-11.07-5.52c-.95-.48-1.83-.88-1.95-.88-.13 0-.3.24-.39.53-.17.51-.4 3.74-.38 5.07l.05 1.71.01 1 .75.43a351.06 351.06 0 0 1 5.1 2.9l1.08.6c.27.13.91.5 1.44.82.53.32 1.52.86 2.22 1.21.7.37 1.67.91 2.16 1.25.5.32 1.46.88 2.16 1.25.7.37 1.33.72 1.44.8a20.1 20.1 0 0 1 3.06 1.73c.29.19.7.4.9.46.2.06.52.24.7.4.18.16.58.4.88.55.3.14.93.46 1.36.73.45.27 1.06.6 1.36.74.3.14.77.4 1 .57.26.18.8.52 1.2.74l1.4.77c2.85 1.64 3.6 1.82 5.76 1.34Zm83.04-3.31a78.48 78.48 0 0 0-.14-2.88c-.02-.02-.3 0-.64.06l-.63.1.1 2.33.1 2.34.5.45c.31.24.6.43.68.43.08 0 .1-1.18.03-2.83Zm-131.22-11.9.64-.23-.06-1.04c-.03-.58-.06-1.3-.06-1.6-.02-.5-.1-.6-.66-.88a9.22 9.22 0 0 1-1.04-.6 1.75 1.75 0 0 0-.51-.28c-.15 0-.18 4.86-.03 5 .1.09.8-.05 1.72-.38Zm12.1-7.41c.1-.1.16-.53.16-.98 0-.7.29-1.84.7-2.81.1-.21-.54-.6-3.3-1.97A500.98 500.98 0 0 1 9.45 91.4c-1.47-.82-2.26-1.2-2.32-1.14-.08.08-.11 2.72-.08 5.52l.03 2.11.6.4c.31.23.65.42.75.42.08 0 .5.24.94.53.45.29 1.02.62 1.31.73.29.12.6.3.69.42.1.11.69.46 1.33.78.64.32 1.44.76 1.79.98.35.23.88.51 1.18.66.3.13.84.43 1.2.67.36.24 1.03.6 1.46.83a57.2 57.2 0 0 1 3.31 1.87c.34.21.67.37.74.37.08 0 .33.14.57.34.24.19.7.46 1.03.62l.59.29.13-1.86a8.6 8.6 0 0 1 .27-2.01Zm5.28-6.23c1.1-.14 3.12-.4 4.48-.59 4.18-.58 4.66-.64 6.8-.86 1.15-.13 2.4-.3 2.8-.39.4-.1 1.23-.2 1.84-.27 1.1-.1 2.14-.24 4.13-.56.54-.1 1.68-.24 2.51-.32.83-.08 2.64-.3 4-.48a194.3 194.3 0 0 1 4.48-.56c.13-.03 1.2-.18 2.38-.32 1.17-.14 2.2-.27 2.26-.32a38 38 0 0 1 2.58-.32 52.8 52.8 0 0 0 4.78-.64c.4-.03 1.26-.14 1.92-.22l3.12-.42c1.06-.14 2.43-.32 3.04-.42 2.72-.38 4.54-.6 5.28-.64.45-.01.88-.1 1-.17.1-.1.25-.11.33-.07.08.05.57.02 1.09-.08.5-.1 1.45-.22 2.06-.32.62-.08 1.55-.2 2.08-.3 1.26-.2 3.38-.48 4.08-.56.3-.02 1.31-.16 2.24-.3 1.74-.26 3.33-.48 7.92-1.1l2.72-.38-.96-.28a15.05 15.05 0 0 1-2.11-.76c-.26-.1-.8-.35-1.25-.56-.43-.2-1.26-.5-1.84-.68a45.94 45.94 0 0 1-4.43-1.62c-1.22-.54-1.27-.5-1.2.9.08 1.39-.11 1.88-.79 2.12-.25.08-.46.23-.46.3 0 .23-3.31 1.72-4.64 2.09-1.62.45-3.4.83-3.87.83-.23 0-.61.08-.87.16-.25.1-1.15.22-1.98.32l-3.76.4c-2.38.27-11.74.35-15.52.14-1.94-.1-3.57-.48-4.1-.96-.33-.3-.72-.14-.97.42-.39.9-4.96 2.6-9.17 3.44-.7.13-1.89.4-2.64.58-.75.17-1.65.36-2 .4-.35.04-1.22.17-1.92.3-3.3.58-4.18.64-10.88.64h-6.72l-1.2-.5c-1.46-.6-1.62-.81-1.15-1.47.41-.56.96-.69 2.35-.51 2.46.3 13.44-.03 16.56-.51.66-.1 1.49-.2 1.84-.21.8-.05 2.88-.51 3.28-.72.16-.1.53-.16.8-.16.26 0 1-.14 1.65-.3.62-.16 1.44-.36 1.79-.4.35-.07.93-.21 1.28-.34 1.73-.6 4.74-1.52 4.94-1.52.23 0 .34-.45.52-2.34.16-1.56-.39-3.84-1.32-5.5-.41-.75-.86-1.47-1-1.62-.15-.12-.5-.56-.8-.96-1.32-1.7-4.34-3.7-6.63-4.38-3.57-1.06-12.17-1.25-18.51-.4-3.66.5-7.89 1.22-8.27 1.4-.16.09-.58.2-.93.26a40.2 40.2 0 0 0-8.43 2.53c-1.73.7-2.05.87-2.05 1.17 0 .35.69 1.55 1.18 2.05.96.96 1.33 1.55 1.43 2.32.24 2.03 2.96 5.33 5.95 7.21 3.02 1.9 3 1.9 3.2 3.01.13.85.4 1.19 1.06 1.41.67.22.7.64.1 1.09-.38.29-.5.3-1.06.13-.74-.21-1.59-1.32-1.73-2.23-.08-.45-.23-.6-.88-.96-2.15-1.17-3.38-1.95-4.07-2.6l-1.4-1.32c-.42-.38-.72-.56-.88-.5-.88.36-4.23 1.03-5.14 1.03-.26 0-.58.05-.72.1-.27.1-.05.22 2.4 1.36 1.2.54 5.14 2.44 10.48 5.08 1.8.9 3.36 1.62 3.46 1.62.1 0 .27.11.4.26.22.27.14.27 3.66-.15Zm46-9.63c4.03-.1 4.88-.14 8-.42 3.42-.28 6.5-.83 8.8-1.53 1.2-.37 2.8-1.15 2.9-1.4a13.6 13.6 0 0 0-.82-3.93c-.24-.9-1.2-2.86-2.02-4.16-.36-.58-.78-1.3-.94-1.6-.16-.3-.58-.88-.94-1.28-.37-.4-.7-.83-.74-.96-.26-.78-4.64-2.02-9.12-2.54a63.5 63.5 0 0 0-10.96-.2c-3.73.4-6.5.88-8.96 1.52-.83.23-1.7.45-1.92.52-.22.04-.62.19-.91.32-.27.12-.61.22-.75.22-.13 0-.48.14-.77.32-.29.18-.74.32-.98.32-.25 0-.59.08-.77.18-.28.14-.22.2.61.65 1.25.66 2.26 1.38 2.82 2.02.25.27.56.51.67.51.13 0 .27.14.32.32.05.18.16.32.26.32.08 0 .33.3.57.69.24.37.63.93.87 1.23.22.3.48.74.54.94.06.2.27.61.48.92.7 1.02 1.07 3.39.88 5.5-.06.75-.1 1.4-.05 1.44.23.24 4.63.26 12.93.08Zm-66.77-.8c.77-.14 2.2-.35 3.17-.46.98-.13 1.82-.26 1.87-.3.05-.06-.08-.31-.25-.58-.42-.58-.87-2.18-.74-2.58.06-.2-.16-.54-.72-1.14-1.7-1.72-1.98-2.7-1.2-4.03.64-1.12 3.28-2.67 6.24-3.66l1.28-.45c1.44-.5 3.5-1.1 4.4-1.28.48-.1 1.28-.3 1.76-.43.48-.15 1.28-.3 1.76-.39l1.76-.28c6.42-1.17 14.9-1.5 20.16-.8 2.85.36 3.95.75 4.1 1.4.04.23.1.5.14.6.06.24 1.1.44 1.17.24a5.13 5.13 0 0 1 1.5-1.64 12.94 12.94 0 0 1 2.61-1.26c.13 0 .51-.14.83-.32.34-.18.72-.32.85-.32s.56-.11.96-.26a25.17 25.17 0 0 1 5.09-1.2c.86-.08 1.8-.22 2.11-.3 1.92-.46 11.8-.46 14.08 0l2.56.48c1 .2 2.06.4 2.32.48l1.52.42c.58.16 1.57.5 2.2.8 1.05.48 1.51.5 1.24.06-.06-.1-.13-2.74-.16-5.89-.03-4.7-.08-5.7-.27-5.65-.11.04-1.43.1-2.93.13a22.1 22.1 0 0 1-5.68-.43c-.3-.1-1.18-.3-1.94-.48a42.82 42.82 0 0 1-6.62-2.22 97.4 97.4 0 0 0-3.84-1.43c-.96-.35-2.32-.9-3-1.21a46.92 46.92 0 0 0-5.46-1.96c-3.72-1.12-8.21-1.26-14.61-.44-2.08.25-7.12 1.26-7.57 1.5-.18.1-.62.24-1 .32-.92.2-2.4.72-3.58 1.3-.54.25-1.07.46-1.18.46-.11 0-.46.14-.78.32s-.9.46-1.3.64-1.04.54-1.44.8c-.4.26-.88.54-1.07.62a1.3 1.3 0 0 0-.45.34c-.05.1-.54.38-1.09.66-.54.27-1.33.75-1.76 1.04-.41.3-.81.54-.91.54-.08 0-.38.2-.67.46-.29.26-.93.68-1.41.95a100.63 100.63 0 0 1-7.2 3.45c-.64.34-2.1.92-2.88 1.14-.4.11-.93.29-1.2.38A31.77 31.77 0 0 1 7.6 66.6c-.6.1-1.14.18-1.15.2-.03.01.03.81.11 1.79.08.96.2 4.62.26 8.14.08 5.71.17 10.18.2 10.77.02.22.04.22 2.45-.2Z" fill="#000"></path><path d="M57.5 124.56c-.25-.38-.41-.93-.72-2.32-.17-.85.07-3.45.44-4.8.36-1.26.76-1.76 1.4-1.76.82 0 1.01.34.7 1.25-.23.69-.4 2.14-.52 4.62-.16 3.1-.58 4.1-1.3 3.01Z" fill="#000"></path><path d="M67.57 123c-.07-.13-.7-.74-1.41-1.35a11.3 11.3 0 0 1-1.52-1.55c-.14-.29-.3-.4-.46-.34-.15.07-.58.16-.98.24-1.26.26-3.74.8-4.06.9-.3.1-.3.01-.2-1.47.07-.88.23-1.97.37-2.42.3-1 .15-1.33-.69-1.33-.94 0-1.5 1.3-1.8 4.15-.1.81-.2 1.53-.24 1.56-.07.08-1.4.34-3.56.7-.52.07-1.2.26-1.48.4-.48.25-.55.25-1.19-.09-1.73-.91-4.72-2.62-5.87-3.36-.13-.1-.43-.22-.66-.3a1.34 1.34 0 0 1-.65-.61l-.88-1.65c-1.14-2.13-1.06-4 .17-5.09.3-.24 1.08-.75 1.76-1.13l1.24-.67.43.3c.24.18.59.37.8.43.2.07 2.19 1.03 4.4 2.13 3.49 1.76 4.14 2.03 4.8 2.03.57 0 .83-.08.99-.3.42-.55-.37-1.28-2.46-2.32a713.6 713.6 0 0 1-9.46-4.82 234 234 0 0 0-3.68-1.85l-3.84-1.92a29.4 29.4 0 0 0-1.12-.53c-.4-.2-.83-.4-.96-.48a73.5 73.5 0 0 0-2.6-1.33 21.16 21.16 0 0 1-2.36-1.26c0-.15.54-.28 1.76-.39.58-.06 2.02-.24 3.2-.41 1.18-.16 2.74-.37 3.44-.45.7-.08 2.14-.27 3.2-.42l3.2-.4c.7-.1 2.03-.25 2.96-.38 4.3-.58 5.6-.77 6.72-.91.66-.1 1.46-.21 1.76-.24l1.6-.21c.58-.1 2.22-.3 3.68-.5 1.46-.17 3.04-.4 3.54-.48a9 9 0 0 1 1.4-.16c.3 0 .82-.06 1.19-.14.37-.08 1.85-.3 3.31-.48 4.03-.51 8.77-1.12 9.92-1.3.58-.08 2.05-.27 3.28-.41 2.45-.28 7.55-.95 9.2-1.19.58-.1 1.76-.24 2.64-.33l2-.24 3.74-.47c.74-.08 1.17-.14 3.94-.56.58-.1 1.73-.24 2.56-.32.83-.08 2.42-.25 3.5-.4 1.1-.14 2.18-.22 2.4-.16.23.05 1.22.42 2.18.8.98.39 2.48.98 3.36 1.3a87 87 0 0 1 4.64 1.8c.2.12 2.37.89 3.76 1.33.58.18 1.14.4 1.23.5.21.14 2.82 1.07 4.85 1.73.58.17 1.36.46 1.76.62 1.98.82 4.16 1.6 4.38 1.6.39 0 .48.4.3 1.25-.1.42-.28 1.12-.38 1.58l-.2.82-.8.08c-.45.03-1.5.2-2.34.34-.83.14-2.27.33-3.2.41-.93.08-2.69.29-3.92.47-1.23.17-2.85.4-3.6.48-3.09.4-4.11.54-4.64.67-.3.06-1.46.2-2.56.3-1.1.1-2.43.26-2.96.35-.53.1-1.74.26-2.72.37-.96.11-2.8.35-4.08.55-6.24.88-7.94 1.1-9.6 1.3-.75.09-2.14.26-3.12.4-.96.14-2.3.33-2.96.4l-2.08.31a196.2 196.2 0 0 1-7.68 1.03c-1.18.14-2.48.33-2.88.41-.4.08-1.87.29-3.28.48-1.4.18-2.91.4-3.36.48-.43.08-1.38.23-2.08.32-.7.1-1.92.27-2.72.4a402.48 402.48 0 0 1-5.28.82c-1.12.16-2.34.57-2.53.88a.65.65 0 0 0-.05.54c.1.26.28.27 2.07.18 1.68-.1 6.03-.53 8.03-.82l2.72-.32 3.44-.38c.75-.1 2.88-.35 4.72-.56 6.6-.77 8.98-1.07 12.48-1.55 1.33-.2 3.23-.44 4.24-.55 1-.11 3.28-.4 5.04-.62l4.56-.6c1.76-.19 5.84-.73 7.28-.97.62-.1 1.4-.2 1.76-.2.35-.04 1.44-.17 2.4-.33.98-.14 2.08-.3 2.48-.33.4-.04 1.09-.13 1.52-.21a68.2 68.2 0 0 1 3.12-.42l2.88-.32c1.06-.13 2.96-.38 4.08-.56 1.1-.17 3.57-.5 6.08-.8 1.33-.16 2.1-.03 2.69.47.51.41.2 3.3-.43 3.93a.65.65 0 0 0-.16.53c.1.4-.68 1.74-1.1 1.86-.2.04-.68.1-1.08.1s-.9.1-1.1.22c-.21.1-.52.17-.68.14-.16-.05-.67 0-1.13.11-.74.16-2.8.5-4.37.7l-1.68.26-1.7.24c-.27.02-.67.1-.88.18-.2.06-.64.13-.94.14-.3.02-1.28.18-2.18.37-.88.2-2 .38-2.48.43l-1.66.26c-.43.1-1.12.2-1.52.24l-1.76.25-1.44.21c-.22.03-.72.13-1.12.21l-.96.18c-.37.01-1.4.16-2.4.32l-2 .32-1.84.33c-.4.1-1.15.2-1.66.24-.53.05-1.01.13-1.1.18-.07.06-.4.13-.73.14-.32.03-.77.1-.99.15l-2.48.4a63.1 63.1 0 0 0-2.56.43c-.26.05-.69.11-.96.14-.26.03-.69.11-.96.16a9.4 9.4 0 0 1-1.12.16c-.35.03-1.47.21-2.48.4-1 .2-2.02.37-2.24.39-.96.12-2.05.28-2.56.41-.3.08-.96.18-1.44.23-.91.1-2.03.28-3.52.57-.48.1-1.09.21-1.36.24-.64.08-5.3.83-6.8 1.1-2.27.42-3.28.6-3.84.66-1.31.16-2.83.43-3.3.58-.68.2-1.15.17-1.3-.07Z" fill="#FDBB30"></path><path d="M32.72 111.36c-.26-.51-.45-.53-1.49-.14-.5.19-2.5-.83-2.81-1.43-.18-.33-.36-.43-.77-.43-.6 0-.53.22-.63-2.4-.04-1.55.16-4.85.37-5.47.08-.29.26-.53.39-.53.12 0 1 .4 1.95.88l4.11 2.05c1.33.66 3.73 1.86 5.36 2.69 1.63.83 3.5 1.76 4.16 2.06l1.2.55-.56.12c-1.12.26-2.67.6-3.84.85-.66.16-1.66.4-2.24.58-1.4.4-4.38 1.1-4.7 1.1-.13 0-.36-.22-.5-.48ZM27.92 97.92c.05-.08.26-.16.45-.14.33 0 .33.02.03.14-.45.2-.6.2-.48 0ZM36.29 96.85c.1-.03.29-.03.4 0 .1.05.01.08-.2.08-.23 0-.31-.03-.2-.08ZM140.22 96.08c-.16-.13-.22-.22-.14-.24.24 0 .64.29.54.38-.05.05-.22-.01-.4-.14ZM56.85 94.13a.2.2 0 0 1 .22 0c.05.06 0 .11-.1.11-.12 0-.17-.05-.12-.11ZM117.68 87.6l-.48-.2.47-.13c.47-.12.9.04 1.02.38.08.24-.4.22-1-.05Z" fill="#FDBB30"></path></svg>