<svg xmlns:xlink="http://www.w3.org/1999/xlink"  fill="none" xmlns="http://www.w3.org/2000/svg" viewBox="0 0 160 160"><path d="M23.56 140.56a5.86 5.86 0 0 1-2.7-1.31c-.53-.47-.62-.59-1.07-1.5a7.34 7.34 0 0 1-.85-3.4c-.03-1.13.12-1.36 1.82-2.83a81.93 81.93 0 0 0 5.25-5.08c.6-.62 2.14-2.14 3.43-3.4l3.32-3.2c.53-.52 1.48-1.42 2.12-2 1.34-1.26 1.99-1.9 2.45-2.4.17-.22 1.52-1.5 3-2.86l2.87-2.66a52.92 52.92 0 0 1 2.54-2.38 5.38 5.38 0 0 0 1.26-1.26c.16-.33.6-.9 1.23-1.58.26-.28.73-.88 1.05-1.34.31-.46.77-1.09 1.01-1.4.24-.3.5-.69.59-.84.08-.16.53-.84 1-1.5a20.3 20.3 0 0 0 1.1-1.7c.64-.93 2.3-3.87 3.69-6.56.35-.68.66-1.27.7-1.32a28.94 28.94 0 0 1 1.03-2.25c.27-.54.48-1.02.48-1.05 0-.1.58-1.64 1.01-2.7.2-.48.42-1.17.51-1.51.08-.36.2-.66.23-.7.11-.06.45-.9.64-1.56l.56-2.03c.22-.82.6-2.33.85-3.36l.44-1.88v-4.28c-.01-4.52 0-4.74.4-7.24.45-2.82.8-4.43 1.22-5.5a45.48 45.48 0 0 1 4.83-11.3c.4-.58.67-1.1.67-1.28 0-.07.12-.26.27-.41.14-.17.35-.45.46-.63.1-.18.41-.61.69-.98.28-.36.6-.85.71-1.07.11-.23.35-.53.51-.68.16-.16.44-.48.6-.73.18-.25.49-.66.7-.9.22-.24.48-.56.58-.72.73-1.15 5.8-6.15 7.83-7.7a14.4 14.4 0 0 1 2.01-1.42c.05 0 .23-.15.41-.32.32-.3.94-.7 1.64-1.05.16-.08.43-.3.6-.47.17-.18.5-.41.7-.52.23-.1.6-.32.83-.47.23-.15.68-.4 1-.57.78-.39 1.2-.6 2.45-1.25.6-.3 1.14-.55 1.2-.55.07 0 .45-.18.84-.4.4-.22.87-.44 1.04-.5.19-.04.95-.29 1.7-.55.74-.25 1.87-.6 2.51-.79.64-.18 1.5-.43 1.88-.56 1.38-.43 4.37-.84 7.03-.97 4.35-.2 7.88.14 11.45 1.13 2.16.6 3.51 1.11 4.02 1.5.14.1.46.24.7.3.5.14 2.33 1.1 2.74 1.45a22 22 0 0 1 3.57 2.7 25.03 25.03 0 0 1 3.53 3.81c.32.47.37.52.94 1.16.2.23.44.58.53.8.1.22.4.75.65 1.18.27.42.48.79.48.82l.44.82c.25.43.57 1.16.73 1.62.16.47.37 1 .48 1.2.28.59 1.09 3.14 1.24 3.93.03.2.17.85.3 1.46.68 2.92.88 6.87.58 10.98-.12 1.62-.26 2.47-1.01 5.96a38.7 38.7 0 0 1-1.8 5.73c-.17.36-.32.76-.36.91a2.3 2.3 0 0 1-.3.63c-.12.2-.28.57-.35.8-.15.55-.91 2.08-1.27 2.57-.14.2-.28.47-.3.6-.04.12-.22.48-.4.79-.2.31-.5.86-.69 1.21-.19.35-.6 1.02-.91 1.48l-.95 1.4c-.32.49-.38.61-.34.83.06.31-.2.8-.86 1.49-.26.28-.47.56-.47.62 0 .07-.19.31-.4.55-.4.43-.85.97-1.3 1.61l-.24.31.23.26 1.23 1.34a14.2 14.2 0 0 1 2.16 3.44l.44 1.07c.19.46.28.77.25.9-.03.12-.01.2.07.23.06.02.12.22.16.54.03.27.13.8.22 1.17.16.62.16.84.12 2.57-.06 2.48-.34 4.05-.93 5.37-.13.28-.27.66-.32.85a9 9 0 0 1-.85 1.69c-.4.7-1.81 2.36-2.64 3.13a14.83 14.83 0 0 1-2.74 1.91c-.34.21-1.07.6-1.6.84-.9.4-1.03.45-1.56.45-.32 0-.88.07-1.25.16a13.41 13.41 0 0 1-6.44-.2 12.2 12.2 0 0 0-1.16-.2 6.12 6.12 0 0 1-2.63-1.1l-.81-.55a12.32 12.32 0 0 1-2.24-2c-1.67-2.17-1.96-2.63-2.32-3.67a5.13 5.13 0 0 0-.32-.8 6.54 6.54 0 0 1-.5-1.52c-.1-.5-.13-.52-.58-.39-.72.23-2.55.66-3.44.83-3.38.64-7.16 1-7.16.7 0-.2-.19-.21-1.5-.21-.69 0-1.92-.04-2.74-.1-2.6-.16-3.07-.15-4.4.2l-2.64.62a88.4 88.4 0 0 0-10 2.97c-.75.25-1.37.47-1.42.47-.1 0-2.54.98-3.82 1.53a33.92 33.92 0 0 0-3.82 1.9c-.1 0-1.27.56-1.5.72-.11.08-.77.44-1.47.8a14.07 14.07 0 0 0-2.7 1.58c-.37.28-.8.55-.96.59-.16.05-.47.25-.68.45-.21.2-.5.41-.62.48-.26.14-1.08.8-1.42 1.14-.34.35-1.15 1.03-1.54 1.29-.2.13-.45.36-.54.5-.73 1.05-1.42 1.8-4 4.39-1.6 1.6-4.23 4.2-5.83 5.75-1.6 1.56-3.55 3.47-4.32 4.24a184.13 184.13 0 0 1-6.36 6.07c-.79.66-3.03 3-3.59 3.75-.33.46-.61.85-.61.88 0 .14-.5.81-.6.81-.18 0-.74.54-.8.75-.07.31-.5.46-1.46.5-.47 0-1.07 0-1.34-.05v-.02Zm1.23-2.4a3.82 3.82 0 0 1-.62-1.02l-.37-.88c-.17-.4-.58-2.16-.68-2.9-.14-1.17-.15-1.2-.3-1.14-.07.02-.3.17-.49.33l-.6.5c-.14.1-.46.38-.7.6l-.46.4.16.64c.3 1.17.36 1.34.76 2a3.78 3.78 0 0 0 3.14 1.87h.51l-.35-.39Zm2.74-2.81 1.35-1.46.46-.46-.27-.54a14.64 14.64 0 0 1-1.24-3.93c-.05-.44-.12-.8-.16-.8-.16 0-.64.38-1.52 1.22-.5.46-1 .93-1.13 1.02-.2.16-.22.2-.17.63.08.78.27 1.8.43 2.28.09.25.16.53.16.6 0 .2.4 1.31.65 1.8.19.36.38.62.48.62.03 0 .47-.44.96-.98Zm4.27-4.05c.74-.7 1.73-1.82 1.78-2.01.05-.2-.3-1.4-.54-1.82a4.45 4.45 0 0 1-.48-1.39c0-.33-.37-1.48-.53-1.6-.2-.18-.56.06-1.6 1.07l-.96.93.18.9c.37 1.74 1.37 4.3 1.7 4.3.03 0 .24-.17.45-.39Zm4.34-4.51c.33-.32.96-.98 1.4-1.45l.8-.87-.47-.97a8.35 8.35 0 0 1-.55-1.28l-.2-1.35a6.74 6.74 0 0 0-.23-1.13c-.04-.04-.21.08-.42.28a273.01 273.01 0 0 0-2.1 1.92l-.32.3v.82c.01.66.06.96.23 1.5.3.94 1.1 2.8 1.18 2.8.05 0 .35-.26.68-.57Zm4.98-5.08c.28-.3.87-.9 1.3-1.32l.78-.77-.1-.31-.49-1.19c-.2-.48-.44-1.24-.53-1.7-.21-.98-.3-1.12-.57-.98-.5.28-1.81 1.45-2.31 2.09-.33.41-.33.43-.28.89.11 1.16.5 2.6.95 3.48l.32.66.2-.16c.12-.08.45-.39.73-.7Zm4.9-4.96c1.53-1.58 1.53-1.59 1.4-1.8-.2-.3-.78-1.73-.86-2.1a16.7 16.7 0 0 0-.6-1.8c-.02-.02-.47.4-1.01.94l-1.22 1.15-.22.19.12.67c.08.38.2.88.3 1.12.07.24.18.63.22.87.05.23.14.53.2.68.11.27.66.93.76.93.03 0 .44-.38.9-.85Zm3.89-4.01c.2-.28.22-.42.06-.42-.06 0-.44-.3-.82-.65l-.9-.83-.19-.16.05.26c.05.23.66 1.82.95 2.44l.1.23.29-.32c.16-.17.37-.42.46-.56Zm2.43-1.88c.12-.1.5-.5.85-.88.7-.77 1.56-1.5 2.06-1.73.19-.09.56-.34.84-.55.28-.21 1-.65 1.6-.98.59-.32 1.2-.69 1.36-.8.15-.13.44-.29.63-.36.2-.06.55-.25.8-.4.6-.36 2.06-1.05 3.05-1.43.41-.16 1.08-.46 1.48-.65.4-.2 1-.45 1.35-.57.35-.1 1.02-.38 1.5-.6.48-.21.89-.39.92-.39.03 0 .5-.17 1.02-.39.54-.21 1.15-.44 1.37-.5.22-.05.56-.18.76-.28.2-.1.8-.32 1.36-.5.55-.2 1.3-.47 1.68-.63a57.8 57.8 0 0 1 7.55-2.38c0-.05-.17-.18-.38-.29a1.8 1.8 0 0 1-.47-.35 2.92 2.92 0 0 1-.04-.82c.03-.6.06-.7.26-.88.2-.2.25-.22.9-.21.56 0 .83.06 1.3.23.78.29 2.05.62 3.57.93 1.13.24 1.32.25 3.55.29 2.04.03 2.34.03 2.3-.08-.03-.1.2-.12 1.59-.17a24.4 24.4 0 0 0 5.96-.81c.46-.11 1.24-.3 1.72-.4.48-.12 1.1-.31 1.37-.42.68-.3.72-.39 1.23-2.82.13-.64.26-1.22.29-1.31.05-.13.01-.15-.26-.09-.18.02-.69.18-1.15.33-1.9.6-4.27 1.13-6.15 1.34-1.34.16-2.15.17-2.03.03.07-.08-.33-.1-1.93-.1-3.56-.02-5.25-.22-7.65-.91-.47-.14-.89-.25-.95-.25-.06 0-.38-.13-.72-.29a6.18 6.18 0 0 0-.93-.36c-.34-.09-1.62-.69-2.52-1.19a35.86 35.86 0 0 1-2.97-1.97c-1.8-1.44-4.32-4.12-4.32-4.6 0-.08-.03-.17-.08-.2-.35-.2-1.54-2.18-1.83-3.02-.08-.23-.3-.74-.48-1.14-.17-.4-.32-.8-.32-.9a32.03 32.03 0 0 1-1.5-6.56c-.37-3.52.03-8.74.87-11.57a81.29 81.29 0 0 1 2.1-6.1c.07-.17.3-.69.53-1.13l.4-.85c0-.03.54-1.04 1-1.84.11-.22.3-.5.4-.63.1-.12.3-.46.44-.76.3-.6.96-1.63 1.55-2.41l.63-.85c.12-.18.28-.4.36-.48a69.76 69.76 0 0 1 2.16-2.63c.74-.86 3.84-3.92 5.05-4.98l.85-.75a29.5 29.5 0 0 1 2.48-1.93c.29-.22.54-.39.57-.39a4 4 0 0 0 .5-.3c.86-.57 2.3-1.39 3.05-1.74 1.04-.5 2.17-1.09 2.36-1.24.05-.03.6-.26 1.24-.51.64-.26 1.37-.57 1.62-.7.25-.12.72-.28 1.02-.34.31-.07.64-.17.75-.24.36-.24 1.58-.6 2.85-.84.73-.14 1.43-.3 1.58-.36 1.59-.67 9.81-.53 12.26.2l1.42.39c.37.08 1.02.3 1.43.48.42.19.88.36 1.02.38a21.88 21.88 0 0 1 4.34 2.42c.02.05.34.28.7.51.68.45 2.61 2.23 2.61 2.4 0 .06.25.36.56.67.3.3.64.7.76.91.12.2.4.57.6.84.54.69.88 1.24 1.55 2.48.8 1.47 1.2 2.43 1.66 4.03.78 2.72.92 3.48 1.07 6 .2 3.13.15 4.57-.2 7.66a31 31 0 0 1-2 7.15c-.17.37-.41.98-.56 1.36-.27.7-.72 1.65-.96 2-.08.1-.17.35-.2.52-.03.17-.17.51-.3.76l-.54 1c-.27.51-1.46 2.34-1.6 2.43-.08.05-.4.66-.4.74a18.76 18.76 0 0 1-1.73 2.42c-.24.26-.43.51-.43.55 0 .2-1.06 1.43-2.63 3.04-.59.6-1.04 1.13-1.01 1.18.06.1.44.1.59 0 .06-.03.27-.02.52.04.22.07.7.15 1.08.19.46.05.88.16 1.27.33.55.23.6.24.78.11.1-.06.26-.22.33-.34.19-.29.96-1.29 1.52-1.96.34-.41.5-.54.66-.54.22 0 .45-.2.97-.88.5-.65.83-1.15 1.11-1.7.16-.3.47-.8.7-1.08.24-.3.6-.86.79-1.26.2-.39.56-1.02.8-1.4.23-.37.43-.72.43-.77 0-.06.2-.5.44-1s.65-1.41.92-2.02l.93-2.04c.28-.58.5-1.19.59-1.64.09-.4.24-.96.35-1.24.63-1.7.74-2.08.97-3.54.07-.43.2-1.04.28-1.36.32-1.19.52-4.11.52-7.7 0-2.44-.03-3-.32-4.96-.14-.89-.78-3.55-.95-3.92l-.56-1.38c-.73-1.85-2.18-4.65-2.52-4.86a2.21 2.21 0 0 1-.29-.47c-.44-.93-3.15-3.99-4.2-4.73-.32-.23-.68-.51-.8-.62a27.62 27.62 0 0 0-3.4-2.36c-.17-.1-.49-.33-.71-.5a3.8 3.8 0 0 0-.96-.48 6.4 6.4 0 0 1-.8-.32 5.18 5.18 0 0 0-1.23-.48c-.05 0-.45-.16-.88-.35-.42-.2-.96-.38-1.2-.4a8.05 8.05 0 0 1-1.12-.29c-1.84-.63-3.6-.83-7.13-.84-3.25 0-5.4.2-7.57.67l-1.74.37c-.57.12-1.33.32-1.69.46-.36.12-.88.3-1.16.38-.3.09-.83.28-1.2.44a4 4 0 0 1-.86.28c-.1 0-.22.05-.28.1a42.56 42.56 0 0 0-6.25 3.01l-.71.42-.9.55a55.68 55.68 0 0 0-5.2 3.66 56.68 56.68 0 0 0-5.2 4.95 80.02 80.02 0 0 0-3.23 3.85 22.23 22.23 0 0 0-1.39 1.84c-.38.51-.8 1.14-.92 1.38A56.76 56.76 0 0 0 69 51.62c-.05.17-.2.47-.33.68-.29.46-.47.88-.85 1.96-.28.8-.69 2.27-.79 2.88-.03.17-.23.84-.46 1.49-.39 1.17-.43 1.4-.67 3.45-.07.59-.2 1.44-.3 1.87-.14.74-.16 1.02-.12 4.04l.04 3.25.28 1.48c.16.81.37 1.99.46 2.61.2 1.32.17 1.6-.3 1.92-.36.24-.71.23-1.35-.02-.64-.26-.68-.22-.83.59a56.28 56.28 0 0 1-2.48 7.97c-.14.36-.36.95-.48 1.33-.31.95-.57 1.6-.98 2.48-.2.41-.38.85-.4.97a.49.49 0 0 1-.22.3.34.34 0 0 0-.16.28c0 .1-.1.32-.23.48-.12.16-.26.42-.29.58-.06.38-1 2.29-1.34 2.76-.13.2-.35.62-.47.95-.13.32-.32.68-.42.8-.1.1-.38.54-.6.95-.23.42-.5.9-.6 1.04-.1.16-.47.76-.8 1.33a30.54 30.54 0 0 1-2.07 3.04c-.19.22-.55.72-.81 1.11-.27.4-.6.83-.74.95-.14.14-.39.45-.56.69-.45.68-.95 1.27-1.52 1.8l-.51.49.55.53a15.24 15.24 0 0 0 3.34 2.4c.09-.01.26-.09.38-.2h-.03Zm69.94-5.65c.85-.18.93-.21 2.03-.76a11.91 11.91 0 0 0 2.16-1.33c.12 0 1.33-1.13 1.53-1.42a11.42 11.42 0 0 1 1.13-1.47c0-.04.12-.25.28-.46.15-.21.28-.42.28-.45 0-.04.06-.14.14-.23.13-.16.13-.16-.02-.1-.5.19-2.08.46-3.3.57-.8.07-1.68-.07-2.79-.44-2.37-.8-3.84-2.19-5.18-4.88a20.03 20.03 0 0 0-.93-1.7c0-.08-.47-.78-.87-1.29a8.1 8.1 0 0 0-2.67-2.01 7.05 7.05 0 0 0-2.62-.53c-1.4-.09-2.6-.02-2.9.2a.79.79 0 0 0-.29.42l-.33 1.21a8.88 8.88 0 0 0-.32 3.41c.15 1.83.41 2.98.96 4.16a14.67 14.67 0 0 0 4.44 5.36c1.06.69 3 1.55 3.84 1.7 1.75.3 4.1.31 5.44.03Zm5.6-8.57a7.28 7.28 0 0 0 2.52-.77c.63-.34.65-.37.73-1.55.11-1.53-.07-3.13-.49-4.59-.17-.6-.32-1.17-.32-1.26 0-.25-.55-1.29-1.12-2.14a13.34 13.34 0 0 0-4.4-3.85 11.09 11.09 0 0 0-6.41-1.3c-1.21.1-2.45.46-3.67 1.06-.37.19-.76.37-.86.41-.36.13-1.99 1.25-2.51 1.72a10.65 10.65 0 0 0-1.9 2.3c0 .02.78.05 1.74.07 1.86.04 2.21.1 3.36.55.98.4 1.8.84 2.64 1.47.2.14 1.89 1.83 2.04 2.04.33.45.67 1.02.71 1.22.09.3 1.2 1.7 2.54 3.13.5.54.7.7 1.25.95.84.4 1.93.69 2.59.7.29 0 .99-.07 1.56-.16Zm-30.74-7.8a13.1 13.1 0 0 0 2.16-.42c.11-.11-1.68-1.85-1.91-1.85-.06 0-.3.17-.52.36-.6.54-1.99 1.9-1.99 1.98 0 .1 1.32.07 2.26-.07Zm-3.65-1.21c1.93-2.04 2.43-2.58 2.43-2.68 0-.1-1.59-1.67-2.55-2.53l-.57-.52-.83.8-1.73 1.66c-1.85 1.8-3.52 3.55-3.52 3.7 0 .04.3.12.7.18a24.62 24.62 0 0 1 2.7.59c.08.02.6.04 1.15.05h1l1.21-1.25Zm8.37.01c.16-.11.36-.2.44-.2a.9.9 0 0 0 .38-.16.98.98 0 0 1 .43-.16c.1 0 .4-.09.65-.2l1.13-.48.92-.4c.13-.04.3-.13.4-.18.15-.08.15-.1-.1-.36-.23-.24-.25-.29-.15-.39.1-.1-.08-.32-1.63-1.86l-1.75-1.75-.43.34c-.62.48-3.43 3.21-3.43 3.32 0 .06.46.53 1.02 1.05s1.16 1.1 1.34 1.28c.18.19.36.34.4.35.05 0 .22-.08.38-.2Zm-16.97-.44c.13 0 1.14-.95 5.42-5.15.66-.66 1.21-1.23 1.21-1.27 0-.2-1.16-1.44-2.32-2.5-.75-.66-.65-.67-1.77.37-1.21 1.14-5.26 5.19-5.95 5.96-.28.3-.51.6-.51.65 0 .17.76.73 1.58 1.16.9.48 1.99.88 2.17.82a.69.69 0 0 1 .18-.04h-.01Zm-2.1-6.34c3.61-3.58 4.41-4.41 4.41-4.54 0-.04-.15-.19-.33-.34a36.3 36.3 0 0 1-1.26-1.1c-1.52-1.38-1.79-1.6-1.88-1.6-.11 0-1.29 1.08-3.69 3.39l-2.26 2.17-1.08 1.04-.75.73.16.23c.5.72 3.03 3.48 3.16 3.48.03 0 1.62-1.56 3.53-3.47Zm25.03 3.13c.07-.07.12-.07.2 0 .1.07.16.03.37-.23.14-.17.39-.37.55-.45a9.73 9.73 0 0 0 1.78-1.74c0-.27-3.01-3.28-3.96-3.94l-.24-.17-1.44 1.37-1.44 1.39 1.95 1.92c1.08 1.07 2 1.94 2.05 1.94.05 0 .13-.04.18-.1Zm-9.34-1.31a56.1 56.1 0 0 0 1.74-1.67l.83-.84-.75-.78a18.56 18.56 0 0 0-2.3-2.23c-.22-.06-.74.39-2.56 2.2l-1.47 1.47.8.73 1.58 1.5.8.77.2-.16 1.13-.99Zm14.05-2.16c.16-.07.39-.2.53-.32.12-.11.27-.2.3-.2.06 0 .53-.2 1.06-.42a13.89 13.89 0 0 1 2.05-.75c.03-.02-1.36-1.42-4.17-4.17a12.51 12.51 0 0 0-1.5-1.36c-.07.02-1.97 1.89-2.83 2.77l-.32.32 1.72 1.7c1.61 1.6 2.65 2.55 2.8 2.55.04 0 .2-.06.36-.12Zm-19.24-1.46c.28-.25 1.14-1.08 1.9-1.84l1.4-1.38-.67-.69a16.73 16.73 0 0 0-2.47-2.19c-.17 0-.76.52-2.48 2.21l-1.4 1.37.8.79a25.58 25.58 0 0 0 2.35 2.19c.04 0 .3-.2.57-.46Zm-16.92-1.24a155.1 155.1 0 0 0 6.03-5.96c0-.14-2.99-2.9-3.14-2.9-.07 0-.95.8-1.93 1.79l-3.08 3.01L72.97 75l.54 1.32c.58 1.41 1.29 2.88 1.38 2.88.03 0 .7-.61 1.48-1.37Zm26.58.48c.76-.65 2.17-2.04 2.17-2.17 0-.12-2.97-3.01-3.1-3.01-.13 0-1.22.97-2.18 1.94l-.67.68.27.35c.28.36 2.7 2.79 2.77 2.79.03 0 .36-.26.74-.58Zm17.2-1.52c.79-.8 1.51-1.56 1.6-1.68l.17-.2-2.66-2.6c-2.82-2.76-3.62-3.5-3.73-3.5-.04 0-.4.3-.8.66a75.08 75.08 0 0 0-2.65 2.46c0 .02 1.27 1.3 2.82 2.85 2.55 2.55 3.55 3.47 3.73 3.47.04 0 .72-.66 1.52-1.45ZM88.68 75c.13-.1 1-.93 1.92-1.83l1.68-1.64-.36-.35c-.63-.6-2.27-2.11-2.6-2.41-.2-.17-.4-.3-.47-.3-.24 0-1.49 1.09-3.43 2.98l-.54.53.86.84a25.64 25.64 0 0 0 2.65 2.38c.02 0 .15-.09.29-.2Zm18.97-1.26c.73-.72 1.44-1.44 1.56-1.6l.24-.31-1.36-1.34a28.48 28.48 0 0 0-1.61-1.53l-.24-.17-1.18 1.13c-.66.63-1.37 1.34-1.6 1.6l-.44.44 1.57 1.54c.87.84 1.61 1.54 1.65 1.54a19 19 0 0 0 1.4-1.3Zm-8.43-.44c.7-.7 1.3-1.33 1.35-1.4.08-.17-.2-.48-1.7-1.87-1.1-1.03-1.18-1.09-1.39-1.04-.17.04-1.61 1.3-2.26 1.98-.6.62-.59.67.46 1.7a13.79 13.79 0 0 0 2.17 1.89c.05 0 .67-.57 1.37-1.26Zm24.57-.7c.87-1.1 1.48-1.95 1.68-2.34.1-.21.11-.3.04-.45a65.72 65.72 0 0 0-5.36-5.45c-.12-.04-.33.1-.83.55-1.16 1.06-2.45 2.44-2.45 2.63 0 .18 2.99 3.22 5 5.08 1.21 1.12 1 1.12 1.91-.02Zm-48.56-2.3a92.5 92.5 0 0 0 2.69-2.7c0-.07-1.01-1.09-2.19-2.22l-.78-.75-.85.83c-2.02 1.94-2.15 2.1-2.27 2.6-.1.39.05 2.71.2 3.64.13.76.3 1.26.43 1.26.03 0 1.28-1.2 2.76-2.65Zm28.3-1.27c.78-.78 1.42-1.48 1.42-1.54 0-.17-2.84-3.01-3.01-3.01-.12 0-3.14 3.04-3.2 3.22-.03.13.13.34.9 1.11.53.53 1.22 1.15 1.55 1.4.5.37.6.42.74.35.1-.05.8-.74 1.6-1.52v-.01Zm-19.26 1.03c.95-.82 3.08-2.9 3.08-3.01 0-.1-.3-.42-1.97-2.03-1.04-1-1.07-1.03-1.24-.9-.28.2-3.16 3.04-3.3 3.27-.09.12-.12.27-.09.38.08.24 2.65 2.8 2.82 2.8.08 0 .4-.23.7-.5Zm27.32-.2a25.19 25.19 0 0 0 2.48-2.52c0-.11-2.94-3.02-3.06-3.02-.22 0-3.34 3.02-3.34 3.24 0 .2 2.88 3 3.07 3 .04 0 .42-.3.85-.7Zm-17.31-.22c.87-.82 1.87-1.93 1.87-2.1 0-.08-1.73-1.84-3.16-3.21-.1-.1-2.91 2.57-2.91 2.76 0 .12 3.27 3.33 3.36 3.3.03-.02.42-.35.84-.75Zm32.7-1.83c.36-.47 1.45-2.71 1.74-3.56.09-.25.14-.52.12-.6a38.36 38.36 0 0 0-3.96-3.88c-.09 0-.2.04-.27.1a23.41 23.41 0 0 0-2.55 2.31l-.88.86.9.93c2.5 2.59 4.35 4.38 4.48 4.34.03-.02.23-.24.42-.5Zm-27.17-3.64c.4-.42.74-.8.74-.85 0-.06-.08-.2-.18-.33a42.95 42.95 0 0 0-2.64-2.68l-.38-.32-.26.21c-.42.35-2.87 2.79-2.96 2.96-.07.13.13.36 1.57 1.79l1.64 1.65.86-.85c.48-.45 1.2-1.16 1.6-1.58h.01Zm-19.63 1.3c.27-.25 1.03-.97 1.68-1.61 1.07-1.05 1.18-1.17 1.05-1.27-.07-.05-.74-.69-1.49-1.42a8.08 8.08 0 0 0-1.51-1.33c-.26 0-.84.5-2.34 2.02l-1.43 1.44.3.32c.7.77 2.32 2.32 2.59 2.46.32.17.3.19 1.15-.61Zm27.96-1.01 1.46-1.47-1.46-1.5-1.47-1.5-.43.33c-.23.19-1.03.93-1.76 1.65l-1.33 1.3.88.88c.49.47 1.17 1.14 1.54 1.47l.67.62.21-.15c.12-.1.88-.83 1.7-1.64Zm8.53.44c1.46-1.44 1.8-1.83 1.8-2.07 0-.23-.49-.78-1.87-2.12l-1.05-1.02-1.2 1.17c-.66.65-1.44 1.4-1.7 1.67l-.52.48 1.59 1.53c.87.85 1.61 1.54 1.66 1.54.05 0 .63-.53 1.29-1.19Zm-27.6.57 1.4-1.35 1.1-1.08-1.56-1.44a25.7 25.7 0 0 0-1.63-1.44c-.28 0-1.47 1.08-2.37 2.17l-.5.59.82.79a42.76 42.76 0 0 0 2 1.81c.15.14.3.25.35.25.05 0 .23-.13.4-.3Zm-16.75-.53a7.28 7.28 0 0 0 1.27-1.53c0-.15-1-1.14-1.2-1.2-.08-.01-.2.02-.24.07-.18.21-.48 3.08-.33 3.08.05 0 .27-.19.5-.41Zm3.6-3.82a19.4 19.4 0 0 0 2.47-2.67c0-.18-1.81-1.97-3.33-3.3-.76-.67-.73-.66-.92-.23-.2.48-1.04 3.2-1.04 3.4 0 .09-.08.32-.2.53-.21.4-.25.89-.1 1.18.1.22 2 2.06 2.08 2.03.03-.01.5-.44 1.03-.94Zm17.27.35 1.7-1.63 1.2-1.16-1.41-1.37c-.77-.76-1.5-1.44-1.61-1.52-.2-.12-.21-.11-.47.08-.15.1-.93.85-1.74 1.65l-1.47 1.45.28.25 1.22 1.14a14.79 14.79 0 0 0 1.75 1.56c.03 0 .28-.2.55-.45Zm9.5-.19c.38-.34 1.14-1.05 1.68-1.58l1-.95-1.45-1.45c-.79-.79-1.46-1.52-1.5-1.61-.02-.1-.1-.17-.14-.17-.27 0-.92.54-2.34 1.93-.53.51-1.04 1-1.16 1.09l-.2.16 1.64 1.61c.9.89 1.65 1.6 1.7 1.6.03 0 .39-.28.77-.63Zm27.13.27c.1-.2.25-.54.32-.74.23-.6.73-2.67.69-2.86-.1-.4-1.72-2.1-2-2.1-.06 0-.71.57-1.45 1.3l-1.34 1.3 1.73 1.74c.96.95 1.77 1.73 1.8 1.73.04 0 .16-.17.25-.37Zm-16.9-1.83c1.33-1.3 1.33-1.31.53-2.1a32.95 32.95 0 0 0-2.18-2.02c-.13-.07-.35.11-1.72 1.48-.86.86-1.56 1.61-1.56 1.66 0 .14.68.9 1.87 2.12l.88.89.56-.5c.3-.27 1.04-.96 1.63-1.53Zm7.36 1.65c.55-.44 3.07-2.97 3.07-3.09 0-.27-2.77-3.08-3.04-3.08-.14 0-1.08.84-2.36 2.1l-1.27 1.25 1.18 1.22a16.32 16.32 0 0 0 1.98 1.91c.02 0 .22-.13.44-.3v-.01Zm-35.32-.54c.37-.34.98-.93 1.37-1.33l.7-.74-1.62-1.58-1.62-1.57-.6.58c-.73.68-1.9 1.93-2.01 2.14-.12.2.24.63 1.63 1.93.97.92 1.28 1.17 1.43 1.18.03 0 .35-.27.72-.6Zm5-4.94c.85-.86 1.54-1.6 1.54-1.64 0-.1-3.02-3.2-3.12-3.2-.09 0-3.44 3.34-3.44 3.44 0 .11 2.48 2.58 2.9 2.88.23.16.36.2.45.16.08-.04.83-.78 1.67-1.63Zm8.22.79a31.7 31.7 0 0 0 1.64-1.65l.82-.89-1.56-1.57L97.5 51l-1.64 1.64a26.8 26.8 0 0 0-1.64 1.74c0 .1 2.95 3.06 3.06 3.06.03 0 .44-.34.9-.76h-.01Zm9.06.18c.36-.32 1-.93 1.44-1.35l1.07-1.02.28-.25-1.6-1.6c-.88-.88-1.64-1.6-1.69-1.6-.05 0-.25.15-.45.34l-1.39 1.3c-1.47 1.36-1.56 1.44-1.56 1.57 0 .15 3.06 3.18 3.2 3.18.04 0 .35-.26.7-.57Zm-26.97-.13a18 18 0 0 0 2.11-2.3c0-.04-.6-.65-1.33-1.35-.75-.7-1.94-1.85-2.66-2.58l-1.32-1.32-.13.19c-.22.29-1.38 2.32-1.85 3.25-.08.16 0 .26.98 1.23 2.3 2.24 3.42 3.26 3.6 3.27.06 0 .33-.18.6-.4Zm35.87-.22c.95-.87 2.52-2.44 2.64-2.65.07-.14.05-.22-.2-.52a19.82 19.82 0 0 0-2.5-2.38c-.17 0-1.19.89-2.6 2.27-.87.84-1.02 1.02-.95 1.15.11.2 2.73 2.74 2.83 2.74.05 0 .4-.28.78-.61Zm8.88.24a19.6 19.6 0 0 0 2.32-2.43c0-.13-2.09-2.3-2.65-2.74-.2-.16-.42-.3-.48-.3-.12 0-2.63 2.48-2.63 2.61 0 .07 2.2 2.32 2.9 2.97.15.13.21.13.54-.1Zm6.28-1.4c.02-.1.05-.32.05-.47 0-.15.07-.54.16-.84.26-.89.22-.92-.44-.48-.45.3-.84.7-.84.88 0 .06.16.32.36.6.38.5.62.62.7.3Zm-45.88-3.86a32.2 32.2 0 0 0 1.54-1.6c.06-.1-.48-.67-2.27-2.47a152.7 152.7 0 0 0-3.1-3.05c-.87-.8-.73-.84-1.57.28l-.87 1.13c-.18.23-.55.76-.83 1.18l-.5.76.98.94 2.59 2.48 1.88 1.83c.27.3.28.3.48.15.1-.08.86-.82 1.67-1.63Zm7.7 1.24c.2-.13.97-.84 1.73-1.6l1.37-1.34-.82-.85a108.1 108.1 0 0 0-1.63-1.61l-.83-.8-.3.24c-.33.25-1.75 1.68-2.56 2.57l-.52.58.3.34c.86.94 2.69 2.65 2.9 2.7a2 2 0 0 0 .36-.23Zm9.35-.26c1.3-1.24 2.8-2.73 2.8-2.78 0-.2-2.9-3.13-3.08-3.13-.21 0-3.33 3.03-3.33 3.23 0 .12 2.92 3.17 3.05 3.17.02 0 .28-.22.56-.5Zm27.02-.08c.25-.23.88-.82 1.4-1.33l.94-.93v-.79c0-.43-.04-1.13-.08-1.56-.08-.71-.54-3.14-.6-3.2-.1-.1-3.93 3.66-5.15 5.05-.18.2-.24.34-.19.41.13.24 1.8 1.98 2.35 2.45.64.55.6.56 1.33-.1Zm-16.47-1.16c.93-.92 1.69-1.7 1.69-1.76 0-.1-2.68-2.7-3.03-2.96-.18-.12-.2-.11-.48.15L109.75 48a30.3 30.3 0 0 0-1.5 1.43l-.33.37 1.22 1.21c1.26 1.28 1.94 1.88 2.1 1.88.05 0 .85-.75 1.78-1.66Zm8.29.25c.55-.56 1.13-1.17 1.28-1.36l.3-.35-.22-.26c-.3-.42-2.5-2.55-2.6-2.55-.06 0-.52.4-1.03.9l-1.39 1.33-.46.42.82.82a20.2 20.2 0 0 0 2.21 2.05c.04 0 .54-.46 1.09-1.01Zm-32.64-3.33a37.6 37.6 0 0 0 2.71-2.73l.14-.22-.44-.5c-.56-.63-4.97-4.98-5.46-5.38l-.36-.3-.28.21c-.34.26-2.34 2.26-2.78 2.76-.16.2-.3.39-.3.42 0 .2 6.1 6.07 6.3 6.07.04 0 .25-.15.46-.33Zm11.06-1.85c.57-.6 1.05-1.13 1.05-1.18 0-.1-2.45-2.61-2.9-2.97l-.3-.24-.27.17a34 34 0 0 0-3.08 3.16c0 .14 1.75 1.97 2.58 2.7l.63.55.61-.55c.34-.31 1.1-1.05 1.68-1.64Zm7.2 1.8c.3-.22.66-.55 2.21-2 .53-.51 1-.98 1.04-1.04.05-.09-.33-.51-1.54-1.72l-1.6-1.6-.27.21c-.54.44-3.27 3.2-3.27 3.3 0 .17 2.96 3.07 3.11 3.07.02 0 .16-.1.32-.22Zm17.85-.17a85.2 85.2 0 0 0 3.86-3.69l1.83-1.8-.24-.73c-.45-1.37-1.32-2.98-1.63-2.99-.1 0-.85.68-2.7 2.51a381.4 381.4 0 0 1-3.26 3.18l-1.3 1.25 1.04 1c.93.91 1.8 1.66 1.89 1.66.02 0 .25-.17.5-.39h.01Zm-8.44-.04c.46-.3 2.36-2.17 2.36-2.32 0-.12-2.94-3.16-3.05-3.16-.08 0-.65.53-2.04 1.9-.52.5-.58.6-.58.86 0 .27.08.37 1.05 1.35a13.4 13.4 0 0 0 1.83 1.65c.02 0 .22-.12.44-.28Zm4.5-4.39c1.62-1.51 6.47-6.32 6.6-6.59.1-.15-.03-.37-.69-1.14-.8-.95-1.86-2-2.01-2-.08 0-.3.15-.5.33-1.51 1.36-6.94 6.65-7.06 6.89-.07.1 0 .23.3.6.41.5.4.46 1.6 1.71.63.64.86.84.98.8.08-.02.43-.29.77-.6Zm-27.58-.04c.25-.2.8-.75 1.23-1.22l.95-.98c.09-.07.28-.29.42-.47l.27-.34-.36-.44c-.19-.25-1.42-1.54-2.73-2.87l-2.39-2.43-.43.33-3.5 2.64-.27.21 1.66 1.6 3.06 2.98c.77.76 1.46 1.37 1.52 1.37a2 2 0 0 0 .56-.38h.01Zm9.75-.39c.97-.9 2.22-2.17 2.43-2.48.13-.2.13-.22-.11-.52a44.44 44.44 0 0 0-2.91-2.94c-.19 0-.66.42-2.05 1.8-.83.82-1.5 1.54-1.5 1.6 0 .2 3.03 3.32 3.23 3.32.04 0 .45-.35.92-.78Zm9.9-.7 1.35-1.3-.21-.31c-.27-.4-2.08-2.23-2.66-2.71l-.44-.36-1.32 1.38c-.74.75-1.33 1.43-1.33 1.5 0 .15 3 3.12 3.16 3.12.06 0 .7-.6 1.45-1.31Zm5.27-5.04 2.63-2.52 1.6-1.54.81-.78-.31-.26a7.38 7.38 0 0 0-.92-.6 49.8 49.8 0 0 0-3.11-1.54c-.18 0-6.14 5.85-6.33 6.22-.08.16-.02.24.42.75.57.66 1.91 1.98 2.4 2.37l.32.25.33-.28 2.16-2.06Zm-19.56.81a26.45 26.45 0 0 0 2.22-2.35c.11-.18.1-.21-.28-.65-.6-.68-2.96-2.99-3.41-3.33-.5-.39-.66-.36-1.9.3l-2.02 1.04a7.6 7.6 0 0 0-1.2.7c-.1.16-.31-.07 3 3.13 1.95 1.89 2.31 2.22 2.42 2.22.05 0 .57-.48 1.16-1.06h.01Zm9.71-.34c.78-.77 1.41-1.43 1.41-1.48 0-.2-2.77-2.93-3.19-3.16-.22-.1-.25-.1-.54.15-.17.13-.83.78-1.45 1.4l-1.14 1.15 1.68 1.67c.93.92 1.72 1.67 1.76 1.67.03 0 .7-.63 1.47-1.4Zm3.66-3.62a83.1 83.1 0 0 0 3.93-3.9l.81-.87-.24-.1c-.69-.28-4.1-.83-5.17-.83h-.54l-1.56 1.57c-.86.86-1.56 1.6-1.56 1.66 0 .1 3.24 3.33 3.33 3.33.04 0 .48-.4 1-.87Zm-9.29-.23c.28-.26.94-.92 1.5-1.47l.99-.99-1.08-1.08-1.08-1.07-.98.23c-.93.2-2.71.76-3.38 1.04-.26.1-.29.14-.2.26.46.6 3.47 3.53 3.65 3.54.05 0 .31-.21.58-.46Zm4.1-4.08c.46-.39 1.1-1.1 1.1-1.24 0-.04-.1-.07-.23-.07-.2 0-1.97.25-2.63.37l-.27.06.27.27c.28.29 1.16.98 1.25.98.03 0 .26-.17.52-.37Z" fill="#000"></path><path d="M60 100.95c-.74-.38-.94-1.28-.57-2.63.25-.93.97-3.16 1.45-4.52.39-1.1.88-2.65 1.84-5.8l.68-2.27c.12-.35.3-.82.4-1.03.1-.22.2-.5.2-.6 0-.12.12-.58.28-1.02l.41-1.2c.22-.73.55-1.29.83-1.4.31-.14.75-.06 1.04.19a9.8 9.8 0 0 1 1.56 2.08l.68 1.29c.27.53.64 1.12.83 1.32a38.56 38.56 0 0 0 4.76 4.97c.47.4 1.09.82 1.4.98a5.6 5.6 0 0 1 2.18 1.84c.25.45.12 1.23-.29 1.78-.18.23-.42.43-.82.63-.3.15-.61.28-.68.28-.05 0-.3.1-.57.23-.24.13-.9.37-1.45.53-.55.17-1.38.46-1.84.65-.46.18-1.26.47-1.76.63a35 35 0 0 0-1.6.56c-.38.15-1.49.52-2.48.84-1 .32-2.2.74-2.68.92-1.28.48-1.85.67-2.48.8-.75.17-.9.16-1.32-.05Zm2.05-2.15c.3-.08.8-.28 1.14-.43.34-.15.74-.3.9-.32.16-.01.59-.18.95-.36.35-.18.8-.36 1.01-.4.2-.05.56-.17.78-.28.22-.1.57-.23.77-.28.2-.06.8-.28 1.36-.5a83.47 83.47 0 0 1 4.76-1.7c.66-.2 1.33-.43 1.48-.5l.27-.12-.47-.43-.54-.44a22.33 22.33 0 0 1-7.35-8.33c-.67-1.23-.87-1.55-.96-1.45-.03.03-.17.44-.32.9l-.47 1.52-.29.92c-.02.14-.24.73-.48 1.33-.24.6-.44 1.16-.44 1.26 0 .1-.25.94-.55 1.88a120.7 120.7 0 0 0-1.3 4.18l-.5 1.6-.48 1.48c-.21.64-.2.75.05.67l.68-.2Z" fill="#000"></path><path d="M118.56 105.67a9.87 9.87 0 0 1-4.56-1.21c-1.1-.54-2.02-1.2-2.85-2.03-.48-.5-.5-.54-.34-1.6.1-.72.74-3.02 1.16-4.14.06-.17.17-.55.24-.83.07-.3.19-.68.28-.88.08-.18.15-.4.15-.48 0-.08.1-.36.2-.62.11-.27.2-.53.2-.59 0-.05-.18.01-.44.19-.24.15-.56.33-.7.39l-.62.35c-.2.12-1.1.58-2 1.04-1.27.64-1.65.8-1.7.72a15.8 15.8 0 0 1-.2-3.36c.04-2.03.08-2.12 1.41-3.52l.6-.62h1.28c2.9 0 4.24.5 5.89 2.15.74.75 1.13 1.35 2.21 3.42.85 1.6 1.2 2.09 2.06 2.95a7.87 7.87 0 0 0 3.68 2.08c.62.17.63.17.47.33-.09.08-.56.59-1.06 1.13-.84.91-1 1.14-.59.85.42-.28 1.95-1.16 3.1-1.75.67-.35.93-.44 1.53-.52.85-.12 1.7-.35 2.13-.57.56-.29.64.05.15.6-.18.19-.32.37-.32.41 0 .05-.17.32-.38.62-1.59 2.24-1.92 2.6-3.19 3.47-1.34.92-2.9 1.66-3.86 1.86-.4.08-2.53.25-2.81.23l-1.12-.07Z" fill="#FDBB30"></path><path d="M125.55 97.05c-.4-.07-1.61-.47-2.22-.74-.68-.3-3.48-3.45-3.7-4.15a6.36 6.36 0 0 0-.87-1.36 10.76 10.76 0 0 0-5.39-3.55c-.55-.18-.81-.2-1.58-.2-.5 0-.91-.03-.91-.06 0-.05.9-.99 3.46-3.6 2.04-2.07 2.17-2.18 2.56-2.28.3-.08 1.04-.1 2.66-.1h2.24l.76.25a13.03 13.03 0 0 1 6.99 5c.7 1.09.99 1.65 1.08 2.23.04.3.14.69.21.88.2.54.5 2.1.56 2.83l.05.64-.75.68a58.3 58.3 0 0 0-2.83 2.7l-.8.81-.56.04c-.3.03-.74.01-.97-.02h.01ZM125 79.69a3.22 3.22 0 0 0-1.37-.37 8.07 8.07 0 0 1-1.9-.46c-.1-.08.02-.25.84-1.08 1.05-1.07 1.02-1.05 1.79-.87.27.07.52.07.77.03.21-.04.5-.05.66-.03.33.07.85.56.85.83 0 .1.06.2.14.24.07.03.22.1.32.19l.18.13-.48.64c-.78 1.06-.98 1.14-1.81.75Z" fill="#FDBB30"></path></svg>