<svg xmlns:xlink="http://www.w3.org/1999/xlink"  xmlns="http://www.w3.org/2000/svg" width="160" height="160" fill="none" viewBox="0 0 160 160"><path fill="#010101" d="M131.011 132.323c-.031-.021-2.739-.063-6.021-.094-3.291-.021-7.927-.062-10.312-.083-2.386-.021-4.396 0-4.479.041-.073.053-.177.063-.24.032-.24-.157-.979-.177-3.625-.094-.833.021-1.552.021-1.583-.01-.084-.084-.802-.073-1.125.01a.687.687 0 0 1-.5-.042c-.167-.093-.261-.093-.344-.01-.135.135-.625.156-.74.042-.041-.053-.927-.084-1.968-.094-1.042-.011-1.99-.011-2.105-.021-.52-.01-8.562-.01-9.114 0-.146 0-3.209-.031-6.823-.063a2713.78 2713.78 0 0 0-15.969-.114c-5.177-.031-9.458-.073-9.5-.104-.052-.032-.114-.021-.146.031-.02.042-.885.073-1.906.052a75.7 75.7 0 0 0-2.219 0c-.864.042-20.854-.021-23.593-.073-3-.073-3.875-.167-3.98-.448-.052-.114-.166-.135-.52-.083-.459.062-.48.052-.917-.427l-.458-.49.041-2.385c.042-2.49.125-3.052.48-3.156.114-.042.197-.125.187-.188-.052-.302.219-.656.594-.792.229-.083.52-.239.666-.343.25-.198 1.47-1 1.74-1.146a2.96 2.96 0 0 1 .323-.188 1.65 1.65 0 0 1 .364-.166c.094-.042.177-.105.177-.146 0-.042.23-.177.51-.302.293-.115.553-.271.584-.323.104-.167 1.302-.938 1.448-.938.073 0 .24-.114.375-.26.136-.146.302-.261.386-.261.072 0 .135-.041.135-.093s.125-.146.292-.209c.364-.156.833-.427 1.125-.677.218-.177.229-.239.187-1.406a32.08 32.08 0 0 1-.041-1.833c.01-.344-.021-.886-.053-1.209-.072-.593-.072-.593-.395-.552-.303.032-4.573.177-5.178.167-1.322-.021-1.291-.01-1.75-.438-.24-.229-.437-.458-.437-.52a.105.105 0 0 0-.104-.105c-.26 0-.334-.937-.271-3.802.031-1.604.083-3.073.125-3.25.073-.395.198-.364-1.333-.364-.552 0-1.115.031-1.23.073-.125.041-.27.021-.343-.032-.073-.062-.302-.072-.542-.031-.406.073-.583.031-1.25-.26-.333-.146-.677-.479-.854-.823-.136-.261-.26-1.375-.302-2.604-.063-2.104-.052-9.01.01-9.24.157-.52.344-.604 1.24-.604.469 0 1.125-.042 1.469-.094a23.96 23.96 0 0 1 1.916-.156c.719-.042 1.313-.083 1.334-.104.02-.021-.032-.459-.115-.959a22.246 22.246 0 0 1-.219-2.02c-.031-.605-.073-1.26-.104-1.459-.104-.781-.073-3.041.042-3.156a.454.454 0 0 0 .114-.281c0-.094.104-.271.24-.396.23-.219.312-.23 3.51-.24 1.802-.01 3.459-.02 3.688-.03l.396-.011-.01-3.959c-.011-2.177-.011-4.187-.022-4.479 0-.281 0-1.25-.01-2.135-.01-4.313-.042-5.823-.094-5.886-.041-.03-.031-.24.021-.448.042-.208.063-.572.031-.802a4.497 4.497 0 0 1-.03-.729c.02-.344.02-.625-.011-.937a61.021 61.021 0 0 1-.01-2.782c.01-.177.01-.78.01-1.041 0-.073-.032-.323-.063-.552a6.275 6.275 0 0 1-.041-.73c.01-.166.02-.593.01-.937 0-.344-.02-3.177-.052-6.302-.031-3.125-.052-5.708-.052-5.75-.01-.042-.594-.073-1.323-.073-1.74 0-2.854-.198-2.854-.49 0-.072-.094-.166-.209-.197-.114-.032-.208-.136-.208-.22a.238.238 0 0 0-.146-.208c-.281-.104-.406-1.093-.187-1.406.104-.146.145-.583.145-1.583 0-.76-.01-1.427-.02-1.48-.073-.333.02-1 .145-1.124.146-.146.76-.198 4.073-.334.459-.02 3.344-.062 6.407-.104 3.062-.031 6.885-.083 8.49-.114 1.603-.021 6.197-.063 10.208-.094 4.01-.021 10.687-.073 14.843-.104a3657.16 3657.16 0 0 1 15-.115c4.094-.02 11.927-.062 17.396-.083 5.469-.032 13.563-.084 17.99-.115 5.135-.041 8.104-.02 8.229.042.156.083.479.177 1.302.375.344.073.604.27.604.437 0 .094.063.25.136.334.083.093.208.406.302.687.281.927.093 4.26-.292 5.198-.187.438-.219.469-.687.531-.271.042-.532.042-.584.01-.052-.03-.781-.083-1.614-.103-1.667-.053-1.792-.01-1.688.52.031.167.063 1.125.063 2.125v1.823l2.968.021c2.657.021 2.99.042 3.219.209.386.28.604 1.124.583 2.26-.01.52-.031 1.906-.041 3.083l-.011 2.136h1.917c1.063 0 1.99.041 2.063.093.166.105.531.928.583 1.303.177 1.28.229 1.927.323 3.916.031.688.083 1.698.114 2.24.032.541.052 1.156.052 1.354-.031 1.625-.02 2.937.042 3.115.031.125.021.218-.031.218-.063 0-.083.084-.052.188.062.27-.5.854-.771.791-.125-.03-.365.053-.604.209-.354.24-.5.27-1.344.27-.521 0-1.125.042-1.333.094-.209.052-.417.052-.469.01-.125-.114-.865 0-.875.147 0 .062-.021.229-.042.375-.01.145.021.5.073.78.052.293.084.855.084 1.25-.011.407-.032 1.48-.042 2.397-.021.916-.052 1.78-.083 1.927-.032.146-.084.458-.125.708-.073.417-.105.438-.438.438-.198 0-.365-.01-.375-.021-.021-.01-.146.052-.292.125-.302.166-1.906.396-3.333.479-.948.052-1.542.104-1.677.135-.031 0-.073 2.365-.083 5.25-.011 5.125-.105 28.23-.125 30.386-.011 2.146 0 2.291.156 2.291.312 0 1.167.542 1.729 1.084.313.312.677.583.792.625.125.041.406.239.646.458.229.208.656.573.958.802.292.229.667.531.812.677.157.146.49.396.75.563.261.166.542.364.625.437.511.459.73.688.73.771 0 .063.072.104.156.104.083 0 .281.136.437.302.167.157.438.375.625.459.417.218 1.073 1.021 1.146 1.396.115.656.063 1.177-.125 1.385-.156.177-.187.437-.219 1.729-.02.99-.093 1.74-.208 2.156-.094.355-.198.75-.219.886-.031.125-.125.229-.198.229-.083 0-.145.073-.145.156 0 .094-.094.156-.23.156-.281 0-1.125-.395-1.125-.541 0-.052-.156.073-.354.271-.333.364-.364.375-1.166.385-.459.01-1 .031-1.209.042-.219.01-.406 0-.427-.021Zm2.698-2.146c.021-.073.073-.385.094-.698.031-.312.073-.812.104-1.104l.062-.542-5.708-.021c-8.677-.031-11.375-.02-11.479.042-.052.042-.125.021-.156-.031-.073-.115-.761-.125-1.063-.011-.125.053-.26.053-.323-.01-.135-.135-1.312-.146-1.552-.01-.114.062-.271.073-.344.031-.072-.052-1.239-.073-2.593-.073-1.386.01-2.573-.021-2.709-.083-.156-.063-.302-.052-.479.031-.166.094-.364.104-.594.052-.197-.042-.395-.073-.458-.052-.083.021-3.542.01-5.208-.021-.229-.01-.677 0-.99.01-.312.011-1.979 0-3.698-.02-2.573-.042-6.02-.063-6.718-.052-.626.01-20.292-.198-20.99-.23h-1.77c-.918-.01-1.834-.01-2.032-.02-.198 0-.688 0-1.094.01-.396 0-2.906-.01-5.573-.031-2.666-.032-5.01-.042-5.208-.042-.198 0-.594.01-.886.01-.552.011-13.395-.135-13.75-.145a9.23 9.23 0 0 0-.729.01c-.406.021-5.437-.042-7.083-.094h-1.563c-.687 0-1.885-.021-2.666-.052-1.302-.041-1.427-.031-1.386.136.01.093.052.666.084 1.27.03.605.062 1.115.062 1.136 0 .021.5 0 1.125-.042a20.585 20.585 0 0 1 1.896-.041c.427.02 1.083.031 1.458.02 2.052-.073 16.782.021 18.907.115 2.562.125 18.062.25 37.812.323 15.479.062 40.583.156 41.354.167h2.813c1.208-.011 2.333.031 2.5.083.437.135.469.135.531-.021Zm-.823-5c.021-.031-.156-.198-.406-.385a8.75 8.75 0 0 1-.761-.667c-.177-.177-.552-.51-.833-.74a14.922 14.922 0 0 1-.802-.677 31.407 31.407 0 0 0-.969-.833c-1.177-.969-1.875-1.594-1.979-1.76-.073-.125-.135.145-.208.979l-.104 1.146-.448.156c-.396.135-.459.135-.542 0-.083-.136-.104-.136-.104.01 0 .094-.094.292-.208.438l-.209.26-1.844-.042c-1.02-.02-3.635-.062-5.812-.093-5.052-.073-6.427-.125-7.135-.261-.803-.146-.823-.156-.959-.291-.073-.073-.364-.125-.646-.125-.448-.011-.583-.052-.823-.302-.281-.292-.302-.365-.343-1.48-.032-.645-.063-1.198-.084-1.208-.041-.042-1.666-.042-21.416 0-8.282.021-15.26-.01-15.51-.052-.25-.052-.5-.052-.542-.01-.042.041-1.105.072-2.355.052-1.25-.021-2.364-.032-2.479-.021-.114.01-.302.021-.416.01-.115 0-1.75-.021-3.646-.052a690.426 690.426 0 0 1-6.688-.114c-3.125-.073-3.25-.073-3.26.114-.01.115-.031.833-.031 1.604-.01.771-.063 1.469-.105 1.532-.145.218-.729.427-1.375.5-.583.062-9.614.177-11.614.156-1.25-.021-3.438.01-3.75.041a1.451 1.451 0 0 1-.594-.114 2.114 2.114 0 0 0-.625-.136c-.312 0-1.135-.635-1-.77.042-.042.094-.271.104-.511.021-.239.104-.489.188-.552.083-.062.156-.146.156-.187 0-.032-.313.187-.698.51-.385.313-.77.573-.865.573-.093 0-.302.135-.458.302-.166.167-.406.333-.541.365-.136.041-.25.114-.25.166 0 .052-.198.198-.438.323-.25.125-.594.344-.76.5a8.856 8.856 0 0 1-.917.636c-.323.198-.594.385-.594.416 0 .063 10.073.115 17.084.084.885-.011 6.375.02 12.187.062 16.844.115 27.063.167 31.042.167h4.062c.646.01 12.667.104 19.167.146 15.375.114 20.552.156 20.594.208.052.052 1.5-.01 1.562-.073Zm-83.562-4.573c-.073-.239-.209-4.792-.177-6.229.01-.635-.073-2.5-.146-3.042-.032-.333-.032-.677.01-.781.094-.25.125-2.219.031-2.219-.041 0-.03-.125.032-.281.062-.177.062-.292 0-.333-.063-.042-.105-.698-.115-1.573 0-.834-.02-1.646-.031-1.823-.021-.167 0-.688.052-1.146.114-1.062.114-1.74 0-1.812-.052-.032-.073-3.605-.063-7.927.01-4.323.021-7.959.021-8.073 0-.115 0-4.521.01-9.792 0-9.23.011-9.583.199-9.844.177-.24.291-.27 1.177-.333.541-.042 3.208-.073 5.927-.063 2.718.01 9.614-.01 15.312-.052a3454.01 3454.01 0 0 1 12.031-.073c.917.01 1.813 0 1.98-.02.364-.032 1.385-.032 3.02 0 .636.02 1.334.02 1.563.02 1.437-.031 15.104.104 16.562.157 2.011.083 2.209.145 2.469.812.479 1.198.469.823.49 17.052.01 8.313.01 7.906.062 22.917.063 15.666.052 13.812.115 14.271l.052.364 2.052-.031c1.125-.01 2.25-.052 2.49-.083l.437-.052-.052-1.584c-.104-3.177-.135-4.312-.135-5.541-.011-1.917-.021-2.365-.073-2.761-.084-.614-.104-2.406-.021-2.531.042-.063.021-.177-.042-.261-.094-.104-.083-.166.031-.229.105-.073.115-.146.042-.281-.083-.146-.114-1.542-.062-2.531 0-.084-.021-.979-.042-1.979-.031-1-.052-2.927-.042-4.271v-2.709c0-.145-.021-2.302-.062-4.791-.031-2.49-.063-4.604-.063-4.688.011-.791-.01-3.656-.031-4.27-.021-.428.01-.834.073-.907a.27.27 0 0 0 .021-.25c-.042-.062-.094-2.375-.115-5.135-.104-15.032-.094-14.24-.291-14.354-.115-.063-.323-.073-.563-.01-.219.051-.531.062-.719.01a1.597 1.597 0 0 0-.666-.01c-.177.051-.688.062-1.125.02a29.657 29.657 0 0 0-2.459-.02c-1.687.03-2.156.04-3.177.04h-6.042c-2.604 0-4.812 0-4.895.011-.084 0-.667-.031-1.302-.073a39.813 39.813 0 0 0-1.355-.073c-.885.042-20.083-.052-21.406-.104-.083 0-.364 0-.625.01-.344.021-8.01-.072-8.698-.104-.052 0-.427 0-.833.021-.396.01-.854-.01-1.02-.062-.168-.042-.334-.031-.418.031-.083.073-.437.094-.958.052-.906-.073-4.552-.073-10.125-.02l-3.573.041-.01 2.552c-.01 1.406-.021 2.76-.021 3.02-.01.261 0 .824.02 1.25.032.866-.062 12.543-.145 18.96-.042 3.708-.052 5.52-.031 8.072 0 .969-.115 9.354-.167 11.406-.02.771-.073 4.25-.104 7.74l-.073 6.323h1.281c1.459.01 3.552.104 3.615.167.02.02.25.041.51.041.427 0 .459-.01.386-.229Zm75.708-1.042c-.031-.708-.094-1.312-.156-1.343-.073-.042-.073-.094 0-.136.073-.041.093-.312.062-.718-.062-.771-.073-1.334-.01-1.896.031-.229 0-.615-.052-.865a1.538 1.538 0 0 1 .021-.896c.072-.26.093-.521.041-.593-.104-.167-.114-1.355-.01-1.417.041-.021.031-.125-.021-.219-.104-.198-.073-4.875.042-5.219.041-.125.02-.281-.032-.354-.114-.135-.093-2.927.032-3.219.031-.093.02-.322-.021-.52a3.113 3.113 0 0 1-.063-.865c.021-.281.032-.562.032-.625 0-.052-.021-.5-.032-.99-.021-.49-.062-.947-.114-1.02a.255.255 0 0 1-.011-.23c.084-.124.115-7.406.042-7.552a1.728 1.728 0 0 1-.031-.468c.01-.198.021-1.282.021-2.396 0-1.115.01-2.313.031-2.656.01-.344.021-.792.021-.99 0-.198 0-1.77-.011-3.49 0-1.718-.01-3.593-.021-4.166-.02-.865-.01-4.938.021-6.875.011-.282.011-1.386 0-2.448-.01-1.063-.01-2.334-.01-2.834s-.011-.947-.042-.99c-.031-.04-.031-.905 0-1.905s.042-2.573.042-3.49c-.011-.917-.021-4.208-.021-7.313-.021-5.354-.031-5.656-.208-5.708a.553.553 0 0 0-.396.073c-.177.104-.261.104-.427 0-.24-.146-.896-.167-.979-.031-.032.052-.219.052-.417.01-.188-.041-.417-.041-.49 0-.083.052-1.531.084-3.218.084-1.688-.01-3.563 0-4.167.01-1.823.02-18.709.031-19.636.01h-.906c-.219.01-.458.01-.52.01-.074 0-5.428.022-11.907.053-6.469.031-11.937.052-12.135.052-.51-.02-2-.02-3.542-.01-2.052.03-2.76.03-5.625.01-4.688-.02-15.73.052-15.73.104 0 .042-.437.042-.957 0-1.188-.073-9.23-.062-9.313.021-.031.031-.052 3.146-.031 6.917.031 7.375.031 8.395.01 9.041-.01.23 0 1.146.021 2.032.02.885.073 5.552.104 10.364.042 4.813.094 11.584.125 15.052.063 8.469.073 30.563.01 31.146l-.051.469 6.666.042-.083-.646c-.083-.698-.094-.761-.042-1.688.01-.344.021-2.052.01-3.802-.02-2.656.074-13.208.157-17.5.01-.656.02-1.614.02-2.135v-1.302a17.77 17.77 0 0 0 0-1.094c0-1.344 0-1.958.063-5.26.031-1.803.084-3.584.104-3.959.052-.833.052-.719.01-1.687-.02-.448 0-.834.053-.865.052-.031.062-.156.01-.292-.052-.125-.073-1.49-.041-3.041.02-1.542.052-3.584.062-4.532.02-.947.063-1.77.104-1.843.042-.063.032-.23-.01-.365-.115-.281-.083-1.146.031-1.344.094-.135.083-.77-.02-1.968-.063-.76-.063-.76.02-1.198.031-.167.052-1.573.063-3.125.01-3.073.104-3.73.552-3.844.125-.02 1.396-.073 2.823-.115 1.437-.03 3.354-.083 4.27-.104 2.615-.073 33.26-.208 34.375-.166.23.01 5.25.02 11.146.01 18.75-.031 21.24-.02 21.532.062.093.032.218.198.281.386.125.416.229 2.531.271 5.77.073 5.094.27 20.772.27 21.282 0 .083 0 .74.011 1.458.01 1.448.01 4.771 0 6.146 0 .49-.011 4.73 0 9.427 0 4.698-.011 9.761-.011 11.25-.01 2.74-.145 5.531-.27 5.959l-.073.239 3.989.031c2.198.011 4.073.032 4.167.052.146.021.156-.135.125-1.25Zm-26.198-2.625c.042-.041.02-1.666-.02-2.718-.022-.396-.074-1.917-.115-3.375-.032-1.459-.084-2.688-.105-2.719-.02-.031-.197-.052-.385-.031-1.74.135-2.385.156-2.5.062-.073-.062-.948-.125-1.958-.135-2.417-.042-2.792-.031-3.26.114-.303.105-.438.105-.636-.01-.167-.083-.417-.104-.719-.063-.25.042-.573.021-.719-.031-.145-.052-.552-.073-.906-.041l-.646.062.01.844c.011.469 0 2.448-.03 4.406l-.042 3.573h1.833c1.01-.01 3.031.031 4.49.094 2.343.083 5.604.062 5.708-.032Zm7.458.063c.021-.042.344-.094.709-.104.354-.021.666-.042.677-.063.031-.031.031-8.021 0-8.5l-.021-.364-.625.031c-.344.021-1.823.042-3.281.062-1.459.021-2.719.042-2.792.053-.115.01-.135.468-.115 2.281a284.38 284.38 0 0 1 0 4.333c-.01 1.136.021 2.104.063 2.156.042.042.177.094.292.125.343.084 5.041.073 5.093-.01Zm-48.073-.188c.042-.041.084-1.989.146-6.77l.032-2.198-2.042-.084a181.285 181.285 0 0 0-3.417-.093l-1.385-.011-.063 1.354c-.052 1.448-.052 1.511-.031 4.115 0 .948.01 1.917.01 2.167 0 .239.01.593.021.781.01.177-.02.458-.062.614l-.073.282 3.406-.063c1.886-.031 3.438-.073 3.458-.094Zm12.563-.031h.73v-3c.01-1.646.01-3.114.02-3.26.01-.146.01-.563.01-.938s.042-.896.094-1.156l.104-.479-2.927-.073c-3.562-.083-8.406-.094-8.49-.01-.03.031-.062 1.385-.072 3-.01 1.614-.052 3.625-.084 4.468l-.073 1.542 2.792.021c1.531.021 3.781 0 4.98-.042 1.208-.042 2.52-.083 2.916-.073Zm13.865.156.312-.062-.042-1.573c-.02-.854.01-1.625.063-1.687.052-.073.062-.313.031-.542-.094-.792-.094-3.75 0-3.875.063-.063.063-.136.02-.167-.082-.052-.093-.583-.01-.906.021-.125-.072-.156-.49-.135-1.197.041-2.832.031-6.832-.032l-4.23-.062-.01 2.427c0 1.344-.031 2.646-.063 2.906-.03.261-.083.677-.114.938-.125.979-.125 2.604-.01 2.604 2.687.052 5 .114 5.02.135.063.052 6.063.084 6.355.031Zm-54.594-5.677c.573-.01 1.323-.062 1.666-.093l.625-.073-.02-.521c-.032-.688-.032-.854-.032-1.011 0-1.208-.093-3.958-.135-4.01-.094-.083-5.406-.094-5.73 0-.155.042-.27.115-.239.156.021.042.073 1.344.115 2.886.041 1.552.114 2.833.166 2.864.042.032.636 0 1.313-.062a37.73 37.73 0 0 1 2.27-.136Zm53.333-5.729c.23.011.563.011.73.011.52-.021 12.989-.042 18.124-.032 2.636 0 4.907-.01 5.052-.031.146-.031.292-.052.334-.052.041-.01.052-1.052.021-2.323-.032-1.281-.053-2.531-.032-2.792.021-.26.021-.729.011-1.041-.063-1.98-.084-5.115-.021-5.156.083-.052.052-1.146-.052-1.292-.031-.063-.084-4.156-.115-9.104-.031-4.938-.052-9.021-.052-9.084v-1.25c.021-2.395-.052-5.74-.125-5.854-.052-.083-.344-.104-.885-.083-.438.031-4.552.042-9.136.042-4.583-.01-8.468-.01-8.646-.01-.166 0-1.406.02-2.74.04-1.332.022-2.457 0-2.478-.04-.032-.043-.146-.032-.26.02-.105.062-.49.115-.855.115-1.208.01-15.125-.188-15.698-.22-.083-.01-2.427-.01-5.208-.01s-6.208-.01-7.636-.02l-2.572-.021-.01 1.302c-.011 2.531.02 6.073.062 6.135.02.042.062 2.76.093 6.063.032 3.302.063 6.02.073 6.041.032.105.084 6.375.084 8.323-.01.49-.01 1.688-.01 2.657V100c0 .375.093 4.375.114 4.948l.01.312 1.906-.01c2.365-.01 13.313.25 13.386.323.02.021 3.656.01 8.073-.011 4.427-.031 8.229-.041 8.458-.031Zm-51.198-4.354a68.1 68.1 0 0 0-.01-2.27c-.01-.23-.021-1.532-.031-2.897v-2.479l-.323.052c-.167.032-.709.073-1.198.115-.49.031-1.209.083-1.615.115-.396.041-.844.062-.99.041-.302-.02-.437-.02-2.312.01-.833.011-1.438.063-1.438.126 0 .052-.114.062-.28.02-.167-.041-.334-.073-.397-.062-.052 0-.687.031-1.406.052-.719.031-1.333.052-1.364.052-.032.01-.042.917-.01 2.02.02 1.095.051 2.584.072 3.303.02 1.062.156 3.396.198 3.458.01.011 3.77.084 9.094.167l2 .031.01-1.854Zm-2.114-9.875c1.937 0 2-.01 2.01-.208 0-.115.02-.625.052-1.146.02-.51-.01-1.177-.073-1.458-.062-.334-.073-.657-.01-.886.052-.198.073-.791.052-1.323l-.042-.948-1.833.042c-2.26.052-3.313.104-3.438.188-.052.03-.083 1-.062 2.218.01 1.188-.01 2.48-.052 2.865l-.073.698.364.041c.209.021.542.01.74-.02.198-.032 1.26-.063 2.365-.063ZM130 77.104l1.198-.073.062-.458c.031-.25.042-.594.031-.781-.031-.26-.041-1.834-.031-2.563 0-.083 0-.52-.01-.958-.011-.438.01-.854.052-.906.041-.073-.104-.125-.386-.125-.406-.021-2.76-.01-3.437 0-.281.01-.281.01-.271.77 0 .407 0 1.292-.01 1.948-.032 1.427 0 3.157.041 3.23.032.062.771.03 2.761-.084Zm6.312-8.354c.011-.146.052-2.135.084-4.427.041-2.292.114-4.208.156-4.271.052-.052.052-.219 0-.354-.094-.23-.125-.24-.802-.167-1.094.104-2.417.136-2.469.052-.031-.041-.385-.062-.802-.031a90.4 90.4 0 0 1-3.021.042h-2.271l-.021 1.323c0 .729 0 1.395.011 1.479.01.083.01 1.49.021 3.125 0 1.635.031 3.02.073 3.083.072.115 2.468.24 6.052.313.989.01 1.833.062 1.864.093.042.032.302.052.594.032.479-.032.521-.052.531-.292Zm-4.958-11.708c0-.198.052-.396.104-.428.063-.041.083-.104.063-.135-.021-.042 0-.52.052-1.062.166-1.771.198-3.542.062-3.553-.073 0-.614-.02-1.219-.052-1.031-.041-1.291-.052-2.031-.052-.167 0-.5-.01-.729-.02l-.417-.021-.021 5.677h4.136v-.354Zm-95.156-13.76c6.302-.063 9.468-.074 9.843-.042.084 0 1.167-.021 2.396-.053 2.084-.062 15.74-.135 37.292-.218 4.958-.021 9.104-.042 9.219-.063.114-.01.416-.01.677 0 .614.01 33.583-.166 33.989-.187.177-.01.188-.105.136-1.282-.032-.687-.084-1.28-.104-1.312-.032-.02-1.073-.031-2.323-.01-1.25.01-2.459.02-2.688.01h-.677c-.146.01-.531.01-.854.01-.781-.01.021-.02-7.427.021-8.625.052-8.136.052-12.084.052-1.885 0-4.562.021-5.937.042-1.375.02-2.552 0-2.615-.052-.062-.052-.25-.052-.416 0-.167.041-5.532.094-11.917.104l-11.77.02c-.084.011-.376-.02-.647-.051-.27-.021-.52-.01-.552.031-.062.104-2.208.073-2.312-.02-.084-.095-.709-.095-.792-.011-.031.031-2.469.083-5.406.104-5.344.031-10.021.114-11.594.187-.854.042-7.854.136-15.552.209-2.365.02-4.333.062-4.365.093-.03.032-.166.01-.312-.041-.146-.052-.365-.073-.469-.031-.198.062-.208.125-.135.968.093 1.24.218 1.698.448 1.636.093-.032 3.229-.084 6.948-.115Z"></path><path fill="#010101" d="M77.98 104.51a22.03 22.03 0 0 1-.782-.625c-.416-.364-1.26-1.708-1.468-2.343-.063-.219-.167-.417-.22-.448-.051-.032-.082-.375-.072-.761 0-.385-.042-.979-.094-1.323-.125-.729-.02-3.229.146-3.541.063-.115.146-.417.188-.677.041-.26.177-.605.291-.771.177-.25.219-.5.25-1.355.021-.583.052-1.156.073-1.28.063-.449-.229-.24-.5.354-.344.739-1.885 2.25-2.927 2.864-.396.24-.812.52-.917.625-.104.104-.27.188-.375.188-.104 0-.27.104-.385.218-.177.198-1.156.719-1.354.719-.042 0-.156.063-.24.146-.093.073-.614.344-1.156.594-.542.25-1.094.541-1.219.666-.125.115-.364.313-.52.438-.886.708-1.594 1.323-1.594 1.396 0 .041-.115.208-.25.375-.136.166-.344.593-.47.958-.114.365-.26.719-.322.792-.063.073-.146.562-.198 1.083-.094 1.042-.281 1.385-.812 1.521-.22.052-.334-.011-.625-.334-.188-.218-.417-.531-.5-.708-.344-.75-.427-2.167-.146-2.667a1.86 1.86 0 0 0 .166-.562c.021-.167.146-.469.282-.677.135-.198.323-.584.427-.844.219-.604 1.573-2.01 2.552-2.656.385-.25.75-.459.802-.459.052 0 .187-.093.292-.208.104-.114.26-.208.354-.218.094 0 .5-.188.896-.407.406-.218 1.198-.635 1.77-.927.573-.302 1.23-.677 1.459-.854.229-.167.552-.386.719-.49.166-.093.645-.52 1.072-.937.605-.584.896-.98 1.292-1.73.281-.54.49-1.051.469-1.124-.031-.073-.073-.469-.115-.875l-.062-.74.52-.166c.5-.157.532-.157 1.021.083.563.27 1.563 1.208 1.803 1.677.083.167.229.416.322.562.657.98.678 3.72.042 5.594-.25.73-.49 2.438-.5 3.625-.02.802.02 1.156.177 1.563.26.687 1.052 1.823 1.823 2.625.344.354.677.739.73.854.187.333.135.896-.105 1.198-.187.239-.281.271-.917.271-.604 0-.76-.042-1.093-.282Zm16.271.011a4.96 4.96 0 0 1-1.25-.448c-.604-.344-1.75-1.406-1.979-1.823a12.02 12.02 0 0 0-.448-.76c-.25-.407-.312-.636-.344-1.282-.02-.427-.073-.823-.114-.885-.084-.115 0-1.188.187-2.385.167-1.042.407-1.75 1-2.98.48-.979.917-2.541.823-2.854-.041-.114-.062-.364-.052-.552.02-.48-.156-.51-.396-.062-.166.333-1.75 1.802-1.927 1.802-.041 0-.302.166-.583.364-.281.198-.563.365-.615.365-.041 0-.208.094-.343.208-.271.209-1.125.51-2.365.834-.26.072-.635.24-.833.374-.209.136-.427.25-.49.25s-.198.094-.302.209c-.104.114-.27.208-.365.208-.093 0-.26.094-.375.219a1.767 1.767 0 0 1-.49.365c-.312.166-1.03.906-1.395 1.447-.125.188-.281.646-.354 1.032-.167 1-.563 1.145-1.26.458-.292-.281-.324-.375-.376-1.188-.041-.78-.02-.937.198-1.374.136-.271.282-.51.334-.521.041-.021.166-.23.28-.47.24-.52 1.178-1.489 1.938-2.01.625-.427 1.677-.979 1.875-.979a.805.805 0 0 0 .407-.145c.114-.073.51-.24.875-.376.916-.322 2.198-1.03 2.49-1.374.135-.157.312-.292.385-.292.198 0 1.093-1 1.093-1.23 0-.103.052-.239.115-.301.062-.063.156-.302.198-.521.041-.219.156-.677.25-1.031.24-.896.27-1.438.094-2.094-.157-.625-.136-.823.187-1.156.146-.157.333-.23.615-.23.354 0 .448.063.864.552.667.802 1.084 1.438 1.323 2.063.125.312.281.708.354.875.292.635.677 2.323.802 3.51.115 1.073.115 1.355-.052 2.396-.229 1.48-.145 1.167-.75 2.636-.187.458-.468 1.135-.614 1.51-.615 1.49-.604 2.531.031 3.781.49.959.698 1.209 1.5 1.75.323.219.688.521.802.677.344.438.27 1.386-.114 1.521-.073.021-.448-.01-.834-.083Z"></path><path fill="#010101" d="M84.542 89.729a1.808 1.808 0 0 0-.552-.208c-.146-.032-.417-.198-.594-.386a8.12 8.12 0 0 0-.719-.625c-.208-.166-.406-.396-.448-.52a1.992 1.992 0 0 0-.26-.48c-.115-.135-.198-.333-.198-.448 0-.104-.094-.364-.198-.583-.115-.219-.23-.73-.26-1.167-.084-.979-.084-.812-.01-2 .03-.552.01-1.03-.043-1.062-.145-.094-2.02 1.802-2.448 2.469-.208.323-.374.666-.374.75 0 .187-.386.562-.709.687-.198.073-.312.042-.594-.187-.427-.354-.573-.73-.573-1.448 0-.375.084-.709.26-1.063.147-.291.261-.573.261-.635 0-.063.042-.115.094-.115.063 0 .27-.26.48-.562.416-.625 1.072-1.313 1.26-1.313.062 0 .177-.125.26-.281.167-.313 1.02-1.02 1.375-1.135.125-.042.406-.23.635-.417.688-.594 2-1.177 2.74-1.23.719-.051.896.063 1.063.647.104.333-.073 1.354-.271 1.604-.063.073-.26.51-.448.969-.323.791-.344.906-.396 2.552-.042 1.458-.02 1.75.104 1.885.094.083.198.302.23.469.041.177.208.468.374.656.177.187.313.364.313.406 0 .042.166.188.375.323.49.344.74.854.76 1.646.021.635.01.656-.27.77-.5.199-.907.21-1.22.032Z"></path><path fill="#fdbb30" d="M95.66 105.307c-.328-.345-.408-.633-.295-1.065.112-.448.047-.865-.185-1.16-.095-.12-.433-.415-.753-.648-.807-.592-1.055-.88-1.44-1.607-.432-.815-.625-1.593-.567-2.24.065-.695.232-1.215.912-2.855.665-1.6.8-2.088.928-3.367.135-1.265-.008-2.825-.393-4.255-.04-.153-.007-.186.265-.225.168-.033.96-.233 1.768-.448.8-.215 1.527-.392 1.625-.392.087 0 .512-.088.935-.193 2.175-.545 6.487-1.168 8.095-1.168h.855l.047 2.968c.033 1.632.033 3 .008 3.047-.025.04-.593.335-1.265.656-.665.327-1.745.847-2.393 1.16a67.86 67.86 0 0 1-2.4 1.094c-1.207.52-1.52.673-3.055 1.473-.44.233-.935.488-1.105.575a8.65 8.65 0 0 0-.56.313l-.255.16.28-.048c.153-.032.768-.207 1.36-.4 1.513-.48 3.888-1.127 4.84-1.328 1.135-.232 3.16-.472 3.985-.472h.695l.015 3.905c.008 2.145.015 4.512.015 5.255l.008 1.36-.36.055c-.2.032-.888.015-1.535-.033l-1.175-.087-.095-.248c-.048-.135-.185-.472-.295-.752-.2-.505-.208-.505-.473-.455a8.1 8.1 0 0 0-.847.232c-.56.175-.88.265-2.935.768-.553.135-1.305.335-1.673.44-.527.16-.847.2-1.52.2-.832 0-.865-.008-1.065-.215h.003Z"></path><path fill="#fdbb30" d="M81.275 105.114c-.087-.16-.16-.352-.16-.415 0-.072-.112-.36-.247-.655a5.848 5.848 0 0 1-.272-.665 24.856 24.856 0 0 0-.113-.495c-.135-.585-.105-1.08.087-1.455.16-.305 1.016-1.207 1.64-1.727.128-.105.328-.28.466-.392.352-.313 1.592-1.216 2.527-1.848.8-.535 1.407-.92 3.025-1.913.407-.255.88-.545 1.04-.647a4.27 4.27 0 0 1 .472-.255c.095-.04.175-.095.175-.113 0-.065-.367.025-1.295.32-.495.16-1.12.353-1.385.433-.52.152-3.814 1.225-4.92 1.6-.374.127-.687.215-.694.207-.015-.007.175-.247.432-.52.505-.56 1.6-1.415 1.905-1.495.112-.024.232-.094.265-.152.112-.193 1.495-.825 2.352-1.073 1.175-.335 1.688-.585 3.025-1.472.713-.465 1.625-1.295 2.073-1.88.145-.185.287-.32.32-.295.04.015.087.288.112.608.04.447.008.712-.145 1.294-.185.713-.305 1.026-.985 2.6-.425.968-.632 1.8-.792 3.175-.105.895-.105 1.208-.033 1.568.048.24.088.625.088.847 0 .513.127.88.56 1.585.385.64.625.913 1.385 1.568.327.287.505.487.44.512-1.048.385-1.295.425-1.408.233-.08-.145-.52-.033-3.375.815l-1.16.345-5.23.05-.167-.288-.008-.005Zm-22.855-1.545c-.32-.32-.586-.625-.586-.672 0-.048-.175-.528-.392-1.073-.593-1.465-.6-2.167-.04-2.905.207-.272 1.24-1.185 1.945-1.72.145-.112.465-.352.712-.545.255-.192.913-.655 1.465-1.04a38.227 38.227 0 0 0 1.12-.8c.065-.055.24-.185.393-.28a73.326 73.326 0 0 0 2.56-1.815c.607-.465 1.552-1.112 3.872-2.665 1.728-1.153 2-1.335 2.608-1.705.287-.168.567-.36.625-.407.055-.055.145-.105.185-.105.047 0 .335-.168.647-.368.385-.247.585-.335.625-.272.033.047.08.407.113.784l.047.696-.455.912c-.407.832-.535 1-1.265 1.72-1.16 1.168-2.32 1.905-5.215 3.335-.632.313-1.145.593-1.145.633 0 .04-.08.095-.175.127-.585.185-1.992 1.295-2.695 2.128-.745.88-1.4 2.255-1.712 3.607-.095.425 0 1.36.207 1.96.065.185.08.335.04.335s-.225.073-.407.153a3.155 3.155 0 0 1-.575.207 29.81 29.81 0 0 0-.753.208c-.28.08-.655.152-.84.152-.305-.007-.375-.047-.905-.592l-.005.007Z"></path><path fill="#fdbb30" d="M63.922 102.307c.04-.225.12-.52.175-.655.066-.135.233-.545.376-.905.135-.36.312-.705.374-.753.066-.055.168-.2.233-.32.105-.2 1.608-1.527 2.233-1.968.135-.087 1.032-.56 2-1.047.974-.488 1.832-.96 1.912-1.048.087-.095.207-.167.272-.167.073 0 .375-.175.688-.393.312-.207.68-.44.807-.505.273-.145 1.673-.625 1.945-.672.095-.025.415-.12.695-.225.585-.208.648-.16.368.305-.168.265-.448 1.167-.585 1.887-.048.24-.088 1.073-.095 1.848l-.008 1.408-1.2.385c-.655.207-1.76.56-2.44.767-.68.215-1.807.568-2.512.793-.695.215-1.305.4-1.345.4-.047 0-.593.175-1.215.385-1.68.575-2.64.895-2.695.895-.025 0-.015-.185.015-.415h.002Zm13.472-4.68c.073-1.065.273-2.255.593-3.455.135-.495.247-1.007.247-1.127 0-.2.048-.24.425-.36.225-.073.488-.168.575-.208a2.33 2.33 0 0 1 .353-.112c.167-.033 1.335-.415 1.807-.6.088-.033.393-.135.68-.225.288-.088.865-.28 1.28-.415 2.785-.935 4.88-1.6 5.32-1.688l.32-.055-.305.248c-.16.145-.44.375-.607.52-.488.407-1.553 1.025-2.193 1.265-.32.12-.785.32-1.047.44-.255.127-.52.232-.6.232-.193 0-1.335.608-1.928 1.025-.672.473-1.52 1.328-1.807 1.825a7.23 7.23 0 0 1-.4.633c-.368.487-.513.927-.513 1.567v.608l-.575.207c-.32.113-.76.248-.975.296-.215.047-.455.12-.545.167-.16.087-.16.065-.105-.785v-.003Zm-2.167-5.08c.2-.233.465-.608.585-.848.375-.735.52-.735.432 0l-.047.455-.665.408-.673.4.368-.415Zm-23.737-1.08c-.025-.04-.065-1.673-.095-3.633l-.055-3.567.305-.233c.175-.127.44-.327.592-.455.153-.12.32-.247.36-.28.855-.625 1.288-.945 1.306-.992.014-.04.065-.065.112-.065.065 0 .44-.255.76-.52.16-.128.305-.233.447-.32.248-.153 2.495-1.68 2.535-1.728.026-.025.256-.185.52-.352.265-.168.736-.473 1.04-.673.313-.2.615-.392.68-.415.128-.055.935-.585 1.096-.712a.32.32 0 0 1 .144-.08c.026 0 .295-.16.6-.36.305-.2.568-.36.585-.36.026 0 .273-.145.546-.313.28-.175.694-.415.912-.535.225-.12.615-.345.88-.487.265-.153.575-.313.705-.368.12-.047.215-.12.215-.152 0-.055-.425.055-1.44.375-.327.105-1.105.335-1.72.512-.615.185-1.68.488-2.36.695-.68.2-1.56.455-1.96.568-.393.112-1.08.327-1.52.48-.44.16-.895.305-1.025.32-.12.025-.24.072-.265.112-.087.153-.487.073-.695-.152-.233-.248-.615-1.185-.615-1.52 0-.153.095-.32.305-.52.168-.16.335-.295.375-.295.032 0 .135-.055.215-.135.192-.175.265-.215 1.593-.873A55.262 55.262 0 0 1 59.8 72.93c.265-.106.72-.306 1.015-.44.288-.135.568-.248.608-.248.047 0 .505-.185 1.014-.4.513-.225.968-.4 1.008-.4.047 0 .233-.065.415-.152.927-.416 1.487-.648 1.567-.648.048 0 .535-.185 1.088-.4.552-.225 1.047-.4 1.095-.4.055 0 .567-.175 1.135-.392 1.313-.488 3.495-1.208 3.68-1.208.08 0 .648-.153 1.273-.335l1.135-.335 4.12-.015 4.6-.015c.264-.008.487.007.505.025.014.015-.008.265-.056.56-.08.433-.407 1.273-.712 1.8-.04.065-.12.215-.185.327-.52.945-1.215 1.736-1.953 2.208-.225.135-.56.367-.76.505a52.77 52.77 0 0 1-2.254 1.36 50.04 50.04 0 0 0-2.106 1.255c-.215.145-.424.265-.465.265-.032 0-.2.087-.374.2-.168.112-.706.4-1.175.647a193.91 193.91 0 0 0-3.153 1.753 179.5 179.5 0 0 1-3 1.687c-.752.408-1.512.88-1.313.815a183.767 183.767 0 0 0 4.695-1.51c.615-.215 1.16-.392 1.208-.392.04 0 .528-.168 1.088-.368.56-.2 1.094-.375 1.192-.4.145-.025 1.345-.407 2.095-.672.88-.305 2.465-.815 2.575-.84a.457.457 0 0 0 .145-.04c0-.008.055-.025.127-.04.066-.008.568-.168 1.12-.353.546-.185 1.066-.345 1.16-.36.088-.015.633-.185 1.2-.367.568-.175 1.088-.335 1.153-.353.24-.047.608-.152 1.28-.345.375-.112.88-.247 1.12-.305.24-.055.945-.232 1.56-.392a23.707 23.707 0 0 1 1.72-.407c.328-.066 1.248-.256 2.04-.426.793-.175 1.6-.335 1.8-.36.2-.025.76-.12 1.24-.207 2.385-.447 3.825-.585 6.08-.593 2.432-.007 2.72.033 3.113.466.135.144.344.287.472.32.12.032.312.167.425.305.2.232.207.287.16.855-.065.88-.08.992-.135 1.04-.025.024-.112.224-.185.454-.08.233-.233.553-.345.72-.113.168-.208.345-.215.393-.008.047-.128.247-.273.44a19.62 19.62 0 0 0-.52.752c-.512.785-1.912 1.665-4.215 2.655-.505.225-1.192.52-1.52.665-.327.145-.815.345-1.08.455-.264.105-.8.345-1.2.535-.392.185-1.135.52-1.64.745-.505.225-1.184.52-1.505.665l-.584.255-.313-.287c-.273-.24-.375-.288-.688-.288-.312 0-.407.04-.607.255-.225.24-.24.295-.207.72l.032.455-.4.175a87.04 87.04 0 0 0-2.472 1.2c-1.776.88-2.088 1.008-2.226.928-.08-.048-.152-.12-.152-.145 0-.025-.127-.208-.28-.4-.153-.193-.32-.48-.368-.633a1.52 1.52 0 0 0-.224-.432c-.113-.128-.128-.368-.12-1.6.014-1.935.047-2.145.374-2.295.576-.273 1.48-.753 1.466-.768-.016-.015-.608.135-1.225.328-.385.12-.4.2.127-.96.672-1.505.48-2.433-.505-2.433-.705 0-1.96.528-2.887 1.2-.305.225-.648.448-.753.488-.305.12-1.072.767-1.28 1.072-.105.153-.225.28-.265.28-.135 0-.793.665-1.2 1.233-.233.312-.487.615-.56.672-.08.055-.145.168-.145.24a1.544 1.544 0 0 1-.153.408c-.12.232-.247.312-.847.535-.393.145-.825.287-.953.32a24.54 24.54 0 0 0-1.327.432c-1 .345-1.665.56-5.08 1.625-1.455.455-3.193 1-5 1.575-.68.215-1.832.575-2.56.8-.727.225-1.855.575-2.52.793-.655.207-1.793.575-2.52.807a71.82 71.82 0 0 0-2.2.745c-1.225.433-2.288.648-2.385.48l.01.003Z"></path><path fill="#fdbb30" d="M78.283 90.737c-.015-.12-.065-.392-.087-.6-.088-.655-.713-1.767-1.368-2.425-.6-.6-1.32-1.072-1.64-1.072-.185 0-.185-.008.048-.16a6.98 6.98 0 0 1 .56-.32c.175-.088.465-.248.64-.353l.32-.192.295.272c.407.368.585.375 1 .065.135-.105.345-.392.465-.647.367-.808.567-1.033 1.232-1.375a35.19 35.19 0 0 0 1.073-.568l.455-.254v1.04c0 1.087.145 2.072.352 2.487.073.127.128.305.128.385 0 .08.047.215.105.312.047.095.192.353.312.575.12.225.288.44.36.488.193.105.12.167-.655.575-.64.327-1.36.735-2.215 1.24-.247.152-.487.272-.527.272-.048 0-.095.025-.113.065-.007.033-.175.135-.36.233l-.327.185-.048-.225-.005-.003Z"></path></svg>