<svg xmlns:xlink="http://www.w3.org/1999/xlink"  fill="none" xmlns="http://www.w3.org/2000/svg" viewBox="0 0 160 160"><path d="M136.8 146.85c-.03-.02-5.24-.06-11.6-.08-6.36-.03-15.16-.09-19.56-.13-4.4-.04-13.6-.1-20.44-.13-8.49-.03-12.49-.08-12.6-.13-.1-.06-3.2-.1-9.44-.15-5.1-.03-13.11-.12-17.8-.18-4.69-.08-11.61-.16-15.4-.21-9.17-.1-15.07-.32-15.36-.56-.05-.05-.4-.12-.75-.16a4.22 4.22 0 0 1-.8-.15 1.64 1.64 0 0 1-.64-.88c-.06-.19-.09-10.32-.1-28.65 0-22.97-.04-34.2-.08-39.88 0-.17.02-.65.05-1.05.04-.48.03-.91-.04-1.25-.09-.47-.08-.58.04-.89.11-.29.13-.5.08-1.1-.03-.41-.06-3.86-.06-7.67-.02-5.67 0-7 .09-7.3.07-.25.08-.41.03-.47-.2-.26-.19-6.76.06-25.27.16-11.72.2-12.45.62-13.04.15-.2.2-.2 1.15-.25 3.51-.17 6.15-.23 12.75-.27l18.48-.12c11.76-.08 19.64-.1 68.56-.08 17.07 0 31.17.03 31.32.06.4.06.9.29 1.05.47.21.23.31.56.37 1.2.02.33.07.61.1.64.05.02.18-.04.31-.14.23-.16.28-.16.59-.08.76.24.77.27.96 3.41.13 2.35.16 4.55.22 19.68.05 11.43.1 17.23.16 17.6.06.4.06.79 0 1.43a26 26 0 0 0-.05 2.79c.06 1.69.05 1.93-.07 2.18-.12.24-.12.3-.03.42.09.1.12.51.15 1.65.02 1.25 0 1.6-.12 1.96-.1.35-.12.62-.09 1.17.16 2.36.18 5.31.12 16.24l-.07 12.52.07 6.28c.03 3.25.03 5.97 0 6.04-.02.07-.02.8.02 1.64.15 3.77.02 28.19-.16 29.4-.05.38-.14.58-.33.82l-.25.32.05.74c.07.92-.02 1.27-.38 1.46-.23.13-.75.14-5.7.17-2.99.01-5.45.01-5.48-.01Zm9.5-3.87c-.08-1.47-.07-5.04.02-5.65.06-.4.06-.58 0-.66-.07-.08-.1-2.18-.13-7.32-.04-6.58-.03-7.24.09-7.56.11-.3.12-.39.03-.65-.16-.44-.16-5.92 0-6.39.08-.24.08-.36.03-.48a586.7 586.7 0 0 1-.03-20.31c.05-.6.05-1.6.01-2.68-.07-1.65-.03-9.37.16-36.28.18-24.32.25-32.41.32-33.24l.13-1.57c.06-.88 0-.95-.55-.66-.3.16-.52.2-1.74.24-2.79.12-48.03.03-87.12-.17-28.97-.15-38.32-.25-42.03-.48a4.97 4.97 0 0 0-1.44 0c-.05.05-.08.41-.08.83 0 1.02.17 7.69.29 11.53.13 4.45.14 4.74.17 11.84l.13 15.84.16 19.12c.04 5.28.12 12.41.16 15.84.14 12.26.26 39.22.16 40.28-.07.84-.06 1.07.04 1.4.1.31.12 1.06.12 4.07v3.68l1.74-.06a9285.09 9285.09 0 0 1 122.7.38c2.28 0 4.73.02 5.44.04l1.27.01-.05-.93Z" fill="#000"></path><path d="M118.2 108.25c-1.25-.17-3.3-.96-4.44-1.72a10.63 10.63 0 0 1-4-4.69 10.8 10.8 0 0 1-1.2-4.12c-.17-1.77.35-4.55 1.15-6.16a11.83 11.83 0 0 1 7.01-5.9 9.3 9.3 0 0 1 3.12-.41c1.94 0 3.34.33 5.08 1.2a10.63 10.63 0 0 1 5.2 5.79c.57 1.41.63 1.7.67 3.53.05 3.08-.36 5.05-1.39 6.68a11 11 0 0 0-.53.92c-.37.77-2.25 2.6-3.28 3.2-1.42.85-2.55 1.3-3.84 1.55-.75.13-2.86.21-3.55.13Zm2.77-1.96c.51-.07 1.2-.2 1.52-.29 2.8-.83 5.4-3.33 6.31-6.08.58-1.73.57-4.15-.03-6.12a8.78 8.78 0 0 0-2.55-4 9.22 9.22 0 0 0-4.5-2.5 12.1 12.1 0 0 0-4.02.05 9.55 9.55 0 0 0-6.74 6.06c-.1.25-.27.88-.4 1.38-.2.76-.24 1.08-.24 1.86 0 3 .93 5.21 3 7.17a8.1 8.1 0 0 0 2.48 1.73c1.63.78 3.06.99 5.17.74Z" fill="#000"></path><path d="M118.7 104.4a8.67 8.67 0 0 1-4.5-2.52 4.32 4.32 0 0 1-1.18-1.56 7.59 7.59 0 0 1-.78-3.56 7.55 7.55 0 0 1 3.64-6.65c2.07-1.25 5.07-1.25 7.44-.01.61.32 1.5.98 1.93 1.44 1.25 1.34 1.75 2.72 2 5.7.06.8-.13 1.67-.6 2.75a6.22 6.22 0 0 1-1.45 2.25 6 6 0 0 1-4.17 2.12 7.9 7.9 0 0 1-2.32.04Zm2.57-1.89a6.6 6.6 0 0 0 4.54-4.58c.22-1.05.11-1.9-.38-3.02a8.58 8.58 0 0 0-1.38-2.23 7.69 7.69 0 0 0-3.23-1.69c-2.68-.56-5.9 1.27-6.65 3.81a5.92 5.92 0 0 0 4.35 7.78c.42.1 2.26.05 2.75-.07ZM32.03 107.28c-1.5-.15-3.7-1-4.99-1.9a12.26 12.26 0 0 1-2.9-3.11c-.33-.53-.93-1.76-1.19-2.46-.77-2.1-.88-3.72-.39-6.24a10.33 10.33 0 0 1 3.22-5.7 9.77 9.77 0 0 1 5.58-2.89c1.06-.18 3.17-.18 4.13 0 4.2.8 7.38 3.97 8.52 8.53.16.66.2.96.18 2.2 0 1.27-.02 1.57-.21 2.51a9.8 9.8 0 0 1-1.83 4.24c-.64.89-2.16 2.42-2.99 3.02-1.11.79-2.7 1.45-3.97 1.67-.97.16-2.34.21-3.16.13Zm3.41-2.14a8.11 8.11 0 0 0 3.33-1.47c1.3-.97 2.6-2.72 3.2-4.26.38-1.02.64-3.99.43-4.97a9.47 9.47 0 0 0-7.86-7.72c-.96-.16-2.72-.07-3.62.19a9.94 9.94 0 0 0-4.13 2.45 8.08 8.08 0 0 0-1.66 2.3A11.9 11.9 0 0 0 24 96.23c0 1.31.44 2.99 1.12 4.28.58 1.1.84 1.45 1.75 2.36a8.09 8.09 0 0 0 3.97 2.28c1.03.27 1 .27 2.36.25a7.88 7.88 0 0 0 2.24-.28Z" fill="#000"></path><path d="M31.7 103.4a8.71 8.71 0 0 1-4.53-2.76 8.36 8.36 0 0 1-1.24-2.36c-.34-1.2-.26-3.87.14-5.04a7.3 7.3 0 0 1 1.42-2.4 8.34 8.34 0 0 1 3.6-2.16 9.28 9.28 0 0 1 4.23.16c2.07.7 3.9 2.42 4.64 4.4a8.52 8.52 0 0 1-.47 6.65 7.41 7.41 0 0 1-4.02 3.31c-.73.25-.88.27-2.03.29-.87.02-1.4-.01-1.74-.09Zm2.99-1.83a5.84 5.84 0 0 0 2.95-1.95 5.71 5.71 0 0 0 1.43-3.7l.01-.84-.45-.93c-.9-1.87-1.64-2.67-3.1-3.38a4.64 4.64 0 0 0-2.73-.5c-.84.02-1.2.07-1.6.2-1.45.52-3.14 2.05-3.6 3.24-.4 1.06-.37 3.4.06 4.44a6.27 6.27 0 0 0 3.1 3.22c1.18.52 2.66.6 3.93.2Z" fill="#000"></path><path d="M135.2 100c-2.94-.1-3.5-.15-3.57-.3-.03-.08-.08-1.61-.12-3.42-.03-2.12-.08-3.4-.14-3.6a11.73 11.73 0 0 0-6.35-7.6c-1.68-.8-2.73-1-5.21-1a8.6 8.6 0 0 0-2.56.29c-1.85.41-2.7.75-3.93 1.54-1.54 1-3.3 2.79-4.2 4.26a12.5 12.5 0 0 0-1.52 3.75c-.18.5-.32 2.65-.32 4.7v1.22h-2.1c-3.48 0-25.68-.16-34.58-.25l-16.24-.15c-4.63-.04-8.19-.1-8.56-.15-.54-.07-.67-.12-.83-.3-.18-.2-.19-.27-.15-.91.03-.38.1-1.19.18-1.8.09-.75.12-1.41.09-2-.05-.99-.45-3.2-.7-3.92-.35-.99-1.04-1.99-2.53-3.66a6.35 6.35 0 0 0-1.7-1.54 14.24 14.24 0 0 0-3.69-1.78c-.7-.2-4.22-.24-5.28-.06-1.6.26-3.53 1.15-5.04 2.29-.54.41-1.56 1.41-2.08 2.03-.81.98-1.67 2.57-2 3.72-.41 1.44-.45 2.36-.27 6.12l.05.96-.25.25c-.3.32-.45.4-.88.5-.7.15-1.15-.19-1.71-1.26-.52-.99-1.1-2.67-1.31-3.85-.12-.61-.14-1.21-.14-3.04 0-2.46.07-3.13.48-4.6.4-1.43.82-2.38 1.33-3.07.23-.31.33-.54.39-.88.04-.24.07-1.84.07-3.53.01-3.7.07-4.48.36-5.1.3-.59 1.01-1.3 1.64-1.63.7-.35 1.5-.69 1.87-.75.2-.04.33-.14.48-.35.21-.32.85-1.37.85-1.41 0-.06.9-1.36 1.04-1.48l.32-.36c.6-.73 1.87-1.97 3-2.96.64-.57 2.59-1.95 3.32-2.36a40.65 40.65 0 0 1 4.84-2.4c.34-.18.68-.32.76-.32a9 9 0 0 0 1.21-.44c1.39-.55 2.34-.87 3.67-1.22.6-.15 1.24-.35 1.43-.44.41-.19 2.15-.55 6.13-1.26 3.3-.6 6.24-.86 10.84-.97a58.3 58.3 0 0 1 6.76.09c.32.04 1.52.13 2.68.2 1.17.06 2.24.15 2.37.19.15.04.6.11 1 .17a63.64 63.64 0 0 1 9.83 1.92c.94.23 4.43 1.32 4.96 1.56l1.6.63c2.06.77 2.3.89 4.12 1.84 1.45.76 1.82.98 2.64 1.5.38.26.74.47.78.47.22 0 1.96 1.3 2.89 2.14a22.59 22.59 0 0 1 3.57 3.76c1.1 1.4 1.16 1.46 1.48 1.5.18.02 1.48.05 2.88.07a57.11 57.11 0 0 1 17.16 2.76l1.37.49c.39.13.95.35 1.24.5.3.15.74.33.95.41.33.13 2.55 1.23 3.32 1.67a24.74 24.74 0 0 1 6.54 5.63 3 3 0 0 0 .43.6c.34.36.55.7 1.07 1.73.44.86 1.03 2.36 1.28 3.26.08.27.21.63.3.82.24.53.46 2.48.51 4.54.04 1.58.03 1.9-.09 2.28-.17.59-.35 1.62-.36 2.16-.01.73-.13.95-.6 1.14-.96.36-1.68.47-3.48.5-.94.02-2.56 0-3.6-.04h.01Zm5.65-2.37c.02-.13.12-.5.2-.83.33-1.22.34-4.63.03-6.07-.27-1.29-1-3.29-1.53-4.24-.6-1.05-1.24-1.85-1.48-1.85-.05 0-.07-.05-.04-.12.1-.24-1.02-1.49-2.8-3.12a9.88 9.88 0 0 0-2.27-1.74 28.78 28.78 0 0 0-5.32-2.74 47.36 47.36 0 0 0-13.52-3.24c-4.65-.5-6.36-.64-7.93-.64-.53 0-1.23-.03-1.56-.05l-.59-.05-.3-.54c-.47-.86-1.22-1.8-2.46-3.07a25.32 25.32 0 0 0-4.04-3.42l-1.16-.72a41.11 41.11 0 0 0-2.84-1.68 42.28 42.28 0 0 0-4.31-1.9 34.7 34.7 0 0 0-4.62-1.57c-.68-.2-1.36-.4-1.52-.47-.15-.07-.72-.21-1.27-.32l-1.48-.33c-.47-.11-1.48-.29-4.25-.76a58.81 58.81 0 0 0-5.11-.63 140.3 140.3 0 0 0-8.96-.22c-1.43.05-2.3.1-5.64.37-1.41.11-5.6.8-7.36 1.21-1.35.32-2.85.71-3.68.95-.46.13-1.06.28-1.33.32-.28.05-.62.15-.76.24-.15.08-.68.28-1.19.44a34.32 34.32 0 0 0-3.64 1.37l-1.28.54c-.44.19-1.37.67-2.08 1.07-.7.4-1.38.77-1.51.82-.13.05-.45.23-.72.42a27.81 27.81 0 0 0-7.44 7.08c-.22.32-.47.65-.57.74-.1.09-.53.29-.98.44-.76.27-1.5.64-1.74.87-.37.37-.4.54-.68 5.6-.14 2.45-.17 2.75-.33 3.05a13.11 13.11 0 0 0-1.5 3.96c-.44 2.18-.44 5.89 0 7.61.37 1.5.86 2.75 1.06 2.69.12-.04.1-.15-.03-1.4-.13-1.14-.05-2.39.24-3.9.18-.9.32-1.3.95-2.6a13.67 13.67 0 0 1 8.38-7.08c1.24-.34 2.11-.44 3.75-.44 2.62-.01 4.34.39 6.44 1.49 1.08.57 1.5.85 2.45 1.66a11.72 11.72 0 0 1 3.68 5.32c.63 1.93.71 2.39.7 4.01 0 .82-.04 1.8-.1 2.2l-.11.87c-.01.12.05.18.22.23.14.03 13.4.07 29.48.09l29.24.01-.02-1.08c-.03-1.17.15-2.7.47-4 .46-1.83 1.8-4.1 3.37-5.68a13.24 13.24 0 0 1 3.46-2.67 14.14 14.14 0 0 1 9.35-1.67c.23.06.63.14.9.18 1.37.2 4.01 1.48 5.4 2.61a14.5 14.5 0 0 1 3.51 4.2c.29.55.95 2.27 1.15 2.98.25.87.4 2.65.35 4.05-.03.99-.03 1.12.09 1.17.14.07 2.9.15 5.59.18l1.54.01.05-.21Z" fill="#000"></path><path d="M64.83 94.48a.66.66 0 0 1-.28-.25c-.18-.34-.24-3.36-.21-10.11.03-6.02.05-6.7.17-7.24.17-.7.34-.93.64-.85.26.07.42.37.53 1.02.12.67.23 6.13.23 11.28.01 4.68-.03 5.73-.22 5.98-.15.2-.6.29-.87.17ZM69.93 80.32c-.57-.09-.89-.4-.95-.89-.04-.45.1-.71.5-.91.28-.13.48-.16 1.56-.16 1.5 0 2.38.17 2.64.5.23.29.22.9-.03 1.18-.15.19-.28.23-.77.28-.73.09-2.36.08-2.95 0ZM75.08 74.8c-3.25-.03-6.21-.09-6.57-.12-.65-.06-.65-.07-.7-.31-.03-.14-.07-2.37-.1-4.97-.04-4.7.05-8.28.2-8.6.05-.07.22-.2.38-.28.26-.12.43-.14 1.19-.09 1.86.12 5.1.5 6.8.8 4.62.82 6.68 1.35 10.68 2.72 1.84.64 2.16.77 3.56 1.42a32 32 0 0 1 5.88 3.3c.87.58 1.7 1.26 2.73 2.26 1.13 1.1 1.35 1.48 1.37 2.25.01.61-.03.71-.3.82-.12.04-.32.25-.45.48l-.25.4-9.25-.02a3000 3000 0 0 1-15.17-.06Zm15.44-2.15c6.4-.05 6.48-.05 6.5-.21.02-.11-.1-.24-.4-.45-.23-.17-.67-.52-.98-.79-.3-.27-.78-.63-1.06-.78a4.58 4.58 0 0 1-.63-.4c-.16-.16-1.66-1.1-2.43-1.52a58.54 58.54 0 0 0-5.66-2.69c-.8-.31-1.16-.43-2.62-.89l-1.68-.53c-.4-.12-.95-.26-1.22-.3a60.86 60.86 0 0 0-10.5-1.69h-.38l-.05.49c-.07.66-.05 9.33.02 9.6.04.14.13.2.33.24.27.05 7.44.02 20.76-.08ZM45.64 74.65a2.4 2.4 0 0 1-.65-.12c-.25-.16-.3-.92-.2-3.45.2-5.11.48-7.87.85-8.28.15-.17.88-.46 1.4-.56l1.56-.36c1.67-.4 3.63-.71 6.12-1l2.8-.33c.38-.05 1.95-.1 3.48-.13l2.8-.04.23.37c.2.32.23.48.3 1.43.14 1.8-.02 11.27-.22 12.19-.04.24-.06.25-.57.3-.67.06-17.13.04-17.9-.02Zm9.64-1.77c3.9-.04 7.16-.1 7.26-.13.15-.04.17-.12.21-.73.08-1.06.2-6 .2-7.92v-1.69l-.29-.06c-.72-.13-7.24.2-7.79.41-.16.06-3.26.59-4.03.69-1.3.17-3.83.87-3.95 1.1-.05.08-.1.32-.12.54-.1.72-.3 7.33-.25 7.6.05.31.2.35 1.08.3.33-.02 3.78-.07 7.68-.1v-.01ZM32.04 74.51c-2.84-.13-3.18-.17-3.55-.53-.24-.24-.26-.29-.23-.64.08-.89 2.07-3.2 4.26-4.96 1.35-1.08 4.3-2.97 4.76-3.07.11-.02.28-.09.4-.15.6-.35.96-.52 1.04-.52.05 0 .4-.15.79-.33 1.05-.5 2.17-.88 2.33-.78.33.16.36.5.33 4.15-.02 4.52-.14 6.26-.45 6.69-.06.08-.27.16-.53.2-.68.1-6.6.06-9.15-.06Zm4.61-1.46c2.07-.04 3.77-.09 3.8-.12.02-.02.1-.98.15-2.14.06-1.16.15-2.49.2-2.95.11-1.2.1-1.66-.04-1.72-.07-.02-.27.01-.46.08-.7.24-3.16 1.46-3.95 1.95-.21.13-.57.33-.8.45-.24.1-.69.38-1 .61l-1.47 1.05c-1.46 1.03-3.24 2.66-3.12 2.85.05.08.35.1 1.5.05.8-.03 3.13-.09 5.2-.12Z" fill="#000"></path><path d="M63.26 101.04c-.32-.1-.44-.2-.76-.72a5.24 5.24 0 0 0-.45-.63l-.17-.19 3.52.06 3.54.07c.03.03-1.12.43-2.34.81-1.94.63-2.76.77-3.34.6ZM63.19 97.54l-1.9-.02-.09-.32-.16-.66a6.28 6.28 0 0 1-.1-2.09c.13-.76.66-1.52 1.58-2.28.36-.3 1.74-1.22 1.78-1.19l.1 1.55c.03.91.1 1.6.15 1.7.21.4.92.42 1.17.04.11-.17.15-.52.18-2.27.04-2 .05-2.07.21-2.15.27-.14 1.03-.58 1.2-.7a.61.61 0 0 1 .3-.11c.09 0 .21-.07.3-.15.08-.08.28-.2.43-.24.16-.06.3-.12.32-.16.01-.04.25-.19.54-.35.98-.53 1.32-.73 1.4-.78.14-.1 1.8-1 3.12-1.68.53-.28.98-.53.99-.57a9 9 0 0 0 1.37-.69c1.58-.9 1.8-1.02 4.4-2.33l3.04-1.56c.75-.42 1.93-1 4.79-2.34.97-.46 1.27-.68.64-.47l-3.28 1.03a212.28 212.28 0 0 0-4.63 1.49c-.06 0-.22.05-.36.13-.13.06-.5.19-.83.28-.34.08-.64.19-.69.23a50.16 50.16 0 0 1-13.2 4.38c-.02-.02-.05-1.47-.08-3.23-.02-1.75-.06-3.3-.08-3.44-.02-.23 0-.26.2-.3.23-.05 1.92-.65 4.2-1.49.58-.21 1.46-.52 1.96-.68l1.16-.41c.14-.06.46-.16.71-.23a17.29 17.29 0 0 0 1.07-.38c.04 0 .25-.07.46-.14.38-.13 1.2-.14 12.16-.1l11.76.04.26-.41c.14-.23.34-.44.45-.49.28-.1.32-.2.3-.82 0-.43-.05-.63-.22-.95-.25-.46-1.8-1.99-2.82-2.79-1.13-.88-1.05-.8-.77-.8.14 0 .37-.04.52-.08a7.9 7.9 0 0 1 1.84-.33c.38-.03.75-.09.85-.1.13-.04.4.19 1.36 1.17a14.33 14.33 0 0 1 2.8 3.64c0 .02 1.07.07 2.37.1 2.27.08 2.62.11 2.62.22 0 .03-.13.2-.31.38-.17.17-.35.41-.42.53a12.96 12.96 0 0 1-3.91 3.5c-.12.15-3.5 2.09-4.6 2.61-.5.25-.89.45-1.08.58-.11.07-.25.13-.3.14-.05.01-.2.1-.35.18-.15.1-1.24.65-2.43 1.25-1.2.59-2.13 1.08-2.1 1.08a26.5 26.5 0 0 1 1.54-.55 50.53 50.53 0 0 0 1.44-.49l.12-.04c.05 0 .1-.03.12-.04.03 0 .07-.02.1-.04.04 0 .12-.03.18-.05.07-.03.29-.1.5-.15.21-.05.38-.12.38-.15s.07-.05.15-.05c.07 0 1.5-.46 3.17-1.01s3.44-1.12 3.92-1.26l1.56-.45c.38-.1.75-.2.82-.2.08 0 .32-.07.56-.16.23-.09.5-.18.62-.2.37-.07.55-.11.78-.2.12-.06.28-.1.34-.11l1.2-.32c2.14-.57 4.66-1.2 6-1.48l1.88-.44c1.11-.26 1.32-.32 2.4-.56 1.35-.32 1.34-.32 2.04-.13 2.74.74 7.47 2.74 8.73 3.69.24.17.63.41.87.53a7.68 7.68 0 0 1 2 1.55c0 .11-.78.59-1.61.99-.98.47-3.44 1.45-4.22 1.69-.11.03-.3.12-.44.2a.95.95 0 0 1-.4.16c-.06 0-.26.07-.42.15l-.28.15-.5-.3a13.32 13.32 0 0 0-4.82-1.79 14.17 14.17 0 0 0-9.35 1.67c-.88.49-1.03.6-2.03 1.35-.61.47-1.87 1.72-2.36 2.36a12.91 12.91 0 0 0-2.65 5.53c-.1.47-.28 2.07-.28 2.49v.45l-.5.16c-.74.25-1.62.48-2.3.62-.79.16-1.76.22-1.76.12 0-.04-.04-.13-.1-.19a4.99 4.99 0 0 1-.38-.5 6.66 6.66 0 0 1-.7-2.74c-.03-.56 0-.7.14-1 .3-.61 1.28-1.48 3.28-2.86a13 13 0 0 0 1.1-.8c.1-.04.8-.54 1.89-1.34l.73-.55c.54-.38.7-.53.58-.48l-.68.18a12.19 12.19 0 0 0-.82.23l-.2.07c-.32.13-.56.2-.8.23-.12.03-.34.09-.48.15-.12.05-.26.1-.3.1a.25.25 0 0 0-.1.07 107.57 107.57 0 0 0-6.44 2.06 77.82 77.82 0 0 1-2.84.93 58.92 58.92 0 0 1-.52.21A91.55 91.55 0 0 0 91.28 92c-1.43.49-3.3 1.13-4.16 1.41-.85.3-1.68.57-1.83.64-.15.07-.44.15-.64.19-.2.04-.51.13-.69.2-.17.09-.38.16-.46.17-.15.03-1.3.42-3.86 1.31-2.94 1.02-4.2 1.45-4.63 1.56-.38.1-1.2.12-5.2.1l-6.62-.04v.01Zm9.7-17.22c.49-.06.62-.1.77-.28.24-.28.25-.89.02-1.19-.25-.32-1.13-.48-2.64-.49-1.08 0-1.28.02-1.56.16-.4.2-.53.45-.5.91.06.5.38.8.95.89.6.08 2.23.09 2.95 0Z" fill="#FDBB30"></path><path d="M48.1 91.05c-.39-.07-.68-.32-.9-.76a3.52 3.52 0 0 0-.43-.6c-.39-.43-.47-.62-.58-1.33a4.1 4.1 0 0 0-.22-1.07 57.56 57.56 0 0 0-.2-1.13 6.1 6.1 0 0 1 .1-2.44c.12-.67.85-1.9 1.87-3.2a55.09 55.09 0 0 1 5.5-5.34l.56-.46h4.6c2.53 0 4.84-.03 5.13-.05.5-.05.54-.07.58-.27.21-1 .35-12.37.16-13.1l-.1-.35 1.14-.35c2.6-.82 5.28-1.51 6.33-1.62a30.78 30.78 0 0 1 6.16.33c1.08.1 1.7.42 1.84.95.08.32.22.53.33.53.06 0 .1.04.1.08 0 .05.05.08.1.08.15 0 .67.27.8.43.15.16.28.67.2.74-.02.03-.36-.02-.75-.11a77.06 77.06 0 0 0-10.95-1.59c-.76-.04-.93-.03-1.19.1-.16.07-.33.2-.37.28-.16.31-.25 3.9-.2 8.6.02 2.6.06 4.82.1 4.97l.04.24.72.06c.7.05.71.05.55.2a.72.72 0 0 1-.2.16l-1.6 1.04c-.86.57-1.58 1.04-1.6 1.04a.94.94 0 0 1-.09-.3c-.12-.68-.52-1.01-.84-.69-.16.17-.4 1.13-.4 1.6 0 .27-.04.33-.25.47-.5.28-2.67 1.72-2.6 1.72a46.86 46.86 0 0 1 2.06-.75l.76-.26-.04 3.52-.04 3.52-1.28.47a150.33 150.33 0 0 1-2.52.91.89.89 0 0 1-.34.11c-.08 0-.34.1-.58.2a56.17 56.17 0 0 0-2.92 1.12 54.68 54.68 0 0 1-5.76 2.1c-.03 0-.15.04-.28.1-.3.12-2.02.18-2.5.1ZM131.4 88.34c-.67-1.02-2-2.48-2.69-2.96l-.17-.12.2-.08c.1-.05.22-.09.26-.1 2.05-.51 3.54-.86 4.2-.99 1.04-.2 3.77-.65 3.99-.65.2 0 .91.91.84 1.08-.03.07 0 .12.04.12.36 0 1.62 1.87 2 2.96.1.26.2.23-1.35.44-2.48.35-4.78.71-5.72.9l-1.05.23-.55-.82ZM20.25 83.86c.04-.12.2-.43.37-.68.21-.36.3-.61.36-1.08.08-.58.1-.63.35-.8a242.6 242.6 0 0 1 11.2-6.38l.55-.3 4.16-.02c3.13 0 4.2-.03 4.33-.1.33-.19.47-1.02.57-3.23l.06-1.24 1.32-.64a30.2 30.2 0 0 1 1.33-.64c.02 0-.01 1.1-.07 2.41-.1 2.63-.05 3.23.27 3.4.1.06.99.11 2.3.15l2.12.04-1.32.39c-1.2.35-2 .58-5 1.51-.93.3-1.32.41-1.73.5-.07.02-.2.07-.29.12-.08.05-.32.12-.54.17a73.32 73.32 0 0 1-3.71 1.27c-1.48.48-3.14 1.04-3.7 1.24a6.9 6.9 0 0 1-1.02.32c0-.02-.08.01-.18.08-.1.06-.38.17-.63.24-.25.06-.74.2-1.08.32-1.68.54-4.9 1.53-6.55 2-2.01.58-3.24.98-3.36 1.1-.15.13-.2.07-.12-.15ZM140.05 83.48c-.15-.12-.15-.12.01-.12.1 0 .18.05.18.12 0 .15 0 .15-.2 0ZM136.16 79.43l-.36-.32.4.22c.5.28.48.26.4.34-.05.05-.22-.05-.44-.24ZM127.17 74.64l-.42-.19c-.01-.01.13-.06.32-.1.34-.08.36-.08.56.18.19.23.2.27.08.26-.08 0-.32-.07-.54-.15Z" fill="#FDBB30"></path><path d="M46.53 72.78c-.03-.1-.04-.36-.04-.58v-.4l.09.36c.04.2.12.45.18.58.1.2.1.22-.03.22-.09 0-.17-.08-.2-.18ZM50.15 72.9a3 3 0 0 1 .52 0c.13.02.02.04-.27.04-.29 0-.4-.02-.25-.04ZM106.1 71.45c-.09-.03-.64-.64-1.23-1.37l-1.42-1.75-.37-.44 1.4.05c1.25.05 2.15.15 3.51.38.56.1.94.36 1.09.74.09.23.2.33.43.43.18.07.39.22.46.33.17.27.18.88.02 1.34l-.11.32-1.8.01c-1 0-1.88-.01-1.97-.04Z" fill="#FDBB30"></path></svg>