<svg xmlns:xlink="http://www.w3.org/1999/xlink"  fill="none" xmlns="http://www.w3.org/2000/svg" viewBox="0 0 160 160"><path d="M59.84 135.58c-1.46-.29-2.88-1.18-3.1-1.95-.13-.46-.3-2.48-.28-3 .07-.87.66-1.83 1.6-2.57.5-.38.98-.7 1.08-.7.1 0 .44-.21.78-.48.34-.26.67-.48.75-.48.08 0 .95-.47 1.94-1.04.99-.58 1.92-1.04 2.05-1.04.14 0 .38-.15.54-.32.16-.18.43-.32.6-.32.17 0 .52-.21.76-.48.24-.26.56-.48.7-.48.15 0 .26-.05.26-.13 0-.06.27-.24.6-.38.33-.16.78-.42 1-.6l.4-.33-1.04-.03c-1.33-.04-1.95-.1-5.87-.52a3.51 3.51 0 0 1-.88-.19c-.1-.06-.58-.14-1.07-.16a23.52 23.52 0 0 1-3.54-.46c-.75-.15-1.82-.32-2.4-.42a21 21 0 0 1-2.2-.46 9.39 9.39 0 0 0-1.5-.32c-.35 0-1.77-.42-2.33-.67-.18-.1-.43-.13-.56-.1-.11.05-.7-.08-1.27-.29-.59-.2-1.18-.38-1.32-.38-.15 0-.55-.15-.9-.32a3.1 3.1 0 0 0-1.1-.32c-.26 0-.53-.07-.58-.16-.05-.08-.22-.16-.37-.16a3.67 3.67 0 0 1-.91-.32c-.35-.18-.77-.3-.91-.32-.3 0-2.2-.77-2.43-1a.93.93 0 0 0-.45-.12c-.27 0-1.97-.72-3.01-1.28-.3-.18-.85-.45-1.2-.61a3.62 3.62 0 0 1-.86-.58.8.8 0 0 0-.56-.25.93.93 0 0 1-.52-.15c-.08-.1-.57-.38-1.1-.67a16.2 16.2 0 0 1-1.89-1.2c-.53-.38-1-.7-1.07-.7-.27 0-2.6-1.89-4.11-3.31a9.35 9.35 0 0 0-1.36-1.17c-.07 0-.13-.1-.13-.21 0-.11-.2-.38-.43-.6a18.22 18.22 0 0 1-3.06-4.1 16.28 16.28 0 0 1-1.4-4.18c-.05-.42-.31-1.38-.57-2.13-1.08-3.17-1.2-5.89-.35-8.7a20.1 20.1 0 0 1 2.55-4.91 31.89 31.89 0 0 1 3.26-3.54c1.71-1.4 3.14-2.5 3.66-2.77.32-.16 1.01-.59 1.54-.96.93-.64 3.57-1.98 3.9-1.98.08 0 .64-.26 1.25-.56.6-.3 1.23-.56 1.4-.56a1 1 0 0 0 .55-.2c.15-.12.58-.31.98-.43.4-.1.98-.3 1.28-.41.3-.11 1.17-.4 1.92-.63a4.72 4.72 0 0 0 2.2-1.2c.46-.43.84-.86.84-.94 0-.1.35-.77.8-1.49.43-.72.8-1.44.8-1.57 0-.14.11-.43.26-.64.14-.19.67-1.16 1.16-2.14.96-1.86 1.41-2.74 1.65-3.15l.32-.64c.27-.6 1.4-2.93 1.57-3.2l.91-1.8c.42-.86 1-1.98 1.25-2.47.98-1.86 2.8-5.46 2.8-5.52 0-.05.43-.8.96-1.67.53-.86.96-1.66.96-1.77 0-.12.27-.66.62-1.22.34-.56.68-1.25.74-1.52.05-.29.16-.54.24-.6.08-.04.4-.63.74-1.32.32-.67.7-1.38.86-1.55.14-.18.48-.74.74-1.27.32-.65.65-1.05 1.1-1.34 2.14-1.38 3.87-1.89 5.68-1.7.58.07 1.25.12 1.5.1.24-.02.66.08.92.2.24.14.59.25.78.25.2 0 .66.17 1.06.4.62.35 2.1.77 4.22 1.18.3.07.7.2.88.27.27.15 1.36.16 4.91.1.4-.02.79-.1.85-.2.05-.07.56-.15 1.12-.15s1.07-.08 1.12-.16c.06-.1.34-.16.6-.16.55 0 1.6-.15 4.12-.56.83-.15 2.03-.29 2.64-.32l1.44-.11c.7-.1 3.12.4 3.38.7.16.16.35.29.46.29.1 0 .38.22.66.5a9.2 9.2 0 0 0 3.5 1.7c.5.1 1.12.12 1.66.04 1.6-.27 6.7-.16 7.78.14.27.08.94.2 1.5.24.58.05 1.2.21 1.43.35.2.13.46.21.57.18.11-.05.37.06.6.22.2.16.5.3.62.3.13 0 .38.12.54.25.18.13.45.24.63.24.48 0 1.7 1.34 1.7 1.87 0 .37.1.5.49.64.54.2.8.7.98 1.97.28 1.95.33 2.17.54 2.64.11.27.29 1 .38 1.6.1.62.24 1.44.34 1.84.1.4.17.83.17.96l.15.72a9 9 0 0 1 .22 1.2c.03.4.21 1.23.39 1.84.41 1.44.88 3.87.84 4.43-.01.26.1.72.23 1.04.14.34.32 1 .4 1.49.16.96.43 2.3.64 3.2.42 1.73.85 4.06.96 5.04.06.62.27 1.65.48 2.29.35 1.04.43 1.16.91 1.3.29.07.74.3 1 .47.25.2.75.45 1.1.56.73.27 2.45 1.17 3.66 1.95.46.3 1.02.58 1.23.64.23.05.51.23.68.4.14.16.4.3.54.3.16 0 .38.12.5.26.22.28.41.42 2.1 1.54.5.32 1.02.77 1.16 1 .14.22.51.54.81.71.3.18.55.42.55.53 0 .24.85 1.09 1.09 1.09.08 0 .28.2.43.43.16.22.53.66.82.96.3.3.54.62.54.75 0 .11.18.37.4.58.22.2.4.5.4.62 0 .15.14.35.32.47.17.1.32.27.32.35 0 .08.22.64.5 1.23.27.6.52 1.34.57 1.65.03.3.13.7.2.88.09.17.2.72.25 1.2.32 2.46-.32 5.89-1.54 8.38-.64 1.3-2.24 3.59-2.73 3.9a8.4 8.4 0 0 0-1.1 1.1c-.4.46-1.08 1.11-1.53 1.47-.46.36-1 .81-1.21 1.02-.98.91-4.84 4.06-5.12 4.16-.18.08-.63.38-1 .69-.38.3-.76.56-.84.56-.27 0-1.59.78-1.99 1.18-.2.21-1.1.72-1.98 1.14-.88.43-1.8.91-2.03 1.09-.23.17-.5.27-.58.2-.08-.04-.24.02-.35.15a.73.73 0 0 1-.48.24.73.73 0 0 0-.48.24c-.1.13-.35.27-.53.33-.2.07-.64.23-1 .39-.34.16-.89.37-1.2.48l-1.06.41c-.27.13-.6.23-.72.23-.13 0-.5.14-.85.32-.35.17-.75.32-.9.32-.16 0-.48.11-.73.22-.74.39-2.55.93-3.97 1.2-.35.07-.82.24-1.04.39-.24.14-.7.28-1.04.33-.35.03-.85.15-1.09.24-.26.1-.58.18-.72.18s-.78.14-1.4.33c-.61.2-1.58.4-2.15.5-.58.08-1.15.16-1.28.2-.13 0-.54.12-.91.22-.36.1-1.15.22-1.76.25-.6.05-1.55.2-2.13.34-1.2.32-1.87.41-2.85.4-.38-.02-.8.06-.91.16-.11.1-.94.2-1.86.24-.9.03-2.35.16-3.18.25-.83.12-1.73.21-2 .21-.54.03-1.52.4-1.52.58 0 .08-.34.3-.75.5-.42.2-1.19.65-1.7.99-.51.33-1.2.73-1.52.9-.62.28-1.63.87-2.67 1.6-.35.25-.82.5-1.02.57-.21.06-.85.43-1.43.81-.57.39-1.13.7-1.23.7-.11 0-.38.18-.62.4-.24.23-.53.4-.66.4s-.27.09-.32.18c-.06.08-.27.23-.45.32-.2.08-.46.21-.6.3-.12.09-.8.49-1.51.89l-1.52.88c-.13.08-.82.45-1.52.81-.7.36-1.34.7-1.44.79-.08.06-.37.16-.62.22-.64.16-1.36.74-1.65 1.33-.13.27-.42.62-.64.78-.42.28-2 .44-2.77.3Zm3.3-3.02c.14-.21.38-.43.54-.48.16-.05.91-.55 1.65-1.1.75-.57 1.7-1.22 2.1-1.48.43-.25.99-.65 1.26-.88a9.9 9.9 0 0 1 .99-.67c.27-.13.62-.38.78-.58.18-.19.39-.33.48-.33.16 0 .39-.15 2.3-1.41a6.43 6.43 0 0 1 1.14-.67c.07 0 .42-.21.76-.45a6.6 6.6 0 0 1 1.13-.66c.27-.1.64-.35.8-.52.15-.18.5-.42.77-.55.6-.29 1-.53 1.68-1.02.3-.23.7-.48.88-.58a25.05 25.05 0 0 0 3.44-2.05c.48-.36 1-.72 1.15-.76.15-.07 1-.6 1.92-1.2.91-.6 1.83-1.19 2.05-1.32 1.1-.6 1.6-.9 2.91-1.8.5-.34.96-.61 1.03-.61.06 0 .59-.3 1.16-.69 1.27-.82 1.52-.98 2.28-1.36.3-.16 1.18-.67 1.93-1.12.75-.46 1.44-.83 1.52-.83.1 0 .29-.15.46-.34.17-.19.58-.48.92-.64.32-.17.59-.37.59-.45 0-.08.17-.19.38-.24.23-.04.6-.27.85-.46.24-.2.95-.6 1.54-.9a3.5 3.5 0 0 0 1.16-.73c.05-.13.26-.27.44-.34.19-.05.45-.17.54-.25.11-.1.51-.2.88-.23l1.73-.14c1.52-.13 7.31-.13 8.45 0l.96.11 1.74-1.31a64.7 64.7 0 0 0 2.13-1.7c.58-.54 1.44-1.23 2.08-1.66.6-.42 3.04-2.4 3.68-3 .22-.2.77-.68 1.23-1.05l2.37-1.95c.83-.7 1.87-1.57 2.32-1.92.75-.6.96-.88.67-.88-.08 0-.51.32-.97.72a11 11 0 0 1-1.37.99c-.27.14-.81.5-1.2.8-.38.29-.75.53-.83.53-.06 0-.54.29-1.07.64a45.99 45.99 0 0 1-2.88 1.71c-.32.2-.75.43-.94.51-.2.1-.5.3-.7.5-.17.17-.42.32-.55.32-.15 0-.74.32-1.34.72-.6.38-1.33.81-1.64.94-.3.15-.97.58-1.5.98a4.7 4.7 0 0 1-1.15.72c-.11 0-.21.06-.21.14 0 .08-.16.21-.35.26-.21.06-.53.3-.74.53-.35.4-.37.4-1.28.19-.5-.11-1-.27-1.1-.35-.12-.1-.21-.5-.21-.92.02-.68.06-.76.77-1.3.41-.3 1.44-1.1 2.27-1.75.83-.67 1.73-1.35 1.97-1.49.25-.16.57-.4.72-.54.14-.13 1.28-1 2.5-1.94a61.57 61.57 0 0 0 2.33-1.8l1.36-1.02c.7-.52 1.68-1.28 2.14-1.68.48-.4 1-.8 1.14-.9 1.05-.63 1.76-1.29 1.76-1.62 0-.4-.16-.45-.6-.23-.15.08-.55.26-.87.39-.32.14-1.28.75-2.13 1.34-.87.6-1.8 1.23-2.08 1.4l-1.47.95c-.52.35-1.76 1.19-2.77 1.84a357.98 357.98 0 0 0-5.09 3.46c-.78.45-2.24 1.49-2.73 1.95-.32.29-.7.53-.82.53a.7.7 0 0 0-.45.2c-.46.45-1-.92-.66-1.7.12-.23.26-.42.33-.42.14 0 1.48-1.12 2.38-1.97.3-.3 1.02-.93 1.6-1.4.58-.47 1.12-.94 1.2-1.05.16-.17 1.21-1.12 3.18-2.86.61-.53 1.36-1.22 1.68-1.52l.98-.88a63.21 63.21 0 0 0 3.44-2.98c.18-.25-.3-.14-.72.18-.22.17-.48.32-.58.32-.1 0-.3.14-.46.32-.16.17-.4.32-.53.32-.11 0-.67.38-1.2.86a26.49 26.49 0 0 1-4.22 2.95c-.52.35-1.12.72-1.36.84-.8.44-2.9 1.83-3.23 2.16-.2.2-.52.4-.74.47-.23.06-.72.35-1.1.62-.39.27-.82.58-.96.66-.15.1-.68.43-1.17.77-.5.32-.95.59-1 .59-.2 0-2.01 1.31-2.01 1.45 0 .1-.1.4-.2.68-.14.28-.36.94-.52 1.47-.14.53-.4 1.36-.56 1.84-.16.48-.34 1.07-.4 1.33-.06.35-.27.52-.98.83-.48.2-1.18.64-1.56.96-.39.3-.74.56-.8.56-.07 0-.45.24-.87.51-.42.29-1.22.77-1.8 1.06-.57.3-1.14.64-1.29.76a.86.86 0 0 1-.5.23c-.15 0-.31.08-.38.17-.17.3-1.79 1.27-2.12 1.27-.18 0-.39.1-.45.2-.13.21-.91.77-1.33.97a82.39 82.39 0 0 1-5.73 3.31c-.29.11-.81.41-1.15.65-.35.26-.74.47-.86.47-.13 0-.28.06-.32.14-.1.15-3.06 1.81-6.47 3.65-.6.32-1.09.64-1.12.7-.03.08-.14.15-.24.15-.11 0-.37.14-.6.32-.21.17-.49.32-.61.32s-.42.17-.7.4c-.25.22-.58.4-.74.4-.15 0-.44.14-.63.32-.2.17-.4.32-.46.32-.08 0-.4.17-.72.4-.32.22-.7.4-.83.4s-.48.2-.77.45c-.3.25-.79.56-1.1.67-.3.13-.98.53-1.51.88-.53.37-1.31.83-1.76 1.04-.43.2-1.09.56-1.44.8a4.5 4.5 0 0 1-1.07.54c-.26.05-.45.18-.45.26 0 .08-.3.29-.67.45-.39.17-.96.52-1.31.81-.34.27-.7.5-.76.5-.08 0-.44.22-.81.48-.35.27-.74.48-.82.48-.35 0-1.2.81-1.28 1.23-.13.67.13 1.8.5 2.16.24.24.57.34 1.39.37.6.03 1.12.1 1.17.14.22.24.85.07 1.09-.3Zm11.34-14.13c.35-.14.83-.42 1.07-.6.26-.22.7-.46 1-.57.68-.24.75-.48.14-.45-1.03.05-9.5-.48-9.7-.6a155.94 155.94 0 0 1-13.63-1.97 73.76 73.76 0 0 1-3.36-.72l-2.16-.56c-.75-.2-1.68-.43-2.08-.51-.4-.08-.83-.2-.96-.24a3.89 3.89 0 0 0-.62-.16c-.21-.04-.9-.24-1.52-.47l-1.62-.54c-.26-.08-.77-.24-1.12-.39-.35-.12-.8-.24-1-.25-.18 0-.4-.07-.44-.16-.05-.08-.26-.16-.45-.16-.2 0-.51-.11-.7-.24a16.36 16.36 0 0 0-3.27-1.36c-.14 0-.52-.18-.84-.4-.32-.23-.7-.4-.8-.4-.12 0-.39-.13-.6-.3-.2-.17-.56-.36-.78-.42a8.04 8.04 0 0 1-1.25-.63 72.96 72.96 0 0 0-3.15-1.74 3.34 3.34 0 0 1-.86-.66c-.23-.22-.47-.41-.56-.41-.1 0-.64-.4-1.19-.88-.93-.82-1.31-1.04-1.31-.79a28.84 28.84 0 0 0 4 3.76c0 .1 1.25 1.01 2.06 1.5l.87.62c.32.25 1.18.76 1.92 1.15.72.37 1.57.83 1.87 1.02.3.18.74.42.96.51l1.84.85c1.42.67 2.38 1.04 3.76 1.49.4.13.85.3 1 .38.15.08.38.15.52.15.13 0 .46.13.75.29.29.16 1 .41 1.57.57l2.08.61c.58.18 1.33.37 1.68.45a103.39 103.39 0 0 0 14 2.64c.58.05 1.36.16 1.76.25.4.08.98.15 1.28.13a37 37 0 0 1 2.56.13c1.1.1 2.14.18 2.32.18.8 0 2.66.16 2.74.22.14.16 1.56-.05 2.22-.32Zm19.2-.83a61.6 61.6 0 0 1 3.6-.64c4.67-.74 4.94-.79 5.28-.96.16-.08.58-.16.91-.16.34 0 1.14-.18 1.78-.4a8.4 8.4 0 0 1 1.47-.4c.17 0 .34-.07.38-.13.05-.08.36-.14.68-.16.33-.02.72-.14.84-.29.24-.24.23-.25-.06-.16-.32.13-.93.23-3.2.58-.6.1-1.23.2-1.38.24-.25.08-3.42.57-5.66.9-.6.07-1.89.17-2.82.2a5.81 5.81 0 0 0-2.32.35 8.48 8.48 0 0 0-1.98 1.3c0 .11 1.9-.1 2.48-.27Zm-13.52-3.31c.4-.05.91-.08 1.14-.07.41.03 1.95-.77 2.81-1.47.67-.56 3.65-2.2 3.97-2.2.1 0 .35-.17.56-.4.2-.22.46-.4.58-.4.24 0 1.2-.54 1.92-1.06.27-.21.6-.37.73-.37s.75-.35 1.4-.8a8.4 8.4 0 0 1 1.77-.96c.35-.1.64-.24.64-.32 0-.1.43-.37.98-.64a9.59 9.59 0 0 0 1.23-.67c.24-.21 1.37-.84 3.04-1.65a7.17 7.17 0 0 0 1.36-.91c.28-.26.9-.7 1.36-.96.59-.34.86-.61.92-.9.17-.82.93-3.15 1.32-4.03.43-1.01.77-1.44 1.12-1.44.13 0 .46-.18.73-.39.28-.19.72-.48 1.01-.62.27-.14.6-.37.74-.51.13-.13.7-.5 1.26-.83.96-.56 2.86-1.9 4.34-3.04.36-.3 1.05-.72 1.52-.95.45-.24.83-.48.83-.56 0-.08.1-.14.2-.14.14 0 .36-.15.52-.32.16-.18.38-.32.48-.32.11 0 .48-.23.81-.5.36-.27 1.35-.97 2.23-1.55.88-.58 1.8-1.22 2.05-1.42.25-.21.57-.37.73-.37.16 0 .45-.18.66-.4a4.17 4.17 0 0 1 1.84-1.04c.53 0 1.66.72 1.94 1.2.63 1.2-.12 2.11-4.42 5.28l-.87.64c-3.47 2.54-5.55 4.27-5.36 4.46.12.13 2.13-1.3 4.45-3.15.64-.53 1.12-.85 1.06-.74-.07.13.06.02.3-.25.23-.26.4-.42.42-.34 0 .08.13-.01.3-.19.16-.2.37-.35.47-.35.1 0 .19-.07.22-.15.08-.22 2.18-1.74 2.9-2.12.37-.18.92-.52 1.26-.74.56-.37.69-.38 1.8-.27 1.48.13 1.72.35 2 1.68.26 1.2.14 1.42-1.67 2.94-.63.51-4.4 3.22-6.45 4.61-.56.38-1.25.88-1.53 1.14-.3.24-.61.43-.7.43-.09 0-.28.14-.44.32-.16.17-.37.32-.48.32-.11 0-.32.14-.48.32-.16.17-.24.32-.18.32.11 0 .77-.35.9-.48.05-.05.37-.23.72-.4.35-.18.86-.48 1.13-.67.28-.21.55-.32.63-.24.08.06.06.01 0-.12-.1-.17-.06-.2.13-.12.16.06.35-.02.46-.18.11-.14.35-.37.53-.48l.85-.53c.27-.19.5-.4.5-.48 0-.08.09-.14.2-.14.1 0 .46-.23.83-.5.37-.27 1.12-.78 1.7-1.17.57-.36 1.71-1.12 2.54-1.68 1.46-.99 1.5-1 2.1-.83.45.13.78.4 1.18.96.48.66.58.91.58 1.6 0 .91.1.8-3.54 4.2a37.26 37.26 0 0 1-4.16 3.5c-1.89 1.4-3.09 2.45-3.64 3.18-.21.27-.45.5-.55.5-.08 0-.4.17-.69.4-.29.22-.56.4-.6.4-.04 0-.53.32-1.1.7-1.74 1.23-2.65 1.7-3.45 1.78a54.22 54.22 0 0 1-8.03.58c-2.6-.05-3.12-.02-3.28.19-.08.1-.51.41-.96.67-.43.24-1.73 1.1-2.88 1.89-1.14.78-2.4 1.61-2.78 1.85-.77.45-2.16 1.68-1.78 1.55.13-.04.6-.1 1.04-.14.45-.05 1.1-.16 1.49-.26.37-.1.73-.16.8-.1.08.04.41 0 .77-.1.59-.16 1.3-.28 5.03-.84.95-.14 1.92-.33 2.16-.43.52-.19 1.92-.59 2.79-.78.3-.07 1.07-.3 1.68-.53.62-.2 1.55-.51 2.08-.67.53-.16 1.07-.34 1.2-.4.14-.07.5-.18.8-.24.3-.07.6-.2.66-.27.06-.1.44-.23.88-.3a7.06 7.06 0 0 0 1.42-.47c.37-.18.73-.32.83-.32.1 0 .72-.29 1.4-.64a8.5 8.5 0 0 1 1.45-.64c.1 0 .51-.18.9-.4.38-.23.81-.43.94-.5a24.7 24.7 0 0 0 4.22-2.3c.18 0 1.68-1.07 2.9-2.05a27.82 27.82 0 0 0 4.64-4.67c.67-1.04 1.68-3.04 1.68-3.35 0-.1.11-.48.24-.88.13-.38.25-1.16.27-1.72.03-1.12-.32-3.46-.53-3.59-.08-.05-.14-.22-.14-.38 0-.34-1.09-2.37-1.73-3.22l-1-1.36c-.3-.43-.87-1.07-1.25-1.42a65.56 65.56 0 0 1-1.69-1.62 6.96 6.96 0 0 0-1.42-1.15c-.24-.11-.48-.3-.53-.43-.06-.13-.2-.24-.32-.24a10 10 0 0 1-2.38-1.49c-.26-.2-.66-.45-.86-.51a4.32 4.32 0 0 1-.89-.42 14.7 14.7 0 0 0-2.62-1.26c-.11 0-.24-.11-.29-.24-.06-.13-.19-.24-.32-.24-.24 0-.19.45.13 1.3.08.23.14.55.13.71-.06.58 0 .72.5 1.19.48.43.5.48.33 1.12-.1.37-.13.77-.1.88.05.11-.06.25-.23.32-.2.05-.34.17-.34.25 0 .26-1.31 1.43-1.84 1.65-.26.11-.74.45-1.06.75-.94.88-1.92 1.59-2.2 1.59-.15 0-.52.27-.82.57-.3.32-.96.88-1.44 1.24s-1.03.78-1.2.94a1.7 1.7 0 0 1-.67.38c-.21.07-.37.16-.37.24 0 .07-.18.23-.38.34-.7.38-2.63 1.73-2.82 1.97-.11.13-.29.24-.4.24-.11 0-.24.1-.29.2-.08.2-.62.61-2.41 1.81-.28.2-.6.47-.72.61-.12.15-.3.26-.37.26-.18 0-2.58 1.77-2.66 1.95-.03.06-.45.34-.93.6-.48.28-.86.57-.86.63 0 .07-.2.23-.43.35a3.9 3.9 0 0 0-.95.7 5.2 5.2 0 0 1-1.64 1.2c-.12 0-.53.28-.97.62-.43.32-.97.73-1.23.9l-1.79 1.34c-.73.54-1.4.99-1.47.99-.08 0-.2.1-.27.2a9.77 9.77 0 0 1-1.9 1.4c-.07 0-.42.25-.8.56-.37.3-.74.56-.82.56-.08 0-.26.14-.42.32-.14.17-.37.32-.5.32-.1 0-.31.11-.43.27-.12.14-.43.35-.7.48-.51.22-1.07.56-1.2.7-.05.05-.32.18-.6.3-.44.17-.6.18-.92 0a1.72 1.72 0 0 0-.98-.1c-.32.06-.73.01-.9-.08a5.7 5.7 0 0 0-1.22-.3c-.5-.07-1.3-.22-1.78-.3a195.98 195.98 0 0 0-6.24-1.04 2.68 2.68 0 0 1-.77-.24c-.2-.1-.81-.22-1.36-.25a12.91 12.91 0 0 1-3.2-.66 4.21 4.21 0 0 0-1.28-.22c-.37 0-1.2-.15-1.84-.32a8.55 8.55 0 0 0-1.66-.32c-.3-.02-.96-.13-1.5-.26-.97-.24-1.57-.37-3.83-.75-.7-.13-1.4-.27-1.52-.32a7.67 7.67 0 0 0-1.17-.18 2.98 2.98 0 0 1-1.12-.24 6.97 6.97 0 0 0-1.58-.32 7.9 7.9 0 0 1-1.68-.3c-.16-.08-.61-.16-1-.18a3.3 3.3 0 0 1-1-.19c-.18-.1-.42-.13-.55-.08-.12.05-.5-.01-.83-.13-.6-.22-2-.5-3.55-.7-.48-.06-.98-.2-1.1-.26a1.95 1.95 0 0 0-.72-.19 40.7 40.7 0 0 1-1.78-.29l-2.66-.46a9.5 9.5 0 0 1-1.76-.43c-.2-.13-.41-.2-.46-.18-.2.11-5.92-.99-7.2-1.37-1.12-.36-1.92-.92-1.92-1.38 0-.2-.18-.56-.4-.82-.22-.25-.4-.64-.4-.86 0-.67.37-1.65.67-1.8.16-.09.29-.25.29-.34 0-.08.2-.4.46-.7.26-.28.58-.89.74-1.35.14-.45.88-1.99 1.62-3.43 1.24-2.43 1.32-2.65 1.26-3.44a2.77 2.77 0 0 0-.2-1.02c-.09-.11-.44-.75-.8-1.42-.97-1.76-.95-2.48.06-3.76.41-.52 1.44-1.64 2.28-2.48.85-.87 1.43-1.57 1.28-1.57-.12 0-.38.11-.56.24-.16.13-.4.24-.5.24-.14 0-.42.13-.65.29-.24.16-.75.41-1.13.57-.39.15-1.01.48-1.4.74-.36.27-.75.48-.84.48-.08 0-.48.22-.87.48-.4.27-.81.48-.94.48-.11 0-.55.27-.96.6-.42.33-1.01.77-1.33 1-.32.22-.96.69-1.4 1.05-.47.36-.92.7-1.02.72a52.7 52.7 0 0 0-4.5 4.98c-.28.42-.57 1-.66 1.28-.08.29-.3.93-.5 1.4a9.72 9.72 0 0 0-.18 5.26c.44 1.9.74 2.57 2.15 4.67.45.65 1.26 1.66 1.84 2.24.56.57 1.2 1.31 1.42 1.63.29.43.6.66 1.04.77.39.11.69.32.79.53.16.36.33.48 1.42 1 .3.15.64.39.74.53.1.15.5.43.9.63.4.19.8.46.92.59.11.13.34.24.51.24.16 0 .47.16.66.37.19.2.64.5 1 .62.36.14 1.03.48 1.5.75a4.79 4.79 0 0 0 1.56.69c.24.1.55.2.66.22.13.02.35.16.5.3.15.14.52.3.83.34.3.07.8.3 1.1.5.3.2.77.37 1.02.37.26 0 .6.1.72.2.15.12 1.12.49 2.18.82 1.06.34 2.1.7 2.32.82.22.11.8.29 1.28.38l1.28.32c1.23.4 1.57.48 2.13.56.33.05.86.21 1.18.34.3.13.72.24.91.24.2 0 .74.11 1.22.24.83.22 1.89.45 2.96.62.27.05 1 .2 1.6.34.62.14 1.38.29 1.68.32.3.03 1 .13 1.52.22.94.18 2.05.3 3.44.42.4.03 1.04.13 1.44.22.94.21 5.5.56 10.42.8 2.25.13 3.36.1 4.78-.1Zm29.28-.05c0-.08-.03-.16-.06-.16-.05 0-.13.08-.18.16-.05.1-.02.16.06.16.1 0 .18-.07.18-.16Zm-21.28-11.76c.2-.23.45-.4.53-.4.08 0 .64-.43 1.23-.96.6-.53 1.15-.96 1.22-.96.08 0 .24-.15.35-.32.1-.18.33-.32.5-.32.19 0 .44-.18.59-.4.14-.23.88-.87 1.64-1.41.76-.54 1.5-1.09 1.62-1.2 1.04-.9 2-1.63 2.13-1.63.08 0 .46-.29.85-.64.38-.35.76-.64.86-.64.1 0 .45-.26.77-.58.32-.3 1.07-.88 1.64-1.28.6-.38 1.16-.81 1.27-.94.11-.13.29-.24.4-.24.1 0 .32-.15.48-.32.16-.18.38-.32.5-.32.1 0 .3-.15.43-.32a6.2 6.2 0 0 1 1.66-1.28c.08 0 .39-.24.69-.53.75-.69 2.35-1.87 2.54-1.87.08 0 .18-.07.21-.16a7.6 7.6 0 0 1 1.97-1.44c.1 0 .43-.26.72-.56.3-.32 1.04-.9 1.65-1.31.59-.4 1.12-.8 1.17-.87.04-.08.2-.14.36-.14.15 0 .44-.2.63-.48a3 3 0 0 1 .88-.74c.27-.14.78-.51 1.12-.8.32-.3.73-.54.9-.54.19 0 .65-.32 1.03-.72.4-.4.77-.72.83-.72.05 0 .36-.2.66-.48.29-.26.6-.48.67-.48.13 0 .07-.69-.1-1.12a3.1 3.1 0 0 1-.14-.72 33.81 33.81 0 0 0-1.4-7.76 11.3 11.3 0 0 1-.34-1.89 5.52 5.52 0 0 0-.22-1.3c-.1-.16-.2-.75-.24-1.3-.09-1.06-.4-2.62-.73-3.4-.1-.26-.17-.66-.17-.91 0-.26-.11-.88-.24-1.4-.13-.52-.27-1.26-.3-1.66a7.4 7.4 0 0 0-.26-1.34c-.1-.35-.2-.79-.22-.96-.02-.18-.1-.58-.17-.88l-.16-.96a2.1 2.1 0 0 0-.14-.64 9.4 9.4 0 0 1-.25-1.28c-.23-1.54-.66-4.2-.74-4.56a43.1 43.1 0 0 1-.93-5.44c-.05-.45-.13-.5-1-.69a4.1 4.1 0 0 1-1.32-.51 1.4 1.4 0 0 0-.6-.32c-.13 0-.86-.24-1.6-.55-.82-.33-1.78-.59-2.44-.65-.6-.05-1.54-.16-2.11-.23a42.5 42.5 0 0 0-4.23-.08c-2.16.05-3.26 0-3.4-.1a.53.53 0 0 0-.47-.09c-.54.21-3.04-.86-3.85-1.65a5.89 5.89 0 0 0-1.12-.78 8.05 8.05 0 0 0-3.65-.37l-.64.15.77.01c.88.02 1.47.3 1.98.88.23.24.53.42.77.42.66 0 1.42.4 1.76.9.29.4.32.7.27 2.38a67.63 67.63 0 0 1-.08 2.4c-.03.46 0 .48.77.59.45.05 1.25.2 1.8.34.55.12 1 .2 1 .17 0-.05.27.07.6.23.33.17.98.35 1.45.4.46.04.99.2 1.18.35.2.13.6.24.86.24.28 0 .79.1 1.14.22.35.13 1.4.35 2.3.5.98.14 1.8.37 1.99.53l.34.27-.1 1.04c-.15 1.17-.08 1.28.83 1.28.48 0 .64.08.91.54.39.61.47 2.37.18 3.47-.08.36-.24.93-.34 1.32-.1.36-.35.9-.56 1.18-.4.53-.5 1.17-.19 1.17.26 0 .77-.48.77-.72 0-.11.14-.32.32-.48.45-.4 1.85-2.5 2-2.96a12.98 12.98 0 0 1 2.06-3.95c1.01-1.04 1.48-.53 1.33 1.48-.06.82-.2 1.5-.38 1.84-.18.3-.45.95-.64 1.43-.18.5-.52 1.17-.75 1.5-.23.34-.42.7-.42.8 0 .24-1.63 2.1-2.96 3.38a11.8 11.8 0 0 0-1.44 1.65c-.24.36-.5.67-.56.67-.08 0-.2.2-.3.45-.1.24-.47.83-.84 1.3-.35.49-.77 1.14-.92 1.45-.16.3-.45.85-.66 1.2a16.5 16.5 0 0 0-1.38 2.9c-.16.67-.86 2.76-1.02 3.08-.08.15-.34.83-.56 1.54-.22.7-.46 1.4-.51 1.52-.07.13-.13.38-.15.56-.05.38-1.6 4.54-2.2 5.92-.88 2-1.76 3.55-2.36 4.16-.25.27-.46.57-.46.69 0 .1-.05.19-.11.19-.08 0-.7.73-1.41 1.61-.7.9-1.8 2.18-2.4 2.85-.62.67-1.33 1.5-1.57 1.86-.24.35-.7.93-1.02 1.28-1.1 1.17-2.7 4.64-2.87 6.29-.06.5-.17 1.04-.25 1.2-.39.73-1.03-.13-.87-1.17l.23-1.6c.13-.93.77-2.69 1.57-4.32.14-.3.59-1 .97-1.52a70.9 70.9 0 0 0 2.08-3c.16-.23.45-.5.64-.59.23-.1.53-.54.75-1.05.23-.48.47-.88.55-.88.08 0 .24-.2.33-.43.1-.26.52-.8.9-1.24.4-.43.72-.84.72-.9 0-.09.32-.54.72-1.02.4-.5.72-.96.72-1.05 0-.1.18-.45.38-.79.23-.33.45-.88.5-1.18.06-.32.26-.74.42-.93.16-.19.3-.5.3-.69.02-.19.13-.62.26-.97.14-.35.44-1.19.7-1.84l.53-1.44c.05-.13.2-.67.35-1.2.14-.53.32-1.03.4-1.12.06-.08.38-1.03.7-2.08.32-1.06.66-2.07.74-2.24l.48-1.28c.2-.53.42-1.07.5-1.2.41-.7.9-1.73 1.02-2.07.1-.28-.18-.14-1.23.72-3.41 2.77-4.45 3.76-5 4.76-.92 1.7-1.72 3.18-2.41 4.5l-1.17 2.22c-.29.5-.51.99-.51 1.08 0 .08-.32.64-.7 1.24a8.9 8.9 0 0 0-.82 1.47c-.13.38-1.12 2.32-1.38 2.64L89.66 82a58.05 58.05 0 0 1-1.34 2.56c-.14.17-.78 1.34-1.89 3.42-.38.75-1 1.87-1.4 2.48-.36.63-.73 1.3-.8 1.5-.09.34-.95 2-1.35 2.6-.29.45-1.31 2.32-2.02 3.65-.36.72-.9 1.63-1.16 2.03-.26.38-.44.75-.36.78.07.05.5.13.95.2.46.06.88.17.93.23.04.08.28.15.52.15s.98.14 1.64.3c1.05.27 2.48.5 3.45.56a1 1 0 0 1 .56.23c.27.27.34.24.77-.21Zm-10.88-2.16c0-.18.56-1.52.82-1.92.08-.13.48-.93.88-1.76.41-.83.8-1.55.86-1.6.06-.05.16-.27.22-.51.05-.26.18-.45.26-.45.1 0 .16-.1.16-.23 0-.1.27-.7.6-1.3l1.13-2.23c.32-.6.62-1.15.69-1.2.04-.05.25-.35.44-.7l.36-.63-.61.48c-1.06.8-5.14 3.25-5.43 3.25-.04 0-.62.32-1.3.7-3.94 2.23-6.76 3.46-7.98 3.46-.64 0-1.28-.29-1.74-.8-.18-.2-.64-.58-1.04-.85a4.27 4.27 0 0 1-1.62-1.74c-.17-.44-.46-.61-.46-.3 0 .28-.78 1.78-2.3 4.46-.61 1.08-.61 1.07.46 1.21.9.1 3.95.7 5.2 1 1.57.38 2.22.52 3.36.7.58.08 1.44.24 1.92.33.48.08 1.28.23 1.76.3l1.6.3c1 .2 1.76.22 1.76.03ZM59.12 96.2c.16-.52.4-1.08.51-1.25a29.77 29.77 0 0 1 1.8-4.11c.19-.32.33-.68.33-.79 0-.1.11-.32.26-.48.22-.25.22-.35-.12-1.07l-.36-.8-2.56 2.08c-1.65 1.31-2.63 2.22-2.72 2.5-.08.24-.28.6-.42.83-.16.22-.4.69-.54 1.04-.15.35-.4.78-.55.96-.38.46-.7 1.05-.6 1.15.03.05.4.11.84.14.42.05 1.17.18 1.65.3.48.14 1.14.26 1.44.3l.64.08c.05.01.22-.39.4-.88Zm-6.62-.96c.17-.44.43-.98.54-1.25.37-.8.72-1.71.72-1.84 0-.08-.38-.03-.83.1-.9.23-1.38.33-2.51.47-.66.08-.72.05-1.17-.48-.3-.36-.61-.57-.85-.57-.2 0-.58-.08-.83-.18-.24-.1-1.06-.2-1.81-.24-.75-.03-1.5-.08-1.68-.11l-.9-.18c-.32-.04-.7-.24-.86-.41-.14-.16-.5-.35-.78-.42a2.17 2.17 0 0 1-.66-.22 2.32 2.32 0 0 0-.72-.21c-1.23-.2-2.02-.38-2.2-.5a7.2 7.2 0 0 1-2.26-2.72 8.24 8.24 0 0 0-.8-1.37c-.12.01-1.67 3.17-2.04 4.16-.14.4-.36.8-.48.9a.6.6 0 0 0-.22.43c0 .14-.08.3-.18.35-.16.11-.04 1 .16 1.25.07.06.47.16.92.19.43.05.9.11 1.02.16.13.03.7.11 1.28.16.58.06 1.12.17 1.23.27.11.1.51.2.9.2.37.02.78.09.9.12.46.16 1.85.43 2.65.53.45.06.91.14 1.04.2.13.05.46.1.72.13.75.07 3.25.52 3.4.61.07.03.49.11.94.16.43.03 1.24.2 1.82.32l3.09.72c.06 0 .27-.32.45-.73Zm36.67-17.6c.13-.61.64-1.72 1.3-2.77.31-.48.57-1.07.57-1.31s.06-.48.16-.53c.08-.05.35-.51.58-1.01.22-.5.52-1.04.65-1.18.13-.15.2-.34.2-.44-.07-.14-1.25.82-6.05 4.92l-2.12 1.79h.61c.85.01 2.43.37 3 .69.71.38 1 .33 1.1-.16Zm2.81-28.45c2.48-1.23 6.15-2.69 7.22-2.88 1.22-.2 4.13-1.12 3.97-1.23a1.2 1.2 0 0 0-.5-.13c-.34 0-2.66-.77-2.91-.96a2.34 2.34 0 0 0-.78-.23c-.34-.06-.84-.2-1.12-.33-.28-.11-.9-.29-1.38-.39-.48-.1-1.15-.27-1.49-.36-.53-.16-.62-.15-.83.12-.13.16-.24.52-.24.76 0 .48-.34 1.23-.82 1.85-.17.21-.36.64-.46.98a10.2 10.2 0 0 1-1.02 1.97c-.48.76-.85 1.39-.82 1.39l1.18-.56Zm-27.47-5.23c1-.79 2.47-1.86 3.28-2.4a7.62 7.62 0 0 0 1.4-1.1 4.35 4.35 0 0 0-1.06-.38 21.3 21.3 0 0 1-1.5-.44c-1.1-.39-1.08-.39-1.83.78L62.48 44l-1.9 2.94c-.23.35.01.21.9-.56.68-.56 2.04-1.65 3.03-2.41Zm-6.29-3.46c.66-.77 1.36-1.58 1.57-1.8l.39-.42-.76.01c-.5.02-.78.1-.86.26a39.5 39.5 0 0 1-1.94 3.63l-.28.6.35-.44 1.53-1.84ZM72.7 38.4c1.33-.8 3.65-1.97 4.59-2.32 2.16-.79 3.1-1.09 4.4-1.43 2.2-.59 2.93-.97 1.04-.56-1.76.39-6.48.47-8.32.15-.91-.16-2.9-.69-4.2-1.1-.38-.13-.47-.1-.63.19-.1.19-.45.67-.77 1.07-.86 1.05-2.11 3.04-2.03 3.26.05.1.96.39 2.05.64 1.61.37 2.62.63 2.8.72.01.02.5-.27 1.07-.62ZM62.45 35.6c.5-.57 1.57-1.68 2.35-2.44.78-.77 1.4-1.43 1.36-1.46-.03-.03-.37-.1-.75-.13-2.13-.2-3.27.08-3.57.91-.1.3-.34.8-.53 1.1-.2.31-.43.74-.54.97-.1.22-.3.54-.47.72-.14.17-.32.54-.36.81l-.12.5.85.03.87.03.9-1.04Z" fill="#000"></path><path d="M96.77 92.2c-.53-.14-.8-1.8-.29-1.8.1 0 .16-.16.16-.37 0-.2.14-.64.32-.98.16-.35.27-.67.24-.73-.03-.07.03-.26.16-.42.13-.16.24-.46.24-.64 0-.83 1.12-1.47 1.73-.99.25.22.25 1.57-.02 1.97-.13.17-.45 1.04-.73 1.92-.3.88-.56 1.7-.63 1.79-.14.22-.8.37-1.18.26ZM106.38 82.77c-.4-.26-1.04-.7-1.42-1.01-.38-.3-.91-.67-1.18-.82-.6-.3-.74-.97-.33-1.44.5-.54 2-.3 3.4.55l1.05.59c.61.3.93.82.95 1.52.01.72-.18.9-1.04.98-.55.04-.85-.04-1.43-.37ZM115.36 76.85c-.29-.37-.32-.58-.24-1.4.14-1.64 1.12-4.15 1.85-4.84.34-.3.45-.34.79-.16.4.19.4.24.4 2.1-.02 2.54-.07 2.95-.47 3.56-.28.47-1.4 1.17-1.84 1.17-.08 0-.3-.2-.5-.43ZM109.62 76.58c-.32-.39-.37-1.97-.12-3.06.13-.53.28-1.38.34-1.89.1-.78.18-.96.5-1.1.28-.13.44-.13.57 0 .1.1.23 1.28.3 2.86.12 2.42.1 2.72-.14 2.96-.4.42-1.2.53-1.45.23ZM105.55 73.65c-.25-.24-.08-1.23.45-2.56.51-1.28.64-1.46 1.25-1.78 1.15-.6 1.58-.4 1.44.69-.13.98-.34 1.33-1.72 3-.57.71-1.11.95-1.42.65ZM114.08 67.2c-.58-.3-2.88-2.56-2.88-2.82 0-.25.6-.53.97-.43.21.05.98.37 1.7.7.72.36 1.49.63 1.7.63.67 0 1.09 1.39.59 1.98-.27.35-1.4.32-2.08-.06ZM115.73 59.47c-.24-.2-.77-.53-1.17-.74-1-.54-1.12-.64-1.12-1.07 0-.94 2.35-1.15 3.95-.37.75.37.77.4.82 1.17.06 1.04-.24 1.38-1.27 1.38-.54 0-.88-.1-1.21-.37Z" fill="#000"></path><path d="M67.28 95.39a4.86 4.86 0 0 1-.7-.58 5.85 5.85 0 0 0-.96-.78 4.07 4.07 0 0 1-1.6-1.71c-.3-.56-.3-.58 0-.96.16-.23.3-.47.3-.55 0-.08.37-.9.82-1.84 1.45-2.99 1.66-3.47 1.82-4.3.06-.32 1.66-3.62 2.75-5.63l1.33-2.56.88-1.76a48.6 48.6 0 0 1 1.94-3.6c.3-.53.6-1.1.65-1.28.07-.18.5-1.06.96-1.97.47-.91.85-1.8.85-1.95 0-.18.13-.39.3-.47.3-.17 1.7-2.9 2.36-4.62.2-.58.52-1.15.7-1.26.18-.13.32-.37.32-.53 0-.16.08-.35.16-.4.1-.05.16-.23.16-.39s.29-.73.66-1.3a20.99 20.99 0 0 0 1.8-3.45c.07-.19.42-.91.82-1.58.38-.69.75-1.46.8-1.7.06-.25.16-.46.24-.46.08 0 .26-.35.4-.79.14-.44.38-.96.54-1.16.42-.53 1.62-2.92 1.62-3.2 0-.13.14-.44.34-.68.19-.24.36-.68.38-1 .03-.32.13-.64.22-.74.16-.16 3.12-.2 4.42-.03 1.31.16 1.98.51 1.52.8-.08.05-.16.32-.16.57 0 .52-.32 1.25-.82 1.9-.17.2-.36.63-.46.97a10.2 10.2 0 0 1-1.02 1.97c-.48.76-.85 1.39-.82 1.39l1.18-.56c2.56-1.27 6.16-2.69 7.3-2.9.27-.05 1.23-.29 2.16-.54 1.25-.35 2-.47 2.91-.45l1.22.02-.32.65a15 15 0 0 1-.45.9c-.08.13-.43.81-.8 1.52l-1.12 2.08c-.26.45-.58 1.04-.7 1.33-.15.28-.39.72-.55.96-.16.24-.41.72-.54 1.07-.15.35-.61 1.23-1.04 1.95a16.87 16.87 0 0 0-1.35 2.6l-.72 1.45c-.32.65-.64 1.31-.72 1.44-.08.13-.24.48-.38.77-.13.28-.38.73-.56.99-.18.24-.32.53-.32.64 0 .1-.14.37-.3.57-.18.23-.5.9-.74 1.5-.22.6-.56 1.22-.72 1.37-.18.16-.32.38-.32.48 0 .4-1.2 2.57-1.58 2.88-.5.38-2.87 2.37-5.76 4.85l-2.12 1.79h.61c.83.01 2.39.38 3.22.75.67.32.67.32.35.6-.18.17-.32.38-.32.49 0 .1-.4.96-.88 1.93-.48.96-.88 1.8-.88 1.86 0 .06-.24.45-.51.86-.53.74-.58.82-.88 1.43-.37.73-1.04 1.93-1.19 2.06a.67.67 0 0 0-.14.39c0 .27-.13.36-1.6 1.37-.98.66-4.42 2.66-4.58 2.66-.04 0-.62.32-1.3.7-3.98 2.26-6.78 3.46-8 3.46-.33 0-.8-.13-1.08-.29ZM49.23 92.24c-.29-.35-.57-.56-.83-.56-.2 0-.58-.08-.83-.18-.24-.1-1.06-.2-1.81-.24-2.05-.08-3.07-.28-3.44-.7-.14-.16-.5-.35-.78-.42a2.17 2.17 0 0 1-.66-.22 2.32 2.32 0 0 0-.72-.2l-1.04-.2-.82-.16c-.64-.13-1.93-1.55-2.62-2.88a7.24 7.24 0 0 0-.83-1.38c-.08-.06-.05-.14.1-.19.14-.06.25-.27.25-.48 0-.22.13-.56.29-.77.16-.2.41-.72.56-1.12.16-.4.41-.88.59-1.07.18-.2.32-.41.32-.51 0-.14.48-1.15 1.71-3.55.11-.23.2-.56.2-.72.01-.18.15-.45.33-.61.16-.14.5-.78.74-1.4.24-.6.5-1.13.57-1.18.07-.04.13-.2.13-.36 0-.16.11-.4.26-.52.22-.19.59-.9 1.18-2.25.08-.21.22-.48.29-.61.43-.77 1.17-2.35 1.15-2.5 0-.08.22-.5.51-.96.27-.43.93-1.61 1.46-2.62.5-1 .99-1.9 1.07-2 .06-.08.18-.34.24-.56.06-.22.29-.6.48-.88.2-.26.48-.8.64-1.2.18-.4.51-1.02.75-1.4.24-.36.45-.74.45-.84 0-.11.13-.38.3-.6a9 9 0 0 0 .66-1.32c.2-.48.46-1 .58-1.12.1-.13.25-.45.32-.72.06-.26.28-.69.5-.93.18-.25.36-.57.36-.73 0-.15.06-.34.14-.44.26-.24 2.45-4.48 3.12-6.01.15-.34.4-.7.56-.8.16-.11.34-.39.39-.61.13-.53.62-1.2 2.57-3.46 1.57-1.82 1.6-1.84 2.16-1.76.32.07 1.04.18 1.62.28 1.07.17 2.7.6 2.91.78.11.08-.16.53-3 4.88l-1.75 2.72c-.22.35.03.2.98-.6 2.64-2.26 7.58-5.88 8.04-5.88.21 0 1.8.51 2.5.82 1.65.68 4.02 1.42 4.6 1.42.22 0 .52.14.68.32.16.18.38.32.5.32s-.18.72-.74 1.8c-.53.98-1.2 2.31-1.5 2.94-.3.62-.61 1.18-.7 1.24-.1.05-.22.39-.28.74a2.8 2.8 0 0 1-.43 1.04c-.37.48-1.25 2.16-1.25 2.42 0 .1-.14.36-.34.6-.17.23-1.2 2.13-2.25 4.23a71.26 71.26 0 0 1-2.15 4.05c-.12.12-.22.32-.22.4 0 .08-.26.64-.56 1.24-.3.6-.56 1.24-.56 1.4 0 .17-.13.43-.29.59-.14.14-.46.67-.69 1.15-.22.48-.5 1.06-.59 1.28-.11.22-.33.62-.5.88-.17.27-.31.64-.31.82-.02.19-.16.52-.34.73a4.46 4.46 0 0 0-.67 1.4c0 .06-.15.27-.3.47-.18.21-.31.45-.31.53 0 .1-.13.35-.3.58-.16.24-.39.73-.5 1.12-.13.37-.3.75-.43.85a.8.8 0 0 0-.21.52c0 .21-.18.53-.4.74-.22.2-.4.46-.4.56 0 .1-.14.45-.32.8-.18.35-.32.69-.32.75 0 .07-.2.6-.48 1.14a10.5 10.5 0 0 0-.48 1.13c0 .08-.13.32-.3.55a19.3 19.3 0 0 0-1.54 2.9 2 2 0 0 1-.32.65c-.1.13-.32.56-.46.94-.15.39-.7 1.57-1.22 2.64l-1.18 2.5c-.15.3-.26.51-.26.45 0-.05-.38 0-.83.13-.95.25-1.46.35-2.53.48-.67.08-.75.04-1.17-.5Z" fill="#FDBB30"></path><path d="M56.6 91.4c.04-.15.25-.46.44-.68.53-.6 1-1.46 1.12-2.03.05-.29.5-1.14.98-1.9.48-.77.97-1.65 1.12-1.97.45-1.03.7-1.52 1.34-2.58.34-.58.63-1.17.63-1.31.01-.15.08-.3.16-.37.08-.05.76-1.33 1.53-2.85.75-1.5 1.46-2.93 1.59-3.15l1.36-2.72 1.3-2.56c.07-.13.42-.85.76-1.6 1-2.13 1.42-3.02 2.11-4.3.34-.66.6-1.25.55-1.32-.04-.06.1-.38.33-.72.23-.32.4-.7.4-.86 0-.14.13-.4.3-.54.37-.34 2.42-4.47 3.06-6.18.13-.3.39-.75.58-1 .19-.23.57-.98.85-1.67.27-.69.64-1.5.81-1.81.34-.62.82-1.6 1.36-2.8.2-.43.55-1.2.79-1.68.22-.5.44-1.34.5-1.94.1-.99.09-1.08-.23-1.24-.2-.12-.42-.15-.51-.08-.18.1-.93-.08-1.99-.47a3.9 3.9 0 0 0-.64-.22 12.98 12.98 0 0 1-2.2-.63 16.87 16.87 0 0 0-3.06-1.02c-.3 0-.3-.03-.1-.24.3-.29 3.31-1.95 4.4-2.43 1.55-.67 2.9-1.15 4.64-1.63a67.4 67.4 0 0 0 2.27-.68c.66-.2.9-.25 2.85-.6 1.95-.36 1.76-.34 3.57-.44 1.68-.1 2.18.04 2.82.76.25.27.57.46.81.46.66 0 1.43.4 1.76.9.27.38.32.73.3 2.06 0 .88-.06 1.95-.12 2.37-.11.7-.15.75-.47.64-.19-.07-.68-.1-1.1-.08-.42 0-.8-.05-.85-.13-.14-.22-3.34-.05-4.33.24-.45.13-1 .38-1.24.56a1.6 1.6 0 0 1-.54.32c-.26.02-.96.72-1.26 1.28-.16.3-.4.66-.5.77a.86.86 0 0 0-.2.51c0 .16-.07.34-.15.38-.13.08-.48.76-1.59 2.96-.1.23-.27.53-.35.66-.25.4-.75 1.49-.93 2a4.6 4.6 0 0 1-.57 1.1 3.5 3.5 0 0 0-.42.76c0 .08-.14.28-.3.44-.18.18-.43.76-.6 1.3-.14.54-.38 1.02-.5 1.07-.13.05-.42.53-.68 1.07a34.1 34.1 0 0 1-1.76 3.54c-.25.45-.46.94-.46 1.14-.02.17-.24.67-.51 1.1a5 5 0 0 0-.56 1.1c-.04.2-.21.53-.39.77-.17.24-.4.61-.48.8-.1.21-.22.48-.3.61-.08.13-.3.6-.48 1.04-.2.45-.42.91-.5 1.04-.25.42-1.07 2.13-1.44 3.04-.2.48-.46 1-.56 1.12-.11.13-.38.67-.62 1.2-.24.53-.72 1.52-1.07 2.2a8.08 8.08 0 0 0-.63 1.45c0 .13-.16.41-.33.65a18.4 18.4 0 0 0-1.75 3.5c-.17.49-.43.98-.56 1.08-.13.11-.24.29-.24.4 0 .22-.13.53-.88 2a255.88 255.88 0 0 0-2.32 4.69l-.53 1.09-.33-.72-.32-.7-2.45 1.98a70.68 70.68 0 0 1-2.51 1.98c-.05 0-.05-.13.01-.27ZM33.38 81.17a2.15 2.15 0 0 1-.04-.83c.07-.08.04-.2-.04-.24-.08-.07-.48-.7-.88-1.46-.6-1.09-.74-1.52-.74-2.14 0-.7.08-.88.82-1.8.97-1.23 3.95-4.3 4.14-4.3.08 0 .38-.13.67-.29a9.4 9.4 0 0 1 1.46-.62c.9-.34.91-.34.91-.02 0 .18-.2.61-.45.98-.65.99-1.42 2.51-1.55 3.1-.05.27-.2.6-.34.7-.27.23-1.34 2.28-1.34 2.57 0 .1-.18.43-.4.72-.38.5-1.36 2.46-1.36 2.72 0 .06-.1.24-.22.36-.12.15-.3.48-.37.74l-.16.48-.11-.67ZM40.32 66.97c.22-.24.53-.5.7-.6.3-.16.3-.15 0 .33-.16.27-.33.5-.4.5-.06 0-.25.05-.41.11-.23.08-.21 0 .1-.34ZM98.85 64.6c.14-.38.46-.97.7-1.3.24-.34.45-.7.45-.82 0-.1.2-.51.46-.93.28-.4.56-1.02.66-1.37.1-.36.24-.7.32-.74.1-.05.16-.22.16-.38s.18-.42.4-.56c.22-.15.4-.37.4-.5 0-.22 1.2-2.6 1.46-2.86.08-.1.14-.3.14-.44 0-.16.2-.59.46-.97.26-.39.52-.87.58-1.07.06-.23.46-1.1.9-1.96.43-.84.78-1.7.78-1.88 0-.18.05-.34.13-.34.16 0 1.1-1.6 1.23-2.13.1-.35.16-.4.4-.27.16.1.54.16.86.16.84 0 1.22.7 1.22 2.24 0 .64-.06 1.44-.16 1.78-.08.35-.24.92-.34 1.3-.1.38-.35.92-.57 1.2-.26.36-.37.68-.32.94.05.28-.07.5-.43.83-.28.24-.7.73-.93 1.09-.24.36-.63.86-.85 1.12-.24.25-.6.8-.8 1.2-.2.4-.64 1.04-.94 1.4l-.7.88c-.07.12-.78.74-1.6 1.4-.8.65-2.1 1.74-2.89 2.41l-1.44 1.25.26-.69ZM65.2 37.3c-.43-.15-1.42-.37-2.2-.48l-1.4-.21.62-.75c.34-.4 1.4-1.5 2.32-2.42 1.41-1.4 1.76-1.66 2.12-1.63.48.06 2.32.73 2.76 1.02.39.23.3.47-.7 1.68-.37.45-1 1.33-1.38 1.95-.78 1.27-.86 1.3-2.14.84Z" fill="#FDBB30"></path></svg>