<svg xmlns="http://www.w3.org/2000/svg" width="49" height="49" fill="none"><path fill="#1B1B1B" d="M41.874 6.886c.04.473-.027.95-.197 1.397-.434 1.14-1.535 2.365-2.323 3.297-1.217 1.437-2.47 2.847-3.706 4.27-2.47 2.848-4.945 5.694-7.416 8.546-.372.428-.752.853-1.114 1.282-1.442 1.71-4.15.15-5.3-.845-2.269-1.962-4.345-4.071-5.657-6.414-.385-.69-.703-1.401-1.141-2.073-.501-.774-1.16-1.494-1.813-2.215a20.399 20.399 0 0 0-2.457-2.657c-.917-.83-1.445-1.728-2.085-2.807-.14-.234-.282-.473-.368-.73-.241-.715 0-1.564.578-2.06.577-.494 1.463-.6 2.148-.264.35.172.636.446.918.711 1.289 1.23 2.242 2.547 3.383 3.895 2.77 3.262 5.304 6.728 8.374 9.862 1.782 1.817 2.489.16 3.59-1.22a798.621 798.621 0 0 1 4.278-5.322c1.433-1.764 2.972-3.484 4.328-5.305C37 6.744 38.19 5.537 40.195 5.44c.376-.018.78.013 1.088.221.385.261.55.743.595 1.203v.026l-.004-.004Z"/><path fill="#1B1B1B" d="M47.912 16.169a4.911 4.911 0 0 1-.22.606c-.832 1.923-2.52 2.864-3.934 4.292-1.691 1.71-3.271 3.523-4.905 5.287-3.401 3.682-5.612 7.997-10.28 10.99-.488.318-1.016.623-1.647.778-1.097.265-2.341.022-3.29-.442-1.473-.716-2.99-1.976-4.006-3.006-1.58-1.596-3.544-2.997-5.138-4.602-1.74-1.76-3.76-3.52-5.08-5.45-.97-1.424-2.09-2.737-3.276-3.993-1.065-1.127-2.466-1.808-3.455-2.997-.528-.636-.909-1.437-.882-2.259a2.59 2.59 0 0 1 .994-1.931c.313-.244.712-.42 1.11-.363.376.053.685.305.976.548 2.206 1.83 4.055 3.868 5.97 5.995 3.62 4.031 7.568 7.877 11.547 11.74.765.748 1.46 1.84 2.663 2.286.672.252 1.562.27 2.148-.07.699-.412 1.267-1.3 1.728-1.853.663-.791 1.316-1.583 1.996-2.365 1.934-2.224 4.015-4.385 5.841-6.657 1.16-1.441 2.515-2.878 3.952-4.23 1.714-1.614 2.882-4.63 5.702-4.585.313.004.631.062.895.225.42.257.645.756.672 1.243.013.274-.027.548-.1.813h.019Z"/><path fill="#1B1B1B" d="M47.96 26.358c.09.05.17.102.247.168.671.553.77 1.57.47 2.379-.416 1.127-1.464 2.263-2.363 3.05-2.788 2.436-5.049 5.088-7.461 7.7-1.992 2.158-3.845 4.536-6.302 6.216-2.18 1.49-4.543 2.988-7.309 2.966-2.788-.022-5.04-1.494-7.111-3.17-2.408-1.944-4.883-3.823-7.152-5.936-.976-.906-1.697-2.206-2.574-3.24a63.38 63.38 0 0 0-3.298-3.617c-1.276-1.277-3.125-2.581-3.935-4.226-.295-.605-.38-1.335-.103-1.954.35-.778 1.29-1.246 2.13-1.06 1.402.305 2.834 2.006 3.76 3.014a502.651 502.651 0 0 1 3.894 4.28c1.97 2.192 3.97 4.486 6.168 6.458 1.915 1.72 3.925 3.563 6.49 4.275 5.952 1.653 10.034-3.639 13.265-7.657 1.16-1.44 2.515-2.873 3.952-4.23 1.5-1.415 2.386-3.298 3.997-4.633.492-.407 1.034-.774 1.656-.933.523-.132 1.105-.101 1.57.155l.01-.005ZM33.715 1.347c.05.115.08.234.098.358.045.353-.03.716-.152 1.052-.465 1.282-1.692 2.36-2.488 3.461-1.316 1.813-2.632 3.62-3.943 5.433-.407.562-1.186.906-2.028.906-.725 0-1.392-.38-1.996-.92-1.177-1.065-2.095-2.766-2.721-3.513-1.177-1.397-2.287-2.82-3.46-4.187-.371-.429-.56-.99-.63-1.551-.086-.686.035-1.455.559-1.919.81-.72 2.01-.009 2.694.553 1.929 1.573 3.258 3.629 4.896 5.463.085.093.17.19.282.252.273.155.636.062.877-.137.43-.349.61-.853.967-1.255.416-.469.81-.95 1.213-1.428.792-.95 1.611-1.9 2.61-2.652.349-.261.725-.5 1.145-.624.493-.141 1.19-.07 1.638.186.206.12.358.31.448.526l-.01-.004Z"/></svg>