<svg width="30" height="20" viewBox="0 0 30 20" fill="none" xmlns="http://www.w3.org/2000/svg">
<mask id="mask0_523_16489" style="mask-type:luminance" maskUnits="userSpaceOnUse" x="0" y="0" width="30" height="20">
<rect x="0.5" y="0.5" width="29" height="19" fill="white"/>
</mask>
<g mask="url(#mask0_523_16489)">
<path d="M-0.0620961 24.906L0.203249 25.3877L0.657595 25.0779L32.224 3.54768L32.5742 3.30881L32.3958 2.92424L30.2735 -1.65178L30.0279 -2.18143L29.5423 -1.85725L-2.49882 19.5341L-2.88066 19.7891L-2.65915 20.1912L-0.0620961 24.906Z" stroke="#F7FCFF"/>
<path d="M4.97288 10.3613L4.72575 10.3991L4.81196 10.9627L5.1681 10.5175L4.97288 10.3613ZM6.14565 8.89519L6.34088 8.73903L6.14565 8.49497L5.95043 8.73903L6.14565 8.89519ZM4.6888 8.50403L4.93592 8.46624L4.88872 8.15761L4.59788 8.27115L4.6888 8.50403ZM2.94157 9.18615L2.70857 9.09555L2.50231 9.62601L3.03249 9.41903L2.94157 9.18615ZM3.62231 7.43538L3.85531 7.52598L3.96823 7.23558L3.66026 7.18828L3.62231 7.43538ZM1.7688 7.15073L1.61225 6.95581L1.16928 7.31159L1.73085 7.39783L1.7688 7.15073ZM3.23195 5.97557L3.3885 6.17049L3.63118 5.97557L3.3885 5.78066L3.23195 5.97557ZM1.7688 4.80042L1.73085 4.55332L1.16928 4.63956L1.61225 4.99534L1.7688 4.80042ZM3.62231 4.51577L3.66026 4.76287L3.96823 4.71557L3.85531 4.42517L3.62231 4.51577ZM2.94157 2.765L3.03249 2.53211L2.50231 2.32513L2.70857 2.85559L2.94157 2.765ZM4.6888 3.44711L4.59788 3.67999L4.88872 3.79354L4.93592 3.48491L4.6888 3.44711ZM4.97288 1.58984L5.1681 1.43368L4.81196 0.988452L4.72575 1.55204L4.97288 1.58984ZM6.14565 3.05596L5.95043 3.21212L6.14565 3.45618L6.34088 3.21212L6.14565 3.05596ZM7.31842 1.58984L7.56555 1.55204L7.47935 0.988452L7.1232 1.43368L7.31842 1.58984ZM7.6025 3.44711L7.35538 3.48491L7.40258 3.79354L7.69342 3.67999L7.6025 3.44711ZM9.34973 2.765L9.58274 2.85559L9.78899 2.32513L9.25881 2.53211L9.34973 2.765ZM8.66899 4.51577L8.43599 4.42517L8.32307 4.71557L8.63104 4.76287L8.66899 4.51577ZM10.5225 4.80042L10.6791 4.99534L11.122 4.63956L10.5605 4.55332L10.5225 4.80042ZM9.05936 5.97557L8.90281 5.78066L8.66012 5.97557L8.90281 6.17049L9.05936 5.97557ZM10.5225 7.15073L10.5605 7.39783L11.122 7.31159L10.6791 6.95581L10.5225 7.15073ZM8.66899 7.43538L8.63104 7.18828L8.32307 7.23558L8.43599 7.52598L8.66899 7.43538ZM9.34973 9.18615L9.25881 9.41903L9.78899 9.62601L9.58274 9.09555L9.34973 9.18615ZM7.6025 8.50403L7.69342 8.27115L7.40258 8.15761L7.35538 8.46624L7.6025 8.50403ZM7.31842 10.3613L7.1232 10.5175L7.47935 10.9627L7.56555 10.3991L7.31842 10.3613ZM5.1681 10.5175L6.34088 9.05135L5.95043 8.73903L4.77765 10.2051L5.1681 10.5175ZM4.44167 8.54183L4.72575 10.3991L5.22 10.3235L4.93592 8.46624L4.44167 8.54183ZM3.03249 9.41903L4.77972 8.73692L4.59788 8.27115L2.85066 8.95327L3.03249 9.41903ZM3.3893 7.34478L2.70857 9.09555L3.17458 9.27675L3.85531 7.52598L3.3893 7.34478ZM1.73085 7.39783L3.58436 7.68248L3.66026 7.18828L1.80675 6.90362L1.73085 7.39783ZM3.0754 5.78066L1.61225 6.95581L1.92535 7.34564L3.3885 6.17049L3.0754 5.78066ZM1.61225 4.99534L3.0754 6.17049L3.3885 5.78066L1.92535 4.60551L1.61225 4.99534ZM3.58436 4.26866L1.73085 4.55332L1.80675 5.04752L3.66026 4.76287L3.58436 4.26866ZM2.70857 2.85559L3.3893 4.60636L3.85531 4.42517L3.17458 2.6744L2.70857 2.85559ZM4.77972 3.21423L3.03249 2.53211L2.85066 2.99788L4.59788 3.67999L4.77972 3.21423ZM4.72575 1.55204L4.44167 3.40931L4.93592 3.48491L5.22 1.62764L4.72575 1.55204ZM6.34088 2.89979L5.1681 1.43368L4.77765 1.74601L5.95043 3.21212L6.34088 2.89979ZM7.1232 1.43368L5.95043 2.89979L6.34088 3.21212L7.51365 1.74601L7.1232 1.43368ZM7.84963 3.40931L7.56555 1.55204L7.0713 1.62764L7.35538 3.48491L7.84963 3.40931ZM9.25881 2.53211L7.51159 3.21423L7.69342 3.67999L9.44065 2.99788L9.25881 2.53211ZM8.902 4.60636L9.58274 2.85559L9.11672 2.6744L8.43599 4.42517L8.902 4.60636ZM10.5605 4.55332L8.70694 4.26866L8.63104 4.76287L10.4846 5.04752L10.5605 4.55332ZM9.21591 6.17049L10.6791 4.99534L10.366 4.60551L8.90281 5.78066L9.21591 6.17049ZM10.6791 6.95581L9.21591 5.78066L8.90281 6.17049L10.366 7.34564L10.6791 6.95581ZM8.70694 7.68248L10.5605 7.39783L10.4846 6.90362L8.63104 7.18828L8.70694 7.68248ZM9.58274 9.09555L8.902 7.34478L8.43599 7.52598L9.11672 9.27675L9.58274 9.09555ZM7.51159 8.73692L9.25881 9.41903L9.44065 8.95327L7.69342 8.27115L7.51159 8.73692ZM7.56555 10.3991L7.84963 8.54183L7.35538 8.46624L7.0713 10.3235L7.56555 10.3991ZM5.95043 9.05135L7.1232 10.5175L7.51365 10.2051L6.34088 8.73903L5.95043 9.05135ZM8.16128 5.97556C8.16128 7.09177 7.25837 7.99578 6.14565 7.99578V8.49578C7.53547 8.49578 8.66128 7.36696 8.66128 5.97556H8.16128ZM6.14565 3.95534C7.25837 3.95534 8.16128 4.85934 8.16128 5.97556H8.66128C8.66128 4.58416 7.53547 3.45534 6.14565 3.45534V3.95534ZM4.13003 5.97556C4.13003 4.85934 5.03293 3.95534 6.14565 3.95534V3.45534C4.75583 3.45534 3.63003 4.58416 3.63003 5.97556H4.13003ZM6.14565 7.99578C5.03293 7.99578 4.13003 7.09177 4.13003 5.97556H3.63003C3.63003 7.36696 4.75583 8.49578 6.14565 8.49578V7.99578ZM6.14565 8.04171C7.28521 8.04171 8.20815 7.11618 8.20815 5.97553H7.70815C7.70815 6.84099 7.00811 7.54171 6.14565 7.54171V8.04171ZM4.08315 5.97553C4.08315 7.11618 5.00608 8.04171 6.14565 8.04171V7.54171C5.28318 7.54171 4.58315 6.84099 4.58315 5.97553H4.08315ZM6.14565 3.90936C5.00608 3.90936 4.08315 4.8349 4.08315 5.97553H4.58315C4.58315 5.11008 5.28318 4.40936 6.14565 4.40936V3.90936ZM8.20815 5.97553C8.20815 4.8349 7.28521 3.90936 6.14565 3.90936V4.40936C7.00811 4.40936 7.70815 5.11008 7.70815 5.97553H8.20815Z" fill="white"/>
</g>
<rect x="1" y="1" width="28" height="18" stroke="white"/>
</svg>
