<svg width="20" height="20" viewBox="0 0 20 20" fill="none" xmlns="http://www.w3.org/2000/svg">
<path d="M10.25 13.2969C11.9327 13.2969 13.2969 11.9327 13.2969 10.25C13.2969 8.56726 11.9327 7.20312 10.25 7.20312C8.56726 7.20312 7.20312 8.56726 7.20312 10.25C7.20312 11.9327 8.56726 13.2969 10.25 13.2969Z" stroke="white" stroke-width="2" stroke-miterlimit="10"/>
<path d="M13.6016 3.24219H6.89844C4.87915 3.24219 3.24219 4.87915 3.24219 6.89844V13.6016C3.24219 15.6209 4.87915 17.2578 6.89844 17.2578H13.6016C15.6209 17.2578 17.2578 15.6209 17.2578 13.6016V6.89844C17.2578 4.87915 15.6209 3.24219 13.6016 3.24219Z" stroke="white" stroke-width="2" stroke-linecap="round" stroke-linejoin="round"/>
<path d="M14.2109 7.20312C14.7158 7.20312 15.125 6.79389 15.125 6.28906C15.125 5.78424 14.7158 5.375 14.2109 5.375C13.7061 5.375 13.2969 5.78424 13.2969 6.28906C13.2969 6.79389 13.7061 7.20312 14.2109 7.20312Z" fill="white"/>
</svg>
