<svg width="30" height="51" viewBox="0 0 30 51" fill="none" xmlns="http://www.w3.org/2000/svg">
<path d="M10.9519 29.565H16.6102C18.5585 29.565 19.7949 28.3761 19.7949 26.5216C19.7949 24.3096 18.0123 23.6915 16.1101 23.6915H10.9519V29.565ZM10.9519 21.7891H15.4699C18.0356 21.7891 19.0824 20.8617 19.0824 19.0778C19.0824 16.7233 17.4194 16.391 15.4699 16.391H10.9519V21.7891ZM8.69531 14.4885H14.8503C16.3485 14.4885 18.3209 14.4885 19.3429 15.1068C20.46 15.7725 21.3386 16.9853 21.3386 18.6505C21.3386 20.4575 20.389 21.8129 18.8201 22.4546V22.5024C20.9124 22.9301 22.0523 24.4999 22.0523 26.5932C22.0523 29.0891 20.2694 31.4676 16.895 31.4676H8.69531V14.4885Z" fill="white"/>
<path d="M14.9159 8.10156C6.70567 8.10156 0.0493164 14.7619 0.0493164 22.978C0.0493164 31.1934 6.70567 37.8541 14.9159 37.8541C23.1288 37.8541 29.7854 31.1934 29.7854 22.978C29.7854 14.7619 23.1288 8.10156 14.9159 8.10156ZM27.8248 22.9851C27.8248 30.1183 22.0465 35.9007 14.9159 35.9007C7.78812 35.9007 2.00946 30.1183 2.00946 22.9851C2.00946 15.8528 7.78812 10.0715 14.9159 10.0715C22.0465 10.0715 27.8248 15.8528 27.8248 22.9851Z" fill="white"/>
<path d="M29.755 40.9922H0.0803223V42.944H29.755V40.9922Z" fill="white"/>
<path d="M27.9051 38.5478C27.9525 38.441 28.0168 38.3507 28.0966 38.2692C28.1774 38.1894 28.2725 38.1301 28.3804 38.0837C28.4872 38.0379 28.6034 38.0172 28.7217 38.0172C28.8447 38.0172 28.9586 38.0379 29.0677 38.0837C29.173 38.1301 29.2659 38.1894 29.3451 38.2692C29.4249 38.3507 29.4914 38.441 29.5368 38.5478C29.5858 38.656 29.6078 38.7734 29.6078 38.8997C29.6078 39.027 29.5858 39.144 29.5368 39.2509C29.4914 39.3606 29.4249 39.4532 29.3451 39.5332C29.2659 39.6152 29.173 39.6748 29.0677 39.7206C28.9586 39.7645 28.8447 39.7862 28.7217 39.7862C28.6034 39.7862 28.4872 39.7645 28.3804 39.7206C28.2725 39.6748 28.1774 39.6152 28.0966 39.5332C28.0168 39.4532 27.9525 39.3606 27.9051 39.2509C27.8559 39.144 27.8362 39.027 27.8362 38.8997C27.8362 38.7734 27.8559 38.656 27.9051 38.5478ZM28.0514 39.1983C28.086 39.2922 28.137 39.3729 28.2036 39.4409C28.2675 39.5083 28.345 39.5621 28.435 39.6012C28.5222 39.6395 28.6202 39.6569 28.7217 39.6569C28.8256 39.6569 28.9218 39.6395 29.0083 39.6012C29.0963 39.5621 29.173 39.5083 29.2399 39.4409C29.303 39.3729 29.3553 39.2922 29.3913 39.1983C29.4293 39.107 29.4482 39.0061 29.4482 38.8997C29.4482 38.7909 29.4293 38.6941 29.3913 38.6019C29.3553 38.509 29.303 38.4303 29.2399 38.3623C29.173 38.296 29.0963 38.2433 29.0083 38.2041C28.9218 38.167 28.8256 38.1461 28.7217 38.1461C28.6202 38.1461 28.5222 38.167 28.435 38.2041C28.345 38.2433 28.2675 38.296 28.2036 38.3623C28.137 38.4303 28.086 38.509 28.0514 38.6019C28.0135 38.6941 27.9954 38.7909 27.9954 38.8997C27.9954 39.0061 28.0135 39.107 28.0514 39.1983ZM28.778 38.3832C28.901 38.3832 28.9908 38.4079 29.0499 38.4558C29.1094 38.5064 29.1399 38.5795 29.1399 38.6792C29.1399 38.7734 29.1123 38.8399 29.062 38.8855C29.0083 38.9279 28.9447 38.9539 28.8661 38.9627L29.1616 39.4185H28.9908L28.7086 38.9724H28.5394V39.4185H28.3772V38.3832H28.778ZM28.7071 38.8437C28.7436 38.8437 28.778 38.8418 28.8104 38.8399C28.8403 38.8383 28.8711 38.8313 28.8954 38.8204C28.9218 38.8075 28.9417 38.7909 28.9563 38.7689C28.9717 38.7449 28.9774 38.7146 28.9774 38.6723C28.9774 38.6377 28.9717 38.6089 28.9579 38.5904C28.9447 38.5684 28.9269 38.5538 28.9055 38.5433C28.8841 38.5306 28.8616 38.5235 28.833 38.5184C28.8056 38.5168 28.7796 38.5138 28.7515 38.5138H28.5394V38.8437H28.7071Z" fill="white"/>
<path d="M3.67575 1.56035C3.60511 1.44755 3.51765 1.34863 3.41238 1.26344C3.30713 1.1781 3.18832 1.1118 3.05563 1.0639C2.92247 1.01646 2.78369 0.992598 2.63836 0.992598C2.37282 0.992598 2.1472 1.04393 1.9618 1.14674C1.77656 1.24971 1.62609 1.38748 1.51102 1.56035C1.39563 1.73321 1.31191 1.93012 1.2592 2.15073C1.20634 2.3715 1.18045 2.5996 1.18045 2.83519C1.18045 3.06048 1.20634 3.27999 1.2592 3.49298C1.31191 3.70609 1.39563 3.89799 1.51102 4.06853C1.62609 4.23874 1.77656 4.37526 1.9618 4.47824C2.1472 4.58089 2.37282 4.63223 2.63836 4.63223C2.99918 4.63223 3.2811 4.52223 3.48365 4.30162C3.68666 4.08086 3.81062 3.79018 3.85585 3.42947H4.99832C4.96822 3.76506 4.89057 4.06853 4.76553 4.33891C4.64001 4.60976 4.4744 4.84068 4.26936 5.0307C4.06385 5.22151 3.82341 5.36693 3.54774 5.46709C3.27221 5.56725 2.96893 5.61765 2.63836 5.61765C2.22735 5.61765 1.8578 5.54604 1.52973 5.40312C1.20166 5.26037 0.924583 5.06347 0.699419 4.81274C0.474104 4.56217 0.300876 4.26777 0.180658 3.92936C0.060278 3.5911 0.000244141 3.22618 0.000244141 2.83519C0.000244141 2.43405 0.060278 2.06165 0.180659 1.71808C0.300877 1.37484 0.474106 1.07529 0.69942 0.819724C0.924583 0.563849 1.20166 0.36352 1.52973 0.217956C1.8578 0.0727056 2.22735 0 2.63836 0C2.93385 0 3.21342 0.0427477 3.47632 0.127775C3.73937 0.213118 3.97497 0.337151 4.18283 0.500198C4.39067 0.663084 4.56235 0.864813 4.69753 1.1054C4.83289 1.34597 4.91801 1.62198 4.9531 1.93246H3.81062C3.79067 1.79734 3.7456 1.67316 3.67575 1.56035Z" fill="white"/>
<path d="M7.74389 2.51934C7.61603 2.37909 7.42174 2.30871 7.16119 2.30871C6.99108 2.30871 6.84934 2.33773 6.73676 2.39515C6.62402 2.45288 6.53373 2.52419 6.46622 2.60936C6.39855 2.69486 6.35084 2.78488 6.32324 2.88053C6.2958 2.9757 6.27942 3.06058 6.27459 3.13593H8.01068C7.96079 2.86492 7.87159 2.6596 7.74389 2.51934ZM6.53764 4.56476C6.69794 4.72 6.92839 4.7977 7.22902 4.7977C7.44467 4.7977 7.6299 4.74387 7.7852 4.6359C7.94035 4.52841 8.03562 4.41419 8.07086 4.29391H9.01048C8.85986 4.76025 8.62939 5.09382 8.31878 5.29415C8.00803 5.49464 7.63225 5.59496 7.19144 5.59496C6.88567 5.59496 6.61015 5.54612 6.36488 5.44846C6.11913 5.35048 5.91128 5.21147 5.74086 5.0308C5.57074 4.85058 5.43882 4.63481 5.34621 4.38425C5.25343 4.13368 5.20728 3.85784 5.20728 3.55703C5.20728 3.26652 5.25499 2.99551 5.3501 2.74494C5.44522 2.49407 5.58071 2.27735 5.75583 2.09434C5.93155 1.91149 6.14064 1.76732 6.38358 1.66217C6.62667 1.55669 6.89565 1.50427 7.19143 1.50427C7.52216 1.50427 7.81016 1.5681 8.0559 1.69587C8.30116 1.82381 8.50309 1.99543 8.66074 2.21089C8.81853 2.42667 8.93267 2.67224 9.00284 2.94808C9.07254 3.22361 9.0978 3.5121 9.07767 3.81274H6.27459C6.28956 4.15864 6.37703 4.40937 6.53764 4.56476Z" fill="white"/>
<path d="M10.5732 1.60943V2.33149H10.5884C10.6384 2.21105 10.7059 2.09948 10.791 1.99667C10.8763 1.89401 10.9741 1.80617 11.0842 1.73331C11.1944 1.66092 11.3123 1.60428 11.4378 1.56402C11.5629 1.52409 11.6931 1.50427 11.8284 1.50427C11.8986 1.50427 11.9759 1.51675 12.0615 1.54171V2.53416C12.011 2.52417 11.9511 2.51559 11.8808 2.50795C11.8108 2.50061 11.743 2.49671 11.6781 2.49671C11.4826 2.49671 11.3174 2.52947 11.1822 2.59454C11.0466 2.6596 10.9376 2.74853 10.8552 2.86133C10.7725 2.97413 10.7134 3.10582 10.6784 3.25622C10.6434 3.40661 10.6259 3.56967 10.6259 3.74488V5.49729H9.55859V1.60943H10.5732Z" fill="white"/>
<path d="M14.9174 1.60926V2.32352H14.1354V4.2485C14.1354 4.42947 14.1657 4.54945 14.226 4.60968C14.2861 4.6699 14.4063 4.70001 14.5863 4.70001C14.6464 4.70001 14.7043 4.69752 14.7591 4.69237C14.8142 4.68753 14.8669 4.68005 14.9174 4.6699V5.49712C14.8272 5.51225 14.7264 5.52208 14.6163 5.52692C14.5064 5.53207 14.3987 5.53472 14.2932 5.53472C14.1281 5.53472 13.9711 5.52349 13.8234 5.50071C13.6756 5.4784 13.5457 5.43471 13.4329 5.36934C13.3201 5.30397 13.2313 5.21144 13.1659 5.09084C13.1006 4.9707 13.0685 4.81265 13.0685 4.61748V2.32352H12.4221V1.60926H13.0685V0.443481H14.1354V1.60926H14.9174Z" fill="white"/>
<path d="M16.6066 5.49711H15.5393V1.60926H16.6066V5.49711ZM15.5394 0.127686H16.6068V1.00764H15.5394V0.127686Z" fill="white"/>
<path d="M17.0291 2.3235V1.60925H17.6678V1.30828C17.6678 0.962541 17.7756 0.679211 17.9911 0.458914C18.2064 0.23814 18.5324 0.127686 18.9682 0.127686C19.063 0.127686 19.1587 0.131428 19.2539 0.139074C19.3486 0.146559 19.4415 0.153111 19.5315 0.157796V0.955055C19.4062 0.939762 19.276 0.932277 19.1408 0.932277C18.9958 0.932277 18.8914 0.96613 18.8291 1.03385C18.7665 1.10156 18.7353 1.21561 18.7353 1.37615V1.60925H19.4714V2.3235H18.7353V5.4971H17.6678V2.3235H17.0291Z" fill="white"/>
<path d="M21.2632 5.49711H20.1958V1.60926H21.2632V5.49711ZM20.1958 0.127686H21.2632V1.00764H20.1958V0.127686Z" fill="white"/>
<path d="M24.1518 2.51934C24.0242 2.37909 23.8297 2.30871 23.5697 2.30871C23.399 2.30871 23.258 2.33773 23.1449 2.39515C23.032 2.45288 22.9421 2.52419 22.8744 2.60936C22.8067 2.69486 22.759 2.78488 22.7314 2.88053C22.7041 2.9757 22.6877 3.06058 22.6829 3.13593H24.4185C24.3691 2.86492 24.28 2.6596 24.1518 2.51934ZM22.9457 4.56476C23.1063 4.72 23.3369 4.7977 23.6369 4.7977C23.8525 4.7977 24.0379 4.74387 24.1933 4.6359C24.3487 4.52841 24.4441 4.41419 24.4789 4.29391H25.4182C25.2681 4.76025 25.0374 5.09382 24.7274 5.29415C24.4159 5.49464 24.0404 5.59496 23.5996 5.59496C23.2935 5.59496 23.0182 5.54612 22.7729 5.44846C22.5274 5.35048 22.3191 5.21147 22.1492 5.0308C21.9787 4.85058 21.8471 4.63481 21.7544 4.38425C21.662 4.13368 21.6152 3.85784 21.6152 3.55703C21.6152 3.26652 21.6633 2.99551 21.7583 2.74494C21.8535 2.49407 21.9884 2.27735 22.1641 2.09434C22.3395 1.91149 22.5487 1.76732 22.7916 1.66217C23.0345 1.55669 23.3039 1.50427 23.5996 1.50427C23.9303 1.50427 24.2184 1.5681 24.464 1.69587C24.7095 1.82381 24.9111 1.99543 25.069 2.21089C25.2267 2.42667 25.3406 2.67224 25.4104 2.94808C25.4811 3.22361 25.5058 3.5121 25.486 3.81274H22.6829C22.6977 4.15864 22.7855 4.40937 22.9457 4.56476Z" fill="white"/>
<path d="M28.6805 3.07911C28.6506 2.93151 28.599 2.80124 28.5267 2.68812C28.454 2.57548 28.3601 2.4842 28.2448 2.41369C28.1294 2.34348 27.9844 2.30853 27.809 2.30853C27.6337 2.30853 27.4856 2.34348 27.3655 2.41369C27.2452 2.4842 27.1485 2.57658 27.0757 2.69218C27.0033 2.80747 26.951 2.939 26.9185 3.08691C26.8856 3.23481 26.8699 3.38896 26.8699 3.54936C26.8699 3.69961 26.887 3.85 26.922 4.00057C26.957 4.15097 27.0136 4.28514 27.0911 4.40294C27.1691 4.52105 27.2663 4.6159 27.3846 4.68861C27.502 4.76147 27.6438 4.79751 27.809 4.79751C27.9844 4.79751 28.1308 4.76287 28.2487 4.69235C28.3662 4.62214 28.4604 4.52822 28.5306 4.41028C28.6003 4.29263 28.6506 4.15845 28.6805 4.00821C28.7107 3.85766 28.726 3.70225 28.726 3.54203C28.726 3.38163 28.7107 3.22733 28.6805 3.07911ZM28.726 5.00065C28.6003 5.21144 28.4362 5.36308 28.2332 5.45561C28.0307 5.54844 27.8016 5.59477 27.5459 5.59477C27.2548 5.59477 26.9997 5.5386 26.7796 5.4255C26.5589 5.313 26.3769 5.16009 26.2343 4.96695C26.0913 4.77411 25.9834 4.55225 25.9111 4.30153C25.8386 4.05096 25.8025 3.79009 25.8025 3.51939C25.8025 3.25884 25.8386 3.00688 25.9111 2.76364C25.9834 2.52041 26.0913 2.30619 26.2343 2.12037C26.3769 1.93533 26.5565 1.78602 26.7716 1.67306C26.9872 1.56025 27.2377 1.50409 27.5235 1.50409C27.7539 1.50409 27.973 1.55262 28.1805 1.65059C28.3887 1.74826 28.5529 1.89242 28.6733 2.08293H28.6881V0.127686H29.7553V5.4971H28.7408V5.00065H28.726Z" fill="white"/>
<path d="M2.68333 46.776C2.62955 46.4 2.26998 46.1139 1.85708 46.1139C1.11129 46.1139 0.830311 46.75 0.830311 47.4119C0.830311 48.0416 1.11129 48.6772 1.85708 48.6772C2.36477 48.6772 2.652 48.3277 2.71405 47.8297H3.51988C3.43474 48.7727 2.78375 49.3761 1.85708 49.3761C0.687946 49.3761 0 48.5022 0 47.412C0 46.2888 0.687946 45.415 1.85708 45.415C2.68817 45.415 3.3864 45.9025 3.48762 46.776H2.68333Z" fill="white"/>
<path d="M5.25464 48.7935C5.76795 48.7935 5.92122 48.3538 5.92122 47.9201C5.92122 47.4806 5.76795 47.0411 5.25464 47.0411C4.74678 47.0411 4.59242 47.4806 4.59242 47.9201C4.59242 48.3538 4.74678 48.7935 5.25464 48.7935ZM5.25464 46.4746C6.11754 46.4746 6.6731 47.0457 6.6731 47.9201C6.6731 48.7884 6.11754 49.3604 5.25464 49.3604C4.3972 49.3604 3.8418 48.7884 3.8418 47.9201C3.8418 47.0457 4.3972 46.4746 5.25464 46.4746Z" fill="white"/>
<path d="M7.13672 46.5437H7.85024V47.0519H7.86131C7.99837 46.7081 8.36916 46.47 8.73512 46.47C8.78783 46.47 8.85082 46.48 8.89931 46.4958V47.1948C8.8293 47.1791 8.7189 47.169 8.62925 47.169C8.07805 47.169 7.8872 47.5663 7.8872 48.0476V49.2816H7.13672V46.5437Z" fill="white"/>
<path d="M11.2245 47.9257C11.2245 47.4905 11.0495 47.0411 10.5684 47.0411C10.0763 47.0411 9.91785 47.4808 9.91785 47.9257C9.91785 48.37 10.0869 48.7937 10.5739 48.7937C11.0664 48.7937 11.2245 48.37 11.2245 47.9257ZM9.19263 46.5485H9.90739V46.8977H9.91784C10.0975 46.607 10.3936 46.4747 10.7321 46.4747C11.5903 46.4747 11.9756 47.1681 11.9756 47.9462C11.9756 48.6771 11.5743 49.3604 10.7746 49.3604C10.4468 49.3604 10.1349 49.2175 9.95479 48.9474H9.94372V50.25H9.19263V46.5485Z" fill="white"/>
<path d="M13.6254 48.7935C14.1388 48.7935 14.2925 48.3538 14.2925 47.9201C14.2925 47.4806 14.1388 47.0411 13.6254 47.0411C13.118 47.0411 12.9641 47.4806 12.9641 47.9201C12.9641 48.3538 13.118 48.7935 13.6254 48.7935ZM13.6254 46.4746C14.4884 46.4746 15.045 47.0457 15.045 47.9201C15.045 48.7884 14.4884 49.3604 13.6254 49.3604C12.7685 49.3604 12.2131 48.7884 12.2131 47.9201C12.2131 47.0457 12.7685 46.4746 13.6254 46.4746Z" fill="white"/>
<path d="M15.5078 46.5437H16.222V47.0519H16.2335C16.3702 46.7081 16.7408 46.47 17.1059 46.47C17.1587 46.47 17.2226 46.48 17.2703 46.4958V47.1948C17.2014 47.1791 17.09 47.169 17.0003 47.169C16.4499 47.169 16.2592 47.5663 16.2592 48.0476V49.2816H15.5078V46.5437Z" fill="white"/>
<path d="M19.2282 47.9461C19.1003 48.0581 18.8364 48.0621 18.6031 48.1053C18.3703 48.1519 18.1585 48.2327 18.1585 48.5077C18.1585 48.7884 18.3758 48.8568 18.6197 48.8568C19.2062 48.8568 19.2282 48.3914 19.2282 48.2269V47.9461ZM17.4914 47.3905C17.5344 46.6859 18.1637 46.4746 18.7778 46.4746C19.3226 46.4746 19.9795 46.5962 19.9795 47.2521V48.677C19.9795 48.9264 20.0052 49.1747 20.0753 49.2862H19.3122C19.2865 49.2011 19.2644 49.1114 19.2587 49.021C19.0212 49.2705 18.6723 49.3604 18.3386 49.3604C17.8198 49.3604 17.4075 49.1011 17.4075 48.5391C17.4075 47.9201 17.8738 47.772 18.3386 47.7081C18.7992 47.639 19.2282 47.6551 19.2282 47.3476C19.2282 47.0252 19.0047 46.9774 18.7411 46.9774C18.455 46.9774 18.2702 47.0936 18.2431 47.3905H17.4914Z" fill="white"/>
<path d="M21.4971 46.5486H22.0478V47.0515H21.4971V48.4063C21.4971 48.6613 21.5611 48.7247 21.8143 48.7247C21.894 48.7247 21.9684 48.7193 22.0478 48.7041V49.2918C21.9201 49.3131 21.7557 49.3182 21.6078 49.3182C21.1485 49.3182 20.7463 49.2116 20.7463 48.6665V47.0515H20.2905V46.5486H20.7463V45.7274H21.4971V46.5486Z" fill="white"/>
<path d="M22.6143 46.5485H23.3658V49.2863H22.6143V46.5485ZM23.3658 46.1247H22.6143V45.5049H23.3658V46.1247Z" fill="white"/>
<path d="M25.2828 48.7935C25.7974 48.7935 25.9504 48.3538 25.9504 47.9201C25.9504 47.4806 25.7974 47.0411 25.2828 47.0411C24.7751 47.0411 24.6215 47.4806 24.6215 47.9201C24.6215 48.3538 24.7751 48.7935 25.2828 48.7935ZM25.2828 46.4746C26.146 46.4746 26.7027 47.0457 26.7027 47.9201C26.7027 48.7884 26.146 49.3604 25.2828 49.3604C24.4264 49.3604 23.8711 48.7884 23.8711 47.9201C23.8711 47.0457 24.4264 46.4746 25.2828 46.4746Z" fill="white"/>
<path d="M27.1887 46.5485H27.9034V46.9301H27.919C28.1096 46.6227 28.4377 46.4747 28.7556 46.4747C29.5546 46.4747 29.7553 46.9246 29.7553 47.6025V49.2864H29.0041V47.7398C29.0041 47.29 28.8713 47.0669 28.5228 47.0669C28.1144 47.0669 27.9401 47.2951 27.9401 47.8515V49.2864H27.1887V46.5485Z" fill="white"/>
<path d="M10.9519 29.565H16.6102C18.5585 29.565 19.7949 28.3761 19.7949 26.5216C19.7949 24.3096 18.0123 23.6915 16.1101 23.6915H10.9519V29.565ZM10.9519 21.7891H15.4699C18.0356 21.7891 19.0824 20.8617 19.0824 19.0778C19.0824 16.7233 17.4194 16.391 15.4699 16.391H10.9519V21.7891ZM8.69531 14.4885H14.8503C16.3485 14.4885 18.3209 14.4885 19.3429 15.1068C20.46 15.7725 21.3386 16.9853 21.3386 18.6505C21.3386 20.4575 20.389 21.8129 18.8201 22.4546V22.5024C20.9124 22.9301 22.0523 24.4999 22.0523 26.5932C22.0523 29.0891 20.2694 31.4676 16.895 31.4676H8.69531V14.4885Z" fill="white"/>
<path d="M14.9159 8.10156C6.70567 8.10156 0.0493164 14.7619 0.0493164 22.978C0.0493164 31.1934 6.70567 37.8541 14.9159 37.8541C23.1288 37.8541 29.7854 31.1934 29.7854 22.978C29.7854 14.7619 23.1288 8.10156 14.9159 8.10156ZM27.8248 22.9851C27.8248 30.1183 22.0465 35.9007 14.9159 35.9007C7.78812 35.9007 2.00946 30.1183 2.00946 22.9851C2.00946 15.8528 7.78812 10.0715 14.9159 10.0715C22.0465 10.0715 27.8248 15.8528 27.8248 22.9851Z" fill="white"/>
<path d="M29.755 40.9922H0.0803223V42.944H29.755V40.9922Z" fill="white"/>
<path d="M27.9051 38.5478C27.9525 38.441 28.0168 38.3507 28.0966 38.2692C28.1774 38.1894 28.2725 38.1301 28.3804 38.0837C28.4872 38.0379 28.6034 38.0172 28.7217 38.0172C28.8447 38.0172 28.9586 38.0379 29.0677 38.0837C29.173 38.1301 29.2659 38.1894 29.3451 38.2692C29.4249 38.3507 29.4914 38.441 29.5368 38.5478C29.5858 38.656 29.6078 38.7734 29.6078 38.8997C29.6078 39.027 29.5858 39.144 29.5368 39.2509C29.4914 39.3606 29.4249 39.4532 29.3451 39.5332C29.2659 39.6152 29.173 39.6748 29.0677 39.7206C28.9586 39.7645 28.8447 39.7862 28.7217 39.7862C28.6034 39.7862 28.4872 39.7645 28.3804 39.7206C28.2725 39.6748 28.1774 39.6152 28.0966 39.5332C28.0168 39.4532 27.9525 39.3606 27.9051 39.2509C27.8559 39.144 27.8362 39.027 27.8362 38.8997C27.8362 38.7734 27.8559 38.656 27.9051 38.5478ZM28.0514 39.1983C28.086 39.2922 28.137 39.3729 28.2036 39.4409C28.2675 39.5083 28.345 39.5621 28.435 39.6012C28.5222 39.6395 28.6202 39.6569 28.7217 39.6569C28.8256 39.6569 28.9218 39.6395 29.0083 39.6012C29.0963 39.5621 29.173 39.5083 29.2399 39.4409C29.303 39.3729 29.3553 39.2922 29.3913 39.1983C29.4293 39.107 29.4482 39.0061 29.4482 38.8997C29.4482 38.7909 29.4293 38.6941 29.3913 38.6019C29.3553 38.509 29.303 38.4303 29.2399 38.3623C29.173 38.296 29.0963 38.2433 29.0083 38.2041C28.9218 38.167 28.8256 38.1461 28.7217 38.1461C28.6202 38.1461 28.5222 38.167 28.435 38.2041C28.345 38.2433 28.2675 38.296 28.2036 38.3623C28.137 38.4303 28.086 38.509 28.0514 38.6019C28.0135 38.6941 27.9954 38.7909 27.9954 38.8997C27.9954 39.0061 28.0135 39.107 28.0514 39.1983ZM28.778 38.3832C28.901 38.3832 28.9908 38.4079 29.0499 38.4558C29.1094 38.5064 29.1399 38.5795 29.1399 38.6792C29.1399 38.7734 29.1123 38.8399 29.062 38.8855C29.0083 38.9279 28.9447 38.9539 28.8661 38.9627L29.1616 39.4185H28.9908L28.7086 38.9724H28.5394V39.4185H28.3772V38.3832H28.778ZM28.7071 38.8437C28.7436 38.8437 28.778 38.8418 28.8104 38.8399C28.8403 38.8383 28.8711 38.8313 28.8954 38.8204C28.9218 38.8075 28.9417 38.7909 28.9563 38.7689C28.9717 38.7449 28.9774 38.7146 28.9774 38.6723C28.9774 38.6377 28.9717 38.6089 28.9579 38.5904C28.9447 38.5684 28.9269 38.5538 28.9055 38.5433C28.8841 38.5306 28.8616 38.5235 28.833 38.5184C28.8056 38.5168 28.7796 38.5138 28.7515 38.5138H28.5394V38.8437H28.7071Z" fill="white"/>
<path d="M3.67575 1.56035C3.60511 1.44755 3.51765 1.34863 3.41238 1.26344C3.30713 1.1781 3.18832 1.1118 3.05563 1.0639C2.92247 1.01646 2.78369 0.992598 2.63836 0.992598C2.37282 0.992598 2.1472 1.04393 1.9618 1.14674C1.77656 1.24971 1.62609 1.38748 1.51102 1.56035C1.39563 1.73321 1.31191 1.93012 1.2592 2.15073C1.20634 2.3715 1.18045 2.5996 1.18045 2.83519C1.18045 3.06048 1.20634 3.27999 1.2592 3.49298C1.31191 3.70609 1.39563 3.89799 1.51102 4.06853C1.62609 4.23874 1.77656 4.37526 1.9618 4.47824C2.1472 4.58089 2.37282 4.63223 2.63836 4.63223C2.99918 4.63223 3.2811 4.52223 3.48365 4.30162C3.68666 4.08086 3.81062 3.79018 3.85585 3.42947H4.99832C4.96822 3.76506 4.89057 4.06853 4.76553 4.33891C4.64001 4.60976 4.4744 4.84068 4.26936 5.0307C4.06385 5.22151 3.82341 5.36693 3.54774 5.46709C3.27221 5.56725 2.96893 5.61765 2.63836 5.61765C2.22735 5.61765 1.8578 5.54604 1.52973 5.40312C1.20166 5.26037 0.924583 5.06347 0.699419 4.81274C0.474104 4.56217 0.300876 4.26777 0.180658 3.92936C0.060278 3.5911 0.000244141 3.22618 0.000244141 2.83519C0.000244141 2.43405 0.060278 2.06165 0.180659 1.71808C0.300877 1.37484 0.474106 1.07529 0.69942 0.819724C0.924583 0.563849 1.20166 0.36352 1.52973 0.217956C1.8578 0.0727056 2.22735 0 2.63836 0C2.93385 0 3.21342 0.0427477 3.47632 0.127775C3.73937 0.213118 3.97497 0.337151 4.18283 0.500198C4.39067 0.663084 4.56235 0.864813 4.69753 1.1054C4.83289 1.34597 4.91801 1.62198 4.9531 1.93246H3.81062C3.79067 1.79734 3.7456 1.67316 3.67575 1.56035Z" fill="white"/>
<path d="M7.74389 2.51934C7.61603 2.37909 7.42174 2.30871 7.16119 2.30871C6.99108 2.30871 6.84934 2.33773 6.73676 2.39515C6.62402 2.45288 6.53373 2.52419 6.46622 2.60936C6.39855 2.69486 6.35084 2.78488 6.32324 2.88053C6.2958 2.9757 6.27942 3.06058 6.27459 3.13593H8.01068C7.96079 2.86492 7.87159 2.6596 7.74389 2.51934ZM6.53764 4.56476C6.69794 4.72 6.92839 4.7977 7.22902 4.7977C7.44467 4.7977 7.6299 4.74387 7.7852 4.6359C7.94035 4.52841 8.03562 4.41419 8.07086 4.29391H9.01048C8.85986 4.76025 8.62939 5.09382 8.31878 5.29415C8.00803 5.49464 7.63225 5.59496 7.19144 5.59496C6.88567 5.59496 6.61015 5.54612 6.36488 5.44846C6.11913 5.35048 5.91128 5.21147 5.74086 5.0308C5.57074 4.85058 5.43882 4.63481 5.34621 4.38425C5.25343 4.13368 5.20728 3.85784 5.20728 3.55703C5.20728 3.26652 5.25499 2.99551 5.3501 2.74494C5.44522 2.49407 5.58071 2.27735 5.75583 2.09434C5.93155 1.91149 6.14064 1.76732 6.38358 1.66217C6.62667 1.55669 6.89565 1.50427 7.19143 1.50427C7.52216 1.50427 7.81016 1.5681 8.0559 1.69587C8.30116 1.82381 8.50309 1.99543 8.66074 2.21089C8.81853 2.42667 8.93267 2.67224 9.00284 2.94808C9.07254 3.22361 9.0978 3.5121 9.07767 3.81274H6.27459C6.28956 4.15864 6.37703 4.40937 6.53764 4.56476Z" fill="white"/>
<path d="M10.5732 1.60943V2.33149H10.5884C10.6384 2.21105 10.7059 2.09948 10.791 1.99667C10.8763 1.89401 10.9741 1.80617 11.0842 1.73331C11.1944 1.66092 11.3123 1.60428 11.4378 1.56402C11.5629 1.52409 11.6931 1.50427 11.8284 1.50427C11.8986 1.50427 11.9759 1.51675 12.0615 1.54171V2.53416C12.011 2.52417 11.9511 2.51559 11.8808 2.50795C11.8108 2.50061 11.743 2.49671 11.6781 2.49671C11.4826 2.49671 11.3174 2.52947 11.1822 2.59454C11.0466 2.6596 10.9376 2.74853 10.8552 2.86133C10.7725 2.97413 10.7134 3.10582 10.6784 3.25622C10.6434 3.40661 10.6259 3.56967 10.6259 3.74488V5.49729H9.55859V1.60943H10.5732Z" fill="white"/>
<path d="M14.9174 1.60926V2.32352H14.1354V4.2485C14.1354 4.42947 14.1657 4.54945 14.226 4.60968C14.2861 4.6699 14.4063 4.70001 14.5863 4.70001C14.6464 4.70001 14.7043 4.69752 14.7591 4.69237C14.8142 4.68753 14.8669 4.68005 14.9174 4.6699V5.49712C14.8272 5.51225 14.7264 5.52208 14.6163 5.52692C14.5064 5.53207 14.3987 5.53472 14.2932 5.53472C14.1281 5.53472 13.9711 5.52349 13.8234 5.50071C13.6756 5.4784 13.5457 5.43471 13.4329 5.36934C13.3201 5.30397 13.2313 5.21144 13.1659 5.09084C13.1006 4.9707 13.0685 4.81265 13.0685 4.61748V2.32352H12.4221V1.60926H13.0685V0.443481H14.1354V1.60926H14.9174Z" fill="white"/>
<path d="M16.6066 5.49711H15.5393V1.60926H16.6066V5.49711ZM15.5394 0.127686H16.6068V1.00764H15.5394V0.127686Z" fill="white"/>
<path d="M17.0291 2.3235V1.60925H17.6678V1.30828C17.6678 0.962541 17.7756 0.679211 17.9911 0.458914C18.2064 0.23814 18.5324 0.127686 18.9682 0.127686C19.063 0.127686 19.1587 0.131428 19.2539 0.139074C19.3486 0.146559 19.4415 0.153111 19.5315 0.157796V0.955055C19.4062 0.939762 19.276 0.932277 19.1408 0.932277C18.9958 0.932277 18.8914 0.96613 18.8291 1.03385C18.7665 1.10156 18.7353 1.21561 18.7353 1.37615V1.60925H19.4714V2.3235H18.7353V5.4971H17.6678V2.3235H17.0291Z" fill="white"/>
<path d="M21.2632 5.49711H20.1958V1.60926H21.2632V5.49711ZM20.1958 0.127686H21.2632V1.00764H20.1958V0.127686Z" fill="white"/>
<path d="M24.1518 2.51934C24.0242 2.37909 23.8297 2.30871 23.5697 2.30871C23.399 2.30871 23.258 2.33773 23.1449 2.39515C23.032 2.45288 22.9421 2.52419 22.8744 2.60936C22.8067 2.69486 22.759 2.78488 22.7314 2.88053C22.7041 2.9757 22.6877 3.06058 22.6829 3.13593H24.4185C24.3691 2.86492 24.28 2.6596 24.1518 2.51934ZM22.9457 4.56476C23.1063 4.72 23.3369 4.7977 23.6369 4.7977C23.8525 4.7977 24.0379 4.74387 24.1933 4.6359C24.3487 4.52841 24.4441 4.41419 24.4789 4.29391H25.4182C25.2681 4.76025 25.0374 5.09382 24.7274 5.29415C24.4159 5.49464 24.0404 5.59496 23.5996 5.59496C23.2935 5.59496 23.0182 5.54612 22.7729 5.44846C22.5274 5.35048 22.3191 5.21147 22.1492 5.0308C21.9787 4.85058 21.8471 4.63481 21.7544 4.38425C21.662 4.13368 21.6152 3.85784 21.6152 3.55703C21.6152 3.26652 21.6633 2.99551 21.7583 2.74494C21.8535 2.49407 21.9884 2.27735 22.1641 2.09434C22.3395 1.91149 22.5487 1.76732 22.7916 1.66217C23.0345 1.55669 23.3039 1.50427 23.5996 1.50427C23.9303 1.50427 24.2184 1.5681 24.464 1.69587C24.7095 1.82381 24.9111 1.99543 25.069 2.21089C25.2267 2.42667 25.3406 2.67224 25.4104 2.94808C25.4811 3.22361 25.5058 3.5121 25.486 3.81274H22.6829C22.6977 4.15864 22.7855 4.40937 22.9457 4.56476Z" fill="white"/>
<path d="M28.6805 3.07911C28.6506 2.93151 28.599 2.80124 28.5267 2.68812C28.454 2.57548 28.3601 2.4842 28.2448 2.41369C28.1294 2.34348 27.9844 2.30853 27.809 2.30853C27.6337 2.30853 27.4856 2.34348 27.3655 2.41369C27.2452 2.4842 27.1485 2.57658 27.0757 2.69218C27.0033 2.80747 26.951 2.939 26.9185 3.08691C26.8856 3.23481 26.8699 3.38896 26.8699 3.54936C26.8699 3.69961 26.887 3.85 26.922 4.00057C26.957 4.15097 27.0136 4.28514 27.0911 4.40294C27.1691 4.52105 27.2663 4.6159 27.3846 4.68861C27.502 4.76147 27.6438 4.79751 27.809 4.79751C27.9844 4.79751 28.1308 4.76287 28.2487 4.69235C28.3662 4.62214 28.4604 4.52822 28.5306 4.41028C28.6003 4.29263 28.6506 4.15845 28.6805 4.00821C28.7107 3.85766 28.726 3.70225 28.726 3.54203C28.726 3.38163 28.7107 3.22733 28.6805 3.07911ZM28.726 5.00065C28.6003 5.21144 28.4362 5.36308 28.2332 5.45561C28.0307 5.54844 27.8016 5.59477 27.5459 5.59477C27.2548 5.59477 26.9997 5.5386 26.7796 5.4255C26.5589 5.313 26.3769 5.16009 26.2343 4.96695C26.0913 4.77411 25.9834 4.55225 25.9111 4.30153C25.8386 4.05096 25.8025 3.79009 25.8025 3.51939C25.8025 3.25884 25.8386 3.00688 25.9111 2.76364C25.9834 2.52041 26.0913 2.30619 26.2343 2.12037C26.3769 1.93533 26.5565 1.78602 26.7716 1.67306C26.9872 1.56025 27.2377 1.50409 27.5235 1.50409C27.7539 1.50409 27.973 1.55262 28.1805 1.65059C28.3887 1.74826 28.5529 1.89242 28.6733 2.08293H28.6881V0.127686H29.7553V5.4971H28.7408V5.00065H28.726Z" fill="white"/>
<path d="M2.68333 46.776C2.62955 46.4 2.26998 46.1139 1.85708 46.1139C1.11129 46.1139 0.830311 46.75 0.830311 47.4119C0.830311 48.0416 1.11129 48.6772 1.85708 48.6772C2.36477 48.6772 2.652 48.3277 2.71405 47.8297H3.51988C3.43474 48.7727 2.78375 49.3761 1.85708 49.3761C0.687946 49.3761 0 48.5022 0 47.412C0 46.2888 0.687946 45.415 1.85708 45.415C2.68817 45.415 3.3864 45.9025 3.48762 46.776H2.68333Z" fill="white"/>
<path d="M5.25464 48.7935C5.76795 48.7935 5.92122 48.3538 5.92122 47.9201C5.92122 47.4806 5.76795 47.0411 5.25464 47.0411C4.74678 47.0411 4.59242 47.4806 4.59242 47.9201C4.59242 48.3538 4.74678 48.7935 5.25464 48.7935ZM5.25464 46.4746C6.11754 46.4746 6.6731 47.0457 6.6731 47.9201C6.6731 48.7884 6.11754 49.3604 5.25464 49.3604C4.3972 49.3604 3.8418 48.7884 3.8418 47.9201C3.8418 47.0457 4.3972 46.4746 5.25464 46.4746Z" fill="white"/>
<path d="M7.13672 46.5437H7.85024V47.0519H7.86131C7.99837 46.7081 8.36916 46.47 8.73512 46.47C8.78783 46.47 8.85082 46.48 8.89931 46.4958V47.1948C8.8293 47.1791 8.7189 47.169 8.62925 47.169C8.07805 47.169 7.8872 47.5663 7.8872 48.0476V49.2816H7.13672V46.5437Z" fill="white"/>
<path d="M11.2245 47.9257C11.2245 47.4905 11.0495 47.0411 10.5684 47.0411C10.0763 47.0411 9.91785 47.4808 9.91785 47.9257C9.91785 48.37 10.0869 48.7937 10.5739 48.7937C11.0664 48.7937 11.2245 48.37 11.2245 47.9257ZM9.19263 46.5485H9.90739V46.8977H9.91784C10.0975 46.607 10.3936 46.4747 10.7321 46.4747C11.5903 46.4747 11.9756 47.1681 11.9756 47.9462C11.9756 48.6771 11.5743 49.3604 10.7746 49.3604C10.4468 49.3604 10.1349 49.2175 9.95479 48.9474H9.94372V50.25H9.19263V46.5485Z" fill="white"/>
<path d="M13.6254 48.7935C14.1388 48.7935 14.2925 48.3538 14.2925 47.9201C14.2925 47.4806 14.1388 47.0411 13.6254 47.0411C13.118 47.0411 12.9641 47.4806 12.9641 47.9201C12.9641 48.3538 13.118 48.7935 13.6254 48.7935ZM13.6254 46.4746C14.4884 46.4746 15.045 47.0457 15.045 47.9201C15.045 48.7884 14.4884 49.3604 13.6254 49.3604C12.7685 49.3604 12.2131 48.7884 12.2131 47.9201C12.2131 47.0457 12.7685 46.4746 13.6254 46.4746Z" fill="white"/>
<path d="M15.5078 46.5437H16.222V47.0519H16.2335C16.3702 46.7081 16.7408 46.47 17.1059 46.47C17.1587 46.47 17.2226 46.48 17.2703 46.4958V47.1948C17.2014 47.1791 17.09 47.169 17.0003 47.169C16.4499 47.169 16.2592 47.5663 16.2592 48.0476V49.2816H15.5078V46.5437Z" fill="white"/>
<path d="M19.2282 47.9461C19.1003 48.0581 18.8364 48.0621 18.6031 48.1053C18.3703 48.1519 18.1585 48.2327 18.1585 48.5077C18.1585 48.7884 18.3758 48.8568 18.6197 48.8568C19.2062 48.8568 19.2282 48.3914 19.2282 48.2269V47.9461ZM17.4914 47.3905C17.5344 46.6859 18.1637 46.4746 18.7778 46.4746C19.3226 46.4746 19.9795 46.5962 19.9795 47.2521V48.677C19.9795 48.9264 20.0052 49.1747 20.0753 49.2862H19.3122C19.2865 49.2011 19.2644 49.1114 19.2587 49.021C19.0212 49.2705 18.6723 49.3604 18.3386 49.3604C17.8198 49.3604 17.4075 49.1011 17.4075 48.5391C17.4075 47.9201 17.8738 47.772 18.3386 47.7081C18.7992 47.639 19.2282 47.6551 19.2282 47.3476C19.2282 47.0252 19.0047 46.9774 18.7411 46.9774C18.455 46.9774 18.2702 47.0936 18.2431 47.3905H17.4914Z" fill="white"/>
<path d="M21.4971 46.5486H22.0478V47.0515H21.4971V48.4063C21.4971 48.6613 21.5611 48.7247 21.8143 48.7247C21.894 48.7247 21.9684 48.7193 22.0478 48.7041V49.2918C21.9201 49.3131 21.7557 49.3182 21.6078 49.3182C21.1485 49.3182 20.7463 49.2116 20.7463 48.6665V47.0515H20.2905V46.5486H20.7463V45.7274H21.4971V46.5486Z" fill="white"/>
<path d="M22.6143 46.5485H23.3658V49.2863H22.6143V46.5485ZM23.3658 46.1247H22.6143V45.5049H23.3658V46.1247Z" fill="white"/>
<path d="M25.2828 48.7935C25.7974 48.7935 25.9504 48.3538 25.9504 47.9201C25.9504 47.4806 25.7974 47.0411 25.2828 47.0411C24.7751 47.0411 24.6215 47.4806 24.6215 47.9201C24.6215 48.3538 24.7751 48.7935 25.2828 48.7935ZM25.2828 46.4746C26.146 46.4746 26.7027 47.0457 26.7027 47.9201C26.7027 48.7884 26.146 49.3604 25.2828 49.3604C24.4264 49.3604 23.8711 48.7884 23.8711 47.9201C23.8711 47.0457 24.4264 46.4746 25.2828 46.4746Z" fill="white"/>
<path d="M27.1887 46.5485H27.9034V46.9301H27.919C28.1096 46.6227 28.4377 46.4747 28.7556 46.4747C29.5546 46.4747 29.7553 46.9246 29.7553 47.6025V49.2864H29.0041V47.7398C29.0041 47.29 28.8713 47.0669 28.5228 47.0669C28.1144 47.0669 27.9401 47.2951 27.9401 47.8515V49.2864H27.1887V46.5485Z" fill="white"/>
</svg>
