<svg width="52" height="34" viewBox="0 0 52 34" fill="none" xmlns="http://www.w3.org/2000/svg">
<g clip-path="url(#clip0_323_14764)">
<path d="M0.5 0.5H51.5V33.5H0.5V0.5Z" stroke="white"/>
<path d="M0 5.9375H52V27.0625H0V5.9375Z" stroke="white" stroke-width="2"/>
<path d="M43.3565 12.2709L41.1709 13.0637L43.3565 13.8565L45.5422 13.0637L43.3565 12.2709Z" fill="white" stroke="#1B1B1B" stroke-width="0.1"/>
<path d="M41.9188 12.8H10.3362C10.1818 12.8 10.0566 12.9183 10.0566 13.0643C10.0566 13.2102 10.1818 13.3286 10.3362 13.3286H41.9188C42.0732 13.3286 42.1983 13.2102 42.1983 13.0643C42.1983 12.9183 42.0732 12.8 41.9188 12.8Z" fill="#1B1B1B" stroke="#1B1B1B" stroke-width="0.1"/>
<path d="M41.4298 13.3282C41.5583 13.3282 41.6871 13.196 41.6871 13.0639C41.6871 12.9318 41.5584 12.7996 41.4299 12.7996M41.1724 13.3282C41.3009 13.3282 41.4297 13.196 41.4297 13.0639C41.4297 12.9318 41.301 12.7996 41.1725 12.7996M40.915 13.3282C41.0435 13.3282 41.1723 13.196 41.1723 13.0639C41.1723 12.9318 41.0436 12.7996 40.9151 12.7996" fill="#1B1B1B"/>
<path d="M41.4298 13.3282C41.5583 13.3282 41.6871 13.196 41.6871 13.0639C41.6871 12.9318 41.5584 12.7996 41.4299 12.7996M41.1724 13.3282C41.3009 13.3282 41.4297 13.196 41.4297 13.0639C41.4297 12.9318 41.301 12.7996 41.1725 12.7996M40.915 13.3282C41.0435 13.3282 41.1723 13.196 41.1723 13.0639C41.1723 12.9318 41.0436 12.7996 40.9151 12.7996" stroke="#1B1B1B" stroke-width="0.1"/>
<path d="M41.2623 13.8573L39.0767 14.6501L41.2623 15.4429L43.448 14.6501L41.2623 13.8573Z" fill="white" stroke="#1B1B1B" stroke-width="0.1"/>
<path d="M39.8246 14.3864H8.24194C8.08756 14.3864 7.9624 14.5047 7.9624 14.6507C7.9624 14.7966 8.08756 14.9149 8.24194 14.9149H39.8246C39.9789 14.9149 40.1041 14.7966 40.1041 14.6507C40.1041 14.5047 39.9789 14.3864 39.8246 14.3864Z" fill="#1B1B1B" stroke="#1B1B1B" stroke-width="0.1"/>
<path d="M39.3356 14.9145C39.464 14.9145 39.5929 14.7823 39.5929 14.6503C39.5929 14.5182 39.4641 14.386 39.3357 14.386M39.0782 14.9145C39.2066 14.9145 39.3355 14.7823 39.3355 14.6503C39.3355 14.5182 39.2067 14.386 39.0783 14.386M38.8208 14.9145C38.9492 14.9145 39.0781 14.7823 39.0781 14.6503C39.0781 14.5182 38.9493 14.386 38.8209 14.386" fill="#1B1B1B"/>
<path d="M39.3356 14.9145C39.464 14.9145 39.5929 14.7823 39.5929 14.6503C39.5929 14.5182 39.4641 14.386 39.3357 14.386M39.0782 14.9145C39.2066 14.9145 39.3355 14.7823 39.3355 14.6503C39.3355 14.5182 39.2067 14.386 39.0783 14.386M38.8208 14.9145C38.9492 14.9145 39.0781 14.7823 39.0781 14.6503C39.0781 14.5182 38.9493 14.386 38.8209 14.386" stroke="#1B1B1B" stroke-width="0.1"/>
<path d="M47.7161 16.1041H4.76346C4.5535 16.1041 4.3833 16.2816 4.3833 16.5005C4.3833 16.7194 4.5535 16.8969 4.76346 16.8969H47.7161C47.9261 16.8969 48.0963 16.7194 48.0963 16.5005C48.0963 16.2816 47.9261 16.1041 47.7161 16.1041Z" fill="#1B1B1B" stroke="#1B1B1B" stroke-width="0.1"/>
<path d="M38.8569 16.5C36.2855 19.1426 32.8569 24.4285 25.9995 24.4285C19.9995 24.4285 15.7143 19.1429 13.1421 16.5C15.7135 13.8569 19.9989 8.5715 25.9995 8.5715C32.8563 8.5715 36.2847 13.8571 38.8569 16.5Z" fill="#E1E3DE" stroke="#1B1B1B" stroke-width="0.1"/>
<path d="M25.1017 11.3292C25.7858 12.12 25.2146 12.4389 25.9387 12.4907C26.7023 12.5484 26.2694 13.3264 26.9118 13.3535C27.3609 13.3736 26.867 15.2174 27.2992 15.8259C27.7396 16.4602 28.1084 16.0117 28.1162 16.4699C28.1238 16.9439 26.9176 16.8961 26.8965 18.356C26.8611 19.1974 25.8786 19.2512 25.8317 19.7926C25.7734 20.3018 27.7673 20.5876 27.7407 21.0435C27.7133 21.498 25.5877 21.4268 25.4952 21.9451C25.4478 22.4107 28.4153 22.7922 28.654 24.1386C28.2112 24.2874 26.9513 24.4275 25.9991 24.4282C20 24.4327 15.7139 19.1422 13.1426 16.4995C15.714 13.8565 19.9995 8.57077 26 8.57077C26 8.57077 24.219 10.2434 25.1026 11.3287L25.1017 11.3292Z" fill="#1B1B1B"/>
<path d="M18.2539 15.7952V13.6809V15.7952ZM19.5004 13.6809V15.7952V13.6809ZM20.7478 13.6809V15.7952V13.6809Z" fill="#1B1B1B"/>
<path d="M18.2539 15.7952V13.6809M19.5004 13.6809V15.7952M20.7478 13.6809V15.7952" stroke="white" stroke-width="0.5"/>
<path d="M18.2539 19.3194V17.2051V19.3194ZM19.5004 17.2051V19.3194V17.2051ZM20.7478 17.2051V19.3194V17.2051Z" fill="#1B1B1B"/>
<path d="M18.2539 19.3194V17.2051M19.5004 17.2051V19.3194M20.7478 17.2051V19.3194" stroke="white" stroke-width="0.5"/>
<path d="M21.9941 15.7952V13.6809V15.7952ZM23.2406 13.6809V15.7952V13.6809ZM24.488 13.6809V15.7952V13.6809Z" fill="#1B1B1B"/>
<path d="M21.9941 15.7952V13.6809M23.2406 13.6809V15.7952M24.488 13.6809V15.7952" stroke="white" stroke-width="0.5"/>
<path d="M21.9941 19.3194V17.2051V19.3194ZM23.2406 17.2051V19.3194V17.2051ZM24.488 17.2051V19.3194V17.2051Z" fill="#1B1B1B"/>
<path d="M21.9941 19.3194V17.2051M23.2406 17.2051V19.3194M24.488 17.2051V19.3194" stroke="white" stroke-width="0.5"/>
<path d="M27.6821 15.7952V13.6809V15.7952ZM28.9286 13.6809V15.7952V13.6809ZM30.176 13.6809V15.7952V13.6809Z" fill="#1B1B1B"/>
<path d="M27.6821 15.7952V13.6809M28.9286 13.6809V15.7952M30.176 13.6809V15.7952" stroke="#1B1B1B" stroke-width="0.5"/>
<path d="M27.6821 19.3194V17.2051V19.3194ZM28.9286 17.2051V19.3194V17.2051ZM30.176 17.2051V19.3194V17.2051Z" fill="#1B1B1B"/>
<path d="M27.6821 19.3194V17.2051M28.9286 17.2051V19.3194M30.176 17.2051V19.3194" stroke="#1B1B1B" stroke-width="0.5"/>
<path d="M31.4224 15.7952V13.6809V15.7952ZM32.6689 13.6809V15.7952V13.6809ZM33.9163 13.6809V15.7952V13.6809Z" fill="#1B1B1B"/>
<path d="M31.4224 15.7952V13.6809M32.6689 13.6809V15.7952M33.9163 13.6809V15.7952" stroke="#1B1B1B" stroke-width="0.5"/>
<path d="M31.4224 19.3194V17.2051V19.3194ZM32.6689 17.2051V19.3194V17.2051ZM33.9163 17.2051V19.3194V17.2051Z" fill="#1B1B1B"/>
<path d="M31.4224 19.3194V17.2051M32.6689 17.2051V19.3194M33.9163 17.2051V19.3194" stroke="#1B1B1B" stroke-width="0.5"/>
<path d="M45.0213 16.1855C44.6318 16.8789 45.3202 15.9549 47 17.1157C47.3112 17.3313 47.5832 17.9009 47.5832 18.2959C47.5042 18.2416 47.4455 18.1207 47.3585 18.0421C47.2367 18.1676 47.4749 18.743 47.5097 19.0149C47.2471 18.8639 47.2724 18.7924 47.1851 18.6068C47.2025 18.8312 47.1401 19.4491 47.2445 19.6872C47.0375 19.6264 47.0513 19.4552 46.9433 19.4208C47.0168 19.6901 46.8792 19.9833 46.9157 20.2861C46.7948 20.1631 46.6659 20.0667 46.6097 20.017C46.6002 20.1612 46.377 20.5402 46.372 20.6765C46.2694 20.6128 46.2415 20.5135 46.2244 20.4466C46.0969 20.6113 45.6435 21.2197 45.6145 21.4053C45.2652 21.0882 44.3704 20.316 44.254 19.9062C44.151 20.1388 44.0019 20.2174 43.7073 20.3872C43.591 19.7377 43.1557 19.0076 43.3885 18.4508C43.2235 18.5513 43.0877 18.6519 42.9229 18.7756C43.0791 17.8349 43.8757 16.7318 45.0216 16.1855H45.0213Z" fill="#393939" stroke="#1B1B1B" stroke-width="0.1"/>
<path d="M43.5693 19.6191C43.731 19.2868 43.88 19.1815 43.9845 18.9675C44.1691 18.5915 44.1954 18.2923 44.3563 18.3362C44.5171 18.38 44.5169 18.5341 44.3086 18.9038C44.1002 19.2735 44.0012 19.3525 43.5693 19.6191ZM44.6628 20.4109C44.642 20.1579 44.7134 20.0522 44.7005 19.8894C44.6783 19.6027 44.5642 19.406 44.7125 19.392C44.8608 19.378 44.9301 19.4759 44.9306 19.7647C44.931 20.0536 44.8875 20.1295 44.663 20.411L44.6628 20.4109ZM45.4926 20.9067C45.4278 20.5535 45.4764 20.3969 45.4349 20.1694C45.3627 19.769 45.2199 19.5055 45.3573 19.4689C45.4947 19.4323 45.5777 19.5618 45.6297 19.9678C45.6818 20.3737 45.6543 20.4853 45.4926 20.9067ZM46.3557 18.4323C46.1531 18.2742 46.0348 18.2636 45.9041 18.162C45.6739 17.9838 45.5574 17.793 45.4833 17.8877C45.4093 17.9824 45.4619 18.086 45.7031 18.2505C45.9443 18.4149 46.026 18.4279 46.3557 18.4323ZM46.2126 19.6043C46.1058 19.3763 45.9934 19.3185 45.9243 19.1718C45.8022 18.914 45.802 18.691 45.6695 18.7481C45.537 18.8053 45.5264 18.922 45.6681 19.1716C45.8097 19.4211 45.8839 19.4663 46.2126 19.6043Z" fill="#E1E3DE"/>
<path d="M6.27032 16.8534C6.24854 16.6515 6.2906 16.6273 6.1697 16.475C6.34568 16.5507 6.35234 16.7518 6.5663 16.6091C6.64484 16.5673 6.6791 16.5659 6.58364 16.3416C6.80672 16.3523 7.53728 16.6098 7.65428 16.6157C7.96148 16.6302 8.52224 16.284 8.91146 16.7097C9.28508 17.0979 9.16034 17.5007 9.16034 18.0382C9.01022 17.9643 9.08258 17.9278 8.92328 17.7356C9.04268 18.2055 8.91692 19.0526 8.91692 19.5508C8.8556 19.4307 8.8646 19.4828 8.80466 19.3584C8.64536 19.8132 8.45444 19.9068 8.45444 20.4444C8.39696 20.2336 8.45246 20.2781 8.3885 20.1673C8.2337 20.5126 7.1951 20.8077 7.5953 21.1557C7.2341 20.938 7.0757 20.9609 6.9119 20.7651C6.84128 20.8119 6.78524 20.9005 6.7196 21.022C6.0845 20.7216 6.3116 20.0738 5.81402 19.6411C5.72792 19.8225 5.76716 19.7963 5.6741 20.0915C5.57336 19.6814 5.54582 19.4208 5.43254 19.1192C5.3348 19.2864 5.3435 19.2223 5.16602 19.4749C5.09258 18.9753 4.97306 18.8574 5.02034 18.5268C4.8317 18.6636 4.95518 18.6082 4.7666 18.7766C4.94528 17.4964 5.71682 16.5503 6.2705 16.8533L6.27032 16.8534Z" fill="#393939" stroke="#1B1B1B" stroke-width="0.1"/>
<path d="M5.48877 18.9432C5.65245 18.5311 5.79993 18.4016 5.90571 18.1363C6.09243 17.6699 6.12285 17.297 6.27969 17.3539C6.43659 17.4108 6.43407 17.6029 6.22419 18.061C6.01431 18.5194 5.91609 18.6165 5.48877 18.9431V18.9432ZM6.10833 19.9746C6.17397 19.6051 6.27747 19.4705 6.32001 19.2325C6.39555 18.8141 6.35343 18.5024 6.49923 18.5189C6.64503 18.5353 6.67797 18.6932 6.58095 19.1095C6.48393 19.5258 6.41703 19.6244 6.10833 19.9746ZM6.84939 20.6915C6.86787 20.3332 6.94959 20.1934 6.96183 19.9626C6.98397 19.5567 6.90795 19.2662 7.04697 19.2645C7.18599 19.2629 7.23555 19.4088 7.19295 19.8152C7.15035 20.2215 7.09893 20.3229 6.84939 20.6915ZM8.44071 18.3485C8.13645 18.0369 7.95249 17.9787 7.75617 17.7784C7.41039 17.4265 7.24335 17.0961 7.12023 17.2132C6.99711 17.3304 7.07121 17.5059 7.43523 17.8407C7.79931 18.1756 7.92591 18.2244 8.44071 18.3485ZM8.25531 19.5528C8.05713 19.24 7.91169 19.159 7.78371 18.9577C7.55811 18.604 7.48047 18.3 7.35261 18.3753C7.22463 18.4506 7.25325 18.6094 7.49781 18.9523C7.74231 19.2951 7.84065 19.3582 8.25531 19.5529V19.5528Z" fill="#E1E3DE"/>
<path d="M21.842 9.97876C21.4858 10.6868 22.4657 9.74326 24.0018 10.9287C24.2865 11.1489 24.6946 12.0189 24.6946 12.4222C24.3675 12.3507 23.7884 12.0189 23.7884 12.0189C23.7884 12.0189 24.468 12.7186 24.468 13.5252C24.2279 13.3709 24.1078 13.394 24.0279 13.2046C24.0279 13.4657 24.2415 13.6321 24.2415 14.0354C24.0954 13.9148 23.9392 13.8077 23.7747 13.7154C24.0013 14.1187 23.3619 14.9011 23.6819 15.1622C23.1223 15.079 22.5497 14.7116 22.3232 14.3083C22.2031 14.3914 22.1901 14.522 22.1854 14.6612C22.203 14.6763 21.3335 13.9979 21.4134 13.7373C21.2968 13.9054 21.2804 13.9979 21.2538 14.1874C20.9344 13.8637 20.6416 13.5399 20.535 13.1214C20.3931 13.3109 20.3842 13.3109 20.2422 13.5004C20.1358 12.8371 20.1358 12.8608 20.3487 12.2922C20.1979 12.3949 20.0737 12.4976 19.9229 12.624C20.0657 11.6634 20.7942 10.5369 21.8421 9.97901L21.842 9.97876Z" fill="#393939" stroke="#1B1B1B" stroke-width="0.1"/>
<path d="M20.9634 13.4382C21.0204 12.9503 21.1445 12.7665 21.1815 12.4523C21.2477 11.8997 21.1692 11.4957 21.3597 11.506C21.5503 11.5162 21.6051 11.72 21.5109 12.2716C21.4168 12.8229 21.3374 12.9568 20.9634 13.4382ZM21.9579 14.3318C21.9193 13.9202 21.9933 13.7449 21.9687 13.4797C21.9264 13.0131 21.7862 12.6971 21.9522 12.668C22.1183 12.639 22.2023 12.7955 22.2201 13.2666C22.2381 13.7377 22.1937 13.8632 21.9578 14.3318H21.9579ZM23.5104 15.0607C23.3415 14.7044 23.1965 14.5983 23.0875 14.369C22.895 13.9661 22.8547 13.637 22.7063 13.6966C22.5578 13.7563 22.5659 13.9265 22.7804 14.3209C22.9949 14.7153 23.0918 14.7958 23.5104 15.0607ZM24.0477 11.8704C23.6177 11.6377 23.3968 11.6348 23.1197 11.4853C22.6317 11.2232 22.3477 10.9271 22.2469 11.09C22.146 11.253 22.2806 11.4151 22.7837 11.6534C23.2868 11.8916 23.4413 11.9029 24.0477 11.8704H24.0477ZM24.2052 13.2033C23.8921 12.9356 23.7069 12.8962 23.505 12.724C23.1492 12.4218 22.9722 12.1249 22.8533 12.2453C22.7345 12.3656 22.8139 12.5245 23.1873 12.8092C23.5607 13.094 23.6884 13.1293 24.2052 13.2033Z" fill="#E1E3DE"/>
</g>
<defs>
<clipPath id="clip0_323_14764">
<rect width="52" height="34" fill="white"/>
</clipPath>
</defs>
</svg>
