<svg width="30" height="20" viewBox="0 0 30 20" fill="none" xmlns="http://www.w3.org/2000/svg">
<mask id="mask0_523_16541" style="mask-type:luminance" maskUnits="userSpaceOnUse" x="0" y="0" width="30" height="20">
<rect x="0.5" y="0.5" width="29" height="19" fill="white"/>
</mask>
<g mask="url(#mask0_523_16541)">
<path d="M0.5 6.14697H0V6.64697V13.9117V14.4117H0.5H29.5H30V13.9117V6.64697V6.14697H29.5H0.5Z" stroke="#F7FCFF"/>
<path d="M17.7365 2.95005C17.9089 2.59572 18.3726 2.20879 19.1275 1.78926C19.1535 1.77485 19.1848 1.77402 19.2114 1.78705C19.2566 1.8091 19.2753 1.86363 19.2531 1.90872L11.4309 17.9789L11.0237 17.7799L17.9188 3.61412C17.6066 3.56316 17.5458 3.3418 17.7365 2.95005Z" fill="white"/>
<path d="M12.2552 2.95005C12.4459 3.3418 12.3851 3.56316 12.0729 3.61412L18.968 17.7799L18.5607 17.9789L10.7386 1.90872C10.7164 1.86363 10.7351 1.8091 10.7802 1.78705C10.8069 1.77402 10.8382 1.77485 10.8642 1.78926C11.619 2.20879 12.0827 2.59572 12.2552 2.95005Z" fill="white"/>
<path fill-rule="evenodd" clip-rule="evenodd" d="M15 17.5441C15.9033 17.5441 19.5312 14.2915 19.5312 10.2794C19.5312 6.26717 15.9033 3.01465 15 3.01465C14.0967 3.01465 10.4688 6.26717 10.4688 10.2794C10.4688 14.2915 14.0967 17.5441 15 17.5441Z" fill="#1E1E1E" stroke="white"/>
<mask id="mask1_523_16541" style="mask-type:luminance" maskUnits="userSpaceOnUse" x="10" y="3" width="10" height="15">
<path fill-rule="evenodd" clip-rule="evenodd" d="M15 17.5441C15.9033 17.5441 19.5312 14.2915 19.5312 10.2794C19.5312 6.26717 15.9033 3.01465 15 3.01465C14.0967 3.01465 10.4688 6.26717 10.4688 10.2794C10.4688 14.2915 14.0967 17.5441 15 17.5441Z" fill="white"/>
</mask>
<g mask="url(#mask1_523_16541)">
<path d="M6.39062 16.6361C9.89418 16.6361 12.7344 13.7901 12.7344 10.2795C12.7344 6.76881 9.89418 3.92285 6.39062 3.92285C2.88707 3.92285 0.046875 6.76881 0.046875 10.2795C0.046875 13.7901 2.88707 16.6361 6.39062 16.6361Z" stroke="white"/>
<path d="M23.6094 16.6361C27.1129 16.6361 29.9531 13.7901 29.9531 10.2795C29.9531 6.76881 27.1129 3.92285 23.6094 3.92285C20.1058 3.92285 17.2656 6.76881 17.2656 10.2795C17.2656 13.7901 20.1058 16.6361 23.6094 16.6361Z" stroke="white"/>
<path fill-rule="evenodd" clip-rule="evenodd" d="M15.1812 9.30765C15.5949 9.01323 15.9062 7.73058 15.9062 6.19289C15.9062 4.65519 15.5949 3.37255 15.1812 3.07812V9.30765ZM14.7281 9.22564C14.3604 8.8206 14.0938 7.61596 14.0938 6.19289C14.0938 4.76981 14.3604 3.56518 14.7281 3.16013V9.22564ZM14.7281 11.3329V17.3984C14.3604 16.9934 14.0938 15.7888 14.0938 14.3657C14.0938 12.9426 14.3604 11.738 14.7281 11.3329ZM15.1812 17.4804V11.2509C15.5949 11.5453 15.9062 12.828 15.9062 14.3657C15.9062 15.9034 15.5949 17.186 15.1812 17.4804Z" fill="#F7FCFF"/>
<path d="M15 9.37132C15.5005 9.37132 15.9062 9.77789 15.9062 10.2794C15.9062 10.7809 15.5005 11.1875 15 11.1875C14.4995 11.1875 14.0938 10.7809 14.0938 10.2794C14.0938 9.77789 14.4995 9.37132 15 9.37132Z" fill="#F7FCFF"/>
</g>
</g>
<rect x="1" y="1" width="28" height="18" stroke="white"/>
</svg>
