<svg width="30" height="20" viewBox="0 0 30 20" fill="none" xmlns="http://www.w3.org/2000/svg">
<mask id="mask0_523_16524" style="mask-type:luminance" maskUnits="userSpaceOnUse" x="0" y="0" width="30" height="20">
<rect x="0.5" y="0.5" width="29" height="19" fill="white"/>
</mask>
<g mask="url(#mask0_523_16524)">
<path fill-rule="evenodd" clip-rule="evenodd" d="M0.5 -1.73535V11.6764H29.5V-1.73535H0.5Z" stroke="white"/>
<path fill-rule="evenodd" clip-rule="evenodd" d="M0.5 15.1689V20.6175H29.5V15.1689H0.5Z" stroke="white"/>
<path d="M22.9341 9.06817L23.1731 8.9951L23.1177 8.81363L22.928 8.81825L22.9341 9.06817ZM22.7943 9.06842L22.7996 8.81847L22.6105 8.81452L22.5553 8.99535L22.7943 9.06842ZM22.3388 10.5589L22.0893 10.5743L22.5779 10.6319L22.3388 10.5589ZM22.2425 9.00638L22.492 8.9909L22.4802 8.80021L22.2931 8.76155L22.2425 9.00638ZM22.1051 8.97462L22.1671 8.73244L21.9848 8.68575L21.8895 8.84809L22.1051 8.97462ZM21.3164 10.3187L21.0701 10.2757L21.532 10.4452L21.3164 10.3187ZM21.5834 8.78826L21.8297 8.83124L21.8627 8.64246L21.6889 8.56161L21.5834 8.78826ZM21.4561 8.72528L21.5721 8.50386L21.4056 8.41655L21.2755 8.55232L21.4561 8.72528ZM20.3773 9.85122L20.1478 9.75221L20.5578 10.0242L20.3773 9.85122ZM20.9925 8.42494L21.2221 8.52395L21.2982 8.34741L21.1471 8.22849L20.9925 8.42494ZM20.8823 8.33385L21.046 8.14496L20.9041 8.0219L20.7464 8.12398L20.8823 8.33385ZM19.5724 9.18174L19.372 9.03225L19.7082 9.39161L19.5724 9.18174ZM20.5012 7.93671L20.7016 8.0862L20.8168 7.93168L20.6967 7.78091L20.5012 7.93671ZM20.414 7.82167L20.6168 7.67551L20.5069 7.52302L20.3299 7.58623L20.414 7.82167ZM18.9449 8.3463L18.7844 8.15461L19.0289 8.58174L18.9449 8.3463ZM20.1359 7.34917L20.2964 7.54086L20.444 7.41724L20.3622 7.24291L20.1359 7.34917ZM20.0772 7.21561L20.3085 7.12072L20.2368 6.94606L20.0492 6.96718L20.0772 7.21561ZM18.5287 7.38996L18.4165 7.16651L18.5566 7.63839L18.5287 7.38996ZM19.9178 6.69283L20.03 6.91627L20.2012 6.83032L20.1627 6.6426L19.9178 6.69283ZM19.892 6.54838L20.1391 6.51047L20.1102 6.32262L19.9215 6.30014L19.892 6.54838ZM18.3462 6.36425L18.2882 6.12106L18.3166 6.6125L18.3462 6.36425ZM19.8593 6.00365L19.9173 6.24684L20.1031 6.20255L20.1092 6.01158L19.8593 6.00365ZM19.8676 5.85664L20.1168 5.87694L20.1323 5.687L19.9532 5.62175L19.8676 5.85664ZM18.4073 5.32449L18.4065 5.07449L18.3217 5.55938L18.4073 5.32449ZM19.9621 5.31948L19.9629 5.56947L20.153 5.56886L20.2032 5.38552L19.9621 5.31948ZM20.0048 5.17768L20.2423 5.25585L20.3022 5.07385L20.142 4.9687L20.0048 5.17768ZM18.7087 4.32671L18.7651 4.08315L18.5715 4.5357L18.7087 4.32671ZM20.223 4.6773L20.1666 4.92086L20.3507 4.96347L20.4419 4.79805L20.223 4.6773ZM20.2977 4.5495L20.5103 4.68104L20.6115 4.51748L20.4794 4.37773L20.2977 4.5495ZM19.2341 3.42472L19.3447 3.20056L19.0524 3.5965L19.2341 3.42472ZM20.6272 4.11259L20.5165 4.33675L20.6855 4.42017L20.8122 4.28075L20.6272 4.11259ZM20.7291 4.00586L20.9056 4.1829L21.0418 4.04717L20.9456 3.88073L20.7291 4.00586ZM19.9552 2.66714L20.1144 2.47441L19.7387 2.79227L19.9552 2.66714ZM21.1514 3.65551L20.9922 3.84824L21.1375 3.96826L21.2928 3.86167L21.1514 3.65551ZM21.275 3.57515L21.4061 3.78799L21.5694 3.68739L21.5145 3.50365L21.275 3.57515ZM20.8331 2.09481L21.0325 1.94402L20.5935 2.16632L20.8331 2.09481ZM21.7677 3.33067L21.5683 3.48146L21.682 3.63182L21.8578 3.56386L21.7677 3.33067ZM21.9061 3.28104L21.9847 3.51837L22.1663 3.45822L22.1557 3.26719L21.9061 3.28104ZM21.8205 1.73859L22.0494 1.63808L21.5709 1.75244L21.8205 1.73859ZM22.4431 3.15649L22.2142 3.257L22.2901 3.42982L22.4771 3.40417L22.4431 3.15649ZM22.5882 3.14013L22.6103 3.38916L22.8002 3.37236L22.8342 3.18473L22.5882 3.14013ZM22.8642 1.61768L23.1102 1.57308L22.6182 1.57308L22.8642 1.61768ZM23.1404 3.14112L22.8944 3.18572L22.9283 3.37265L23.1175 3.39007L23.1404 3.14112ZM23.2847 3.1579L23.2499 3.40547L23.4375 3.43184L23.5136 3.25841L23.2847 3.1579ZM23.9079 1.73859L24.1576 1.75244L23.679 1.63808L23.9079 1.73859ZM23.8222 3.28456L23.5726 3.27072L23.562 3.46101L23.7427 3.5216L23.8222 3.28456ZM23.9584 3.3339L23.8675 3.56682L24.0437 3.63552L24.1578 3.4847L23.9584 3.3339ZM24.8954 2.09481L25.1349 2.16632L24.696 1.94402L24.8954 2.09481ZM24.4518 3.58078L24.2123 3.50927L24.1576 3.69234L24.3199 3.79314L24.4518 3.58078ZM24.5722 3.65955L24.4303 3.86537L24.5858 3.9726L24.7314 3.85228L24.5722 3.65955ZM25.7733 2.66714L25.9897 2.79227L25.6141 2.47441L25.7733 2.66714ZM24.9954 4.01268L24.779 3.88755L24.6831 4.05344L24.8183 4.18916L24.9954 4.01268ZM25.0938 4.11626L24.9086 4.28411L25.0353 4.42399L25.2045 4.34043L25.0938 4.11626ZM26.4944 3.42472L26.6761 3.5965L26.3837 3.20056L26.4944 3.42472ZM25.4242 4.55639L25.2426 4.38462L25.1108 4.52397L25.2113 4.68735L25.4242 4.55639ZM25.4959 4.67951L25.2769 4.80007L25.3681 4.96572L25.5523 4.92307L25.4959 4.67951ZM27.0198 4.32671L27.157 4.5357L26.9634 4.08315L27.0198 4.32671ZM25.7148 5.1835L25.5776 4.97452L25.4178 5.07944L25.4772 5.26117L25.7148 5.1835ZM25.7556 5.31944L25.5145 5.38549L25.5647 5.56883L25.7548 5.56944L25.7556 5.31944ZM27.3212 5.32449L27.4068 5.55938L27.322 5.07449L27.3212 5.32449ZM25.8504 5.86046L25.7648 5.62557L25.586 5.69073L25.6012 5.88043L25.8504 5.86046ZM25.8583 6.00106L25.6085 6.00921L25.6147 6.2L25.8004 6.24425L25.8583 6.00106ZM27.3823 6.36425L27.4119 6.6125L27.4402 6.12106L27.3823 6.36425ZM25.8255 6.54969L25.796 6.30145L25.6073 6.32391L25.5784 6.51166L25.8255 6.54969ZM25.8009 6.68793L25.5559 6.63811L25.5178 6.82557L25.6887 6.91137L25.8009 6.68793ZM27.1998 7.38996L27.1718 7.63839L27.3119 7.16651L27.1998 7.38996ZM25.641 7.21446L25.669 6.96602L25.4813 6.94489L25.4097 7.11966L25.641 7.21446ZM25.5848 7.34269L25.3583 7.23698L25.2771 7.41107L25.4244 7.53438L25.5848 7.34269ZM26.7836 8.3463L26.6995 8.58174L26.9441 8.15461L26.7836 8.3463ZM25.3059 7.81861L25.39 7.58317L25.2128 7.51988L25.1029 7.6727L25.3059 7.81861ZM25.2221 7.92972L25.0261 7.7745L24.9068 7.92516L25.0217 8.0792L25.2221 7.92972ZM26.1561 9.18174L26.0203 9.39161L26.3565 9.03225L26.1561 9.18174ZM24.8401 8.32985L24.9759 8.11998L24.8179 8.01769L24.6759 8.1413L24.8401 8.32985ZM24.7332 8.4186L24.578 8.22267L24.4278 8.34168L24.5037 8.51761L24.7332 8.4186ZM25.3512 9.85122L25.1706 10.0242L25.5807 9.75221L25.3512 9.85122ZM24.2688 8.72151L24.4493 8.54856L24.3189 8.4124L24.1521 8.50041L24.2688 8.72151ZM24.1442 8.78361L24.0379 8.55734L23.8651 8.63852L23.8979 8.82659L24.1442 8.78361ZM24.4121 10.3187L24.1965 10.4452L24.6584 10.2757L24.4121 10.3187ZM23.6219 8.97221L23.8375 8.84568L23.7419 8.6828L23.5591 8.73023L23.6219 8.97221ZM23.4861 9.0041L23.4346 8.75946L23.2484 8.79867L23.2366 8.98862L23.4861 9.0041ZM23.3896 10.5589L23.1506 10.6319L23.6392 10.5743L23.3896 10.5589ZM22.8589 9.31909C22.886 9.31909 22.9131 9.31876 22.9401 9.3181L22.928 8.81825C22.905 8.81881 22.882 8.81909 22.8589 8.81909V9.31909ZM22.7891 9.31836C22.8123 9.31885 22.8356 9.31909 22.8589 9.31909V8.81909C22.839 8.81909 22.8193 8.81888 22.7996 8.81847L22.7891 9.31836ZM22.5779 10.6319L23.0334 9.14149L22.5553 8.99535L22.0998 10.4858L22.5779 10.6319ZM21.993 9.02186L22.0893 10.5743L22.5884 10.5434L22.492 8.9909L21.993 9.02186ZM22.0431 9.21681C22.0923 9.2294 22.1419 9.24087 22.1919 9.25121L22.2931 8.76155C22.2507 8.7528 22.2087 8.74309 22.1671 8.73244L22.0431 9.21681ZM21.532 10.4452L22.3207 9.10116L21.8895 8.84809L21.1007 10.1921L21.532 10.4452ZM21.3372 8.74528L21.0701 10.2757L21.5626 10.3616L21.8297 8.83124L21.3372 8.74528ZM21.34 8.94669C21.3853 8.97047 21.4313 8.99323 21.478 9.01492L21.6889 8.56161C21.6495 8.54325 21.6105 8.52399 21.5721 8.50386L21.34 8.94669ZM20.5578 10.0242L21.6366 8.89823L21.2755 8.55232L20.1968 9.67827L20.5578 10.0242ZM20.7629 8.32593L20.1478 9.75221L20.6069 9.95023L21.2221 8.52395L20.7629 8.32593ZM20.7185 8.52274C20.7575 8.55654 20.7973 8.58944 20.8379 8.62139L21.1471 8.22849C21.1127 8.20144 21.079 8.17358 21.046 8.14496L20.7185 8.52274ZM19.7082 9.39161L21.0181 8.54372L20.7464 8.12398L19.4365 8.97187L19.7082 9.39161ZM20.3008 7.78722L19.372 9.03225L19.7727 9.33123L20.7016 8.0862L20.3008 7.78722ZM20.2111 7.96783C20.2417 8.01017 20.2732 8.05174 20.3057 8.09251L20.6967 7.78091C20.6692 7.74643 20.6426 7.71129 20.6168 7.67551L20.2111 7.96783ZM19.0289 8.58174L20.498 8.05711L20.3299 7.58623L18.8608 8.11087L19.0289 8.58174ZM19.9754 7.15748L18.7844 8.15461L19.1053 8.538L20.2964 7.54086L19.9754 7.15748ZM19.8459 7.31051C19.866 7.35943 19.8872 7.40775 19.9096 7.45543L20.3622 7.24291C20.3433 7.2027 20.3254 7.16196 20.3085 7.12072L19.8459 7.31051ZM18.5566 7.63839L20.1052 7.46405L20.0492 6.96718L18.5007 7.14153L18.5566 7.63839ZM19.8057 6.46939L18.4165 7.16651L18.6408 7.6134L20.03 6.91627L19.8057 6.46939ZM19.6449 6.5863C19.6529 6.63898 19.6623 6.69124 19.6729 6.74306L20.1627 6.6426C20.1538 6.59893 20.1459 6.55488 20.1391 6.51047L19.6449 6.5863ZM18.3166 6.6125L19.8624 6.79663L19.9215 6.30014L18.3758 6.11601L18.3166 6.6125ZM19.8013 5.76046L18.2882 6.12106L18.4041 6.60744L19.9173 6.24684L19.8013 5.76046ZM19.6184 5.83634C19.6141 5.88914 19.6111 5.94227 19.6094 5.99572L20.1092 6.01158C20.1106 5.9664 20.1132 5.92151 20.1168 5.87694L19.6184 5.83634ZM18.3217 5.55938L19.782 6.09153L19.9532 5.62175L18.4929 5.0896L18.3217 5.55938ZM19.9613 5.06948L18.4065 5.07449L18.4081 5.57448L19.9629 5.56947L19.9613 5.06948ZM19.7674 5.09952C19.7507 5.15028 19.7352 5.2016 19.721 5.25343L20.2032 5.38552C20.2152 5.34185 20.2282 5.29862 20.2423 5.25585L19.7674 5.09952ZM18.5715 4.5357L19.8676 5.38667L20.142 4.9687L18.8459 4.11773L18.5715 4.5357ZM20.2794 4.43374L18.7651 4.08315L18.6523 4.57027L20.1666 4.92086L20.2794 4.43374ZM20.0851 4.41796C20.057 4.46342 20.03 4.50963 20.0041 4.55656L20.4419 4.79805C20.4638 4.75844 20.4866 4.71943 20.5103 4.68104L20.0851 4.41796ZM19.0524 3.5965L20.1161 4.72127L20.4794 4.37773L19.4157 3.25295L19.0524 3.5965ZM20.7379 3.88843L19.3447 3.20056L19.1234 3.64889L20.5165 4.33675L20.7379 3.88843ZM20.5526 3.82881C20.5149 3.86644 20.478 3.90499 20.4422 3.94443L20.8122 4.28075C20.8425 4.24738 20.8737 4.21475 20.9056 4.1829L20.5526 3.82881ZM19.7387 2.79227L20.5127 4.13098L20.9456 3.88073L20.1716 2.54202L19.7387 2.79227ZM21.3107 3.46278L20.1144 2.47441L19.7959 2.85987L20.9922 3.84824L21.3107 3.46278ZM21.1438 3.36231C21.0984 3.39026 21.0538 3.41929 21.01 3.44935L21.2928 3.86167C21.3299 3.83622 21.3677 3.81165 21.4061 3.78799L21.1438 3.36231ZM20.5935 2.16632L21.0354 3.64665L21.5145 3.50365L21.0727 2.02331L20.5935 2.16632ZM21.9671 3.17988L21.0325 1.94402L20.6337 2.24561L21.5683 3.48146L21.9671 3.17988ZM21.8275 3.04371C21.777 3.06045 21.727 3.07839 21.6776 3.09748L21.8578 3.56386C21.8996 3.5477 21.9419 3.53253 21.9847 3.51837L21.8275 3.04371ZM21.5709 1.75244L21.6565 3.29488L22.1557 3.26719L22.0702 1.72474L21.5709 1.75244ZM22.672 3.05598L22.0494 1.63808L21.5916 1.8391L22.2142 3.257L22.672 3.05598ZM22.5662 2.89111C22.5135 2.89577 22.4611 2.90168 22.4092 2.90881L22.4771 3.40417C22.5212 3.39813 22.5656 3.39312 22.6103 3.38916L22.5662 2.89111ZM22.6182 1.57308L22.3423 3.09554L22.8342 3.18473L23.1102 1.66227L22.6182 1.57308ZM23.3864 3.09653L23.1102 1.57308L22.6182 1.66227L22.8944 3.18572L23.3864 3.09653ZM23.3195 2.91034C23.2678 2.90307 23.2158 2.897 23.1633 2.89218L23.1175 3.39007C23.162 3.39416 23.2061 3.39931 23.2499 3.40547L23.3195 2.91034ZM23.679 1.63808L23.0558 3.05739L23.5136 3.25841L24.1368 1.8391L23.679 1.63808ZM24.0718 3.29841L24.1576 1.75244L23.6583 1.72474L23.5726 3.27072L24.0718 3.29841ZM24.0492 3.10099C24.0006 3.08203 23.9514 3.0642 23.9016 3.04753L23.7427 3.5216C23.7848 3.5357 23.8264 3.55079 23.8675 3.56682L24.0492 3.10099ZM24.696 1.94402L23.7589 3.18311L24.1578 3.4847L25.0948 2.24561L24.696 1.94402ZM24.6914 3.65228L25.1349 2.16632L24.6558 2.02331L24.2123 3.50927L24.6914 3.65228ZM24.7141 3.45373C24.6714 3.42429 24.6279 3.39584 24.5838 3.36841L24.3199 3.79314C24.3573 3.81636 24.3941 3.84045 24.4303 3.86537L24.7141 3.45373ZM25.6141 2.47441L24.4129 3.46682L24.7314 3.85228L25.9325 2.85987L25.6141 2.47441ZM25.2118 4.13781L25.9897 2.79227L25.5569 2.54202L24.779 3.88755L25.2118 4.13781ZM25.2791 3.94841C25.2445 3.91017 25.2089 3.87275 25.1725 3.8362L24.8183 4.18916C24.8492 4.2201 24.8793 4.25176 24.9086 4.28411L25.2791 3.94841ZM26.3837 3.20056L24.9832 3.8921L25.2045 4.34043L26.6051 3.64889L26.3837 3.20056ZM25.6059 4.72817L26.6761 3.5965L26.3128 3.25295L25.2426 4.38462L25.6059 4.72817ZM25.7149 4.55895C25.6901 4.51378 25.6641 4.46926 25.6372 4.42543L25.2113 4.68735C25.234 4.72436 25.2559 4.76194 25.2769 4.80007L25.7149 4.55895ZM26.9634 4.08315L25.4395 4.43596L25.5523 4.92307L27.0762 4.57027L26.9634 4.08315ZM25.852 5.39249L27.157 4.5357L26.8826 4.11773L25.5776 4.97452L25.852 5.39249ZM25.9967 5.2534C25.9831 5.20372 25.9683 5.15452 25.9524 5.10583L25.4772 5.26117C25.4906 5.30219 25.503 5.34364 25.5145 5.38549L25.9967 5.2534ZM27.322 5.07449L25.7564 5.06944L25.7548 5.56944L27.3204 5.57448L27.322 5.07449ZM25.936 6.09535L27.4068 5.55938L27.2356 5.0896L25.7648 5.62557L25.936 6.09535ZM26.1082 5.99292C26.1065 5.94181 26.1037 5.89099 26.0996 5.84048L25.6012 5.88043C25.6046 5.92307 25.607 5.96601 25.6085 6.00921L26.1082 5.99292ZM27.4402 6.12106L25.9163 5.75788L25.8004 6.24425L27.3243 6.60744L27.4402 6.12106ZM25.8551 6.79793L27.4119 6.6125L27.3527 6.11601L25.796 6.30145L25.8551 6.79793ZM26.0458 6.73774C26.0559 6.68813 26.0649 6.63811 26.0726 6.58772L25.5784 6.51166C25.5719 6.55415 25.5644 6.59631 25.5559 6.63811L26.0458 6.73774ZM27.3119 7.16651L25.913 6.46448L25.6887 6.91137L27.0877 7.6134L27.3119 7.16651ZM25.613 7.46289L27.1718 7.63839L27.2278 7.14153L25.669 6.96602L25.613 7.46289ZM25.8114 7.4484C25.8328 7.40259 25.8531 7.3562 25.8723 7.30925L25.4097 7.11966C25.3934 7.15924 25.3763 7.19835 25.3583 7.23698L25.8114 7.4484ZM26.9441 8.15461L25.7453 7.151L25.4244 7.53438L26.6231 8.538L26.9441 8.15461ZM25.2219 8.05405L26.6995 8.58174L26.8677 8.11087L25.39 7.58317L25.2219 8.05405ZM25.4181 8.08493C25.4493 8.04552 25.4796 8.00538 25.5089 7.96452L25.1029 7.6727C25.0781 7.70724 25.0525 7.74118 25.0261 7.7745L25.4181 8.08493ZM26.3565 9.03225L25.4225 7.78023L25.0217 8.0792L25.9557 9.33123L26.3565 9.03225ZM24.7042 8.53972L26.0203 9.39161L26.292 8.97187L24.9759 8.11998L24.7042 8.53972ZM24.8885 8.61452C24.9278 8.58336 24.9664 8.55131 25.0042 8.51841L24.6759 8.1413C24.6439 8.16916 24.6112 8.19629 24.578 8.22267L24.8885 8.61452ZM25.5807 9.75221L24.9628 8.31959L24.5037 8.51761L25.1216 9.95023L25.5807 9.75221ZM24.0883 8.89446L25.1706 10.0242L25.5317 9.67827L24.4493 8.54856L24.0883 8.89446ZM24.2505 9.00988C24.2961 8.98846 24.3411 8.96603 24.3855 8.94261L24.1521 8.50041C24.1146 8.52023 24.0765 8.53922 24.0379 8.55734L24.2505 9.00988ZM24.6584 10.2757L24.3905 8.74063L23.8979 8.82659L24.1658 10.3616L24.6584 10.2757ZM23.4063 9.09875L24.1965 10.4452L24.6277 10.1921L23.8375 8.84568L23.4063 9.09875ZM23.5376 9.24874C23.5871 9.23833 23.6361 9.22681 23.6847 9.2142L23.5591 8.73023C23.518 8.7409 23.4765 8.75065 23.4346 8.75946L23.5376 9.24874ZM23.6392 10.5743L23.7356 9.01959L23.2366 8.98862L23.1401 10.5434L23.6392 10.5743ZM22.695 9.14124L23.1506 10.6319L23.6287 10.4858L23.1731 8.9951L22.695 9.14124ZM24.493 6.08521C24.493 6.98651 23.7522 7.72252 22.8317 7.72252V8.22252C24.0223 8.22252 24.993 7.26858 24.993 6.08521H24.493ZM22.8317 4.4479C23.7522 4.4479 24.493 5.18391 24.493 6.08521H24.993C24.993 4.90184 24.0223 3.9479 22.8317 3.9479V4.4479ZM21.1704 6.08521C21.1704 5.18391 21.9112 4.4479 22.8317 4.4479V3.9479C21.641 3.9479 20.6704 4.90184 20.6704 6.08521H21.1704ZM22.8317 7.72252C21.9112 7.72252 21.1704 6.98651 21.1704 6.08521H20.6704C20.6704 7.26858 21.641 8.22252 22.8317 8.22252V7.72252ZM22.8538 7.46967C23.5872 7.46967 24.1809 6.87403 24.1809 6.14034H23.6809C23.6809 6.59884 23.3101 6.96967 22.8538 6.96967V7.46967ZM21.5266 6.14034C21.5266 6.87403 22.1203 7.46967 22.8538 7.46967V6.96967C22.3974 6.96967 22.0266 6.59884 22.0266 6.14034H21.5266ZM22.8538 4.81101C22.1203 4.81101 21.5266 5.40665 21.5266 6.14034H22.0266C22.0266 5.68183 22.3974 5.31101 22.8538 5.31101V4.81101ZM24.1809 6.14034C24.1809 5.40665 23.5872 4.81101 22.8538 4.81101V5.31101C23.3101 5.31101 23.6809 5.68183 23.6809 6.14034H24.1809Z" fill="white"/>
</g>
<rect x="1" y="1" width="28" height="18" stroke="white"/>
</svg>
