<svg width="21" height="20" viewBox="0 0 21 20" fill="none" xmlns="http://www.w3.org/2000/svg">
<path d="M17.0626 2.8125H3.93762C3.59244 2.8125 3.31262 3.09232 3.31262 3.4375V16.5625C3.31262 16.9077 3.59244 17.1875 3.93762 17.1875H17.0626C17.4078 17.1875 17.6876 16.9077 17.6876 16.5625V3.4375C17.6876 3.09232 17.4078 2.8125 17.0626 2.8125Z" stroke="white" stroke-width="2" stroke-linecap="round" stroke-linejoin="round"/>
<path d="M9.875 8.75V13.75" stroke="white" stroke-width="2" stroke-linecap="round" stroke-linejoin="round"/>
<path d="M7.37512 8.75V13.75" stroke="white" stroke-width="2" stroke-linecap="round" stroke-linejoin="round"/>
<path d="M9.875 10.9375C9.875 10.3573 10.1055 9.80094 10.5157 9.3907C10.9259 8.98047 11.4823 8.75 12.0625 8.75C12.6427 8.75 13.1991 8.98047 13.6093 9.3907C14.0195 9.80094 14.25 10.3573 14.25 10.9375V13.75" stroke="white" stroke-width="2" stroke-linecap="round" stroke-linejoin="round"/>
<path d="M7.37512 7.1875C7.89289 7.1875 8.31262 6.76777 8.31262 6.25C8.31262 5.73223 7.89289 5.3125 7.37512 5.3125C6.85736 5.3125 6.43762 5.73223 6.43762 6.25C6.43762 6.76777 6.85736 7.1875 7.37512 7.1875Z" fill="white"/>
</svg>
