<svg width="30" height="20" viewBox="0 0 30 20" fill="none" xmlns="http://www.w3.org/2000/svg">
<mask id="mask0_523_16572" style="mask-type:luminance" maskUnits="userSpaceOnUse" x="0" y="0" width="30" height="20">
<rect x="0.5" y="0.5" width="29" height="19" fill="white"/>
</mask>
<g mask="url(#mask0_523_16572)">
<rect x="24.9688" y="7.9043" width="4.53125" height="12.7132" stroke="white"/>
<rect x="20.4375" y="7.9043" width="4.53125" height="12.7132" stroke="white"/>
<rect x="15.9062" y="7.9043" width="4.53125" height="12.7132" stroke="white"/>
<path d="M22.7456 3.28L22.5704 3.45833L22.6951 3.58088L22.853 3.50575L22.7456 3.28ZM22.7456 2.93696L22.8198 2.69822L22.7456 2.93696ZM22.1532 3.38112L22.3607 3.52056L22.3607 3.52056L22.1532 3.38112ZM22.6071 3.62264L22.6065 3.37264H22.6065L22.6071 3.62264ZM23.3778 3.59383L23.3911 3.84348L23.3778 3.59383ZM24.6373 3.38112L24.7609 3.59842V3.59842L24.6373 3.38112ZM26.1018 2.99518L26.1533 3.23981L26.1018 2.99518ZM26.6951 2.85814L26.6073 2.62407L26.6073 2.62407L26.6951 2.85814ZM26.485 3.1954L26.3091 3.01776L26.5657 3.43202L26.485 3.1954ZM28.4305 2.45401L28.3049 2.23786V2.23786L28.4305 2.45401ZM28.3918 2.59941L28.2073 2.43081V2.43081L28.3918 2.59941ZM28.1058 2.93696L27.9025 2.79151V2.79151L28.1058 2.93696ZM28.5578 2.74304L28.4209 2.53385V2.53385L28.5578 2.74304ZM29.0235 2.45401L29.1403 2.67503V2.67503L29.0235 2.45401ZM28.7358 2.93696L28.8934 3.13106V3.13106L28.7358 2.93696ZM29.4262 2.7772L29.2828 2.57241V2.57241L29.4262 2.7772ZM29.3117 3.03811L29.512 3.18762L29.512 3.18762L29.3117 3.03811ZM29.198 3.1954L29.4079 3.33118L29.4079 3.33116L29.198 3.1954ZM29.1942 3.20134L29.4041 3.33713L29.4041 3.33712L29.1942 3.20134ZM28.7358 3.88582L28.5985 3.67691L28.7691 4.1336L28.7358 3.88582ZM28.7358 4.19118L28.9425 4.33184L28.7358 4.19118ZM27.4112 4.75187L27.3384 4.51273L27.4112 4.75187ZM26.6951 5.02315L26.4742 4.9061V4.9061L26.6951 5.02315ZM25.7582 5.32954L25.7045 5.08538L25.7582 5.32954ZM25.2968 5.51635L25.2312 5.27512L25.2968 5.76635V5.51635ZM25.2968 5.67448L25.4892 5.83414L25.4892 5.83414L25.2968 5.67448ZM25.0464 5.72982L25.0194 5.97835H25.0194L25.0464 5.72982ZM25.0143 5.83262L24.8221 5.99244L25.0143 5.83262ZM25.1243 5.98654L24.9158 5.84856L24.9158 5.84857L25.1243 5.98654ZM24.6566 5.91057L24.7368 5.67377L24.6566 5.91057ZM24.4451 6.04972L24.5732 5.835L24.5732 5.835L24.4451 6.04972ZM24.4622 6.05991L24.3339 6.27447L24.3339 6.27447L24.4622 6.05991ZM24.3089 6.13384L24.3082 6.38384H24.3082L24.3089 6.13384ZM23.9789 6.11381L24.0212 5.86741H24.0212L23.9789 6.11381ZM23.6994 6.07845L23.6165 6.31428H23.6165L23.6994 6.07845ZM23.68 6.26669L23.614 6.50784L23.802 6.04848L23.68 6.26669ZM23.2648 6.1337L23.1706 6.36525V6.36525L23.2648 6.1337ZM23.3824 6.4028L23.5909 6.26482V6.26482L23.3824 6.4028ZM23.3793 6.57353L23.4733 6.34189L23.4733 6.34188L23.3793 6.57353ZM23.3925 6.87508L23.3217 7.11484L23.3217 7.11484L23.3925 6.87508ZM23.3207 6.99587L23.1357 7.16403L23.1357 7.16404L23.3207 6.99587ZM23.2648 7.27495L23.4763 7.40837V7.40837L23.2648 7.27495ZM22.9475 7.33335L23.015 7.57409L23.015 7.57409L22.9475 7.33335ZM22.8536 7.38775L22.6705 7.2176L22.8536 7.38775ZM22.7886 7.49473L23.0315 7.55425L23.0315 7.55424L22.7886 7.49473ZM22.6575 7.42843L22.8661 7.29063L22.6575 7.42843ZM22.3942 7.19332L22.3113 7.42918H22.3113L22.3942 7.19332ZM22.2415 7.23932L22.4863 7.28981L22.2415 7.23932ZM22.1532 7.38775L22.2978 7.59169L22.2978 7.59169L22.1532 7.38775ZM22.1133 7.52535L22.2954 7.354L22.2954 7.354L22.1133 7.52535ZM21.6153 7.45833L21.8648 7.47376L21.8648 7.47376L21.6153 7.45833ZM21.544 7.60037L21.6814 7.80925H21.6814L21.544 7.60037ZM21.4843 7.57065L21.2348 7.55502V7.55503L21.4843 7.57065ZM21.4418 7.38775L21.2453 7.54227L21.4418 7.38775ZM21.4581 7.12251L21.228 7.02483L21.228 7.02483L21.4581 7.12251ZM21.4418 7.10298L21.275 6.91679L21.275 6.91679L21.4418 7.10298ZM21.1253 7.19332L21.1254 6.94332H21.1253V7.19332ZM21.0126 7.27392L21.2066 7.43158L21.2066 7.43158L21.0126 7.27392ZM21.7026 6.77725L21.5619 6.57064L21.5619 6.57064L21.7026 6.77725ZM21.7735 6.73235L21.6548 6.51234L21.6548 6.51234L21.7735 6.73235ZM21.6697 6.54931L21.5545 6.77121H21.5545L21.6697 6.54931ZM21.4645 6.2536L21.2331 6.15889L21.2331 6.15889L21.4645 6.2536ZM21.5699 5.78554L21.8137 5.84076L21.5699 5.78554ZM21.544 5.73189L21.6892 5.93542L21.6892 5.93542L21.544 5.73189ZM20.9828 5.69774L20.9464 5.94507H20.9464L20.9828 5.69774ZM20.8221 5.55323L21.0451 5.66627L21.0451 5.66627L20.8221 5.55323ZM20.7989 5.44847L20.905 5.67485L20.905 5.67485L20.7989 5.44847ZM20.1214 5.51689L20.1238 5.26691H20.1238L20.1214 5.51689ZM20.0483 5.38124L19.8644 5.21191L19.8644 5.21191L20.0483 5.38124ZM20.0419 5.36433L20.1608 5.58425L20.1608 5.58425L20.0419 5.36433ZM19.5689 5.3844L19.786 5.26054L19.786 5.26054L19.5689 5.3844ZM19.4099 5.29925L19.4116 5.54925L19.4099 5.29925ZM19.0546 5.22442L19.1932 5.01642L19.1932 5.01642L19.0546 5.22442ZM19.0477 5.15089L19.1908 5.35586L19.1908 5.35586L19.0477 5.15089ZM18.537 4.8691L18.6179 5.10566H18.6179L18.537 4.8691ZM18.0875 4.88701L18.1098 4.638H18.1098L18.0875 4.88701ZM17.0344 4.5777L17.1017 4.33691L17.0344 4.5777ZM16.5804 4.20453L16.6455 3.96316L16.6455 3.96316L16.5804 4.20453ZM16.3614 4.09736L16.4061 4.34334H16.4061L16.3614 4.09736ZM15.3739 3.54571L15.2365 3.75459H15.2365L15.3739 3.54571ZM15.097 3.38112L15.187 3.1479L15.187 3.1479L15.097 3.38112ZM15.1613 3.1954L14.9764 3.36367H14.9764L15.1613 3.1954ZM15.4808 3.28L15.3716 3.50489H15.3716L15.4808 3.28ZM15.097 2.93696L15.2982 2.78863L15.097 2.93696ZM15.1613 2.85814L14.9974 3.04691L14.9974 3.04691L15.1613 2.85814ZM15.6054 3.12475L15.4862 3.34452L15.7786 2.94455L15.6054 3.12475ZM15.2551 2.64273L15.4762 2.5262L15.2551 2.64273ZM15.6758 2.64273L15.5153 2.83438H15.5153L15.6758 2.64273ZM15.9498 2.22081L16.1291 2.04654V2.04654L15.9498 2.22081ZM16.954 2.69582L16.8585 2.92683L16.954 2.69582ZM17.8779 3.12475L17.715 3.31441V3.31441L17.8779 3.12475ZM17.7551 2.79644L17.5434 2.92947L17.7551 2.79644ZM17.6592 2.64273L17.8722 2.51189V2.51189L17.6592 2.64273ZM18.4568 2.88714L18.5613 2.66004L18.4568 2.88714ZM19.4099 3.28L19.4733 3.03816V3.03816L19.4099 3.28ZM19.9491 3.45514L20.0319 3.21926L19.9491 3.45514ZM21.7735 2.64273L21.6919 2.40642V2.40642L21.7735 2.64273ZM22.3754 2.74767L22.2373 2.95605V2.95605L22.3754 2.74767ZM22.3265 5.82487L22.5458 5.70474L22.0766 5.83266L22.3265 5.82487ZM22.6263 6.80004L22.3773 6.82212V6.82212L22.6263 6.80004ZM22.7246 7.04031L22.4964 7.14252V7.14252L22.7246 7.04031ZM22.6136 7.14084L22.6993 6.90599L22.6993 6.90599L22.6136 7.14084ZM22.7456 3.28C22.853 3.50575 22.8531 3.50572 22.8532 3.50568C22.8532 3.50567 22.8533 3.50563 22.8533 3.50561C22.8534 3.50556 22.8536 3.5055 22.8537 3.50544C22.8539 3.50532 22.8542 3.50519 22.8545 3.50505C22.8551 3.50476 22.8558 3.50441 22.8566 3.50402C22.8583 3.50322 22.8603 3.50221 22.8627 3.50098C22.8676 3.49854 22.874 3.49524 22.8817 3.49114C22.8968 3.48302 22.9175 3.47136 22.9407 3.45669C22.9821 3.43047 23.0515 3.38229 23.1051 3.31455C23.1582 3.24758 23.2395 3.09838 23.1504 2.93053C23.0803 2.79832 22.9387 2.73518 22.8198 2.69822L22.6714 3.17569C22.7133 3.1887 22.7325 3.19899 22.7383 3.20257C22.7444 3.20644 22.7256 3.19654 22.7088 3.16495C22.7001 3.14853 22.6934 3.12882 22.6907 3.10693C22.6881 3.08527 22.6898 3.06573 22.6935 3.04976C22.7002 3.01997 22.7128 3.00459 22.7132 3.00407C22.7144 3.0026 22.7118 3.00597 22.7029 3.01321C22.6946 3.01997 22.6843 3.02719 22.6732 3.03423C22.6623 3.04114 22.6524 3.04675 22.6454 3.0505C22.6419 3.05234 22.6394 3.05363 22.6381 3.05429C22.6374 3.05462 22.6371 3.05479 22.6371 3.05479C22.6371 3.05478 22.6372 3.05474 22.6374 3.05465C22.6375 3.05461 22.6376 3.05455 22.6377 3.05448C22.6378 3.05445 22.6379 3.05441 22.6379 3.05437C22.638 3.05436 22.6381 3.05432 22.6381 3.05431C22.6381 3.05428 22.6382 3.05425 22.7456 3.28ZM22.4095 3.12475C22.4095 3.24494 22.4745 3.33991 22.4995 3.37467C22.5167 3.3987 22.5335 3.4185 22.5457 3.43224C22.552 3.43925 22.5574 3.44504 22.5616 3.4494C22.5637 3.45159 22.5655 3.45345 22.567 3.45494C22.5677 3.45568 22.5684 3.45634 22.569 3.4569C22.5693 3.45719 22.5695 3.45745 22.5698 3.45768C22.5699 3.4578 22.57 3.45792 22.5701 3.45802C22.5702 3.45808 22.5702 3.45813 22.5703 3.45818C22.5703 3.4582 22.5703 3.45824 22.5703 3.45825C22.5704 3.45829 22.5704 3.45833 22.7456 3.28C22.9208 3.10168 22.9209 3.10171 22.9209 3.10175C22.9209 3.10176 22.921 3.10179 22.921 3.10182C22.921 3.10186 22.9211 3.10191 22.9211 3.10195C22.9212 3.10203 22.9213 3.10212 22.9214 3.10219C22.9215 3.10235 22.9217 3.10249 22.9218 3.10261C22.922 3.10285 22.9222 3.10302 22.9223 3.10313C22.9225 3.10335 22.9225 3.10331 22.9222 3.10305C22.9217 3.10251 22.9204 3.10114 22.9186 3.09912C22.9147 3.09478 22.9099 3.08902 22.9057 3.08307C22.9009 3.07649 22.8999 3.07393 22.9008 3.07588C22.9009 3.07617 22.9095 3.09409 22.9095 3.12475H22.4095ZM22.3607 3.52056C22.4123 3.44372 22.493 3.38999 22.5616 3.36329C22.5972 3.34945 22.6144 3.34881 22.6097 3.3489C22.6074 3.34895 22.6007 3.34897 22.5906 3.34747C22.5813 3.34607 22.5631 3.34249 22.5409 3.33235C22.5187 3.3222 22.485 3.30193 22.4561 3.26368C22.425 3.22246 22.4095 3.17318 22.4095 3.12475H22.9095C22.9095 2.99011 22.8186 2.90953 22.7488 2.87759C22.6898 2.85067 22.6327 2.84833 22.5995 2.84901C22.5269 2.85049 22.4498 2.87029 22.3803 2.89732C22.2388 2.95237 22.0663 3.06215 21.9457 3.24168L22.3607 3.52056ZM22.6065 3.37264C22.5258 3.37283 22.4548 3.37292 22.3927 3.36971C22.3275 3.36634 22.2917 3.36001 22.2763 3.35509C22.2534 3.3478 22.3242 3.36252 22.3503 3.44983C22.3735 3.52767 22.3303 3.56571 22.3607 3.52056L21.9457 3.24168C21.8944 3.31801 21.8276 3.44707 21.8712 3.59309C21.9177 3.74858 22.0528 3.80863 22.1243 3.83144C22.2033 3.85663 22.2918 3.86517 22.3669 3.86905C22.4451 3.87309 22.5303 3.87282 22.6077 3.87264L22.6065 3.37264ZM22.6595 3.37256C22.6417 3.37256 22.6239 3.3726 22.6065 3.37264L22.6077 3.87264C22.6252 3.8726 22.6424 3.87256 22.6595 3.87256V3.37256ZM23.3645 3.34418C23.1014 3.35819 22.8299 3.37256 22.6595 3.37256V3.87256C22.8465 3.87256 23.1342 3.85716 23.3911 3.84348L23.3645 3.34418ZM23.9324 3.32055C23.8066 3.32055 23.5866 3.33236 23.3645 3.34418L23.3911 3.84348C23.6209 3.83124 23.8235 3.82055 23.9324 3.82055V3.32055ZM24.5137 3.16382C24.357 3.25292 24.268 3.28728 24.1986 3.30322C24.1277 3.31951 24.0632 3.32055 23.9324 3.32055V3.82055C24.0541 3.82055 24.1754 3.82159 24.3106 3.79052C24.4473 3.7591 24.5845 3.69875 24.7609 3.59842L24.5137 3.16382ZM26.0503 2.75054C25.7851 2.80638 25.4688 2.87296 25.1914 2.94124C25.0527 2.97538 24.9207 3.01068 24.8078 3.04608C24.6995 3.08004 24.5925 3.119 24.5137 3.16382L24.7609 3.59842C24.7903 3.58167 24.854 3.55561 24.9574 3.52317C25.0563 3.49217 25.1771 3.45969 25.3109 3.42675C25.5786 3.36086 25.8863 3.29604 26.1533 3.23981L26.0503 2.75054ZM26.6073 2.62407C26.5899 2.63058 26.5317 2.6461 26.4234 2.67049C26.3221 2.69329 26.1941 2.72025 26.0503 2.75054L26.1533 3.23981C26.2959 3.20978 26.4278 3.18201 26.5332 3.15827C26.6316 3.13612 26.7267 3.11329 26.7829 3.09221L26.6073 2.62407ZM26.485 3.1954C26.6609 3.37304 26.6609 3.37303 26.6609 3.37301C26.6609 3.37301 26.6609 3.37299 26.661 3.37297C26.661 3.37294 26.661 3.3729 26.6611 3.37286C26.6612 3.37277 26.6613 3.37266 26.6614 3.37253C26.6617 3.37225 26.6621 3.37188 26.6625 3.37141C26.6635 3.37047 26.6648 3.36915 26.6665 3.36747C26.6698 3.36411 26.6746 3.35931 26.6805 3.35331C26.6924 3.34132 26.7089 3.3244 26.7281 3.30437C26.7657 3.26495 26.816 3.21086 26.8606 3.15764C26.8827 3.13114 26.9057 3.10216 26.9258 3.07352C26.9427 3.04939 26.9699 3.00827 26.9866 2.96074C26.9943 2.93896 27.0102 2.88796 27.0012 2.82467C26.9895 2.74276 26.938 2.66163 26.848 2.6216C26.7793 2.59103 26.7164 2.59774 26.6899 2.60176C26.6577 2.60664 26.629 2.61591 26.6073 2.62407L26.7829 3.09221C26.7874 3.09052 26.7801 3.09381 26.7648 3.09612C26.7552 3.09758 26.7048 3.10515 26.6447 3.07842C26.6108 3.0633 26.576 3.03804 26.5488 3.00051C26.5222 2.96373 26.5105 2.92574 26.5062 2.89533C26.4985 2.84139 26.5124 2.80226 26.5151 2.79444C26.522 2.77483 26.5279 2.76999 26.5161 2.78692C26.5074 2.79934 26.4943 2.81621 26.4771 2.83679C26.4428 2.87773 26.4012 2.92274 26.3666 2.95887C26.3497 2.97662 26.335 2.99159 26.3247 3.00204C26.3196 3.00726 26.3155 3.01133 26.3128 3.01403C26.3115 3.01537 26.3105 3.01638 26.3098 3.01701C26.3095 3.01733 26.3093 3.01755 26.3092 3.01767C26.3091 3.01774 26.3091 3.01777 26.309 3.01779C26.309 3.0178 26.309 3.0178 26.309 3.01779C26.309 3.01779 26.3091 3.01778 26.3091 3.01778C26.3091 3.01777 26.3091 3.01776 26.485 3.1954ZM28.3049 2.23786C28.2426 2.27409 28.098 2.33752 27.8974 2.41707C27.7031 2.49412 27.4726 2.57995 27.2507 2.66047C27.0291 2.74088 26.8174 2.8155 26.661 2.87004C26.5828 2.8973 26.5185 2.91952 26.4739 2.93491C26.4515 2.9426 26.4341 2.94859 26.4222 2.95264C26.4163 2.95467 26.4118 2.95621 26.4088 2.95724C26.4073 2.95776 26.4061 2.95815 26.4054 2.9584C26.405 2.95853 26.4047 2.95863 26.4046 2.95869C26.4045 2.95872 26.4044 2.95875 26.4044 2.95876C26.4043 2.95877 26.4043 2.95877 26.4043 2.95878C26.4043 2.95878 26.4043 2.95878 26.485 3.1954C26.5657 3.43202 26.5657 3.43202 26.5657 3.43201C26.5657 3.43201 26.5657 3.432 26.5658 3.43199C26.5658 3.43197 26.5659 3.43194 26.566 3.43191C26.5662 3.43184 26.5665 3.43173 26.5669 3.43159C26.5677 3.43132 26.5689 3.43091 26.5705 3.43038C26.5736 3.42931 26.5782 3.42772 26.5843 3.42566C26.5964 3.42152 26.614 3.41545 26.6367 3.40766C26.6819 3.39209 26.7468 3.36966 26.8256 3.34215C26.9833 3.28717 27.1971 3.21183 27.4213 3.13048C27.6451 3.04924 27.8808 2.96152 28.0817 2.88187C28.2763 2.80471 28.4561 2.72829 28.5561 2.67016L28.3049 2.23786ZM28.5764 2.76802C28.6127 2.72826 28.6488 2.68878 28.6778 2.6553C28.7006 2.62898 28.7394 2.58374 28.7631 2.53897C28.7698 2.52624 28.7825 2.50057 28.79 2.46686C28.7964 2.43849 28.8097 2.3573 28.7579 2.27395C28.6996 2.18022 28.6075 2.15816 28.5616 2.15424C28.5178 2.15051 28.4826 2.1587 28.4669 2.16277C28.411 2.17736 28.3498 2.21178 28.3049 2.23786L28.5561 2.67016C28.5787 2.65708 28.5939 2.64892 28.6034 2.64423C28.6161 2.63793 28.6099 2.64223 28.5931 2.64661C28.5861 2.64842 28.5577 2.65573 28.5191 2.65244C28.4783 2.64896 28.3897 2.62865 28.3333 2.53792C28.2833 2.45756 28.2969 2.38061 28.3021 2.35764C28.3084 2.32932 28.3184 2.31021 28.3211 2.30514C28.3286 2.29099 28.3294 2.2938 28.2996 2.3282C28.2761 2.35544 28.2451 2.38932 28.2073 2.43081L28.5764 2.76802ZM28.3091 3.08241C28.3792 2.9845 28.4819 2.87146 28.5764 2.76802L28.2073 2.43081C28.1181 2.52838 27.9933 2.66454 27.9025 2.79151L28.3091 3.08241ZM28.4209 2.53385C28.26 2.63917 28.1265 2.72611 28.0497 2.76566C28.031 2.77529 28.0256 2.77681 28.0296 2.77553C28.0312 2.77499 28.0444 2.77061 28.0649 2.76875C28.0802 2.76736 28.1364 2.76348 28.1982 2.79847C28.2781 2.84371 28.3136 2.92158 28.3192 2.98619C28.3235 3.03639 28.3101 3.0722 28.3071 3.08011C28.3 3.09898 28.2947 3.10264 28.3091 3.0824L27.9025 2.79151C27.8827 2.81918 27.8561 2.85904 27.8392 2.90379C27.8314 2.92465 27.816 2.97082 27.821 3.02898C27.8272 3.10155 27.8661 3.18498 27.9518 3.23354C28.0195 3.27186 28.0841 3.26907 28.11 3.26671C28.1412 3.26389 28.1674 3.25648 28.1842 3.25103C28.2183 3.23992 28.2517 3.22407 28.2787 3.21016C28.3847 3.15557 28.5457 3.04976 28.6947 2.95223L28.4209 2.53385ZM28.9066 2.23299C28.7693 2.30559 28.5828 2.42793 28.4209 2.53385L28.6947 2.95223C28.8651 2.84076 29.0285 2.73411 29.1403 2.67503L28.9066 2.23299ZM28.8934 3.13106C29.009 3.0372 29.1846 2.85378 29.2884 2.71341C29.3149 2.67759 29.3421 2.63731 29.3631 2.5971C29.3734 2.57714 29.3856 2.55077 29.3945 2.52052C29.4021 2.4947 29.4152 2.43999 29.4012 2.37483C29.3835 2.29227 29.3267 2.21774 29.2394 2.18275C29.1708 2.15527 29.1085 2.16256 29.0788 2.16773C29.0164 2.1786 28.9553 2.20724 28.9066 2.23299L29.1403 2.67503C29.1808 2.6536 29.1839 2.65696 29.1646 2.66032C29.1564 2.66174 29.1104 2.66972 29.0534 2.64687C28.9776 2.6165 28.9276 2.55054 28.9124 2.47994C28.901 2.42676 28.9125 2.38745 28.9147 2.37992C28.9182 2.36797 28.9213 2.36279 28.9194 2.36642C28.9158 2.37339 28.9058 2.38983 28.8863 2.41619C28.8062 2.52454 28.6595 2.67696 28.5783 2.74285L28.8934 3.13106ZM29.2828 2.57241C29.2075 2.62509 29.0224 2.69613 28.864 2.73363C28.8274 2.7423 28.7972 2.74794 28.7748 2.7509C28.7477 2.75449 28.7469 2.7521 28.7614 2.75403C28.7664 2.75469 28.8021 2.75901 28.843 2.78551C28.8968 2.82042 28.953 2.89239 28.9495 2.99128C28.9469 3.06467 28.9114 3.10981 28.9054 3.11745C28.8953 3.13034 28.8886 3.13496 28.8934 3.13106L28.5783 2.74285C28.5585 2.75893 28.5338 2.78102 28.5119 2.80904C28.494 2.83182 28.4527 2.88975 28.4498 2.97375C28.4459 3.08325 28.5072 3.16365 28.5708 3.20495C28.6215 3.23785 28.6719 3.24654 28.6957 3.2497C28.748 3.25662 28.8015 3.25173 28.8404 3.24658C28.8841 3.2408 28.9315 3.23147 28.9792 3.22017C29.1582 3.17779 29.4166 3.08906 29.5696 2.98198L29.2828 2.57241ZM29.512 3.18762C29.5718 3.10755 29.6542 2.9979 29.6971 2.9232C29.7076 2.9048 29.7241 2.87456 29.7354 2.84019C29.7406 2.8243 29.7507 2.78984 29.75 2.74641C29.7492 2.70187 29.7346 2.60984 29.6476 2.54433C29.5679 2.48425 29.484 2.49076 29.452 2.49555C29.4155 2.50102 29.3866 2.51298 29.3711 2.52005C29.3384 2.53494 29.3076 2.55503 29.2828 2.57241L29.5696 2.98199C29.5867 2.96997 29.5878 2.97077 29.5784 2.97507C29.5745 2.97685 29.5551 2.98569 29.526 2.99004C29.5014 2.99372 29.423 3.00111 29.3469 2.94375C29.2635 2.88096 29.2507 2.79348 29.25 2.75515C29.2494 2.71791 29.258 2.69131 29.2601 2.68476C29.2653 2.66908 29.2696 2.66345 29.2635 2.6742C29.2394 2.7161 29.1806 2.79569 29.1113 2.88861L29.512 3.18762ZM29.4079 3.33116C29.4263 3.30274 29.4631 3.25321 29.512 3.18762L29.1113 2.88861C29.0675 2.94722 29.0179 3.01351 28.9881 3.05965L29.4079 3.33116ZM29.4041 3.33712L29.4079 3.33118L28.9881 3.05962L28.9842 3.06555L29.4041 3.33712ZM29.2892 3.13112C29.239 3.13112 29.2264 3.12797 29.2313 3.12917C29.2347 3.12998 29.2576 3.13549 29.2854 3.15472C29.3178 3.17721 29.3523 3.21562 29.3688 3.27046C29.3837 3.32008 29.3768 3.36012 29.3726 3.37724C29.3685 3.39418 29.3635 3.40298 29.3652 3.39966C29.3695 3.3911 29.3791 3.37571 29.4041 3.33713L28.9843 3.06554C28.9651 3.09517 28.938 3.13637 28.9189 3.1743C28.9071 3.19756 28.8547 3.29719 28.8899 3.41432C28.9342 3.56168 29.066 3.60365 29.1142 3.61526C29.1706 3.62885 29.2338 3.63112 29.2892 3.63112V3.13112ZM28.7358 3.88582C28.8732 4.09474 28.8732 4.09472 28.8732 4.09471C28.8732 4.09471 28.8732 4.09469 28.8733 4.09468C28.8733 4.09465 28.8733 4.09462 28.8734 4.09457C28.8735 4.09449 28.8737 4.09437 28.8739 4.09423C28.8744 4.09394 28.875 4.09353 28.8758 4.093C28.8774 4.09195 28.8797 4.09043 28.8826 4.08847C28.8885 4.08457 28.897 4.07891 28.9077 4.07176C28.929 4.05748 28.959 4.03716 28.9944 4.01279C29.0646 3.96436 29.1576 3.8987 29.2447 3.83213C29.3269 3.76936 29.4208 3.69319 29.4805 3.62556C29.4964 3.60759 29.5155 3.58404 29.5321 3.55644C29.5456 3.53404 29.5745 3.48162 29.5769 3.41137C29.5782 3.37193 29.5712 3.32393 29.5458 3.27614C29.5201 3.22796 29.4834 3.19425 29.4471 3.17246C29.3827 3.13383 29.3184 3.13112 29.2892 3.13112V3.63112C29.2869 3.63112 29.2417 3.63235 29.1897 3.60111C29.1595 3.58302 29.1272 3.55387 29.1044 3.51105C29.0818 3.46862 29.0761 3.42678 29.0772 3.39424C29.0791 3.33779 29.1016 3.30213 29.1035 3.29895C29.1085 3.29058 29.111 3.28871 29.1059 3.2944C29.0821 3.3214 29.0242 3.37141 28.9412 3.43481C28.8632 3.49442 28.7776 3.55493 28.7106 3.60114C28.6773 3.62409 28.649 3.6432 28.6292 3.65651C28.6192 3.66316 28.6115 3.66835 28.6062 3.67184C28.6036 3.67358 28.6016 3.6749 28.6003 3.67575C28.5996 3.67618 28.5992 3.67649 28.5989 3.67669C28.5987 3.67679 28.5986 3.67685 28.5986 3.67689C28.5985 3.67691 28.5985 3.67692 28.5985 3.67693C28.5985 3.67693 28.5985 3.67693 28.5985 3.67693C28.5985 3.67692 28.5985 3.67691 28.7358 3.88582ZM28.9425 4.33184C29.0069 4.23732 29.0544 4.14722 29.0753 4.0604C29.0974 3.9692 29.0956 3.85077 29.0137 3.7525C28.9408 3.66495 28.8448 3.64428 28.8009 3.63845C28.7752 3.63505 28.7531 3.63479 28.7373 3.63529C28.7292 3.63554 28.7222 3.63602 28.7164 3.63653C28.7135 3.63678 28.7109 3.63705 28.7086 3.63731C28.7074 3.63744 28.7064 3.63757 28.7054 3.63769C28.7049 3.63775 28.7044 3.63781 28.7039 3.63787C28.7037 3.6379 28.7035 3.63793 28.7032 3.63796C28.7031 3.63798 28.703 3.638 28.7029 3.638C28.7027 3.63803 28.7026 3.63805 28.7358 3.88582C28.7691 4.1336 28.7689 4.13362 28.7688 4.13364C28.7687 4.13365 28.7686 4.13367 28.7685 4.13369C28.7683 4.13371 28.7681 4.13374 28.7679 4.13377C28.7675 4.13382 28.7671 4.13387 28.7667 4.13392C28.7659 4.13401 28.7651 4.1341 28.7644 4.13418C28.763 4.13435 28.7616 4.13448 28.7603 4.1346C28.7578 4.13482 28.7554 4.13497 28.7531 4.13504C28.749 4.13517 28.7429 4.13514 28.7351 4.1341C28.7269 4.13302 28.6738 4.12568 28.6295 4.07246C28.5763 4.00852 28.5887 3.94543 28.5893 3.94299C28.5895 3.94217 28.5875 3.95052 28.5778 3.96992C28.5683 3.98895 28.553 4.01544 28.5292 4.05052L28.9425 4.33184ZM27.4841 4.99101C27.7485 4.91044 28.055 4.81717 28.3125 4.71827C28.4413 4.66883 28.5647 4.61541 28.668 4.55827C28.7633 4.50551 28.874 4.43249 28.9425 4.33184L28.5292 4.05052C28.5303 4.04893 28.5083 4.0752 28.4259 4.12076C28.3515 4.16193 28.2522 4.20584 28.1333 4.2515C27.8955 4.34281 27.6071 4.43082 27.3384 4.51273L27.4841 4.99101ZM26.916 5.14021C26.903 5.16479 26.8885 5.18052 26.881 5.18803C26.873 5.19603 26.8669 5.20043 26.8653 5.20158C26.8626 5.20353 26.8658 5.20093 26.8794 5.19427C26.9061 5.1811 26.9491 5.16358 27.0104 5.14172C27.1321 5.09834 27.2964 5.04823 27.4841 4.99101L27.3384 4.51273C27.1548 4.56866 26.9777 4.62256 26.8426 4.67073C26.7755 4.69465 26.7111 4.71977 26.6584 4.74573C26.6323 4.75862 26.6028 4.7747 26.5752 4.79438C26.5526 4.81043 26.5059 4.84629 26.4742 4.9061L26.916 5.14021ZM25.8119 5.57371C25.9501 5.54332 26.1767 5.49355 26.3772 5.43635C26.4767 5.40796 26.5773 5.37565 26.6602 5.34042C26.7014 5.32293 26.745 5.30189 26.7843 5.27662C26.817 5.25558 26.8777 5.2125 26.916 5.14021L26.4742 4.9061C26.4974 4.8622 26.5263 4.84807 26.5136 4.8562C26.5076 4.8601 26.4925 4.86845 26.4647 4.88022C26.4099 4.9035 26.3323 4.9292 26.24 4.95554C26.0567 5.00783 25.8451 5.05447 25.7045 5.08538L25.8119 5.57371ZM25.6208 5.11433C25.6232 5.11433 25.6366 5.11426 25.6541 5.11683C25.6619 5.11797 25.6827 5.12128 25.7079 5.13109C25.7209 5.13617 25.8024 5.16711 25.8447 5.26133C25.9003 5.38522 25.8386 5.48683 25.8108 5.52099C25.7838 5.55425 25.7549 5.57188 25.747 5.57666C25.7266 5.58906 25.7093 5.59532 25.7071 5.59613C25.6947 5.60078 25.688 5.60184 25.7035 5.59806C25.7247 5.59291 25.7608 5.58496 25.8119 5.57371L25.7045 5.08538C25.6563 5.09599 25.6133 5.10542 25.5854 5.11221C25.5764 5.11439 25.5527 5.12005 25.532 5.1278C25.5277 5.12939 25.5088 5.13634 25.4875 5.14932C25.4791 5.1544 25.4499 5.1723 25.4227 5.2058C25.3947 5.24021 25.3329 5.34204 25.3886 5.46613C25.431 5.56055 25.5127 5.59167 25.5262 5.5969C25.5517 5.60685 25.5731 5.61029 25.5815 5.61153C25.6003 5.6143 25.6157 5.61433 25.6208 5.61433V5.11433ZM25.6882 5.69847C25.716 5.69847 25.7505 5.69664 25.7861 5.68832C25.814 5.68181 25.886 5.66192 25.9418 5.59401C26.0166 5.50293 26.0104 5.39474 25.9798 5.32343C25.9556 5.26677 25.9175 5.2315 25.899 5.21583C25.8575 5.18058 25.8099 5.15746 25.772 5.1433C25.7334 5.12887 25.6798 5.11433 25.6208 5.11433V5.61433C25.6093 5.61433 25.6021 5.61291 25.6001 5.61248C25.5988 5.6122 25.5979 5.61196 25.5975 5.61185C25.5972 5.61174 25.597 5.61167 25.5969 5.61165C25.5969 5.61163 25.5967 5.61157 25.5964 5.61142C25.5961 5.61128 25.5953 5.61092 25.5941 5.61025C25.5926 5.60946 25.5855 5.60551 25.5754 5.59698C25.5694 5.59182 25.5402 5.56707 25.5202 5.52027C25.509 5.49415 25.498 5.45474 25.5023 5.40661C25.5069 5.35595 25.5271 5.31116 25.5555 5.27664C25.6048 5.21662 25.6643 5.2033 25.6725 5.2014C25.6884 5.19768 25.6959 5.19847 25.6882 5.19847V5.69847ZM25.2968 5.51635C25.3625 5.75757 25.3625 5.75758 25.3624 5.75758C25.3624 5.75758 25.3624 5.75759 25.3624 5.75759C25.3624 5.75759 25.3624 5.7576 25.3624 5.7576C25.3624 5.7576 25.3624 5.7576 25.3624 5.7576C25.3624 5.75759 25.3625 5.75757 25.3626 5.75753C25.3629 5.75745 25.3634 5.75731 25.3642 5.75712C25.3656 5.75673 25.368 5.75611 25.3711 5.7553C25.3773 5.75367 25.3866 5.75127 25.3983 5.74836C25.4219 5.74251 25.4545 5.73472 25.4911 5.72698C25.5704 5.71018 25.6457 5.69847 25.6882 5.69847V5.19847C25.5887 5.19847 25.4683 5.2207 25.3874 5.23784C25.3439 5.24707 25.3054 5.25625 25.2777 5.26313C25.2638 5.26658 25.2525 5.26948 25.2446 5.27157C25.2406 5.27261 25.2374 5.27345 25.2351 5.27405C25.234 5.27436 25.2331 5.2746 25.2324 5.27478C25.2321 5.27487 25.2318 5.27494 25.2316 5.275C25.2315 5.27503 25.2314 5.27505 25.2313 5.27507C25.2313 5.27508 25.2313 5.27509 25.2312 5.2751C25.2312 5.27511 25.2312 5.27511 25.2312 5.27511C25.2312 5.27512 25.2312 5.27512 25.2968 5.51635ZM25.4892 5.83414C25.5314 5.78326 25.5733 5.72149 25.5931 5.64971C25.6162 5.56641 25.6096 5.46226 25.5384 5.37646C25.4799 5.30596 25.4057 5.28346 25.3738 5.27578C25.3544 5.2711 25.3376 5.26886 25.3253 5.26772C25.319 5.26714 25.3133 5.2668 25.3086 5.2666C25.3063 5.2665 25.3041 5.26644 25.3021 5.2664C25.3011 5.26638 25.3002 5.26637 25.2993 5.26636C25.2989 5.26636 25.2985 5.26635 25.298 5.26635C25.2978 5.26635 25.2976 5.26635 25.2974 5.26635C25.2973 5.26635 25.2972 5.26635 25.2971 5.26635C25.297 5.26635 25.2968 5.26635 25.2968 5.51635C25.2968 5.76635 25.2967 5.76635 25.2965 5.76635C25.2965 5.76635 25.2963 5.76635 25.2962 5.76635C25.296 5.76635 25.2958 5.76635 25.2957 5.76635C25.2953 5.76634 25.2949 5.76634 25.2945 5.76634C25.2937 5.76633 25.293 5.76632 25.2923 5.7663C25.2908 5.76628 25.2893 5.76623 25.2879 5.76617C25.285 5.76605 25.2821 5.76587 25.2791 5.76559C25.2735 5.76507 25.2659 5.76407 25.2567 5.76186C25.2454 5.75912 25.1958 5.74651 25.1537 5.69577C25.1302 5.66755 25.114 5.633 25.1079 5.59589C25.102 5.56054 25.1068 5.5325 25.1112 5.51641C25.1188 5.48911 25.1278 5.48664 25.1044 5.51483L25.4892 5.83414ZM25.0194 5.97835C25.0536 5.98208 25.1288 5.99131 25.2069 5.98192C25.2897 5.97198 25.4029 5.93815 25.4892 5.83414L25.1044 5.51483C25.1147 5.50241 25.1271 5.49397 25.1374 5.48923C25.1464 5.48507 25.151 5.48505 25.1472 5.4855C25.1434 5.48596 25.1355 5.48638 25.122 5.4857C25.1081 5.48499 25.0936 5.48348 25.0735 5.48129L25.0194 5.97835ZM25.2066 5.6728C25.1845 5.64628 25.184 5.64209 25.189 5.65191C25.1914 5.65651 25.2036 5.68035 25.2079 5.71701C25.2129 5.75929 25.2075 5.82692 25.1587 5.88881C25.1145 5.9448 25.06 5.96334 25.037 5.96937C25.013 5.97564 24.9957 5.97558 24.9936 5.97559C24.9907 5.9756 24.993 5.97548 25.0194 5.97835L25.0735 5.48129C25.0578 5.47959 25.0229 5.47542 24.9909 5.47559C24.9743 5.47568 24.9445 5.47675 24.9104 5.48566C24.8773 5.49433 24.8151 5.51702 24.7661 5.57913C24.7125 5.64713 24.7051 5.72285 24.7113 5.77564C24.7169 5.82282 24.7336 5.8596 24.7441 5.88003C24.7653 5.92151 24.7956 5.96053 24.8221 5.99244L25.2066 5.6728ZM25.3328 6.12452C25.3754 6.06011 25.3787 5.99395 25.3736 5.95126C25.369 5.91172 25.3563 5.88151 25.349 5.86601C25.3346 5.83513 25.3159 5.80919 25.3054 5.79502C25.2822 5.76356 25.2466 5.72098 25.2066 5.6728L24.8221 5.99244C24.8674 6.04697 24.8909 6.07528 24.9033 6.09207C24.9106 6.10201 24.9039 6.09453 24.896 6.07761C24.892 6.06909 24.8812 6.04472 24.8771 6.01004C24.8726 5.97222 24.8752 5.90994 24.9158 5.84856L25.3328 6.12452ZM24.9451 6.22764C24.9784 6.22764 25.006 6.23126 25.0373 6.23537C25.0479 6.23676 25.076 6.24073 25.1024 6.24119C25.1156 6.24141 25.1449 6.24137 25.1793 6.23268C25.2132 6.22411 25.2835 6.19894 25.3328 6.12452L24.9158 5.84857C24.9627 5.77774 25.0288 5.75499 25.0568 5.74791C25.0854 5.7407 25.1072 5.74119 25.1111 5.74126C25.1175 5.74137 25.1206 5.74183 25.1173 5.74148C25.1144 5.74117 25.1102 5.74065 25.1023 5.73961C25.0722 5.73567 25.015 5.72764 24.9451 5.72764V6.22764ZM24.5764 6.14736C24.6669 6.17801 24.8053 6.22764 24.9451 6.22764V5.72764C24.904 5.72764 24.8492 5.71183 24.7368 5.67377L24.5764 6.14736ZM24.3043 6.08262C24.3783 6.08262 24.4572 6.10698 24.5764 6.14736L24.7368 5.67377C24.6317 5.6382 24.4745 5.58262 24.3043 5.58262V6.08262ZM24.5732 5.835C24.5374 5.81368 24.5015 5.79224 24.4692 5.77118C24.4341 5.7483 24.4166 5.73434 24.4117 5.72961C24.4078 5.72589 24.4229 5.7387 24.437 5.7667C24.4518 5.796 24.4847 5.88575 24.4275 5.9823C24.3801 6.0622 24.3077 6.07938 24.3023 6.08077C24.2883 6.08434 24.2856 6.08262 24.3043 6.08262V5.58262C24.2671 5.58262 24.2227 5.58507 24.1787 5.59628C24.1433 5.6053 24.0529 5.63357 23.9974 5.72731C23.9319 5.83768 23.9664 5.94401 23.9906 5.99191C24.0141 6.0385 24.0463 6.07192 24.0652 6.09012C24.1366 6.15874 24.2588 6.22971 24.3171 6.26445L24.5732 5.835ZM24.5905 5.84535C24.5848 5.84195 24.579 5.83846 24.5732 5.835L24.3171 6.26445C24.323 6.26796 24.3285 6.27127 24.3339 6.27447L24.5905 5.84535ZM24.3082 6.38384C24.363 6.38399 24.4136 6.38417 24.4535 6.38296C24.4801 6.38214 24.5451 6.38079 24.6017 6.36042C24.6214 6.35337 24.7365 6.3115 24.7705 6.17808C24.8042 6.04571 24.7245 5.95404 24.7111 5.93862C24.6714 5.89324 24.6153 5.86019 24.5905 5.84535L24.3339 6.27447C24.347 6.2823 24.3537 6.28675 24.3563 6.28861C24.3616 6.29239 24.3496 6.28491 24.3345 6.26754C24.3302 6.26261 24.2541 6.17967 24.286 6.05455C24.3182 5.92839 24.4259 5.8923 24.4327 5.88986C24.4548 5.88193 24.4694 5.88119 24.4632 5.88186C24.4603 5.88216 24.4528 5.88274 24.4382 5.88319C24.4086 5.88409 24.3679 5.88401 24.3096 5.88384L24.3082 6.38384ZM24.2352 6.3837C24.2611 6.3837 24.2853 6.38377 24.3082 6.38384L24.3096 5.88384C24.2868 5.88377 24.2619 5.8837 24.2352 5.8837V6.3837ZM23.9367 6.36021C23.9862 6.36871 24.0765 6.3837 24.2352 6.3837V5.8837C24.1133 5.8837 24.0526 5.8728 24.0212 5.86741L23.9367 6.36021ZM24.1824 6.1337C24.1824 6.12344 24.1839 6.151 24.1746 6.18463C24.1687 6.20576 24.1563 6.23884 24.129 6.27205C24.0999 6.30738 24.064 6.33078 24.0286 6.34423C23.9966 6.35642 23.9695 6.35878 23.9556 6.35934C23.9414 6.35992 23.931 6.35891 23.9281 6.35861C23.9241 6.35819 23.9225 6.35779 23.9367 6.36021L24.0212 5.86741C24.0141 5.86618 23.996 5.86296 23.9793 5.86124C23.9706 5.86033 23.9138 5.85297 23.8508 5.8769C23.7566 5.91276 23.7098 5.98975 23.6928 6.05099C23.6814 6.0921 23.6824 6.13002 23.6824 6.1337H24.1824ZM23.6165 6.31428C23.6764 6.33538 23.7447 6.35957 23.7978 6.37406C23.8209 6.38036 23.862 6.39093 23.9049 6.39248C23.9225 6.39311 23.9752 6.39431 24.0326 6.36771C24.0654 6.35254 24.1062 6.32526 24.1379 6.27853C24.1706 6.23042 24.1824 6.17844 24.1824 6.1337H23.6824C23.6824 6.0923 23.6933 6.04317 23.7244 5.99742C23.7546 5.95306 23.793 5.92769 23.8226 5.91396C23.8738 5.89027 23.9172 5.8926 23.9229 5.8928C23.942 5.89349 23.9487 5.89698 23.9295 5.89171C23.8979 5.88309 23.8497 5.86629 23.7824 5.84263L23.6165 6.31428ZM23.3287 6.22764C23.3258 6.22764 23.3327 6.22753 23.3534 6.23178C23.3725 6.23569 23.3965 6.24188 23.4254 6.25042C23.4839 6.26768 23.5492 6.29063 23.6165 6.31428L23.7824 5.84263C23.7179 5.81992 23.6401 5.79246 23.5671 5.77091C23.5012 5.75144 23.4105 5.72764 23.3287 5.72764V6.22764ZM23.68 6.26669C23.802 6.04848 23.802 6.04849 23.802 6.04849C23.802 6.04849 23.802 6.0485 23.802 6.0485C23.802 6.0485 23.802 6.0485 23.802 6.04849C23.802 6.04848 23.8019 6.04845 23.8018 6.0484C23.8017 6.04831 23.8014 6.04815 23.801 6.04792C23.8002 6.04747 23.7989 6.04675 23.7972 6.04579C23.7938 6.04388 23.7887 6.04099 23.7822 6.03728C23.7692 6.02984 23.7507 6.01913 23.7289 6.00627C23.6848 5.98022 23.6297 5.94666 23.5807 5.91407C23.5562 5.89776 23.5351 5.88292 23.5186 5.87033C23.5002 5.85629 23.4949 5.85062 23.4968 5.85268C23.4973 5.85322 23.5079 5.86427 23.5189 5.88442C23.5269 5.89896 23.5586 5.96004 23.5405 6.04329C23.5181 6.14568 23.4422 6.19546 23.3978 6.21315C23.3601 6.22817 23.331 6.22764 23.3287 6.22764V5.72764C23.3056 5.72764 23.2611 5.72938 23.2128 5.74863C23.1577 5.77056 23.0759 5.82654 23.0519 5.93684C23.0321 6.02799 23.0662 6.09866 23.0802 6.12421C23.0972 6.15538 23.1174 6.17885 23.1305 6.19294C23.1784 6.24453 23.2513 6.2954 23.3036 6.33027C23.3632 6.36994 23.427 6.40864 23.4746 6.43679C23.4987 6.45102 23.5193 6.4629 23.5339 6.47126C23.5413 6.47545 23.5471 6.47878 23.5512 6.4811C23.5533 6.48226 23.5549 6.48317 23.556 6.48381C23.5566 6.48413 23.557 6.48438 23.5574 6.48456C23.5575 6.48466 23.5577 6.48473 23.5578 6.48479C23.5578 6.48482 23.5579 6.48484 23.5579 6.48486C23.5579 6.48487 23.5579 6.48488 23.5579 6.48489C23.558 6.4849 23.558 6.48491 23.68 6.26669ZM23.1706 6.36525C23.2552 6.39971 23.3688 6.4358 23.4548 6.46179C23.4992 6.47518 23.5387 6.48662 23.5672 6.49472C23.5815 6.49878 23.593 6.50201 23.6011 6.50425C23.6051 6.50538 23.6083 6.50625 23.6105 6.50685C23.6115 6.50716 23.6124 6.50739 23.613 6.50756C23.6133 6.50764 23.6135 6.50771 23.6137 6.50775C23.6138 6.50778 23.6139 6.5078 23.6139 6.50781C23.614 6.50782 23.614 6.50782 23.614 6.50783C23.614 6.50783 23.614 6.50783 23.614 6.50784C23.614 6.50784 23.614 6.50784 23.68 6.26669C23.7459 6.02554 23.7459 6.02555 23.7459 6.02555C23.7459 6.02555 23.7459 6.02555 23.7459 6.02555C23.7459 6.02555 23.7459 6.02555 23.7459 6.02555C23.7459 6.02554 23.7459 6.02554 23.7458 6.02553C23.7458 6.0255 23.7456 6.02546 23.7454 6.0254C23.745 6.02528 23.7443 6.0251 23.7434 6.02485C23.7416 6.02435 23.7388 6.02358 23.7352 6.02257C23.7279 6.02055 23.7173 6.01757 23.704 6.0138C23.6774 6.00624 23.6405 5.99556 23.5993 5.98312C23.5143 5.95746 23.4203 5.92705 23.3591 5.90215L23.1706 6.36525ZM23.5909 6.26482C23.5401 6.18813 23.499 6.12537 23.4786 6.0863C23.4741 6.07762 23.4736 6.07572 23.4748 6.07895C23.4755 6.08075 23.4777 6.08672 23.4798 6.09589C23.4817 6.10405 23.4854 6.12247 23.4848 6.14723C23.4842 6.17112 23.4793 6.21669 23.4496 6.2649C23.4161 6.31921 23.3649 6.35449 23.3115 6.36989C23.2649 6.38333 23.2267 6.37902 23.2087 6.3759C23.1892 6.37252 23.1757 6.36735 23.1706 6.36525L23.3591 5.90215C23.3422 5.89528 23.265 5.8629 23.1729 5.88947C23.1146 5.90628 23.0598 5.94427 23.0239 6.00249C22.9918 6.0546 22.9856 6.10529 22.9849 6.13538C22.9836 6.19075 22.9997 6.23583 23.0062 6.25332C23.015 6.27696 23.0257 6.29906 23.0351 6.31714C23.0705 6.38513 23.1296 6.4738 23.1739 6.54079L23.5909 6.26482ZM23.4944 6.86206C23.5345 6.86206 23.5966 6.85231 23.6542 6.80636C23.7129 6.75956 23.7369 6.69925 23.7454 6.65603C23.7593 6.58572 23.7395 6.52834 23.7359 6.51726C23.7235 6.47914 23.7035 6.44353 23.692 6.42353C23.6649 6.37655 23.6252 6.31666 23.5909 6.26482L23.1739 6.54079C23.2118 6.59804 23.2413 6.64279 23.2588 6.67316C23.2696 6.69184 23.2657 6.68809 23.2605 6.67216C23.2587 6.6666 23.2553 6.65522 23.2529 6.63977C23.2508 6.62604 23.2475 6.59634 23.2549 6.55906C23.2629 6.51879 23.2856 6.46075 23.3424 6.41546C23.3981 6.37103 23.4576 6.36206 23.4944 6.36206V6.86206ZM23.2853 6.80518C23.3089 6.81476 23.3384 6.82678 23.3647 6.83612C23.379 6.84118 23.4347 6.86206 23.4944 6.86206V6.36206C23.5095 6.36206 23.5208 6.36366 23.5263 6.36456C23.5323 6.36555 23.5363 6.36654 23.5375 6.36687C23.5397 6.36743 23.5383 6.36718 23.5318 6.36487C23.5258 6.36273 23.5179 6.35975 23.5076 6.35568C23.4973 6.35162 23.4862 6.34711 23.4733 6.34189L23.2853 6.80518ZM23.3957 6.54931C23.3957 6.57879 23.3885 6.62673 23.3546 6.67406C23.3201 6.72212 23.2752 6.74564 23.2424 6.75592C23.2125 6.7653 23.1897 6.76494 23.1821 6.76463C23.1733 6.76428 23.1693 6.76319 23.1718 6.76373C23.1907 6.76773 23.2259 6.78109 23.2853 6.80518L23.4733 6.34188C23.4289 6.32385 23.3473 6.2898 23.2753 6.27456C23.2453 6.2682 23.1716 6.25411 23.0927 6.27885C23.0462 6.29345 22.9903 6.32411 22.9483 6.38263C22.9068 6.44044 22.8957 6.50217 22.8957 6.54931H23.3957ZM23.4107 6.48235C23.3963 6.48235 23.3844 6.48039 23.3757 6.47794C23.3668 6.47542 23.3633 6.47298 23.364 6.47343C23.3646 6.47381 23.3721 6.47901 23.3801 6.49216C23.3888 6.5064 23.3957 6.52646 23.3957 6.54931H22.8957C22.8957 6.70599 22.9863 6.82127 23.083 6.88698C23.1788 6.9521 23.2959 6.98235 23.4107 6.98235V6.48235ZM23.4944 7.14636C23.6089 7.14636 23.7117 7.08397 23.7624 6.9813C23.8058 6.89324 23.7987 6.80245 23.777 6.73636C23.7294 6.59117 23.59 6.48235 23.4107 6.48235V6.98235C23.3772 6.98235 23.3227 6.95553 23.302 6.89234C23.2938 6.86726 23.2857 6.81747 23.3139 6.76016C23.329 6.72955 23.3542 6.69869 23.3906 6.67629C23.4272 6.65384 23.4645 6.64636 23.4944 6.64636V7.14636ZM23.3217 7.11484C23.3449 7.1217 23.4205 7.14636 23.4944 7.14636V6.64636C23.5017 6.64636 23.506 6.64699 23.5065 6.64705C23.5071 6.64714 23.5057 6.64697 23.5019 6.64608C23.4982 6.64521 23.4932 6.64393 23.4865 6.64205C23.4796 6.64013 23.4724 6.63801 23.4633 6.63532L23.3217 7.11484ZM23.5148 6.89636C23.5148 6.92278 23.5073 6.99122 23.4456 7.04858C23.3881 7.10194 23.3256 7.1059 23.308 7.1062C23.2888 7.10652 23.279 7.10324 23.2875 7.10524C23.2943 7.10683 23.3034 7.10945 23.3217 7.11484L23.4633 6.63532C23.4459 6.63018 23.3706 6.60507 23.2995 6.60627C23.2583 6.60697 23.1763 6.61624 23.1053 6.6822C23.03 6.75213 23.0148 6.84044 23.0148 6.89636H23.5148ZM23.5057 6.82771C23.4975 6.81873 23.4937 6.81442 23.4907 6.8109C23.488 6.80768 23.4894 6.80898 23.4922 6.81344C23.4952 6.81819 23.5011 6.82825 23.5061 6.84301C23.5113 6.85846 23.5148 6.87664 23.5148 6.89636H23.0148C23.0148 7.0491 23.1239 7.15105 23.1357 7.16403L23.5057 6.82771ZM23.6607 7.19332C23.6607 6.99275 23.5504 6.87684 23.5057 6.82771L23.1357 7.16404C23.1467 7.1761 23.1523 7.18235 23.157 7.18826C23.1611 7.19342 23.1623 7.19554 23.1623 7.19556C23.1623 7.19556 23.1623 7.19556 23.1623 7.19555C23.1623 7.19555 23.1623 7.19554 23.1623 7.19553C23.1623 7.19552 23.1623 7.19549 23.1623 7.19546C23.1622 7.1954 23.1622 7.19531 23.1621 7.1952C23.162 7.19496 23.1619 7.19464 23.1617 7.19425C23.1614 7.19342 23.1611 7.19252 23.1608 7.19165C23.1603 7.18959 23.1607 7.18974 23.1607 7.19332H23.6607ZM23.0534 7.14153C23.0215 7.19213 22.9398 7.36151 23.0759 7.50546C23.1852 7.62107 23.3297 7.59523 23.3811 7.58026C23.5237 7.53866 23.6607 7.39904 23.6607 7.19332H23.1607C23.1607 7.1578 23.1892 7.1154 23.241 7.10027C23.2547 7.0963 23.2782 7.09164 23.3092 7.09531C23.3391 7.09886 23.3928 7.11282 23.4393 7.16197C23.4907 7.2164 23.5041 7.28308 23.4997 7.33313C23.4958 7.37652 23.4797 7.40291 23.4763 7.40837L23.0534 7.14153ZM23.2678 7.02311C23.2678 7.05043 23.2579 7.14724 23.1591 7.20595C23.0771 7.25469 23.0035 7.23249 22.9951 7.22998C22.9776 7.22478 22.9714 7.21944 22.9774 7.22341C22.9816 7.22613 22.989 7.23166 22.998 7.24006C23.0183 7.2589 23.0302 7.27627 23.033 7.28182C23.0343 7.28435 23.0283 7.27387 23.026 7.25238C23.0235 7.22853 23.0256 7.1856 23.0534 7.14153L23.4763 7.40837C23.5678 7.26335 23.5091 7.1154 23.4795 7.05671C23.4427 6.98365 23.3883 6.92011 23.338 6.87344C23.2925 6.83119 23.2211 6.77557 23.1378 6.75077C23.1006 6.73972 23.0028 6.71722 22.9036 6.77614C22.7877 6.84503 22.7678 6.96248 22.7678 7.02311H23.2678ZM23.2678 7.19332V7.02311H22.7678V7.19332H23.2678ZM23.015 7.57409C23.0245 7.57142 23.1366 7.5487 23.2072 7.44192C23.264 7.35606 23.2678 7.25621 23.2678 7.19332H22.7678C22.7678 7.21546 22.7664 7.22209 22.7669 7.21955C22.7674 7.21704 22.7716 7.19421 22.7903 7.16601C22.8118 7.13338 22.8404 7.11189 22.865 7.09962C22.8816 7.09132 22.8961 7.08812 22.8801 7.09262L23.015 7.57409ZM23.0368 7.5579C23.0359 7.55881 23.0336 7.56119 23.0295 7.56421C23.0255 7.56727 23.0209 7.57008 23.0162 7.57244C23.0079 7.57663 23.001 7.57799 23.015 7.57409L22.8801 7.09262C22.8405 7.1037 22.7535 7.12818 22.6705 7.2176L23.0368 7.5579ZM23.0315 7.55424C23.0325 7.55006 23.0316 7.5539 23.03 7.55863C23.0283 7.56385 23.0263 7.56833 23.0245 7.57166C23.0212 7.57795 23.0222 7.57363 23.0368 7.5579L22.6705 7.2176C22.6324 7.25855 22.6031 7.29868 22.5816 7.33978C22.5585 7.38385 22.5497 7.41941 22.5458 7.43522L23.0315 7.55424ZM22.7456 7.76659C22.7571 7.76659 22.7764 7.76641 22.7973 7.76392C22.8161 7.76167 22.8598 7.75517 22.9062 7.72796C22.9624 7.69498 22.9954 7.64825 23.0134 7.60808C23.021 7.59131 23.0253 7.57701 23.0275 7.56944C23.0295 7.5622 23.0312 7.55529 23.0315 7.55425L22.5458 7.43521C22.5429 7.44723 22.5472 7.4257 22.5573 7.40331C22.5727 7.3689 22.6024 7.32653 22.653 7.29677C22.6939 7.27279 22.73 7.2684 22.738 7.26745C22.7479 7.26627 22.7529 7.26659 22.7456 7.26659V7.76659ZM22.4489 7.56623C22.4619 7.58587 22.4876 7.62592 22.5169 7.65851C22.5423 7.68677 22.6194 7.76659 22.7456 7.76659V7.26659C22.7936 7.26659 22.8311 7.28239 22.8545 7.2967C22.8756 7.30965 22.8871 7.32238 22.8889 7.32443C22.8913 7.32708 22.8906 7.32665 22.8856 7.31955C22.8806 7.31256 22.875 7.30404 22.8661 7.29063L22.4489 7.56623ZM22.3113 7.42918C22.3647 7.44794 22.3963 7.48655 22.4489 7.56623L22.8661 7.29063C22.8162 7.21513 22.705 7.03756 22.4771 6.95747L22.3113 7.42918ZM22.4863 7.28981C22.4908 7.26798 22.4892 7.28064 22.4826 7.29644C22.4725 7.32077 22.445 7.36975 22.3843 7.40014C22.3316 7.42656 22.2885 7.42096 22.2843 7.42044C22.2785 7.4197 22.2849 7.4199 22.3113 7.42918L22.4771 6.95747C22.4367 6.94327 22.3922 6.93011 22.3472 6.9244C22.3037 6.9189 22.233 6.9167 22.1603 6.95313C22.0797 6.99352 22.0398 7.05912 22.0208 7.10494C22.0053 7.14222 21.9982 7.18122 21.9966 7.18883L22.4863 7.28981ZM22.2978 7.59169C22.4477 7.48537 22.4751 7.3444 22.4863 7.28981L21.9966 7.18883C21.9955 7.19457 21.9947 7.198 21.994 7.20121C21.9934 7.20416 21.9929 7.20582 21.9927 7.2067C21.9922 7.20834 21.9927 7.20628 21.9946 7.2024C21.9966 7.19824 21.9995 7.19363 22.003 7.18944C22.0065 7.18529 22.0089 7.18357 22.0086 7.18381L22.2978 7.59169ZM22.2954 7.354C22.283 7.34085 22.2921 7.34941 22.3011 7.36332C22.3135 7.38248 22.3362 7.42671 22.3319 7.48763C22.3279 7.54599 22.3015 7.58241 22.2922 7.59368C22.2836 7.6041 22.2812 7.60341 22.2978 7.59169L22.0086 7.18381C21.9743 7.2081 21.9374 7.23815 21.9065 7.27554C21.875 7.31378 21.8387 7.37341 21.8332 7.4527C21.8274 7.53455 21.8571 7.59744 21.8811 7.6345C21.9016 7.66631 21.9269 7.69199 21.9313 7.6967L22.2954 7.354ZM22.4032 7.60037C22.4032 7.45428 22.3038 7.36299 22.2954 7.354L21.9313 7.6967C21.9367 7.70246 21.9374 7.70322 21.9374 7.70321C21.937 7.70275 21.9331 7.69826 21.9283 7.69059C21.9174 7.67303 21.9032 7.64138 21.9032 7.60037H22.4032ZM21.7255 7.38775C21.7255 7.47349 21.7548 7.54823 21.7805 7.59865C21.8078 7.65242 21.843 7.70168 21.8788 7.74136C21.9068 7.77233 21.9628 7.82893 22.0389 7.85702C22.0743 7.87009 22.1842 7.9018 22.2908 7.82565C22.3958 7.75066 22.4032 7.63789 22.4032 7.60037H21.9032C21.9032 7.58546 21.905 7.48682 22.0002 7.41877C22.0972 7.34955 22.1932 7.38102 22.212 7.38794C22.2271 7.39352 22.2376 7.39949 22.2428 7.40272C22.2485 7.40619 22.2519 7.40887 22.2531 7.40984C22.2553 7.4116 22.2539 7.41075 22.2499 7.40622C22.2413 7.39673 22.232 7.38351 22.226 7.37183C22.2184 7.3568 22.2255 7.36312 22.2255 7.38775H21.7255ZM22.0235 7.19332C22.0235 7.22253 22.0147 7.31158 21.9279 7.37387C21.848 7.43121 21.7685 7.41661 21.7479 7.41178C21.7217 7.40564 21.7072 7.39635 21.7067 7.396C21.704 7.39435 21.705 7.3947 21.7089 7.39817C21.7175 7.40569 21.7259 7.4158 21.7306 7.4234C21.7373 7.43443 21.7255 7.42145 21.7255 7.38775H22.2255C22.2255 7.29296 22.1884 7.21383 22.1573 7.16284C22.1241 7.1084 22.082 7.06061 22.04 7.0235C22.0054 6.99291 21.9423 6.94382 21.8622 6.92502C21.8227 6.91575 21.7274 6.90232 21.6365 6.96758C21.5386 7.03779 21.5235 7.14153 21.5235 7.19332H22.0235ZM21.6697 7.63775C21.739 7.63775 21.8151 7.61954 21.8816 7.56864C21.9461 7.51926 21.9794 7.4562 21.9966 7.40654C22.0264 7.32102 22.0235 7.22522 22.0235 7.19332H21.5235C21.5235 7.2176 21.5234 7.23189 21.5225 7.2438C21.5216 7.25622 21.5206 7.25313 21.5244 7.24228C21.5287 7.22994 21.5425 7.19855 21.5778 7.17151C21.6151 7.14296 21.6522 7.13775 21.6697 7.13775V7.63775ZM21.8648 7.47376C21.8656 7.46076 21.8657 7.46331 21.8649 7.46818C21.8642 7.47331 21.8602 7.49895 21.843 7.52972C21.8228 7.56593 21.7903 7.59857 21.7481 7.61872C21.7109 7.63646 21.6803 7.63775 21.6697 7.63775V7.13775C21.6341 7.13775 21.5844 7.14281 21.5328 7.16746C21.4761 7.19452 21.4336 7.23723 21.4064 7.28603C21.3822 7.32938 21.3741 7.37013 21.3707 7.39229C21.3674 7.41419 21.3662 7.43568 21.3658 7.44291L21.8648 7.47376ZM21.6814 7.80925C21.7583 7.75867 21.8091 7.69177 21.8369 7.61805C21.8615 7.55309 21.8637 7.49182 21.8648 7.47376L21.3658 7.44291C21.3654 7.44872 21.3652 7.45178 21.365 7.45452C21.3648 7.45699 21.3647 7.45774 21.3647 7.45747C21.3648 7.45689 21.3657 7.4505 21.3693 7.44121C21.373 7.43131 21.3788 7.42036 21.387 7.41013C21.3951 7.4 21.4027 7.39411 21.4067 7.39149L21.6814 7.80925ZM21.2348 7.55503C21.2344 7.562 21.2323 7.58909 21.2337 7.61503C21.2344 7.62908 21.2365 7.65478 21.2454 7.68458C21.2544 7.71454 21.2747 7.7636 21.3221 7.80608C21.4324 7.90485 21.559 7.86709 21.5888 7.8568C21.6285 7.84309 21.6619 7.82207 21.6814 7.80925L21.4067 7.39149C21.3941 7.39978 21.4036 7.39178 21.4256 7.38418C21.4377 7.38001 21.5528 7.34144 21.6558 7.43369C21.6995 7.4729 21.7173 7.51726 21.7244 7.54125C21.7316 7.56506 21.7327 7.5835 21.733 7.58914C21.7335 7.59828 21.7327 7.60402 21.7338 7.58627L21.2348 7.55503ZM21.2453 7.54227C21.2422 7.53834 21.2396 7.53372 21.2378 7.52919C21.2361 7.52493 21.2357 7.52222 21.2357 7.52216C21.2357 7.52215 21.2358 7.52274 21.2358 7.52407C21.2359 7.52541 21.236 7.52734 21.236 7.53003C21.2359 7.53612 21.2356 7.54259 21.2348 7.55502L21.7338 7.58627C21.7365 7.54326 21.7533 7.37939 21.6384 7.23324L21.2453 7.54227ZM21.228 7.02483C21.2158 7.05344 21.1846 7.12476 21.1704 7.20533C21.1565 7.28399 21.15 7.42112 21.2453 7.54227L21.6384 7.23324C21.6539 7.25301 21.6598 7.27308 21.6616 7.28524C21.6631 7.29558 21.6616 7.29891 21.6627 7.29223C21.6638 7.28601 21.6664 7.27631 21.6712 7.26277C21.676 7.24921 21.6814 7.23622 21.6882 7.22019L21.228 7.02483ZM21.6087 7.28917C21.6188 7.28004 21.6115 7.28773 21.5959 7.29749C21.5946 7.29829 21.5551 7.32514 21.496 7.33159C21.4604 7.33548 21.3981 7.33393 21.3355 7.29386C21.2708 7.25242 21.2419 7.19308 21.2304 7.15192C21.2123 7.08726 21.227 7.03437 21.2272 7.03362C21.2301 7.02087 21.2333 7.01232 21.2334 7.01197C21.2338 7.01099 21.2332 7.01248 21.228 7.02483L21.6882 7.22019C21.6914 7.21269 21.698 7.19737 21.7031 7.18345C21.7056 7.17663 21.7106 7.16258 21.7145 7.14539C21.7157 7.14022 21.7306 7.08397 21.7119 7.01713C21.7001 6.97488 21.6707 6.91474 21.6052 6.87281C21.5419 6.83225 21.4786 6.83052 21.4417 6.83454C21.3801 6.84127 21.337 6.86968 21.331 6.87341C21.306 6.88905 21.2846 6.90815 21.275 6.91679L21.6087 7.28917ZM21.1253 7.44332C21.2026 7.44334 21.4277 7.45132 21.6087 7.28917L21.275 6.91679C21.2659 6.92498 21.2529 6.93212 21.2287 6.93704C21.201 6.94266 21.1709 6.94333 21.1254 6.94332L21.1253 7.44332ZM21.1219 7.44332H21.1253V6.94332H21.1219V7.44332ZM21.2066 7.43158C21.2139 7.42269 21.218 7.41759 21.222 7.41315C21.2258 7.40882 21.2265 7.40845 21.2246 7.41011C21.223 7.41149 21.2146 7.41872 21.1994 7.4261C21.1834 7.43384 21.1567 7.44332 21.1219 7.44332V6.94332C21.0104 6.94332 20.9324 7.00173 20.8974 7.03201C20.8596 7.06475 20.8298 7.10247 20.8186 7.11626L21.2066 7.43158ZM20.7196 7.27495C20.7196 7.28902 20.7191 7.33976 20.7398 7.3926C20.7511 7.42126 20.7813 7.48371 20.8543 7.52443C20.9362 7.57015 21.0167 7.55879 21.0642 7.54204C21.1062 7.52722 21.1347 7.50488 21.1465 7.49515C21.1606 7.48349 21.1714 7.47228 21.1778 7.4654C21.1899 7.45235 21.2017 7.43765 21.2066 7.43158L20.8186 7.11626C20.8101 7.12673 20.8098 7.1269 20.8113 7.12525C20.8124 7.12406 20.8183 7.11768 20.8279 7.10974C20.8352 7.10374 20.8596 7.08403 20.8979 7.07051C20.9417 7.05506 21.0189 7.04368 21.098 7.08782C21.1681 7.12696 21.196 7.18627 21.2053 7.21002C21.2222 7.25302 21.2196 7.28679 21.2196 7.27495H20.7196ZM21.341 6.64636C21.1159 6.64636 20.9573 6.77525 20.866 6.89445C20.8195 6.95508 20.7847 7.01983 20.7609 7.08032C20.7387 7.13682 20.7196 7.20609 20.7196 7.27495H21.2196C21.2196 7.29161 21.2167 7.28748 21.2262 7.2632C21.2342 7.24292 21.2468 7.21955 21.2628 7.19857C21.2965 7.15458 21.3236 7.14636 21.341 7.14636V6.64636ZM21.5619 6.57064C21.5206 6.59875 21.4972 6.61389 21.4683 6.62549C21.4424 6.63591 21.404 6.64636 21.341 6.64636V7.14636C21.6031 7.14636 21.7483 7.04865 21.8434 6.98386L21.5619 6.57064ZM21.6548 6.51234C21.6175 6.53243 21.5839 6.55566 21.5619 6.57064L21.8434 6.98386C21.8696 6.96601 21.8817 6.95801 21.8922 6.95235L21.6548 6.51234ZM21.5545 6.77121C21.5759 6.78231 21.5927 6.79208 21.6046 6.80007C21.6189 6.80976 21.615 6.80948 21.6053 6.79746C21.5978 6.78826 21.5519 6.72816 21.5709 6.6367C21.5897 6.54668 21.6536 6.51299 21.6548 6.51234L21.8922 6.95235C21.9454 6.92368 22.0352 6.85984 22.0604 6.73866C22.086 6.61605 22.0271 6.52379 21.9937 6.48258C21.9308 6.40507 21.8337 6.35278 21.7848 6.32741L21.5545 6.77121ZM21.4456 6.27011C21.4236 6.31742 21.3976 6.38587 21.3918 6.46007C21.3865 6.52769 21.396 6.68896 21.5545 6.77121L21.7848 6.32741C21.833 6.35244 21.8644 6.39358 21.8794 6.43328C21.8923 6.46724 21.8908 6.49287 21.8903 6.49916C21.8894 6.51015 21.8883 6.50389 21.8991 6.48071L21.4456 6.27011ZM21.7918 6.595C21.8327 6.57276 21.8812 6.54144 21.9229 6.49893C21.961 6.46018 22.0235 6.38103 22.0235 6.26669H21.5235C21.5235 6.22839 21.5344 6.1986 21.5441 6.18003C21.5534 6.1622 21.5628 6.15201 21.5661 6.14868C21.5717 6.14302 21.5696 6.14671 21.5529 6.15581L21.7918 6.595ZM22.0235 6.26669C22.0235 6.24599 22.0225 6.17666 21.9746 6.10927C21.9466 6.06978 21.9043 6.03405 21.8485 6.01495C21.7952 5.99672 21.747 5.9995 21.7133 6.00636C21.6533 6.0186 21.6126 6.04903 21.5979 6.06049C21.5783 6.07582 21.5628 6.09175 21.5518 6.10397C21.5105 6.14992 21.4726 6.21199 21.4456 6.27011L21.8991 6.48071C21.9114 6.45417 21.9241 6.43765 21.9236 6.43829C21.9228 6.43918 21.9168 6.44587 21.9058 6.45445C21.8998 6.45917 21.8668 6.48536 21.8131 6.49629C21.7827 6.5025 21.7373 6.50536 21.6866 6.488C21.6333 6.46976 21.5932 6.43568 21.5669 6.39868C21.5226 6.33627 21.5235 6.27528 21.5235 6.26669H22.0235ZM21.4418 6.6943C21.5534 6.6943 21.693 6.64881 21.7918 6.595L21.5529 6.15581C21.5331 6.16657 21.5065 6.17745 21.4799 6.18533C21.467 6.18914 21.4561 6.19165 21.4479 6.1931C21.439 6.19469 21.4373 6.1943 21.4418 6.1943V6.6943ZM21.2331 6.15889C21.2155 6.20202 21.1844 6.27526 21.1714 6.33773C21.1661 6.36279 21.1507 6.44005 21.184 6.52271C21.204 6.57264 21.241 6.62205 21.2979 6.65566C21.3513 6.68723 21.4043 6.6943 21.4418 6.6943V6.1943C21.4655 6.1943 21.5075 6.19871 21.5523 6.22524C21.6007 6.2538 21.6316 6.29577 21.6478 6.3361C21.6623 6.37208 21.6634 6.40191 21.6632 6.41519C21.663 6.42949 21.6611 6.43851 21.6609 6.43965C21.6606 6.44112 21.662 6.43462 21.6692 6.41516C21.676 6.39692 21.6846 6.37579 21.6959 6.34831L21.2331 6.15889ZM21.294 5.97764C21.294 5.97696 21.294 5.98162 21.2917 5.99304C21.2895 6.00415 21.2857 6.01838 21.28 6.03613C21.2682 6.07291 21.2521 6.11246 21.2331 6.15889L21.6959 6.34831C21.7135 6.30518 21.7372 6.24758 21.756 6.18919C21.7741 6.133 21.794 6.05722 21.794 5.97764H21.294ZM21.3261 5.73032C21.3155 5.77705 21.294 5.86906 21.294 5.97764H21.794C21.794 5.93071 21.8032 5.88752 21.8137 5.84076L21.3261 5.73032ZM21.6892 5.93542C21.6903 5.93462 21.6865 5.9375 21.6789 5.94162C21.6735 5.94461 21.6527 5.95587 21.6217 5.96254C21.5908 5.96917 21.5205 5.97707 21.4472 5.93309C21.3721 5.88805 21.3455 5.81985 21.3368 5.78539C21.3284 5.75243 21.3297 5.72677 21.3301 5.71995C21.3304 5.71483 21.3308 5.71101 21.331 5.70894C21.3313 5.7068 21.3315 5.70553 21.3315 5.70539C21.3315 5.70537 21.3312 5.70716 21.3302 5.71203C21.3291 5.71684 21.3279 5.72243 21.3261 5.73032L21.8137 5.84076C21.8166 5.82814 21.8214 5.80754 21.8245 5.78883C21.8255 5.78291 21.8374 5.7253 21.8214 5.66244C21.8114 5.62302 21.7827 5.55132 21.7044 5.50431C21.6278 5.45838 21.5531 5.46585 21.5166 5.4737C21.455 5.48694 21.4092 5.52096 21.3989 5.52836L21.6892 5.93542ZM20.9464 5.94507C21.0471 5.95989 21.1805 5.97961 21.2964 5.99015C21.3538 5.99538 21.4143 5.99907 21.4679 5.99765C21.4946 5.99695 21.5259 5.99486 21.5574 5.98906C21.5832 5.98431 21.6373 5.97243 21.6892 5.93542L21.3989 5.52836C21.42 5.51324 21.4385 5.50585 21.4479 5.50257C21.4579 5.49906 21.4648 5.4977 21.4669 5.49732C21.4704 5.49667 21.4674 5.49749 21.4548 5.49783C21.4299 5.49848 21.3919 5.49677 21.3417 5.49221C21.2422 5.48316 21.1232 5.46571 21.0192 5.4504L20.9464 5.94507ZM20.7989 5.92448C20.7923 5.92448 20.7913 5.92405 20.8011 5.92504C20.8091 5.92584 20.8202 5.92717 20.8349 5.92911C20.8644 5.93301 20.9018 5.93852 20.9464 5.94507L21.0192 5.4504C20.9759 5.44404 20.9344 5.43791 20.9004 5.43342C20.8724 5.42972 20.8314 5.42448 20.7989 5.42448V5.92448ZM20.5991 5.4402C20.5881 5.46185 20.5597 5.51577 20.545 5.56541C20.5399 5.58238 20.5179 5.6542 20.5428 5.73652C20.5584 5.78801 20.5925 5.84339 20.6521 5.88182C20.7074 5.91752 20.7629 5.92448 20.7989 5.92448V5.42448C20.8253 5.42448 20.8734 5.42955 20.9232 5.46168C20.9772 5.49655 21.0077 5.54671 21.0213 5.59156C21.0333 5.63119 21.0315 5.66338 21.03 5.67766C21.0284 5.69343 21.0253 5.7042 21.0243 5.70765C21.0231 5.71178 21.0254 5.70508 21.0451 5.66627L20.5991 5.4402ZM20.905 5.67485C20.9098 5.67257 20.9057 5.67496 20.8951 5.67782C20.8878 5.67979 20.8542 5.68863 20.8083 5.68083C20.7513 5.67114 20.6835 5.63607 20.6427 5.56396C20.6094 5.50504 20.6119 5.45144 20.6134 5.43387C20.6162 5.40018 20.6267 5.38199 20.6197 5.39806C20.6157 5.40727 20.6096 5.41948 20.5991 5.4402L21.0451 5.66627C21.0539 5.64895 21.067 5.62318 21.0779 5.59828C21.0858 5.58025 21.1069 5.53183 21.1116 5.4756C21.114 5.44676 21.1152 5.38381 21.078 5.31794C21.0333 5.23888 20.9589 5.19926 20.892 5.18789C20.8362 5.17841 20.7895 5.18844 20.7653 5.19496C20.7378 5.20237 20.713 5.21266 20.6928 5.22209L20.905 5.67485ZM20.1189 5.76688C20.2185 5.76785 20.3579 5.76932 20.4933 5.76044C20.6199 5.75215 20.7804 5.7332 20.905 5.67485L20.6928 5.22209C20.6605 5.23724 20.5831 5.25348 20.4606 5.26151C20.3469 5.26897 20.226 5.2679 20.1238 5.26691L20.1189 5.76688ZM20.0419 5.76635C20.0639 5.76635 20.0893 5.76659 20.1189 5.76688L20.1238 5.26691C20.0949 5.26662 20.0668 5.26635 20.0419 5.26635V5.76635ZM19.8644 5.21191C19.8543 5.22278 19.8351 5.2435 19.8168 5.26646C19.8011 5.28621 19.7713 5.3254 19.7518 5.37529C19.7344 5.41961 19.696 5.55563 19.8036 5.67177C19.8883 5.76324 20.0021 5.76635 20.0419 5.76635V5.26635C20.0421 5.26635 20.0449 5.26635 20.0497 5.26689C20.0545 5.26742 20.0627 5.26864 20.0734 5.27159C20.0932 5.27711 20.1335 5.29215 20.1704 5.33197C20.2613 5.43014 20.2238 5.54122 20.2173 5.55767C20.2087 5.57967 20.1999 5.58803 20.2079 5.57803C20.2133 5.57123 20.2205 5.56327 20.2322 5.55056L19.8644 5.21191ZM20.1608 5.58425C20.172 5.57815 20.1641 5.58324 20.1484 5.58882C20.1433 5.59064 20.1328 5.59413 20.119 5.59704C20.108 5.59933 20.0781 5.60503 20.0396 5.60037C20 5.59557 19.9182 5.57453 19.8627 5.49147C19.8103 5.41301 19.8196 5.335 19.8257 5.30455C19.8323 5.27149 19.8442 5.24789 19.849 5.23887C19.8549 5.22769 19.8604 5.21951 19.8632 5.2154C19.8664 5.21085 19.8689 5.20752 19.8703 5.20579C19.8718 5.20393 19.8728 5.2027 19.8732 5.20227C19.8733 5.20214 19.8719 5.2037 19.8644 5.21191L20.2322 5.55056C20.237 5.5453 20.2465 5.53506 20.2546 5.52554C20.2586 5.52088 20.2662 5.51172 20.2741 5.50023C20.2754 5.49847 20.3045 5.45962 20.3159 5.40307C20.3222 5.37167 20.3313 5.2929 20.2786 5.2139C20.2228 5.13028 20.1403 5.10891 20.0997 5.104C20.0344 5.09609 19.9826 5.11712 19.9812 5.11759C19.9563 5.12642 19.9336 5.13868 19.923 5.14441L20.1608 5.58425ZM19.6664 5.69847C19.8276 5.69847 19.9922 5.6754 20.1608 5.58425L19.923 5.14441C19.8508 5.18341 19.7761 5.19847 19.6664 5.19847V5.69847ZM19.3517 5.50826C19.357 5.51756 19.3872 5.57603 19.443 5.62203C19.5106 5.67765 19.5899 5.69847 19.6664 5.69847V5.19847C19.6719 5.19847 19.686 5.19915 19.7048 5.20523C19.7248 5.21168 19.7441 5.22224 19.7608 5.23596C19.7764 5.24884 19.7854 5.26094 19.7887 5.26569C19.791 5.26894 19.7918 5.27075 19.786 5.26054L19.3517 5.50826ZM19.4116 5.54925C19.4224 5.54918 19.4221 5.55034 19.4147 5.5484C19.4062 5.54619 19.3926 5.54101 19.3778 5.53056C19.3496 5.51069 19.338 5.48429 19.3517 5.50826L19.786 5.26054C19.7764 5.24371 19.7403 5.17438 19.666 5.12196C19.5875 5.06659 19.4972 5.04867 19.4083 5.04926L19.4116 5.54925ZM18.9159 5.43242C18.9849 5.47848 19.0554 5.51684 19.151 5.53534C19.2305 5.55074 19.3194 5.54985 19.4116 5.54925L19.4083 5.04926C19.3575 5.04959 19.3223 5.04961 19.2943 5.04861C19.2668 5.04763 19.2532 5.04585 19.246 5.04445C19.2415 5.04359 19.2344 5.04388 19.1932 5.01642L18.9159 5.43242ZM18.9045 4.94592C18.9022 4.94752 18.8808 4.9619 18.8599 4.98195C18.8397 5.00135 18.7993 5.045 18.781 5.11432C18.7333 5.2951 18.8722 5.40331 18.9159 5.43242L19.1932 5.01642C19.1937 5.01676 19.2175 5.03191 19.2392 5.06693C19.266 5.11009 19.2825 5.17339 19.2645 5.24188C19.2493 5.29919 19.2168 5.33243 19.206 5.34283C19.1945 5.35387 19.184 5.36065 19.1908 5.35586L18.9045 4.94592ZM18.9818 5.3856C19.0031 5.3856 19.0146 5.38583 19.0204 5.38609C19.0359 5.38677 19.0116 5.3874 18.9801 5.37766C18.9696 5.37441 18.9494 5.36742 18.9264 5.35342C18.9039 5.33974 18.8655 5.31135 18.8377 5.26011C18.7672 5.13036 18.8374 5.01976 18.856 4.99464C18.8771 4.96615 18.8996 4.94971 18.9003 4.94917C18.9045 4.94584 18.9082 4.94337 18.9045 4.94592L19.1908 5.35586C19.1914 5.35547 19.1989 5.35031 19.2063 5.34454C19.2102 5.34156 19.2351 5.32291 19.2577 5.29243C19.2778 5.26532 19.3484 5.15296 19.2771 5.02165C19.2257 4.9268 19.1356 4.90238 19.1279 4.9C19.0888 4.88791 19.0503 4.88692 19.0426 4.88658C19.0252 4.88581 19.0045 4.8856 18.9818 4.8856V5.3856ZM18.4387 5.3856H18.9818V4.8856H18.4387V5.3856ZM18.537 4.70744C18.4554 4.70744 18.3789 4.73857 18.3346 4.75973C18.284 4.78394 18.2245 4.82008 18.1763 4.86649C18.1536 4.88838 18.118 4.92708 18.0948 4.98202C18.0689 5.04352 18.0522 5.14707 18.1178 5.24598C18.173 5.32918 18.255 5.35839 18.2968 5.36952C18.3445 5.38222 18.3939 5.3856 18.4387 5.3856V4.8856C18.4157 4.8856 18.4145 4.88342 18.4256 4.88637C18.4308 4.88776 18.4903 4.90304 18.5345 4.96954C18.589 5.05175 18.5726 5.13581 18.5555 5.17644C18.5475 5.19523 18.5387 5.20793 18.5338 5.21441C18.5286 5.22124 18.5246 5.22523 18.5233 5.22654C18.5213 5.22842 18.5311 5.22001 18.5503 5.21082C18.5584 5.20696 18.5638 5.20506 18.5656 5.20454C18.5698 5.20328 18.5587 5.20744 18.537 5.20744V4.70744ZM18.6179 5.10566C18.6352 5.09975 18.641 5.09909 18.6382 5.09951C18.6365 5.09976 18.6302 5.10062 18.6203 5.10049C18.6108 5.10037 18.5936 5.09929 18.5721 5.09323C18.525 5.08002 18.4491 5.03819 18.4179 4.94389C18.3919 4.86504 18.416 4.80268 18.425 4.78279C18.444 4.74099 18.4677 4.72642 18.4699 4.72499C18.4749 4.72165 18.4972 4.70744 18.537 4.70744V5.20744C18.6256 5.20744 18.6986 5.17319 18.7457 5.14203C18.7899 5.11279 18.847 5.06263 18.8802 4.98974C18.8963 4.95432 18.9226 4.87754 18.8926 4.78693C18.8576 4.68087 18.7717 4.62994 18.7071 4.61182C18.65 4.5958 18.5977 4.60005 18.5648 4.60493C18.5282 4.61036 18.4915 4.62044 18.4562 4.63254L18.6179 5.10566ZM18.0652 5.13601C18.2228 5.15012 18.4235 5.17211 18.6179 5.10566L18.4562 4.63254C18.381 4.65824 18.2932 4.65442 18.1098 4.638L18.0652 5.13601ZM17.7718 5.1191C17.8747 5.1191 17.9685 5.12736 18.0652 5.13601L18.1098 4.638C18.0146 4.62949 17.9 4.6191 17.7718 4.6191V5.1191ZM17.5791 4.4937C17.5209 4.4937 17.4193 4.50028 17.3354 4.56224C17.2851 4.59944 17.2223 4.67317 17.222 4.78269C17.2218 4.88311 17.2749 4.95141 17.3084 4.98437C17.3728 5.04791 17.458 5.0771 17.5201 5.09231C17.5917 5.10987 17.6763 5.1191 17.7718 5.1191V4.6191C17.7068 4.6191 17.6634 4.61265 17.6391 4.6067C17.6053 4.5984 17.6269 4.59623 17.6595 4.62842C17.677 4.64571 17.7223 4.69834 17.722 4.78406C17.7218 4.87889 17.667 4.9389 17.6326 4.96434C17.6014 4.98741 17.5755 4.99281 17.5726 4.99344C17.5668 4.99469 17.5682 4.9937 17.5791 4.9937V4.4937ZM17.4851 4.90184C17.5481 4.90184 17.5823 4.90695 17.5949 4.90984C17.6017 4.91141 17.5944 4.91055 17.5797 4.90299C17.5726 4.89929 17.5181 4.87177 17.486 4.80053C17.4674 4.75934 17.4594 4.70917 17.4699 4.65704C17.4799 4.60741 17.5034 4.5716 17.5229 4.54946C17.5577 4.50989 17.594 4.49683 17.5987 4.49506C17.6145 4.48919 17.6113 4.4937 17.5791 4.4937V4.9937C17.6418 4.9937 17.7112 4.98672 17.7732 4.96363C17.8011 4.95325 17.8539 4.93014 17.8982 4.87981C17.9224 4.85228 17.9489 4.81091 17.9601 4.75563C17.9717 4.69785 17.963 4.64194 17.9418 4.59501C17.9045 4.51229 17.8373 4.47328 17.8093 4.45882C17.7739 4.44049 17.7376 4.42959 17.7069 4.42254C17.6446 4.40822 17.5696 4.40184 17.4851 4.40184V4.90184ZM16.9672 4.8185C17.0811 4.8503 17.2625 4.90184 17.4851 4.90184V4.40184C17.3375 4.40184 17.2146 4.36843 17.1017 4.33691L16.9672 4.8185ZM16.8746 4.79391C16.8656 4.79391 16.867 4.79264 16.8881 4.79748C16.9078 4.80198 16.9319 4.80862 16.9672 4.8185L17.1017 4.33691C17.0503 4.32257 16.9562 4.29391 16.8746 4.29391V4.79391ZM16.8746 4.17027C16.8096 4.17027 16.7155 4.17722 16.6347 4.22843C16.5882 4.25792 16.5358 4.30923 16.5123 4.38815C16.489 4.46666 16.5048 4.53731 16.5268 4.58566C16.566 4.67187 16.6372 4.72105 16.6829 4.74534C16.7353 4.77322 16.8018 4.79391 16.8746 4.79391V4.29391C16.8953 4.29391 16.9087 4.29915 16.9176 4.30384C16.9196 4.30495 16.9567 4.32322 16.9819 4.37852C16.9968 4.41142 17.0106 4.46661 16.9916 4.53064C16.9724 4.59506 16.9306 4.63285 16.9024 4.65075C16.8582 4.67878 16.8313 4.67027 16.8746 4.67027V4.17027ZM17.1321 4.56722C17.1558 4.56722 17.159 4.56874 17.1508 4.56716C17.1473 4.56649 17.1289 4.56297 17.1051 4.55133C17.0862 4.54208 17.0233 4.5082 16.9905 4.42694C16.9516 4.33056 16.9845 4.24677 17.0108 4.20579C17.034 4.16985 17.0602 4.1509 17.0673 4.14589C17.0841 4.13398 17.0937 4.13159 17.0837 4.13544C17.0463 4.14983 16.9532 4.17027 16.8746 4.17027V4.67027C17.0127 4.67027 17.1668 4.63919 17.2633 4.60205C17.2868 4.59302 17.3227 4.57775 17.3565 4.55376C17.3721 4.54271 17.4045 4.51793 17.4312 4.47645C17.4612 4.42994 17.495 4.34092 17.4541 4.2397C17.4194 4.15362 17.3517 4.11531 17.3247 4.10213C17.2929 4.08656 17.2633 4.07962 17.2451 4.07614C17.2075 4.06892 17.1676 4.06722 17.1321 4.06722V4.56722ZM16.5153 4.4459C16.6113 4.47181 16.7212 4.5015 16.8244 4.52453C16.9236 4.54667 17.0358 4.56722 17.1321 4.56722V4.06722C17.0944 4.06722 17.0279 4.05764 16.9333 4.03654C16.8428 4.01633 16.7438 3.98968 16.6455 3.96316L16.5153 4.4459ZM16.2372 4.37842C16.2317 4.37842 16.2353 4.37798 16.2535 4.38108C16.2698 4.38386 16.2913 4.38833 16.3184 4.3947C16.373 4.40755 16.4392 4.42538 16.5153 4.4459L16.6455 3.96316C16.5719 3.9433 16.4971 3.92308 16.4328 3.90797C16.376 3.89462 16.3008 3.87842 16.2372 3.87842V4.37842ZM16.3168 3.85138C16.2708 3.85973 16.2213 3.86863 16.1902 3.87562C16.1822 3.87742 16.1711 3.88003 16.1598 3.88336C16.1543 3.88495 16.1448 3.88787 16.1338 3.89223C16.1305 3.89351 16.096 3.90614 16.0618 3.93499C16.0473 3.94722 15.995 3.99305 15.9778 4.0759C15.9552 4.18535 16.0082 4.27013 16.0553 4.31261C16.093 4.34669 16.1313 4.36017 16.1436 4.36433C16.1604 4.37002 16.1745 4.37278 16.1822 4.37412C16.2079 4.3786 16.2313 4.37842 16.2372 4.37842V3.87842C16.2372 3.87842 16.2373 3.87842 16.2374 3.87843C16.2376 3.87843 16.2379 3.87843 16.2383 3.87844C16.2391 3.87846 16.2405 3.87849 16.2424 3.87859C16.2446 3.8787 16.2545 3.87919 16.2678 3.88151C16.2744 3.88265 16.2875 3.88519 16.3036 3.89064C16.3152 3.89455 16.353 3.90776 16.3904 3.94154C16.4371 3.98373 16.49 4.0682 16.4674 4.17731C16.4503 4.25982 16.3983 4.30529 16.3842 4.31714C16.3509 4.34523 16.3181 4.35701 16.3172 4.35736C16.3085 4.36078 16.3021 4.36269 16.3004 4.36319C16.2965 4.36433 16.2955 4.36444 16.2998 4.36347C16.3181 4.35936 16.3543 4.35274 16.4061 4.34334L16.3168 3.85138ZM16.476 4.25898C16.5202 4.25898 16.5513 4.25978 16.5722 4.26094C16.5977 4.26236 16.5956 4.26375 16.5817 4.26026C16.5769 4.25905 16.567 4.25635 16.5545 4.2512C16.5435 4.24671 16.5196 4.23596 16.4938 4.2145C16.4678 4.19281 16.425 4.14733 16.4103 4.07372C16.3948 3.99606 16.4195 3.93215 16.4435 3.8941C16.4653 3.85957 16.4903 3.83926 16.5018 3.83066C16.5149 3.82076 16.5261 3.81464 16.5318 3.81166C16.5381 3.80839 16.5429 3.80635 16.5452 3.80539C16.5477 3.80435 16.5493 3.80382 16.5494 3.80376C16.5496 3.8037 16.5475 3.80442 16.5424 3.80584C16.5375 3.8072 16.5311 3.80886 16.5231 3.81078C16.507 3.81466 16.4871 3.81897 16.4642 3.82362C16.4183 3.83295 16.3661 3.84243 16.3168 3.85138L16.4061 4.34334C16.4908 4.32796 16.6392 4.30191 16.7136 4.27604C16.7253 4.27198 16.7432 4.26528 16.7624 4.25533C16.7699 4.25142 16.8266 4.22393 16.8662 4.16113C16.8914 4.12121 16.9165 4.0555 16.9007 3.97608C16.8857 3.90072 16.8417 3.85353 16.8137 3.83021C16.7656 3.79017 16.7143 3.77803 16.7037 3.77537C16.6458 3.76081 16.5608 3.75898 16.476 3.75898V4.25898ZM15.2365 3.75459C15.3788 3.84815 15.5679 3.9729 15.7746 4.07322C15.9798 4.17282 16.223 4.25898 16.476 4.25898V3.75898C16.3314 3.75898 16.1675 3.70814 15.9929 3.62342C15.8199 3.53941 15.6568 3.43253 15.5112 3.33683L15.2365 3.75459ZM15.0069 3.61434C15.0398 3.62701 15.1071 3.66947 15.2365 3.75459L15.5112 3.33683C15.407 3.26827 15.2831 3.185 15.187 3.1479L15.0069 3.61434ZM15.3462 3.02713C15.2385 2.90887 15.0945 2.9225 15.0257 2.94164C14.9499 2.96274 14.8781 3.00895 14.8268 3.07234C14.7748 3.13675 14.7205 3.25333 14.7679 3.38854C14.8124 3.51555 14.9209 3.5811 15.0069 3.61434L15.187 3.1479C15.1615 3.13804 15.2141 3.15001 15.2397 3.22307C15.2682 3.30434 15.2319 3.36664 15.2158 3.38655C15.2005 3.40546 15.1826 3.41698 15.1597 3.42335C15.1439 3.42775 15.0519 3.44661 14.9764 3.36367L15.3462 3.02713ZM15.3716 3.50489C15.3995 3.51846 15.379 3.51208 15.3529 3.48715C15.3447 3.47931 15.323 3.45763 15.3053 3.42236C15.2866 3.385 15.262 3.30879 15.2969 3.22106C15.3298 3.13823 15.394 3.10131 15.4233 3.08796C15.4541 3.07394 15.4801 3.07002 15.4903 3.06869C15.5233 3.06447 15.5428 3.07009 15.5233 3.06684C15.514 3.0653 15.4989 3.06219 15.4791 3.05722C15.4394 3.04725 15.3931 3.03296 15.3559 3.01857C15.3372 3.01131 15.3247 3.00558 15.3182 3.00212C15.3056 2.99548 15.3237 3.00248 15.3462 3.02713L14.9764 3.36367C15.0149 3.40598 15.0612 3.43183 15.0848 3.44428C15.1144 3.45992 15.1461 3.47353 15.1756 3.48491C15.2348 3.50779 15.3009 3.528 15.3574 3.54218C15.3857 3.54928 15.4147 3.55567 15.4414 3.5601C15.4578 3.56282 15.5053 3.57088 15.554 3.56463C15.5682 3.5628 15.5974 3.55809 15.6305 3.54299C15.6622 3.52856 15.728 3.49026 15.7615 3.40575C15.7971 3.31634 15.7723 3.23814 15.7524 3.19846C15.7336 3.16088 15.7098 3.13656 15.6984 3.12574C15.6599 3.08891 15.6108 3.06521 15.59 3.05511L15.3716 3.50489ZM14.8957 3.08529C14.9631 3.17669 15.118 3.38175 15.3716 3.50489L15.59 3.05511C15.4536 2.98889 15.3595 2.8717 15.2982 2.78863L14.8957 3.08529ZM15.3252 2.66937C15.2854 2.63482 15.2273 2.59647 15.1529 2.58314C15.0725 2.56872 14.9601 2.58516 14.8819 2.68076C14.8116 2.76662 14.8119 2.86502 14.8231 2.92435C14.8349 2.98751 14.8638 3.04192 14.8957 3.08529L15.2982 2.78863C15.2987 2.78927 15.3011 2.79269 15.3042 2.79918C15.3072 2.80548 15.3116 2.8165 15.3145 2.83202C15.3193 2.85766 15.3249 2.92894 15.2688 2.99741C15.2048 3.07563 15.1157 3.08443 15.0647 3.0753C15.0198 3.06725 14.9976 3.04713 14.9974 3.04691L15.3252 2.66937ZM15.6054 3.12475C15.7245 2.90499 15.7245 2.90499 15.7245 2.90499C15.7245 2.90499 15.7245 2.90499 15.7245 2.90499C15.7245 2.90499 15.7245 2.90498 15.7245 2.90498C15.7245 2.90496 15.7244 2.90493 15.7244 2.9049C15.7242 2.90482 15.724 2.90469 15.7237 2.90452C15.7231 2.90418 15.7221 2.90366 15.7208 2.90296C15.7183 2.90157 15.7145 2.89949 15.7095 2.89681C15.6997 2.89143 15.6855 2.88363 15.6682 2.87404C15.6335 2.85481 15.5866 2.82859 15.5375 2.8004C15.4881 2.77204 15.4379 2.7425 15.3961 2.71651C15.3752 2.7035 15.3577 2.69217 15.3441 2.68286C15.329 2.67257 15.3241 2.66839 15.3252 2.66937L14.9974 3.04691C15.0342 3.07892 15.0882 3.11381 15.132 3.14103C15.1809 3.17147 15.2368 3.2043 15.2885 3.23401C15.3405 3.26388 15.3898 3.29143 15.426 3.31147C15.4441 3.3215 15.4591 3.3297 15.4695 3.33542C15.4747 3.33828 15.4788 3.34052 15.4817 3.34206C15.4831 3.34283 15.4842 3.34343 15.4849 3.34384C15.4853 3.34405 15.4856 3.34421 15.4858 3.34432C15.4859 3.34438 15.486 3.34442 15.4861 3.34446C15.4861 3.34447 15.4861 3.34449 15.4861 3.3445C15.4862 3.3445 15.4862 3.34451 15.4862 3.34451C15.4862 3.34451 15.4862 3.34452 15.6054 3.12475ZM15.0339 2.75927C15.121 2.92463 15.2188 3.05898 15.2945 3.15196C15.3326 3.19869 15.3656 3.23561 15.3897 3.26142C15.4018 3.27435 15.4116 3.28454 15.4188 3.29184C15.4225 3.29549 15.4254 3.29842 15.4276 3.30061C15.4287 3.30171 15.4297 3.30262 15.4304 3.30334C15.4308 3.3037 15.4311 3.30402 15.4314 3.30429C15.4315 3.30442 15.4316 3.30454 15.4318 3.30465C15.4318 3.30471 15.4319 3.30476 15.4319 3.30481C15.432 3.30484 15.432 3.30487 15.432 3.30488C15.432 3.30492 15.4321 3.30495 15.6054 3.12475C15.7786 2.94455 15.7787 2.94459 15.7787 2.94462C15.7787 2.94463 15.7788 2.94466 15.7788 2.94468C15.7788 2.94471 15.7789 2.94475 15.7789 2.94478C15.779 2.94485 15.779 2.9449 15.7791 2.94494C15.7791 2.94503 15.7792 2.94507 15.7792 2.94507C15.7792 2.94506 15.779 2.94489 15.7786 2.94453C15.7779 2.94383 15.7765 2.94244 15.7745 2.94038C15.7704 2.93626 15.7638 2.92948 15.7552 2.9202C15.7378 2.90161 15.7123 2.87319 15.6822 2.83619C15.6215 2.76173 15.5441 2.65507 15.4762 2.5262L15.0339 2.75927ZM15.8363 2.45108C15.7573 2.38487 15.6732 2.3283 15.5919 2.28585C15.5148 2.2456 15.4232 2.20907 15.332 2.20013C15.2863 2.19565 15.2218 2.19614 15.1552 2.22341C15.0801 2.25417 15.015 2.31467 14.9833 2.40134C14.955 2.47846 14.9621 2.55209 14.9739 2.60439C14.9862 2.65854 15.0083 2.71081 15.0339 2.75927L15.4762 2.5262C15.463 2.5011 15.4609 2.49124 15.4615 2.49387C15.4617 2.49464 15.4696 2.52734 15.4528 2.57328C15.4325 2.62876 15.3893 2.66784 15.3448 2.68609C15.3087 2.70085 15.2833 2.69774 15.2832 2.69774C15.2809 2.69751 15.2871 2.69796 15.3028 2.70344C15.3178 2.70865 15.3372 2.71695 15.3604 2.72908C15.4071 2.75346 15.4614 2.78931 15.5153 2.83438L15.8363 2.45108ZM16.3411 2.68825C16.258 2.67977 16.0582 2.63691 15.8363 2.45108L15.5153 2.83438C15.8248 3.09368 16.1232 3.16859 16.2903 3.18566L16.3411 2.68825ZM15.8283 2.86121C15.9437 2.92539 16.0551 2.99565 16.1189 3.04403C16.1343 3.05577 16.1437 3.06373 16.1483 3.06797C16.1569 3.07601 16.1436 3.06586 16.1291 3.04106C16.1224 3.02954 16.1016 2.99195 16.0992 2.93679C16.0962 2.86662 16.1248 2.79072 16.1885 2.73914C16.2387 2.69852 16.2891 2.69093 16.305 2.68902C16.3251 2.68661 16.3388 2.68802 16.3411 2.68825L16.2903 3.18566C16.3082 3.1875 16.3346 3.18906 16.3647 3.18545C16.3906 3.18233 16.4482 3.17221 16.503 3.12782C16.5714 3.07247 16.6021 2.99156 16.5988 2.91526C16.5961 2.85399 16.5727 2.80914 16.5612 2.78937C16.5371 2.74804 16.5054 2.71732 16.4885 2.70161C16.4675 2.68211 16.4441 2.66315 16.4211 2.64569C16.3308 2.57723 16.1967 2.49399 16.0714 2.42426L15.8283 2.86121ZM16.1291 2.04654C16.0887 2.005 16.0295 1.95756 15.9501 1.93669C15.8595 1.91289 15.7653 1.93021 15.69 1.98529C15.6238 2.03362 15.5892 2.09807 15.571 2.14568C15.5519 2.19576 15.5431 2.24741 15.5402 2.29463C15.5301 2.46114 15.5924 2.72996 15.8283 2.86121L16.0714 2.42426C16.0711 2.42411 16.0691 2.42297 16.0655 2.41874C16.0618 2.41424 16.0569 2.40675 16.0522 2.39563C16.0419 2.37147 16.0382 2.34371 16.0393 2.32489C16.0399 2.31578 16.0411 2.31617 16.0381 2.32406C16.0361 2.32947 16.0236 2.36078 15.985 2.38899C15.9371 2.42395 15.8759 2.43418 15.823 2.42027C15.7812 2.4093 15.7645 2.38876 15.7706 2.39508L16.1291 2.04654ZM17.0496 2.46482C16.8241 2.37149 16.6016 2.27941 16.4234 2.19845C16.3343 2.15794 16.2601 2.12194 16.2042 2.09145C16.1402 2.05657 16.1242 2.04148 16.1291 2.04654L15.7706 2.39508C15.8239 2.44994 15.9015 2.49591 15.9648 2.53043C16.0362 2.56934 16.1229 2.61106 16.2166 2.65365C16.4042 2.7389 16.6354 2.83453 16.8585 2.92683L17.0496 2.46482ZM18.0408 2.93509C17.9913 2.89262 17.9243 2.85425 17.8636 2.82241C17.7979 2.78795 17.7193 2.75083 17.6342 2.71262C17.4639 2.63621 17.2554 2.54997 17.0496 2.46482L16.8585 2.92683C17.0664 3.01287 17.2674 3.09604 17.4294 3.16877C17.5104 3.20514 17.5786 3.23752 17.6313 3.26518C17.6576 3.27898 17.6782 3.29065 17.6937 3.30019C17.7102 3.31038 17.7158 3.3151 17.715 3.31441L18.0408 2.93509ZM17.5434 2.92947C17.627 3.06246 17.6927 3.16785 17.7185 3.22157C17.7253 3.23577 17.7213 3.23027 17.7173 3.21352C17.7159 3.20741 17.708 3.17504 17.7145 3.13145C17.7223 3.07931 17.7578 2.9859 17.8636 2.94298C17.945 2.90995 18.0129 2.9322 18.0266 2.93675C18.0482 2.94397 18.0614 2.95231 18.0626 2.95304C18.0662 2.95526 18.0603 2.95183 18.0408 2.93509L17.715 3.31441C17.7409 3.33665 17.7701 3.36007 17.7999 3.37843C17.8141 3.38724 17.8381 3.40098 17.8685 3.4111C17.8909 3.41856 17.9655 3.44123 18.0516 3.40629C18.162 3.36148 18.2002 3.26386 18.209 3.20537C18.2165 3.15543 18.2077 3.11458 18.2038 3.09804C18.1949 3.06043 18.1794 3.02625 18.1694 3.0054C18.1279 2.91894 18.0414 2.78222 17.9668 2.66341L17.5434 2.92947ZM17.4462 2.77357C17.4777 2.82481 17.5112 2.87821 17.5434 2.92947L17.9668 2.66341C17.9343 2.61171 17.9021 2.56054 17.8722 2.51189L17.4462 2.77357ZM18.5613 2.66004C18.3258 2.55165 18.0882 2.44204 17.9231 2.38263C17.8808 2.36741 17.8383 2.35366 17.7986 2.34387C17.7643 2.33539 17.7104 2.32416 17.6536 2.32834C17.6246 2.33047 17.5748 2.33786 17.5236 2.36872C17.4642 2.4045 17.4172 2.46392 17.3999 2.53931C17.3849 2.60482 17.3975 2.66026 17.4077 2.69179C17.4185 2.72513 17.4336 2.75303 17.4462 2.77357L17.8722 2.51189C17.8724 2.5121 17.8737 2.51421 17.8755 2.51803C17.8773 2.52174 17.8804 2.5285 17.8835 2.53793C17.8885 2.55362 17.8999 2.59591 17.8873 2.65079C17.8725 2.71556 17.8315 2.76689 17.7817 2.79693C17.7401 2.82204 17.7031 2.82605 17.6903 2.82699C17.6659 2.82879 17.6571 2.82395 17.6789 2.82932C17.6953 2.83338 17.7199 2.84092 17.7539 2.85312C17.8937 2.90341 18.1074 3.00152 18.3523 3.11424L18.5613 2.66004ZM19.4733 3.03816C19.269 2.98465 18.9178 2.82413 18.5613 2.66004L18.3523 3.11424C18.6877 3.26861 19.0887 3.45431 19.3466 3.52184L19.4733 3.03816ZM20.0319 3.21926C19.845 3.15363 19.6444 3.08298 19.4733 3.03816L19.3466 3.52184C19.4938 3.5604 19.6733 3.62326 19.8662 3.69102L20.0319 3.21926ZM20.6353 3.57055C20.6353 3.54937 20.6424 3.50749 20.6764 3.46869C20.7076 3.4332 20.7407 3.42396 20.7476 3.42234C20.7521 3.42129 20.7242 3.42583 20.6417 3.4094C20.4876 3.3787 20.2729 3.30391 20.0319 3.21926L19.8662 3.69102C20.0938 3.77095 20.3472 3.86055 20.5441 3.89977C20.6371 3.91829 20.7554 3.93417 20.8622 3.90904C20.9203 3.89538 20.9936 3.86524 21.0522 3.79853C21.1137 3.72851 21.1353 3.64508 21.1353 3.57055H20.6353ZM21.6919 2.40642C21.4172 2.50126 21.1621 2.68382 20.9751 2.88222C20.8808 2.98229 20.7987 3.09173 20.739 3.20357C20.6807 3.31269 20.6353 3.43971 20.6353 3.57055H21.1353C21.1353 3.55145 21.1435 3.50735 21.18 3.43919C21.2149 3.37373 21.2687 3.29972 21.339 3.22516C21.4812 3.07429 21.6702 2.94288 21.8551 2.87904L21.6919 2.40642ZM22.5136 2.53929C22.4335 2.48624 22.322 2.40964 22.1831 2.3728C22.0327 2.33295 21.874 2.34357 21.6919 2.40642L21.8551 2.87904C21.9647 2.84119 22.0205 2.84697 22.0549 2.85611C22.1008 2.86827 22.1444 2.89449 22.2373 2.95605L22.5136 2.53929ZM22.8198 2.69822C22.6977 2.66028 22.6124 2.6048 22.5136 2.53929L22.2373 2.95605C22.3375 3.02249 22.4748 3.1146 22.6714 3.17569L22.8198 2.69822ZM22.3265 5.82487C22.0766 5.83266 22.0766 5.83265 22.0766 5.83264C22.0766 5.83264 22.0766 5.83264 22.0766 5.83264C22.0766 5.83265 22.0766 5.83268 22.0766 5.83271C22.0766 5.83278 22.0766 5.83291 22.0766 5.83309C22.0767 5.83345 22.0767 5.83403 22.0767 5.83481C22.0767 5.83638 22.0768 5.83878 22.0769 5.84194C22.0771 5.84828 22.0773 5.85771 22.0776 5.86978C22.0782 5.89394 22.0788 5.92862 22.0793 5.9703C22.0804 6.05396 22.0806 6.16445 22.0778 6.27405C22.0749 6.38578 22.069 6.4882 22.0591 6.55917C22.0538 6.59695 22.0493 6.61136 22.0495 6.61077C22.05 6.60951 22.0517 6.605 22.0551 6.59842C22.0583 6.59215 22.0649 6.58059 22.076 6.56706C22.0972 6.54138 22.1553 6.48611 22.2512 6.48611V6.98611C22.36 6.98611 22.4301 6.92373 22.4622 6.8847C22.4933 6.84683 22.51 6.80724 22.5189 6.78315C22.5374 6.73273 22.5476 6.67595 22.5543 6.6283C22.5682 6.52841 22.5747 6.40302 22.5777 6.28693C22.5807 6.16873 22.5804 6.05141 22.5793 5.96421C22.5788 5.92046 22.5781 5.88395 22.5775 5.85828C22.5772 5.84543 22.5769 5.83528 22.5767 5.82827C22.5766 5.82477 22.5765 5.82205 22.5765 5.82016C22.5765 5.81922 22.5764 5.81849 22.5764 5.81798C22.5764 5.81772 22.5764 5.81752 22.5764 5.81737C22.5764 5.8173 22.5764 5.81724 22.5764 5.81719C22.5764 5.81717 22.5764 5.81714 22.5764 5.81713C22.5764 5.81711 22.5764 5.81709 22.3265 5.82487ZM22.8827 6.62547C22.8827 6.52301 22.8525 6.4111 22.8221 6.31953C22.7897 6.22197 22.7477 6.12092 22.7075 6.03181C22.6671 5.94207 22.6269 5.86083 22.597 5.80219C22.5819 5.77277 22.5693 5.7488 22.5604 5.73202C22.556 5.72362 22.5524 5.71701 22.5499 5.71239C22.5487 5.71009 22.5477 5.70828 22.547 5.70699C22.5466 5.70635 22.5464 5.70584 22.5462 5.70546C22.546 5.70527 22.546 5.70512 22.5459 5.705C22.5459 5.70494 22.5458 5.70489 22.5458 5.70484C22.5458 5.70482 22.5458 5.7048 22.5458 5.70478C22.5458 5.70476 22.5458 5.70474 22.3265 5.82487C22.1073 5.94501 22.1073 5.94499 22.1073 5.94498C22.1073 5.94498 22.1072 5.94496 22.1072 5.94496C22.1072 5.94495 22.1072 5.94495 22.1072 5.94495C22.1072 5.94497 22.1073 5.94502 22.1073 5.9451C22.1074 5.94526 22.1076 5.94556 22.1078 5.94598C22.1083 5.94682 22.109 5.94818 22.11 5.95002C22.112 5.95371 22.115 5.95934 22.1189 5.96669C22.1267 5.98141 22.1381 6.00299 22.1517 6.02974C22.1792 6.08343 22.2155 6.157 22.2517 6.23718C22.2881 6.318 22.3226 6.40198 22.3476 6.4772C22.3746 6.55841 22.3827 6.60703 22.3827 6.62547H22.8827ZM22.8753 6.77796C22.8761 6.78594 22.8757 6.79057 22.8758 6.78743C22.8761 6.78226 22.8765 6.77734 22.8778 6.76084C22.88 6.73063 22.8827 6.68842 22.8827 6.62547H22.3827C22.3827 6.67254 22.3808 6.70175 22.3792 6.72338C22.3785 6.7328 22.3771 6.74891 22.3764 6.76226C22.3757 6.77763 22.3752 6.79827 22.3773 6.82212L22.8753 6.77796ZM22.9527 6.93811C22.9127 6.84879 22.8927 6.80646 22.8786 6.77363C22.8652 6.74245 22.8733 6.75479 22.8753 6.77796L22.3773 6.82212C22.3827 6.8833 22.4028 6.93289 22.4191 6.9709C22.4347 7.00726 22.4621 7.06605 22.4964 7.14252L22.9527 6.93811ZM22.5279 7.3757C22.5579 7.38664 22.5986 7.40174 22.6345 7.41134C22.6529 7.41627 22.6806 7.42277 22.7124 7.42483C22.7411 7.4267 22.7999 7.42699 22.8623 7.39507C22.9373 7.35677 22.9827 7.29047 23.0005 7.22251C23.0153 7.16601 23.0091 7.11669 23.0044 7.09009C22.9947 7.0364 22.9723 6.98193 22.9527 6.93811L22.4964 7.14252C22.5145 7.18298 22.5142 7.18944 22.5122 7.17818C22.5112 7.17279 22.5052 7.14006 22.5167 7.09614C22.5312 7.04075 22.5699 6.98301 22.6348 6.94985C22.6872 6.92308 22.7325 6.92509 22.7448 6.92589C22.76 6.92687 22.7681 6.9295 22.7638 6.92835C22.7542 6.92579 22.7375 6.91994 22.6993 6.90599L22.5279 7.3757ZM22.1367 7.29031C22.2897 7.29031 22.4187 7.33585 22.5279 7.3757L22.6993 6.90599C22.5889 6.86573 22.3864 6.79031 22.1367 6.79031V7.29031ZM22.2512 6.48611C22.1905 6.48611 22.1365 6.50498 22.1084 6.51577C22.0731 6.52933 22.0372 6.54683 22.0038 6.56557C21.9396 6.60154 21.8633 6.65393 21.8043 6.71622C21.7758 6.74622 21.7374 6.79293 21.7138 6.85425C21.688 6.92124 21.6739 7.02747 21.7399 7.12905C21.7977 7.21788 21.8859 7.25309 21.9417 7.26836C22.0022 7.28493 22.0691 7.29031 22.1367 7.29031V6.79031C22.1153 6.79031 22.0994 6.7894 22.0883 6.78824C22.077 6.78706 22.0728 6.78585 22.0738 6.78612C22.0743 6.78628 22.0848 6.78909 22.0999 6.79819C22.1155 6.8076 22.139 6.82565 22.1591 6.85651C22.2066 6.92958 22.1925 7.00253 22.1804 7.03388C22.1706 7.05954 22.1595 7.06823 22.1671 7.06021C22.1802 7.04644 22.2107 7.02278 22.2483 7.00171C22.2657 6.99194 22.2795 6.98568 22.2875 6.9826C22.2914 6.98108 22.2915 6.98131 22.2881 6.98216C22.2862 6.98262 22.2725 6.98611 22.2512 6.98611V6.48611Z" fill="white"/>
<rect x="1" y="1" width="28" height="18" stroke="white"/>
</g>
</svg>
