<svg width="30" height="20" viewBox="0 0 30 20" fill="none" xmlns="http://www.w3.org/2000/svg">
<mask id="mask0_523_16586" style="mask-type:luminance" maskUnits="userSpaceOnUse" x="0" y="0" width="30" height="20">
<rect x="0.5" y="0.5" width="29" height="19" fill="white"/>
</mask>
<g mask="url(#mask0_523_16586)">
<mask id="mask1_523_16586" style="mask-type:luminance" maskUnits="userSpaceOnUse" x="0" y="-2" width="30" height="23">
<rect x="0.5" y="-1.17627" width="29" height="21.7941" fill="white"/>
</mask>
<g mask="url(#mask1_523_16586)">
<path d="M0.5 6.9043H-0.5V7.9043V11.5367V12.5367H0.5H29.5H30.5V11.5367V7.9043V6.9043H29.5H0.5Z" stroke="white" stroke-width="2"/>
<path d="M0.5 -0.617676V-1.11768H0V-0.617676H0.5ZM0.5 3.29409H0V3.79409H0.5V3.29409ZM30.0577 -0.617676H30.5577V-1.11768H30.0577V-0.617676ZM30.0577 3.29409V3.79409H30.5577V3.29409H30.0577ZM0.5 16.7059V16.2059H0V16.7059H0.5ZM0.5 20.6176H0V21.1176H0.5V20.6176ZM30.0577 16.7059H30.5577V16.2059H30.0577V16.7059ZM30.0577 20.6176V21.1176H30.5577V20.6176H30.0577ZM0 -0.617676V3.29409H1V-0.617676H0ZM30.0577 -1.11768H0.5V-0.117676H30.0577V-1.11768ZM30.5577 3.29409V-0.617676H29.5577V3.29409H30.5577ZM0.5 3.79409H30.0577V2.79409H0.5V3.79409ZM0 16.7059V20.6176H1V16.7059H0ZM30.0577 16.2059H0.5V17.2059H30.0577V16.2059ZM30.5577 20.6176V16.7059H29.5577V20.6176H30.5577ZM0.5 21.1176H30.0577V20.1176H0.5V21.1176Z" fill="white"/>
<path d="M1.09774 -1.97796L-0.5 -3.16923V-1.17627V20.6178V22.5811L1.088 21.4267L15.8882 10.6676L16.9869 9.86897L15.898 9.05709L1.09774 -1.97796Z" fill="#1E1E1E" stroke="white" stroke-width="2"/>
<path fill-rule="evenodd" clip-rule="evenodd" d="M7.27735 11.7897L3.85269 14.5598L5.42356 10.8578L2.72437 8.25324H5.91038L7.21773 5.1123L8.60627 8.25324H11.7869L8.94509 10.8578L10.3673 14.5598L7.27735 11.7897Z" stroke="white"/>
<path fill-rule="evenodd" clip-rule="evenodd" d="M5.04724 6.47133C5.04724 6.47133 4.99753 6.35124 5.29099 6.24504C5.58445 6.13885 5.67397 5.91384 5.90402 6.07944C6.13407 6.24504 6.27798 5.9121 6.34399 6.38963C6.41 6.86716 6.59192 7.62017 6.59192 7.62017L9.57129 9.86375H9.01151C9.01151 9.86375 8.13984 11.147 8.28376 12.273C8.28376 12.273 7.68233 12.1814 6.86715 12.1814C6.05197 12.1814 5.51805 12.3771 5.51805 12.3771L5.04724 10.6303C5.04724 10.6303 5.21771 10.3368 5.29099 10.1003C5.36427 9.86375 5.66769 9.82009 5.66769 9.63194C5.66769 9.44379 5.3684 9.28606 5.51805 8.79902C5.66769 8.31198 5.66769 6.85505 5.66769 6.85505C5.66769 6.85505 5.19475 6.64665 5.29099 6.64665C5.38723 6.64665 5.60662 6.47133 5.4488 6.47133C5.29099 6.47133 5.04724 6.47133 5.04724 6.47133Z" fill="#1E1E1E"/>
<path d="M6.59192 7.62017L6.47042 7.64953L6.48094 7.69307L6.51673 7.72002L9.1975 9.73875H9.01151H8.94531L8.90811 9.79351L9.01151 9.86375L8.90807 9.79358L8.908 9.79367L8.90782 9.79394L8.90721 9.79484L8.90507 9.79803L8.89725 9.80985C8.89053 9.8201 8.88084 9.83505 8.86866 9.85433C8.84429 9.8929 8.80992 9.94888 8.76926 10.0194C8.68801 10.1604 8.58123 10.3603 8.47896 10.5965C8.29413 11.0232 8.11788 11.5819 8.14561 12.129C8.07951 12.1212 7.9941 12.1119 7.89246 12.1027C7.6373 12.0795 7.27929 12.0564 6.86715 12.0564C6.44965 12.0564 6.10376 12.1065 5.86146 12.1569C5.75529 12.1789 5.66889 12.2011 5.60493 12.2191L5.18122 10.647C5.18232 10.645 5.18345 10.6429 5.18461 10.6408C5.20229 10.6086 5.22661 10.5632 5.2533 10.5101C5.30602 10.4053 5.37066 10.2655 5.41039 10.1373C5.43323 10.0635 5.49159 10.0159 5.582 9.94783L5.58514 9.94546C5.6247 9.91569 5.67481 9.87799 5.71372 9.83295C5.75684 9.78305 5.79269 9.71714 5.79269 9.63194C5.79269 9.55258 5.76113 9.48444 5.73388 9.43268C5.72226 9.41061 5.71152 9.39151 5.70127 9.37327C5.6836 9.34183 5.66738 9.31297 5.65061 9.27596C5.60576 9.177 5.57256 9.0472 5.63754 8.83573C5.67879 8.70146 5.70776 8.50867 5.72891 8.30256C5.7503 8.09414 5.76446 7.86371 5.77387 7.64989C5.78329 7.43585 5.78799 7.23731 5.79034 7.09233C5.79152 7.01981 5.7921 6.96061 5.7924 6.9195L5.79266 6.87195L5.79269 6.85945L5.79269 6.85621L5.79269 6.85536L5.79269 6.85514V6.85508L5.66769 6.85505H5.79269V6.77353L5.7181 6.74066L5.7181 6.74066L5.71809 6.74066L5.71804 6.74064L5.71782 6.74054L5.71688 6.74012L5.7131 6.73845L5.69858 6.73198L5.64717 6.70876C5.61634 6.69469 5.57881 6.67733 5.54073 6.65915C5.54398 6.6563 5.54717 6.65343 5.55027 6.65055C5.56649 6.63547 5.58365 6.61711 5.59764 6.59609C5.6098 6.57783 5.62959 6.54288 5.62925 6.4978C5.62882 6.43939 5.59549 6.39297 5.55047 6.36877C5.51466 6.34952 5.47632 6.34633 5.4488 6.34633H5.44788H5.44695H5.44602H5.44509H5.44416H5.44322H5.44228H5.44135H5.4404H5.43946H5.43852H5.43757H5.43662H5.43567H5.43472H5.43377H5.43281H5.43186H5.4309H5.42994H5.42897H5.42801H5.42705H5.42608H5.42511H5.42414H5.42317H5.4222H5.42122H5.42024H5.41927H5.41829H5.41731H5.41632H5.41534H5.41436H5.41337H5.41238H5.41139H5.4104H5.40941H5.40841H5.40742H5.40642H5.40543H5.40443H5.40343H5.40242H5.40142H5.40042H5.39941H5.39841H5.3974H5.39639H5.39538H5.39437H5.39336H5.39234H5.39133H5.39031H5.3893H5.38828H5.38726H5.38624H5.38522H5.3842H5.38317H5.38215H5.38112H5.3801H5.37907H5.37804H5.37702H5.37599H5.37528C5.44146 6.31876 5.49713 6.28681 5.5447 6.25694C5.57069 6.24063 5.59157 6.22682 5.61001 6.21463C5.63646 6.19715 5.65786 6.183 5.68203 6.16957C5.71765 6.14976 5.73705 6.14535 5.75098 6.14551C5.76339 6.14566 5.7876 6.14966 5.83099 6.18089C5.9706 6.28139 6.11878 6.25483 6.17252 6.24519C6.17616 6.24454 6.17937 6.24397 6.18211 6.24352C6.19181 6.26394 6.20682 6.31021 6.22017 6.40675C6.25386 6.65049 6.3167 6.96201 6.37054 7.21045C6.39756 7.33513 6.4225 7.44478 6.44069 7.52327L6.46235 7.61572L6.4683 7.64071L6.46986 7.64723L6.47027 7.64892L6.47038 7.64936L6.47041 7.64948L6.47041 7.64951L6.59192 7.62017Z" stroke="white" stroke-width="0.25"/>
</g>
</g>
<rect x="1" y="1" width="28" height="18" stroke="white"/>
</svg>
