<svg width="30" height="20" viewBox="0 0 30 20" fill="none" xmlns="http://www.w3.org/2000/svg">
<rect width="30" height="20" fill="#FFFFFF"/>
<rect y="0" width="30" height="8" fill="#DE3831"/>
<rect y="12" width="30" height="8" fill="#002395"/>
<polygon points="0,0 13,0 13,0 0,0" fill="#DE3831"/>
<polygon points="0,0 0,20 10,10" fill="#000000"/>
<polygon points="0,1 0,19 9,10" fill="#000000"/>
<path d="M0 0 L14 0 L14 7.5 L10.5 10 L14 12.5 L14 20 L0 20 L0 0Z" fill="none"/>
<rect y="7.5" width="30" height="1" fill="#FFFFFF"/>
<rect y="11.5" width="30" height="1" fill="#FFFFFF"/>
<path d="M10.5 10 L30 3.5 L30 0 L13 0 L13 8 Z" fill="#DE3831"/>
<path d="M10.5 10 L30 16.5 L30 20 L13 20 L13 12 Z" fill="#002395"/>
<path d="M0 0 L13.5 0 L13.5 7.8 L10 10 L13.5 12.2 L13.5 20 L0 20 Z" fill="#007749"/>
<polygon points="0,1.5 0,18.5 8.5,10" fill="#000000"/>
<path d="M0 0 L0 2 L9 10 L0 18 L0 20 L10.5 10 Z" fill="#000000"/>
<path d="M0 1 L0 1.5 L8.5 10 L0 18.5 L0 19 L9.5 10 Z" fill="#FFB81C"/>
<rect x="0" y="0" width="30" height="20" stroke="#D0D0D0" stroke-width="0.5" fill="none"/>
</svg>
